<svg width="62" height="35" viewBox="0 0 62 35" fill="none" xmlns="http://www.w3.org/2000/svg">
<path fill-rule="evenodd" clip-rule="evenodd" d="M0.688477 34.1918L12.7471 0.0195312L13.237 0.192386L1.17832 34.3647L0.688477 34.1918Z" fill="black"/>
<path d="M20.749 11.7936L18.9823 6.70713H17.8995L16.1399 11.7936H16.7953L17.3224 10.2334H19.5522L20.0794 11.7936H20.749ZM18.5762 7.36252L19.3527 9.64928H17.5148L18.2913 7.36252H18.5762Z" fill="black"/>
<path d="M24.7991 6.70713H21.3227V11.7936H21.9638V7.29128H24.7991V6.70713Z" fill="black"/>
<path d="M26.1886 9.44982H28.5252V8.86566H26.1886V7.29128H29.088V6.70713H25.5475V11.7936H29.202V11.2094H26.1886V9.44982Z" fill="black"/>
<path d="M33.4645 8.87278H30.6221V6.70713H29.9809V11.7936H30.6221V9.47119H33.4645V11.7936H34.1057V6.70713H33.4645V8.87278Z" fill="black"/>
<path d="M34.6666 6.70713V7.27704H36.3478V11.7936H36.989V7.27704H38.656V6.70713H34.6666Z" fill="black"/>
<path d="M42.546 10.3474C42.375 10.9458 41.912 11.302 41.2067 11.302C40.6439 11.302 40.2236 11.1097 39.9315 10.7179C39.6466 10.3261 39.5041 9.8345 39.5041 9.25035C39.5041 8.67331 39.6466 8.18177 39.9387 7.78995C40.2307 7.39814 40.6511 7.19867 41.2138 7.19867C41.8621 7.19867 42.2895 7.4765 42.489 8.03929H43.1658C42.9663 7.16305 42.2326 6.61452 41.2138 6.61452C40.4801 6.61452 39.903 6.85673 39.4827 7.34827C39.0624 7.83982 38.8558 8.47385 38.8558 9.25035C38.8558 10.0268 39.0624 10.6609 39.4756 11.1524C39.8959 11.644 40.473 11.8862 41.2067 11.8862C42.2895 11.8862 43.0162 11.2806 43.2228 10.3474H42.546Z" fill="black"/>
<path d="M43.4919 6.70713V7.27704H45.1731V11.7936H45.8142V7.27704H47.4812V6.70713H43.4919Z" fill="black"/>
<path d="M51.333 9.02951C51.7034 8.83004 51.8886 8.48809 51.8886 7.99655C51.8886 7.25566 51.2973 6.70713 50.2644 6.70713H48.0489V11.7936H50.3214C51.4327 11.7936 52.0453 11.2094 52.0453 10.3617C52.0453 9.84875 51.7604 9.3857 51.333 9.18623V9.02951ZM50.2359 7.27704C50.8129 7.27704 51.2403 7.51925 51.2403 8.05354C51.2403 8.59495 50.9126 8.86566 50.2501 8.86566H48.69V7.27704H50.2359ZM48.69 11.2237V9.42844H50.2857C50.9483 9.42844 51.3971 9.69203 51.3971 10.3118C51.3971 10.9601 50.934 11.2237 50.2786 11.2237H48.69Z" fill="black"/>
<path d="M54.946 6.61452C54.198 6.61452 53.6138 6.86385 53.1935 7.36252C52.7803 7.85407 52.5737 8.48809 52.5737 9.25035C52.5737 10.0126 52.7803 10.6466 53.1935 11.1453C53.6138 11.6368 54.198 11.8862 54.946 11.8862C55.694 11.8862 56.271 11.6368 56.6913 11.1453C57.1116 10.6466 57.3182 10.0126 57.3182 9.25035C57.3182 8.48809 57.1116 7.85407 56.6913 7.36252C56.271 6.86385 55.694 6.61452 54.946 6.61452ZM53.6566 10.7179C53.3645 10.3261 53.222 9.8345 53.222 9.25035C53.222 8.66619 53.3645 8.18177 53.6566 7.78995C53.9486 7.39814 54.3761 7.19867 54.946 7.19867C55.5159 7.19867 55.9433 7.39814 56.2354 7.78995C56.5275 8.18177 56.67 8.66619 56.67 9.25035C56.67 9.8345 56.5275 10.3261 56.2354 10.7179C55.9433 11.1097 55.5159 11.302 54.946 11.302C54.3761 11.302 53.9486 11.1097 53.6566 10.7179Z" fill="black"/>
<path d="M16.6457 19.6595H17.6501L20.0153 15.3496H20.172V19.6595H20.7989V14.5731H19.7944L17.4293 18.883H17.2726V14.5731H16.6457V19.6595Z" fill="black"/>
<path d="M25.3628 16.7387H22.5204V14.5731H21.8792V19.6595H22.5204V17.3371H25.3628V19.6595H26.0039V14.5731H25.3628V16.7387Z" fill="black"/>
<path d="M30.5685 16.7387H27.7261V14.5731H27.0849V19.6595H27.7261V17.3371H30.5685V19.6595H31.2096V14.5731H30.5685V16.7387Z" fill="black"/>
<path d="M34.4064 14.4805C33.6584 14.4805 33.0743 14.7298 32.654 15.2285C32.2408 15.72 32.0342 16.354 32.0342 17.1163C32.0342 17.8785 32.2408 18.5126 32.654 19.0112C33.0743 19.5028 33.6584 19.7521 34.4064 19.7521C35.1544 19.7521 35.7315 19.5028 36.1518 19.0112C36.5721 18.5126 36.7787 17.8785 36.7787 17.1163C36.7787 16.354 36.5721 15.72 36.1518 15.2285C35.7315 14.7298 35.1544 14.4805 34.4064 14.4805ZM33.117 18.5838C32.8249 18.192 32.6825 17.7004 32.6825 17.1163C32.6825 16.5321 32.8249 16.0477 33.117 15.6559C33.4091 15.2641 33.8365 15.0646 34.4064 15.0646C34.9763 15.0646 35.4038 15.2641 35.6958 15.6559C35.9879 16.0477 36.1304 16.5321 36.1304 17.1163C36.1304 17.7004 35.9879 18.192 35.6958 18.5838C35.4038 18.9756 34.9763 19.168 34.4064 19.168C33.8365 19.168 33.4091 18.9756 33.117 18.5838Z" fill="black"/>
<path d="M40.8918 16.8954C41.2622 16.696 41.4474 16.354 41.4474 15.8625C41.4474 15.1216 40.8561 14.5731 39.8232 14.5731H37.6077V19.6595H39.8802C40.9915 19.6595 41.6041 19.0753 41.6041 18.2276C41.6041 17.7147 41.3192 17.2516 40.8918 17.0522V16.8954ZM39.7947 15.143C40.3717 15.143 40.7991 15.3852 40.7991 15.9195C40.7991 16.4609 40.4715 16.7316 39.8089 16.7316H38.2488V15.143H39.7947ZM38.2488 19.0896V17.2944H39.8446C40.5071 17.2944 40.9559 17.558 40.9559 18.1777C40.9559 18.826 40.4928 19.0896 39.8374 19.0896H38.2488Z" fill="black"/>
<path d="M46.4923 19.6595L44.7256 14.5731H43.6428L41.8832 19.6595H42.5386L43.0658 18.0994H45.2955L45.8227 19.6595H46.4923ZM44.3196 15.2285L45.0961 17.5152H43.2581L44.0346 15.2285H44.3196Z" fill="black"/>
<path d="M51.839 20.9062V19.0753H51.1052V14.5731H50.4641V19.0753H47.7071V14.5731H47.066V19.6595H51.2049V20.9062H51.839Z" fill="black"/>
<path d="M52.4665 19.6595H53.471L55.8361 15.3496H55.9928V19.6595H56.6197V14.5731H55.6152L53.2501 18.883H53.0934V14.5731H52.4665V19.6595Z" fill="black"/>
<path d="M57.7 19.6595H58.7045L61.0696 15.3496H61.2263V19.6595H61.8532V14.5731H60.8488L58.4837 18.883H58.3269V14.5731H57.7V19.6595ZM60.4997 13.2195C60.4926 13.6113 60.2005 13.8607 59.7731 13.8607C59.3528 13.8607 59.0678 13.6113 59.0607 13.2195H58.5406C58.5478 13.9034 59.0607 14.3237 59.7731 14.3237C60.4926 14.3237 61.0126 13.9105 61.0197 13.2195H60.4997Z" fill="black"/>
<path d="M17.2726 27.5254V23.1656H17.4293L18.733 25.5806H19.4026L20.7063 23.1656H20.863V27.5254H21.4899V22.439H20.4142L19.1533 24.8255H18.9966L17.7143 22.439H16.6457V27.5254H17.2726Z" fill="black"/>
<path d="M24.6907 22.3464C23.9427 22.3464 23.3585 22.5957 22.9382 23.0944C22.525 23.5859 22.3184 24.22 22.3184 24.9822C22.3184 25.7445 22.525 26.3785 22.9382 26.8772C23.3585 27.3687 23.9427 27.618 24.6907 27.618C25.4387 27.618 26.0157 27.3687 26.436 26.8772C26.8564 26.3785 27.0629 25.7445 27.0629 24.9822C27.0629 24.22 26.8564 23.5859 26.436 23.0944C26.0157 22.5957 25.4387 22.3464 24.6907 22.3464ZM23.4013 26.4497C23.1092 26.0579 22.9667 25.5664 22.9667 24.9822C22.9667 24.3981 23.1092 23.9136 23.4013 23.5218C23.6934 23.13 24.1208 22.9305 24.6907 22.9305C25.2606 22.9305 25.688 23.13 25.9801 23.5218C26.2722 23.9136 26.4147 24.3981 26.4147 24.9822C26.4147 25.5664 26.2722 26.0579 25.9801 26.4497C25.688 26.8415 25.2606 27.0339 24.6907 27.0339C24.1208 27.0339 23.6934 26.8415 23.4013 26.4497Z" fill="black"/>
<path d="M31.3256 26.0793C31.1547 26.6777 30.6916 27.0339 29.9863 27.0339C29.4236 27.0339 29.0033 26.8415 28.7112 26.4497C28.4262 26.0579 28.2837 25.5664 28.2837 24.9822C28.2837 24.4052 28.4262 23.9136 28.7183 23.5218C29.0104 23.13 29.4307 22.9305 29.9935 22.9305C30.6417 22.9305 31.0692 23.2084 31.2686 23.7712H31.9454C31.7459 22.8949 31.0122 22.3464 29.9935 22.3464C29.2597 22.3464 28.6827 22.5886 28.2624 23.0801C27.8421 23.5717 27.6355 24.2057 27.6355 24.9822C27.6355 25.7587 27.8421 26.3927 28.2552 26.8843C28.6756 27.3758 29.2526 27.618 29.9863 27.618C31.0692 27.618 31.7958 27.0125 32.0024 26.0793H31.3256Z" fill="black"/>
<path d="M33.4327 27.5254V25.1959H34.9714L36.0543 27.5254H36.731L35.5271 24.911L36.6669 22.439H35.9902L34.9714 24.6118H33.4327V22.439H32.7915V27.5254H33.4327Z" fill="black"/>
<path d="M40.6831 24.7614C41.0535 24.5619 41.2387 24.22 41.2387 23.7284C41.2387 22.9875 40.6474 22.439 39.6145 22.439H37.399V27.5254H39.6715C40.7828 27.5254 41.3954 26.9413 41.3954 26.0935C41.3954 25.5806 41.1105 25.1176 40.6831 24.9181V24.7614ZM39.586 23.0089C40.163 23.0089 40.5904 23.2511 40.5904 23.7854C40.5904 24.3268 40.2627 24.5975 39.6002 24.5975H38.0401V23.0089H39.586ZM38.0401 26.9555V25.1603H39.6358C40.2984 25.1603 40.7472 25.4239 40.7472 26.0437C40.7472 26.692 40.2841 26.9555 39.6287 26.9555H38.0401Z" fill="black"/>
<path d="M46.647 27.5254H47.2881V22.439H46.647V27.5254ZM42.8214 26.9555V24.9537H44.0824C44.9016 24.9537 45.3148 25.2885 45.3148 25.9511C45.3148 26.6207 44.9016 26.9555 44.0824 26.9555H42.8214ZM44.1963 27.5254C45.3148 27.5254 45.9631 26.9413 45.9631 25.9511C45.9631 24.9751 45.3148 24.3838 44.1963 24.3838H42.8214V22.439H42.1803V27.5254H44.1963Z" fill="black"/>
</svg>
