<svg width="82" height="15" viewBox="0 0 82 15" fill="none" xmlns="http://www.w3.org/2000/svg">
    <path d="M44.0259 7.47706C44.0259 3.75027 47.0931 0.727812 50.7281 0.727812C54.366 0.727812 57.43 3.75027 57.43 7.47706C57.43 11.2068 54.366 14.227 50.7281 14.227C47.0929 14.227 44.0259 11.2068 44.0259 7.47706ZM50.7279 0C46.6993 0 43.2363 3.3478 43.2363 7.47706C43.2363 11.607 46.6993 14.9549 50.7279 14.9549C54.7598 14.9549 58.2242 11.607 58.2242 7.47706C58.2242 3.3478 54.7598 0 50.7279 0Z" fill="black"/>
    <path d="M22.3932 0.324219H21.5664L28.3634 14.9538H28.4401L35.2371 0.324219H34.4136L30.2731 9.24614L28.4042 13.3785L26.5402 9.24614L22.3932 0.324219Z" fill="black"/>
    <path d="M68.9814 14.548H69.743V7.47706L69.7022 1.8183L81.8612 14.9541H81.9379V0.324521H81.1763V7.47706L81.2171 13.1325L69.0565 0H68.9814V14.548Z" fill="black"/>
    <path d="M3.77684 9.83465L5.73245 5.62288L7.59495 1.48563L9.48696 5.63168L11.4235 9.84118L3.77684 9.83465ZM7.63914 0H7.55614L0.762695 14.5471H1.5908L3.48477 10.4661L11.709 10.4628L13.6079 14.5471H14.4323L7.63914 0Z" fill="black"/>
</svg>
