<svg width="86" height="16" viewBox="0 0 86 16" fill="none" xmlns="http://www.w3.org/2000/svg">
    <path d="M58.0996 12.0103H65.7288V10.3197H60.7005C61.394 7.54549 65.6421 6.93862 65.6421 3.86094C65.6421 2.21373 64.5151 1 62.1309 1C60.6571 1 59.3567 1.43348 58.4897 1.86695L59.0099 3.42747C59.7902 3.03734 60.7005 2.69056 61.8275 2.69056C62.6945 2.69056 63.5181 3.08068 63.5181 4.07768C63.5181 6.33175 58.5331 6.50515 58.0996 12.0103ZM65.9455 9.32274H70.8438V12.0103H72.7944V9.32274H74.4417V7.67553H72.7944V1H71.364L65.9455 8.02231V9.32274ZM68.1563 7.76223L70.9305 4.03433C70.9305 4.33777 70.8438 5.29141 70.8438 6.15836V7.71888H69.5434C69.1532 7.71888 68.4163 7.76223 68.1563 7.76223Z" fill="black"/>
    <path d="M2.70335 10.3627V6.93824H3.52696C4.26387 6.93824 4.87073 7.02494 5.30421 7.28502C5.73768 7.54511 5.99777 7.97859 5.99777 8.67215C5.99777 9.84253 5.30421 10.3627 3.657 10.3627H2.70335ZM0.709363 12.0099H3.61365C6.86472 12.0099 8.03511 10.5794 8.03511 8.58545C8.03511 7.24168 7.47159 6.33138 6.47459 5.8112C5.69434 5.37773 4.69734 5.24769 3.48361 5.24769H2.70335V2.64683H7.08146L7.60163 1.04297H0.666016V12.0099H0.709363ZM9.37888 12.0099H11.2862L13.757 8.45541C14.2338 7.80519 14.5806 7.15498 14.7973 6.8082H14.8407C14.7973 7.28502 14.754 7.89189 14.754 8.49876V11.9666H16.7046V4.164H14.7973L12.3265 7.7185C11.893 8.36871 11.5029 9.01893 11.2862 9.36571H11.2428C11.2862 8.88889 11.3295 8.28202 11.3295 7.67515V4.20734H9.37888V12.0099ZM20.0424 12.0099H22.0364V5.8112H24.3772L24.8973 4.164H17.6583V5.8112H20.0424V12.0099ZM25.5909 15.9545H27.5415V12.0099C27.9317 12.14 28.3218 12.1833 28.7553 12.1833C31.2261 12.1833 32.8299 10.4927 32.8299 8.06528C32.8299 5.55112 31.3561 3.94726 28.5385 3.94726C27.4548 3.94726 26.4145 4.164 25.5475 4.42408V15.9545H25.5909ZM27.5415 10.3194V5.72451C27.845 5.63781 28.105 5.59447 28.4518 5.59447C29.8823 5.59447 30.7926 6.37472 30.7926 8.06528C30.7926 9.58245 30.0557 10.5361 28.5819 10.5361C28.1917 10.5361 27.8883 10.4494 27.5415 10.3194ZM34.0003 12.0099H35.9076L38.3784 8.45541C38.8553 7.80519 39.202 7.15498 39.4188 6.8082H39.4621C39.4188 7.28502 39.3754 7.89189 39.3754 8.49876V11.9666H41.3261V4.164H39.4188L36.948 7.7185C36.5145 8.36871 36.1244 9.01893 35.9076 9.36571H35.8643C35.9076 8.88889 35.951 8.28202 35.951 7.67515V4.20734H34.0003V12.0099ZM42.8866 12.0099H44.8806V8.75884H46.051C46.2677 8.75884 46.4844 8.97558 46.7445 9.49575L47.7415 12.0099H49.8655L48.4351 9.01893C48.175 8.49876 47.9149 8.19532 47.5248 8.06528V8.02193C48.175 7.6318 48.2617 6.50477 48.6518 5.94125C48.7818 5.76786 48.9552 5.68116 49.2153 5.68116C49.3454 5.68116 49.5188 5.68116 49.6488 5.76786V4.0773C49.4321 3.99061 49.0419 3.94726 48.8252 3.94726C48.1316 3.94726 47.6982 4.20734 47.3947 4.64082C46.7445 5.59447 46.7445 7.24168 45.7909 7.24168H44.8806V4.164H42.8866V12.0099ZM54.287 12.1833C55.3707 12.1833 56.3677 11.8365 56.9745 11.403L56.411 10.0593C55.8475 10.3627 55.3273 10.5794 54.5904 10.5794C53.2467 10.5794 52.3797 9.71249 52.3797 8.10863C52.3797 6.67816 53.2467 5.55112 54.7205 5.55112C55.5007 5.55112 56.0643 5.76786 56.6278 6.15799V4.46743C56.1943 4.20734 55.5007 3.94726 54.5037 3.94726C52.163 3.94726 50.3424 5.68116 50.3424 8.15198C50.3424 10.4061 51.7295 12.1833 54.287 12.1833Z" fill="black"/>
    <path d="M80.9048 9.32134C83.0288 9.32134 84.7627 7.58744 84.7627 5.4634C84.7627 3.33937 83.0288 1.60547 80.9048 1.60547C78.7808 1.60547 77.0469 3.33937 77.0469 5.4634C77.0902 7.58744 78.7808 9.32134 80.9048 9.32134Z" stroke="black" stroke-width="1.32261"/>
    <path d="M83.3311 5.46388H81.2071V3.33984H80.6436V6.02739H83.3311V5.46388Z" fill="black"/>
</svg>
