<svg width="56" height="23" viewBox="0 0 56 23" fill="none" xmlns="http://www.w3.org/2000/svg">
    <path fill-rule="evenodd" clip-rule="evenodd" d="M0.892578 1.86937C0.892578 0.836942 1.79014 0 2.89733 0H25.6178C26.725 0 27.6226 0.836942 27.6226 1.86937V20.563C27.6226 21.5955 26.725 22.4324 25.6178 22.4324H2.89733C1.79014 22.4324 0.892578 21.5955 0.892578 20.563V1.86937ZM6.91211 5.23438H9.0661V17.4476H6.91211V5.23438ZM16.5183 17.6744C17.9792 17.6744 19.1717 17.2905 20.0958 16.5229C21.0198 15.7436 21.4818 14.7025 21.4818 13.3998V5.23438H19.3278V13.2776C19.3278 14.022 19.0906 14.6153 18.6161 15.0573C18.1541 15.4993 17.4548 15.7203 16.5183 15.7203C15.5817 15.7203 14.8762 15.4993 14.4017 15.0573C13.9397 14.6153 13.7087 14.022 13.7087 13.2776V5.23438H11.5547V13.3998C11.5547 14.7025 12.0167 15.7436 12.9407 16.5229C13.8648 17.2905 15.0573 17.6744 16.5183 17.6744Z" fill="black"/>
    <path d="M31.8462 17.2723C31.5718 17.5282 31.2412 17.6562 30.8545 17.6562C30.4678 17.6562 30.1372 17.5282 29.8628 17.2723C29.5884 17.0165 29.4512 16.7082 29.4512 16.3476C29.4512 15.9871 29.5822 15.6788 29.8441 15.4229C30.1186 15.167 30.4553 15.0391 30.8545 15.0391C31.2412 15.0391 31.5718 15.167 31.8462 15.4229C32.1206 15.6788 32.2578 15.9871 32.2578 16.3476C32.2578 16.7082 32.1206 17.0165 31.8462 17.2723Z" fill="black"/>
    <path d="M42.0048 17.4476L39.2355 12.9985H36.6908V17.4476H34.5391V5.23438H39.7782C40.9507 5.23438 41.9424 5.61822 42.7532 6.3859C43.5765 7.14198 43.9881 8.06669 43.9881 9.16004C43.9881 9.93934 43.7449 10.6547 43.2584 11.3061C42.7844 11.9458 42.1607 12.4111 41.3873 12.7019L44.3623 17.4476H42.0048ZM36.6908 7.1187V11.2014H39.7782C40.352 11.2014 40.8385 11.0036 41.2376 10.6082C41.6368 10.2127 41.8363 9.72997 41.8363 9.16004C41.8363 8.59011 41.6368 8.10737 41.2376 7.71191C40.8385 7.31645 40.352 7.1187 39.7782 7.1187H36.6908Z" fill="black"/>
    <path d="M54.3064 16.5229C53.3836 17.2905 52.1923 17.6744 50.7329 17.6744C49.2734 17.6744 48.0821 17.2905 47.159 16.5229C46.236 15.7436 45.7744 14.7025 45.7744 13.3998V5.23438H47.9262V13.2776C47.9262 14.022 48.157 14.6153 48.6185 15.0573C49.0925 15.4993 49.7973 15.7203 50.7329 15.7203C51.6684 15.7203 52.367 15.4993 52.8285 15.0573C53.3025 14.6153 53.5395 14.022 53.5395 13.2776V5.23438H55.6913V13.3998C55.6913 14.7025 55.2295 15.7436 54.3064 16.5229Z" fill="black"/>
</svg>
