<svg width="80" height="15" viewBox="0 0 80 15" fill="none" xmlns="http://www.w3.org/2000/svg">
    <path d="M42.4316 12.4461V2.50781H48.6042V4.81612H45.0055V12.4461H42.4316Z" fill="black"/>
    <path d="M56.3711 12.4461V8.5538H52.5474V12.4461H49.9736V2.50781H52.5474V6.21672H56.3711V2.50781H58.9449V12.4461H56.3711Z" fill="black"/>
    <path d="M73.8821 12.4461V4.81612H70.876V2.50781H79.4782V4.81612H76.4572V12.4461H73.8821Z" fill="black"/>
    <path d="M67.0891 12.4434V6.78079L62.992 12.4434H60.8398V2.50781H63.4137V8.11152L67.442 2.50781H69.6643V12.4434H67.0891Z" fill="black"/>
    <path d="M27.642 12.4461V6.53983L25.0722 9.66005L22.5025 6.53983V12.4461H19.9287V2.50781H22.4688L25.0722 5.92509L27.6757 2.50781H30.2158V12.4461H27.642Z" fill="black"/>
    <path d="M35.1016 8.95082H37.4936L36.2976 5.83473L35.1016 8.95082ZM38.8351 12.4448L38.2964 11.0524H34.2949L33.7561 12.4448H31.1689L35.1273 2.50781H37.5071L41.4668 12.4448H38.8351Z" fill="black"/>
    <path d="M0 4.52763C0.00249208 3.32737 0.472734 2.17702 1.30777 1.32843C2.1428 0.47984 3.27458 0.0021704 4.45531 0H14.7411V2.30146H4.45801C3.87783 2.30398 3.32211 2.53929 2.91174 2.9562C2.50137 3.37309 2.26955 3.93786 2.26672 4.52763L2.25324 8.39126C2.2063 8.88626 1.9994 9.35151 1.66485 9.71443C1.3303 10.0773 0.886958 10.3173 0.404049 10.397L0 10.46V4.52763Z" fill="black"/>
    <path d="M0 14.9561V12.6546H10.2857C10.8661 12.6517 11.4218 12.4161 11.8321 11.999C12.2424 11.5818 12.4742 11.0169 12.477 10.4271V6.76059C12.4799 6.22866 12.6687 5.71507 13.0096 5.31154C13.3506 4.90802 13.8215 4.64083 14.3383 4.55771L14.7424 4.49609V10.4271C14.7399 11.6275 14.2697 12.778 13.4347 13.6268C12.5997 14.4756 11.4679 14.9535 10.2871 14.9561H0Z" fill="black"/>
    <path d="M8.71291 10.4676V7.49251L7.37145 9.12037L6.03136 7.49251V10.4676H4.25488V4.61328H5.93708L7.37145 6.4958L8.80584 4.61328H10.488V10.4676H8.71291Z" fill="black"/>
</svg>