<svg width="60" height="15" viewBox="0 0 60 15" fill="none" xmlns="http://www.w3.org/2000/svg">
    <path fill-rule="evenodd" clip-rule="evenodd" d="M5.83081 0.018764C5.83081 0.0296096 5.7722 0.037528 5.69201 0.037528C5.61181 0.037528 5.5532 0.0454465 5.5532 0.0562921C5.5532 0.0666123 5.52821 0.0750561 5.49767 0.0750561C5.46714 0.0750561 5.44215 0.0834999 5.44215 0.0938201C5.44215 0.10414 5.41716 0.112584 5.38663 0.112584C5.35609 0.112584 5.3311 0.121028 5.3311 0.131348C5.3311 0.141668 5.30662 0.150112 5.27667 0.150112C5.24673 0.150112 5.21709 0.158556 5.2108 0.168876C5.20451 0.179196 5.18345 0.18764 5.164 0.18764C5.14456 0.18764 5.09898 0.204528 5.06274 0.225168C5.0265 0.245809 4.9846 0.262696 4.96964 0.262696C4.95467 0.262696 4.94244 0.27114 4.94244 0.28146C4.94244 0.291781 4.92761 0.300224 4.90951 0.300224C4.89139 0.300224 4.86458 0.317112 4.8499 0.337752C4.83522 0.358393 4.81385 0.37528 4.80239 0.37528C4.76462 0.37528 4.67456 0.429077 4.64685 0.4682C4.63188 0.489329 4.60665 0.506629 4.59079 0.506629C4.57493 0.506629 4.54994 0.523516 4.53527 0.544157C4.52059 0.564797 4.4971 0.581685 4.48307 0.581685C4.46906 0.581685 4.43423 0.607016 4.40571 0.637977C4.37719 0.668937 4.34232 0.694269 4.32826 0.694269C4.31417 0.694269 4.25741 0.74071 4.20213 0.797471C4.14684 0.854232 4.09487 0.900673 4.08667 0.900673C4.06062 0.900673 3.55435 1.41496 3.55435 1.44143C3.55435 1.45536 3.50022 1.51788 3.43405 1.58036C3.36789 1.64285 3.31375 1.7034 3.31375 1.71492C3.31375 1.72644 3.28044 1.77174 3.23972 1.81555C3.199 1.85938 3.16569 1.90451 3.16569 1.91583C3.16569 1.92714 3.1407 1.96007 3.11016 1.98899C3.07963 2.0179 3.05464 2.05201 3.05464 2.06477C3.05464 2.07753 3.02549 2.11322 2.98986 2.14407C2.95424 2.17492 2.92509 2.21412 2.92509 2.23115C2.92509 2.24821 2.90843 2.27433 2.88807 2.28921C2.86771 2.30409 2.85106 2.32942 2.85106 2.3455C2.85106 2.36158 2.8344 2.38691 2.81404 2.40179C2.79368 2.41667 2.77702 2.44201 2.77702 2.45809C2.77702 2.47417 2.76037 2.4995 2.74001 2.51438C2.71965 2.52926 2.70299 2.55513 2.70299 2.57191C2.70299 2.58867 2.68634 2.61767 2.66598 2.63634C2.64562 2.65502 2.62896 2.68588 2.62896 2.70493C2.62896 2.72397 2.62063 2.73955 2.61045 2.73955C2.60027 2.73955 2.59195 2.75443 2.59195 2.77263C2.59195 2.79081 2.57127 2.82143 2.54603 2.84067C2.52077 2.85988 2.50402 2.88204 2.50881 2.8899C2.51358 2.89775 2.50511 2.9146 2.48995 2.92736C2.47479 2.94012 2.46239 2.96115 2.46239 2.9741C2.46239 2.98704 2.45006 3.00802 2.43502 3.02069C2.4043 3.04653 2.35134 3.14688 2.35134 3.17924C2.35134 3.19086 2.33469 3.21253 2.31433 3.22741C2.29397 3.24229 2.27731 3.26948 2.27731 3.28785C2.27731 3.3062 2.26898 3.32123 2.25881 3.32123C2.24863 3.32123 2.2403 3.33812 2.2403 3.35876C2.2403 3.3794 2.23197 3.39629 2.22179 3.39629C2.21161 3.39629 2.20328 3.41318 2.20328 3.43382C2.20328 3.45446 2.19495 3.47134 2.18477 3.47134C2.17459 3.47134 2.16627 3.48823 2.16627 3.50887C2.16627 3.52951 2.15794 3.5464 2.14776 3.5464C2.13758 3.5464 2.12925 3.56751 2.12925 3.59331C2.12925 3.61911 2.1229 3.64022 2.11513 3.64022C2.10737 3.64022 2.09279 3.65671 2.08274 3.67688C2.07269 3.69706 2.02492 3.79211 1.97656 3.88813C1.9282 3.98415 1.88865 4.07318 1.88865 4.08602C1.88865 4.09883 1.88032 4.10932 1.87014 4.10932C1.85996 4.10932 1.85163 4.12621 1.85163 4.14685C1.85163 4.16749 1.8433 4.18438 1.83313 4.18438C1.82295 4.18438 1.81462 4.20971 1.81462 4.24067C1.81462 4.27163 1.80629 4.29696 1.79611 4.29696C1.78593 4.29696 1.7776 4.31385 1.7776 4.33449C1.7776 4.35513 1.76927 4.37202 1.75909 4.37202C1.74891 4.37202 1.74059 4.3889 1.74059 4.40954C1.74059 4.43019 1.73226 4.44707 1.72208 4.44707C1.7119 4.44707 1.70357 4.47663 1.70357 4.51275C1.70357 4.54887 1.69524 4.57842 1.68506 4.57842C1.67488 4.57842 1.66655 4.59441 1.66655 4.61394C1.66655 4.63347 1.65349 4.65455 1.63752 4.66076C1.61873 4.66806 1.61247 4.68479 1.61977 4.7081C1.62597 4.72791 1.62291 4.74925 1.61296 4.75548C1.5869 4.7718 1.537 4.87853 1.537 4.91796C1.537 4.9364 1.52867 4.9567 1.51849 4.96308C1.50831 4.96946 1.49998 4.99106 1.49998 5.0111C1.49998 5.03114 1.49166 5.04752 1.48148 5.04752C1.4713 5.04752 1.46297 5.07285 1.46297 5.10381C1.46297 5.13477 1.45464 5.16011 1.44446 5.16011C1.43428 5.16011 1.42595 5.18544 1.42595 5.2164C1.42595 5.24736 1.41762 5.27269 1.40745 5.27269C1.39727 5.27269 1.38894 5.29751 1.38894 5.32787C1.38894 5.35823 1.38061 5.38828 1.37043 5.39466C1.36025 5.40104 1.35192 5.43108 1.35192 5.46144C1.35192 5.4918 1.34359 5.51662 1.33341 5.51662C1.32323 5.51662 1.31491 5.54195 1.31491 5.57291C1.31491 5.60387 1.30658 5.62921 1.2964 5.62921C1.28622 5.62921 1.27789 5.65454 1.27789 5.6855C1.27789 5.71646 1.26956 5.74179 1.25938 5.74179C1.2492 5.74179 1.24088 5.76609 1.24088 5.79579C1.24088 5.82548 1.22955 5.85931 1.2157 5.87096C1.20123 5.88314 1.19433 5.91232 1.19947 5.93958C1.20503 5.96902 1.19614 6.00079 1.1761 6.02325C1.15605 6.04571 1.14717 6.07748 1.15272 6.10692C1.15787 6.13418 1.15096 6.16336 1.13649 6.17554C1.12265 6.18719 1.11132 6.2163 1.11132 6.24022C1.11132 6.26416 1.10299 6.28895 1.09281 6.29533C1.08263 6.30171 1.0743 6.34019 1.0743 6.38087C1.0743 6.42156 1.06598 6.45482 1.0558 6.45482C1.04562 6.45482 1.03729 6.48809 1.03729 6.52877C1.03729 6.56945 1.02896 6.60794 1.01878 6.61432C1.0086 6.6207 1.00027 6.66763 1.00027 6.71863C1.00027 6.76963 0.991945 6.81134 0.981766 6.81134C0.971586 6.81134 0.963258 6.85356 0.963258 6.90516C0.963258 6.95676 0.954929 6.99898 0.94475 6.99898C0.934571 6.99898 0.926242 7.04069 0.926242 7.09169C0.926242 7.14269 0.917914 7.18962 0.907734 7.196C0.897555 7.20238 0.889227 7.25775 0.889227 7.31907C0.889227 7.38088 0.880972 7.43055 0.870719 7.43055C0.860021 7.43055 0.852211 7.48998 0.852211 7.57128C0.852211 7.65259 0.844401 7.71201 0.833703 7.71201C0.822913 7.71201 0.815195 7.77455 0.815195 7.86212C0.815195 7.9497 0.807478 8.01224 0.796688 8.01224C0.785268 8.01224 0.77818 8.10919 0.77818 8.26555C0.77818 8.4782 0.773719 8.51887 0.750418 8.51887C0.726413 8.51887 0.722656 8.58871 0.722656 9.03488C0.722656 9.48105 0.726413 9.55089 0.750418 9.55089C0.773479 9.55089 0.77818 9.58736 0.77818 9.76667C0.77818 9.89802 0.785416 9.98246 0.796688 9.98246C0.807478 9.98246 0.815195 10.045 0.815195 10.1326C0.815195 10.2201 0.822913 10.2827 0.833703 10.2827C0.843882 10.2827 0.852211 10.3291 0.852211 10.3859C0.852211 10.4426 0.860539 10.4891 0.870719 10.4891C0.880898 10.4891 0.889227 10.5313 0.889227 10.5829C0.889227 10.6345 0.897555 10.6767 0.907734 10.6767C0.917914 10.6767 0.926242 10.7105 0.926242 10.7518C0.926242 10.7931 0.934571 10.8268 0.94475 10.8268C0.954929 10.8268 0.963258 10.8648 0.963258 10.9113C0.963258 10.9577 0.971586 10.9957 0.981766 10.9957C0.991945 10.9957 1.00027 11.0295 1.00027 11.0708C1.00027 11.1121 1.0086 11.1458 1.01878 11.1458C1.02896 11.1458 1.03729 11.1712 1.03729 11.2021C1.03729 11.2331 1.04562 11.2584 1.0558 11.2584C1.06598 11.2584 1.0743 11.2832 1.0743 11.3136C1.0743 11.344 1.08263 11.374 1.09281 11.3804C1.10299 11.3868 1.11132 11.4115 1.11132 11.4355C1.11132 11.4594 1.12296 11.4888 1.13718 11.5007C1.15139 11.5127 1.15914 11.5375 1.15439 11.556C1.14965 11.5743 1.15883 11.6004 1.1748 11.6138C1.19079 11.6273 1.20386 11.6499 1.20386 11.6641C1.20386 11.6784 1.21219 11.69 1.22237 11.69C1.23255 11.69 1.24088 11.7195 1.24088 11.7557C1.24088 11.7918 1.2492 11.8213 1.25938 11.8213C1.26956 11.8213 1.27789 11.8382 1.27789 11.8589C1.27789 11.8795 1.28622 11.8964 1.2964 11.8964C1.30658 11.8964 1.31491 11.9133 1.31491 11.9339C1.31491 11.9546 1.32323 11.9714 1.33341 11.9714C1.34359 11.9714 1.35192 11.9968 1.35192 12.0277C1.35192 12.0587 1.36025 12.084 1.37043 12.084C1.38061 12.084 1.38894 12.1009 1.38894 12.1216C1.38894 12.1422 1.39727 12.1591 1.40745 12.1591C1.41762 12.1591 1.42595 12.1705 1.42595 12.1843C1.42595 12.2167 1.4784 12.3238 1.50121 12.3381C1.51077 12.3441 1.5352 12.386 1.55551 12.4312C1.57581 12.4763 1.60091 12.5186 1.61129 12.5251C1.62166 12.5316 1.626 12.5437 1.62093 12.5521C1.61588 12.5604 1.63239 12.5829 1.65765 12.6021C1.6829 12.6214 1.70357 12.6543 1.70357 12.6754C1.70357 12.6965 1.72023 12.7259 1.74059 12.7408C1.76094 12.7557 1.7776 12.781 1.7776 12.7971C1.7776 12.8131 1.79426 12.8385 1.81462 12.8534C1.83498 12.8682 1.85163 12.892 1.85163 12.9063C1.85163 12.9205 1.87662 12.9558 1.90716 12.9847C1.93769 13.0136 1.96281 13.0487 1.96299 13.0626C1.96316 13.0765 2.00064 13.1245 2.04628 13.1692C2.0919 13.2138 2.12925 13.2582 2.12925 13.2678C2.12925 13.2935 2.64016 13.8103 2.66563 13.8103C2.6776 13.8103 2.71939 13.8441 2.75852 13.8854C2.79764 13.9267 2.84082 13.9604 2.85446 13.9604C2.86812 13.9604 2.89492 13.9815 2.91404 14.0073C2.93314 14.0331 2.96094 14.0543 2.97578 14.0543C2.99062 14.0543 3.02612 14.0796 3.05464 14.1105C3.08316 14.1415 3.11983 14.1668 3.13609 14.1668C3.15238 14.1668 3.16569 14.1753 3.16569 14.1856C3.16569 14.1959 3.18051 14.2044 3.19861 14.2044C3.21673 14.2044 3.24355 14.2213 3.25823 14.2419C3.2729 14.2625 3.2953 14.2794 3.30801 14.2794C3.32073 14.2794 3.3608 14.2963 3.39704 14.3169C3.43327 14.3376 3.47518 14.3545 3.49013 14.3545C3.5051 14.3545 3.51734 14.3629 3.51734 14.3732C3.51734 14.3836 3.53399 14.392 3.55435 14.392C3.57471 14.392 3.59137 14.4004 3.59137 14.4108C3.59137 14.4211 3.60803 14.4295 3.62838 14.4295C3.64874 14.4295 3.6654 14.438 3.6654 14.4483C3.6654 14.4586 3.68206 14.4671 3.70241 14.4671C3.72277 14.4671 3.73943 14.4749 3.73943 14.4845C3.73943 14.5091 3.84789 14.5609 3.8996 14.5609C3.92347 14.5609 3.94302 14.5693 3.94302 14.5796C3.94302 14.59 3.95967 14.5984 3.98003 14.5984C4.00039 14.5984 4.01705 14.6069 4.01705 14.6172C4.01705 14.6275 4.04153 14.6359 4.07148 14.6359C4.10143 14.6359 4.13106 14.6444 4.13735 14.6547C4.14364 14.665 4.16863 14.6735 4.19287 14.6735C4.21712 14.6735 4.2421 14.6819 4.2484 14.6922C4.25469 14.7025 4.28432 14.711 4.31426 14.711C4.34421 14.711 4.3687 14.7194 4.3687 14.7298C4.3687 14.7401 4.40201 14.7485 4.44273 14.7485C4.48344 14.7485 4.51676 14.757 4.51676 14.7673C4.51676 14.7776 4.55007 14.786 4.59079 14.786C4.63151 14.786 4.66482 14.7945 4.66482 14.8048C4.66482 14.8151 4.7023 14.8236 4.74811 14.8236C4.79391 14.8236 4.83139 14.832 4.83139 14.8423C4.83139 14.8528 4.88075 14.8611 4.94244 14.8611C5.00413 14.8611 5.05349 14.8694 5.05349 14.8799C5.05349 14.8909 5.11826 14.8986 5.2108 14.8986C5.3383 14.8986 5.36812 14.904 5.36812 14.9268C5.36812 14.9512 5.4514 14.9549 6.00664 14.9549C6.56187 14.9549 6.64516 14.9512 6.64516 14.9268C6.64516 14.9041 6.67396 14.8986 6.79322 14.8986C6.8796 14.8986 6.94128 14.8908 6.94128 14.8799C6.94128 14.8693 6.99372 14.8611 7.06158 14.8611C7.12945 14.8611 7.18188 14.8529 7.18188 14.8423C7.18188 14.832 7.22353 14.8236 7.27442 14.8236C7.32532 14.8236 7.36696 14.8151 7.36696 14.8048C7.36696 14.7945 7.40444 14.786 7.45025 14.786C7.49605 14.786 7.53353 14.7776 7.53353 14.7673C7.53353 14.757 7.55852 14.7485 7.58906 14.7485C7.61959 14.7485 7.64458 14.7401 7.64458 14.7298C7.64458 14.7194 7.66957 14.711 7.7001 14.711C7.73064 14.711 7.75563 14.7025 7.75563 14.6922C7.75563 14.6819 7.78061 14.6735 7.81115 14.6735C7.84169 14.6735 7.86667 14.665 7.86667 14.6547C7.86667 14.6444 7.89116 14.6359 7.9211 14.6359C7.95105 14.6359 7.98068 14.6275 7.98698 14.6172C7.99327 14.6069 8.01825 14.5984 8.0425 14.5984C8.06674 14.5984 8.09173 14.59 8.09802 14.5796C8.10431 14.5693 8.12562 14.5609 8.14538 14.5609C8.16515 14.5609 8.18131 14.5524 8.18131 14.5421C8.18131 14.5318 8.19796 14.5234 8.21832 14.5234C8.23888 14.5234 8.25534 14.5108 8.25534 14.4952C8.25534 14.4755 8.27488 14.4671 8.32012 14.4671C8.35574 14.4671 8.38489 14.4586 8.38489 14.4483C8.38489 14.438 8.40155 14.4295 8.42191 14.4295C8.44227 14.4295 8.45892 14.4211 8.45892 14.4108C8.45892 14.4004 8.47558 14.392 8.49594 14.392C8.5163 14.392 8.53296 14.3836 8.53296 14.3732C8.53296 14.3629 8.54778 14.3545 8.56588 14.3545C8.584 14.3545 8.61082 14.3376 8.62549 14.3169C8.64017 14.2963 8.66699 14.2794 8.68511 14.2794C8.70321 14.2794 8.71803 14.271 8.71803 14.2607C8.71803 14.2503 8.73339 14.2419 8.75218 14.2419C8.77097 14.2419 8.80141 14.225 8.81983 14.2044C8.83824 14.1837 8.86323 14.1668 8.87535 14.1668C8.88747 14.1668 8.91246 14.1499 8.93087 14.1293C8.94929 14.1087 8.97498 14.0918 8.98791 14.0918C9.00087 14.0918 9.02785 14.0707 9.04786 14.0449C9.06789 14.0191 9.09346 13.998 9.10472 13.998C9.11595 13.998 9.15948 13.9642 9.20144 13.9229C9.2434 13.8816 9.28937 13.8478 9.3036 13.8478C9.32999 13.8478 9.56906 13.6164 9.5698 13.5902C9.57 13.5823 9.60012 13.5504 9.63669 13.5195C9.77068 13.406 9.95806 13.211 9.95806 13.1849C9.95806 13.1702 9.99137 13.1233 10.0321 13.0808C10.0728 13.0382 10.1061 12.9941 10.1061 12.9827C10.1061 12.9713 10.1269 12.9454 10.1524 12.9251C10.1778 12.9048 10.1987 12.8774 10.1987 12.8643C10.1987 12.8512 10.2153 12.8251 10.2357 12.8064C10.256 12.7878 10.2727 12.7624 10.2727 12.7502C10.2727 12.7379 10.2893 12.7125 10.3097 12.6939C10.3301 12.6752 10.3467 12.6462 10.3467 12.6294C10.3467 12.6126 10.3634 12.5868 10.3837 12.5719C10.4041 12.557 10.4208 12.5298 10.4208 12.5115C10.4208 12.4931 10.4291 12.4781 10.4393 12.4781C10.4494 12.4781 10.4578 12.4612 10.4578 12.4405C10.4578 12.4199 10.4661 12.403 10.4763 12.403C10.4865 12.403 10.4948 12.3861 10.4948 12.3655C10.4948 12.3448 10.5031 12.328 10.5133 12.328C10.5235 12.328 10.5318 12.312 10.5318 12.2924C10.5318 12.2729 10.5443 12.2521 10.5596 12.2461C10.5748 12.2402 10.5873 12.2182 10.5873 12.1972C10.5873 12.1762 10.5957 12.1591 10.6058 12.1591C10.616 12.1591 10.6243 12.1422 10.6243 12.1216C10.6243 12.1009 10.6327 12.084 10.6428 12.084C10.653 12.084 10.6614 12.0671 10.6614 12.0465C10.6614 12.0259 10.6697 12.009 10.6799 12.009C10.69 12.009 10.6984 11.9921 10.6984 11.9714C10.6984 11.9508 10.7067 11.9339 10.7169 11.9339C10.7271 11.9339 10.7354 11.9175 10.7354 11.8975C10.7354 11.8775 10.7437 11.8559 10.7539 11.8495C10.7641 11.8431 10.7724 11.8131 10.7724 11.7827C10.7724 11.7523 10.7807 11.7275 10.7909 11.7275C10.8011 11.7275 10.8094 11.7106 10.8094 11.69C10.8094 11.6693 10.8177 11.6525 10.8279 11.6525C10.8381 11.6525 10.8464 11.6271 10.8464 11.5962C10.8464 11.5652 10.8548 11.5399 10.8649 11.5399C10.8751 11.5399 10.8834 11.5145 10.8834 11.4836C10.8834 11.4526 10.8918 11.4273 10.902 11.4273C10.9121 11.4273 10.9205 11.3977 10.9205 11.3616C10.9205 11.3255 10.9288 11.2959 10.939 11.2959C10.9492 11.2959 10.9575 11.2706 10.9575 11.2396C10.9575 11.2087 10.9658 11.1834 10.976 11.1834C10.9862 11.1834 10.9945 11.1589 10.9945 11.1291C10.9945 11.0981 11.0064 11.0701 11.0223 11.064C11.0396 11.0573 11.05 11.0286 11.05 10.988C11.05 10.9522 11.0583 10.9177 11.0685 10.9113C11.0787 10.9049 11.087 10.8664 11.087 10.8257C11.087 10.7851 11.0954 10.7518 11.1055 10.7518C11.1157 10.7518 11.1241 10.7101 11.1241 10.6591C11.1241 10.6081 11.1324 10.5611 11.1426 10.5548C11.1527 10.5484 11.1611 10.5015 11.1611 10.4505C11.1611 10.3995 11.1694 10.3577 11.1796 10.3577C11.1901 10.3577 11.1981 10.3014 11.1981 10.2264C11.1981 10.1513 11.206 10.095 11.2166 10.095C11.2276 10.095 11.2351 10.0231 11.2351 9.91679C11.2351 9.81045 11.2426 9.73853 11.2536 9.73853C11.2656 9.73853 11.2721 9.48521 11.2721 9.01611C11.2721 8.54701 11.2656 8.2937 11.2536 8.2937C11.2424 8.2937 11.2351 8.21551 11.2351 8.09667C11.2351 7.97784 11.2277 7.89965 11.2166 7.89965C11.2058 7.89965 11.1981 7.83747 11.1981 7.75065C11.1981 7.66869 11.1898 7.59643 11.1796 7.59005C11.1694 7.58367 11.1611 7.52829 11.1611 7.46697C11.1611 7.40517 11.1528 7.3555 11.1426 7.3555C11.1323 7.3555 11.1241 7.30583 11.1241 7.24402C11.1241 7.1827 11.1157 7.12733 11.1055 7.12095C11.0954 7.11457 11.087 7.06764 11.087 7.01664C11.087 6.96564 11.0787 6.92392 11.0685 6.92392C11.0583 6.92392 11.05 6.88144 11.05 6.82952C11.05 6.76291 11.0418 6.73193 11.0223 6.72431C11.0042 6.71726 10.9945 6.68808 10.9945 6.64045C10.9945 6.60028 10.9862 6.56741 10.976 6.56741C10.9658 6.56741 10.9575 6.53363 10.9575 6.49235C10.9575 6.45107 10.9492 6.41729 10.939 6.41729C10.9288 6.41729 10.9205 6.3793 10.9205 6.33286C10.9205 6.28642 10.9121 6.24842 10.902 6.24842C10.8918 6.24842 10.8834 6.21464 10.8834 6.17336C10.8834 6.13208 10.8751 6.09831 10.8649 6.09831C10.8548 6.09831 10.8464 6.07298 10.8464 6.04201C10.8464 6.01105 10.8381 5.98572 10.8279 5.98572C10.8177 5.98572 10.8094 5.95245 10.8094 5.91177C10.8094 5.87109 10.8011 5.83261 10.7909 5.82623C10.7807 5.81985 10.7724 5.78981 10.7724 5.75945C10.7724 5.72909 10.7641 5.70426 10.7539 5.70426C10.7437 5.70426 10.7354 5.67893 10.7354 5.64797C10.7354 5.61701 10.7271 5.59168 10.7169 5.59168C10.7067 5.59168 10.6984 5.56635 10.6984 5.53539C10.6984 5.50443 10.69 5.47909 10.6799 5.47909C10.6697 5.47909 10.6614 5.45427 10.6614 5.42391C10.6614 5.39355 10.653 5.36351 10.6428 5.35713C10.6327 5.35075 10.6243 5.32596 10.6243 5.30202C10.6243 5.27809 10.6127 5.24873 10.5985 5.23678C10.5843 5.2248 10.5769 5.19853 10.5821 5.1784C10.588 5.15547 10.5804 5.13746 10.5617 5.13018C10.5437 5.1232 10.5318 5.09691 10.5318 5.06428C10.5318 5.03442 10.5235 5.00999 10.5133 5.00999C10.5031 5.00999 10.4948 4.98888 10.4948 4.96308C10.4948 4.93728 10.4865 4.91617 10.4763 4.91617C10.4661 4.91617 10.4578 4.89084 10.4578 4.85988C10.4578 4.82892 10.4494 4.80359 10.4393 4.80359C10.4291 4.80359 10.4208 4.77826 10.4208 4.7473C10.4208 4.71634 10.4124 4.69101 10.4022 4.69101C10.3921 4.69101 10.3837 4.67412 10.3837 4.65348C10.3837 4.63284 10.3754 4.61595 10.3652 4.61595C10.3551 4.61595 10.3467 4.59906 10.3467 4.57842C10.3467 4.55778 10.3384 4.54089 10.3282 4.54089C10.318 4.54089 10.3097 4.52005 10.3097 4.49455C10.3097 4.46907 10.293 4.41814 10.2727 4.3814C10.2523 4.34466 10.2357 4.30218 10.2357 4.28702C10.2357 4.27184 10.2273 4.25943 10.2172 4.25943C10.207 4.25943 10.1987 4.2341 10.1987 4.20314C10.1987 4.17218 10.1903 4.14685 10.1802 4.14685C10.17 4.14685 10.1616 4.13086 10.1616 4.11133C10.1616 4.09179 10.1492 4.07095 10.1339 4.065C10.1186 4.05907 10.1061 4.03706 10.1061 4.01608C10.1061 3.99512 10.0978 3.97797 10.0876 3.97797C10.0774 3.97797 10.0691 3.96108 10.0691 3.94044C10.0691 3.9198 10.0608 3.90292 10.0506 3.90292C10.0404 3.90292 10.0321 3.88603 10.0321 3.86539C10.0321 3.84475 10.0238 3.82786 10.0136 3.82786C10.0034 3.82786 9.99507 3.81097 9.99507 3.79033C9.99507 3.76969 9.98674 3.7528 9.97657 3.7528C9.96639 3.7528 9.95806 3.73592 9.95806 3.71528C9.95806 3.69464 9.94973 3.67775 9.93955 3.67775C9.92937 3.67775 9.92104 3.66535 9.92104 3.65017C9.92104 3.635 9.90438 3.59252 9.88403 3.55578C9.86367 3.51904 9.84701 3.47656 9.84701 3.4614C9.84701 3.44622 9.83868 3.43382 9.8285 3.43382C9.81832 3.43382 9.80999 3.41693 9.80999 3.39629C9.80999 3.37565 9.80167 3.35876 9.79149 3.35876C9.78131 3.35876 9.77298 3.34373 9.77298 3.32538C9.77298 3.30701 9.75632 3.27982 9.73596 3.26494C9.7156 3.25006 9.69895 3.22377 9.69895 3.20651C9.69895 3.18925 9.68646 3.17027 9.67119 3.16433C9.65592 3.1584 9.64342 3.13639 9.64342 3.11541C9.64342 3.09445 9.6351 3.0773 9.62492 3.0773C9.61474 3.0773 9.60641 3.06227 9.60641 3.04392C9.60641 3.02555 9.58975 2.99836 9.56939 2.98348C9.54904 2.9686 9.53238 2.94141 9.53238 2.92304C9.53238 2.90469 9.52405 2.88966 9.51387 2.88966C9.50369 2.88966 9.49536 2.87463 9.49536 2.85628C9.49536 2.83791 9.4787 2.81072 9.45835 2.79584C9.43799 2.78096 9.42133 2.75508 9.42133 2.73831C9.42133 2.72155 9.40467 2.69254 9.38432 2.67387C9.36396 2.6552 9.3473 2.62987 9.3473 2.61758C9.3473 2.60529 9.33064 2.57996 9.31028 2.56129C9.28993 2.54262 9.27327 2.51716 9.27327 2.50471C9.27327 2.49227 9.25245 2.46625 9.227 2.44688C9.20155 2.4275 9.18073 2.39862 9.18073 2.38271C9.18073 2.3668 9.16407 2.34162 9.14371 2.32674C9.12335 2.31186 9.1067 2.28598 9.1067 2.26921C9.1067 2.25245 9.09004 2.22344 9.06968 2.20477C9.04932 2.1861 9.03267 2.15861 9.03267 2.14371C9.03267 2.12882 9.00768 2.09296 8.97714 2.06404C8.94661 2.03513 8.92162 2.0012 8.92162 1.98869C8.92162 1.96424 8.79469 1.83887 8.76995 1.83887C8.76175 1.83887 8.75505 1.82144 8.75505 1.80013C8.75505 1.77832 8.71457 1.72141 8.66251 1.67C8.61161 1.61973 8.56997 1.56939 8.56997 1.55813C8.56997 1.53075 7.85631 0.806853 7.82934 0.806853C7.81774 0.806853 7.77624 0.773078 7.73712 0.731797C7.69799 0.690516 7.65469 0.656741 7.64086 0.656741C7.62704 0.656741 7.60373 0.639853 7.58906 0.619213C7.57438 0.598572 7.5488 0.581685 7.5322 0.581685C7.5156 0.581685 7.47586 0.556353 7.4439 0.525393C7.41196 0.494432 7.37413 0.469101 7.35986 0.469101C7.34559 0.469101 7.32911 0.456435 7.32325 0.440955C7.3174 0.425474 7.30087 0.412808 7.28653 0.412808C7.27218 0.412808 7.25042 0.400555 7.23815 0.385563C7.21201 0.353645 7.03752 0.262696 7.00243 0.262696C6.98916 0.262696 6.9783 0.254252 6.9783 0.243932C6.9783 0.233612 6.96164 0.225168 6.94128 0.225168C6.92092 0.225168 6.90427 0.216724 6.90427 0.206404C6.90427 0.196084 6.87928 0.18764 6.84874 0.18764C6.81821 0.18764 6.79322 0.179196 6.79322 0.168876C6.79322 0.158556 6.77656 0.150112 6.7562 0.150112C6.73585 0.150112 6.71919 0.141668 6.71919 0.131348C6.71919 0.121028 6.6947 0.112584 6.66476 0.112584C6.63481 0.112584 6.60518 0.10414 6.59889 0.0938201C6.5926 0.0834999 6.55464 0.0750561 6.51451 0.0750561C6.47439 0.0750561 6.44157 0.0666123 6.44157 0.0562921C6.44157 0.0458593 6.39221 0.037528 6.33053 0.037528C6.26884 0.037528 6.21948 0.0291968 6.21948 0.018764C6.21948 0.00744932 6.14236 0 6.02515 0C5.90794 0 5.83081 0.00744932 5.83081 0.018764ZM15.1896 0.819312C15.1828 0.826217 15.1773 3.83227 15.1773 7.49944V14.167L17.1622 14.1622L19.1472 14.1575L19.1519 8.8144C19.1549 5.27421 19.1627 3.47134 19.175 3.47134C19.1851 3.47134 19.1935 3.50461 19.1935 3.54529C19.1935 3.58597 19.2018 3.62446 19.212 3.63084C19.2221 3.63722 19.2305 3.6757 19.2305 3.71638C19.2305 3.75706 19.2388 3.79033 19.249 3.79033C19.2592 3.79033 19.2675 3.82411 19.2675 3.86539C19.2675 3.90667 19.2758 3.94044 19.286 3.94044C19.2962 3.94044 19.3045 3.96578 19.3045 3.99674C19.3045 4.0277 19.3128 4.05303 19.323 4.05303C19.3332 4.05303 19.3415 4.0863 19.3415 4.12698C19.3415 4.16766 19.3498 4.20614 19.36 4.21252C19.3702 4.2189 19.3785 4.25739 19.3785 4.29807C19.3785 4.33875 19.3869 4.37202 19.397 4.37202C19.4072 4.37202 19.4156 4.40476 19.4156 4.44478C19.4156 4.48479 19.4272 4.52733 19.4414 4.53928C19.4556 4.55125 19.463 4.57752 19.4578 4.59765C19.4519 4.62058 19.4595 4.6386 19.4782 4.64588C19.4986 4.65381 19.5081 4.68063 19.5081 4.73054C19.5081 4.77071 19.5164 4.80359 19.5266 4.80359C19.5368 4.80359 19.5451 4.83736 19.5451 4.87865C19.5451 4.91993 19.5534 4.9537 19.5636 4.9537C19.5738 4.9537 19.5821 4.9917 19.5821 5.03814C19.5821 5.08458 19.5905 5.12258 19.6006 5.12258C19.6108 5.12258 19.6191 5.14791 19.6191 5.17887C19.6191 5.20983 19.6275 5.23516 19.6376 5.23516C19.6478 5.23516 19.6562 5.26894 19.6562 5.31022C19.6562 5.3515 19.6645 5.38527 19.6747 5.38527C19.6848 5.38527 19.6932 5.42327 19.6932 5.46971C19.6932 5.51615 19.7015 5.55415 19.7117 5.55415C19.7219 5.55415 19.7302 5.57948 19.7302 5.61044C19.7302 5.6414 19.7385 5.66673 19.7487 5.66673C19.7589 5.66673 19.7672 5.70051 19.7672 5.74179C19.7672 5.78307 19.7755 5.81685 19.7857 5.81685C19.7959 5.81685 19.8042 5.85011 19.8042 5.8908C19.8042 5.93148 19.8125 5.96996 19.8227 5.97634C19.8329 5.98272 19.8412 6.0165 19.8412 6.0514C19.8412 6.0863 19.8496 6.12007 19.8597 6.12645C19.8699 6.13283 19.8782 6.16197 19.8782 6.19123C19.8782 6.22305 19.8904 6.24911 19.9084 6.25613C19.9314 6.26508 19.936 6.28345 19.9279 6.33417C19.9202 6.38219 19.9247 6.40337 19.944 6.4109C19.961 6.41752 19.9708 6.44796 19.9708 6.49436C19.9708 6.53453 19.9791 6.56741 19.9893 6.56741C19.9995 6.56741 20.0078 6.60118 20.0078 6.64246C20.0078 6.68374 20.0161 6.71752 20.0263 6.71752C20.0365 6.71752 20.0448 6.74707 20.0448 6.78319C20.0448 6.81931 20.0531 6.84887 20.0633 6.84887C20.0735 6.84887 20.0818 6.88264 20.0818 6.92392C20.0818 6.9652 20.0902 6.99898 20.1003 6.99898C20.1105 6.99898 20.1189 7.03275 20.1189 7.07404C20.1189 7.11532 20.1272 7.14909 20.1374 7.14909C20.1475 7.14909 20.1559 7.18236 20.1559 7.22304C20.1559 7.26372 20.1642 7.30221 20.1744 7.30859C20.1846 7.31497 20.1929 7.34501 20.1929 7.37537C20.1929 7.40573 20.2012 7.43055 20.2114 7.43055C20.2216 7.43055 20.2299 7.46433 20.2299 7.50561C20.2299 7.54689 20.2382 7.58066 20.2484 7.58066C20.2586 7.58066 20.2669 7.61393 20.2669 7.65461C20.2669 7.69529 20.2752 7.73378 20.2854 7.74016C20.2956 7.74654 20.3039 7.77133 20.3039 7.79527C20.3039 7.81919 20.3163 7.84921 20.3315 7.86197C20.3492 7.87682 20.355 7.90159 20.3478 7.93071C20.3406 7.95996 20.3474 7.98841 20.367 8.01034C20.3852 8.03072 20.3956 8.06947 20.3928 8.10668C20.3901 8.14289 20.3976 8.17211 20.4108 8.17657C20.4236 8.18089 20.4335 8.21639 20.4335 8.25773C20.4335 8.29814 20.4418 8.33123 20.452 8.33123C20.4622 8.33123 20.4705 8.35656 20.4705 8.38752C20.4705 8.41848 20.4788 8.44381 20.489 8.44381C20.4992 8.44381 20.5075 8.47708 20.5075 8.51776C20.5075 8.55844 20.5158 8.59692 20.526 8.6033C20.5362 8.60968 20.5445 8.64817 20.5445 8.68885C20.5445 8.72953 20.5529 8.7628 20.563 8.7628C20.5732 8.7628 20.5815 8.79657 20.5815 8.83785C20.5815 8.87914 20.5899 8.91291 20.6001 8.91291C20.6102 8.91291 20.6186 8.93824 20.6186 8.9692C20.6186 9.00016 20.6269 9.02549 20.6371 9.02549C20.6472 9.02549 20.6556 9.05876 20.6556 9.09944C20.6556 9.14012 20.6639 9.17861 20.6741 9.18499C20.6843 9.19137 20.6926 9.22985 20.6926 9.27053C20.6926 9.31121 20.7009 9.34448 20.7111 9.34448C20.7213 9.34448 20.7296 9.37464 20.7296 9.41149C20.7296 9.44836 20.7414 9.49043 20.7557 9.50499C20.7701 9.51955 20.7778 9.54698 20.7729 9.56594C20.768 9.58491 20.7768 9.61112 20.7923 9.6242C20.8113 9.6402 20.8171 9.66578 20.8099 9.70235C20.802 9.74215 20.8072 9.75984 20.8291 9.7684C20.8497 9.77639 20.8592 9.80306 20.8592 9.85312C20.8592 9.89329 20.8675 9.92617 20.8777 9.92617C20.8878 9.92617 20.8962 9.95572 20.8962 9.99184C20.8962 10.028 20.9045 10.0575 20.9147 10.0575C20.9249 10.0575 20.9332 10.0913 20.9332 10.1326C20.9332 10.1739 20.9415 10.2076 20.9517 10.2076C20.9619 10.2076 20.9702 10.2414 20.9702 10.2827C20.9702 10.324 20.9785 10.3577 20.9887 10.3577C20.9989 10.3577 21.0072 10.3957 21.0072 10.4422C21.0072 10.4886 21.0156 10.5266 21.0257 10.5266C21.0359 10.5266 21.0442 10.5519 21.0442 10.5829C21.0442 10.6139 21.0526 10.6392 21.0627 10.6392C21.0729 10.6392 21.0813 10.673 21.0813 10.7143C21.0813 10.7555 21.0896 10.7893 21.0998 10.7893C21.1099 10.7893 21.1183 10.8226 21.1183 10.8633C21.1183 10.9039 21.1266 10.9424 21.1368 10.9488C21.147 10.9552 21.1553 10.9937 21.1553 11.0344C21.1553 11.075 21.1636 11.1083 21.1738 11.1083C21.184 11.1083 21.1923 11.1329 21.1923 11.163C21.1923 11.1931 21.2025 11.2212 21.215 11.2254C21.2282 11.2299 21.2357 11.2591 21.233 11.2953C21.2302 11.3326 21.2406 11.3713 21.2589 11.3918C21.2778 11.413 21.2859 11.4446 21.2802 11.475C21.2742 11.5064 21.2801 11.5276 21.2964 11.534C21.3104 11.5394 21.3219 11.5683 21.3219 11.5982C21.3219 11.628 21.3302 11.6525 21.3404 11.6525C21.3505 11.6525 21.3589 11.6905 21.3589 11.7369C21.3589 11.7833 21.3672 11.8213 21.3774 11.8213C21.3876 11.8213 21.3959 11.8551 21.3959 11.8964C21.3959 11.9377 21.4042 11.9714 21.4144 11.9714C21.4246 11.9714 21.4329 12.0052 21.4329 12.0465C21.4329 12.0878 21.4412 12.1216 21.4514 12.1216C21.4616 12.1216 21.4699 12.1464 21.4699 12.1767C21.4699 12.2071 21.4782 12.2371 21.4884 12.2435C21.4986 12.2499 21.5069 12.2884 21.5069 12.3291C21.5069 12.3697 21.5153 12.403 21.5254 12.403C21.5356 12.403 21.544 12.4368 21.544 12.4781C21.544 12.5194 21.5523 12.5531 21.5625 12.5531C21.5726 12.5531 21.581 12.5864 21.581 12.6271C21.581 12.6678 21.5893 12.7062 21.5995 12.7126C21.6097 12.719 21.618 12.7443 21.618 12.7689C21.618 12.7935 21.6263 12.8188 21.6365 12.8252C21.6467 12.8316 21.655 12.8648 21.655 12.8991C21.655 12.9333 21.6669 12.9713 21.6814 12.9836C21.6992 12.9986 21.7045 13.0267 21.6975 13.07C21.6898 13.1185 21.6946 13.137 21.7174 13.1459C21.7381 13.1539 21.7475 13.1805 21.7475 13.2306C21.7475 13.2708 21.7559 13.3037 21.766 13.3037C21.7762 13.3037 21.7846 13.329 21.7846 13.36C21.7846 13.3909 21.7929 13.4163 21.8031 13.4163C21.8132 13.4163 21.8216 13.4501 21.8216 13.4913C21.8216 13.5326 21.8299 13.5664 21.8401 13.5664C21.8503 13.5664 21.8586 13.6044 21.8586 13.6508C21.8586 13.6973 21.8669 13.7353 21.8771 13.7353C21.8873 13.7353 21.8956 13.7606 21.8956 13.7916C21.8956 13.8225 21.9039 13.8478 21.9141 13.8478C21.9243 13.8478 21.9326 13.8816 21.9326 13.9229C21.9326 13.9642 21.9405 13.998 21.9501 13.998C21.9597 13.998 21.9701 14.0338 21.9732 14.0777L21.9789 14.1575L24.2692 14.1622L26.5596 14.167V14.0825C26.5596 14.036 26.5679 13.998 26.5781 13.998C26.5883 13.998 26.5966 13.9651 26.5966 13.9249C26.5966 13.875 26.606 13.8482 26.6264 13.8402C26.6451 13.833 26.6528 13.815 26.6469 13.792C26.6417 13.7719 26.6491 13.7456 26.6633 13.7336C26.6775 13.7217 26.6891 13.6792 26.6891 13.6392C26.6891 13.5991 26.6975 13.5664 26.7076 13.5664C26.7178 13.5664 26.7261 13.5326 26.7261 13.4913C26.7261 13.4501 26.7345 13.4163 26.7446 13.4163C26.7548 13.4163 26.7632 13.3825 26.7632 13.3412C26.7632 13.2999 26.7715 13.2662 26.7817 13.2662C26.7918 13.2662 26.8002 13.2413 26.8002 13.211C26.8002 13.1806 26.8085 13.1506 26.8187 13.1442C26.8289 13.1378 26.8372 13.0993 26.8372 13.0587C26.8372 13.018 26.8455 12.9847 26.8557 12.9847C26.8659 12.9847 26.8742 12.9509 26.8742 12.9096C26.8742 12.8684 26.8825 12.8346 26.8927 12.8346C26.9029 12.8346 26.9112 12.8013 26.9112 12.7606C26.9112 12.72 26.9195 12.6815 26.9297 12.6751C26.9399 12.6687 26.9482 12.6387 26.9482 12.6083C26.9482 12.578 26.9566 12.5531 26.9667 12.5531C26.9769 12.5531 26.9853 12.5194 26.9853 12.4781C26.9853 12.4368 26.9936 12.403 27.0038 12.403C27.0139 12.403 27.0223 12.3692 27.0223 12.328C27.0223 12.2867 27.0306 12.2529 27.0408 12.2529C27.051 12.2529 27.0593 12.2234 27.0593 12.1872C27.0593 12.1414 27.0676 12.1216 27.087 12.1216C27.107 12.1216 27.1148 12.1008 27.1148 12.0476C27.1148 12.0069 27.1231 11.9684 27.1333 11.9621C27.1435 11.9557 27.1518 11.9219 27.1518 11.887C27.1518 11.8521 27.1601 11.8183 27.1703 11.812C27.1805 11.8056 27.1888 11.7671 27.1888 11.7264C27.1888 11.6857 27.1972 11.6525 27.2073 11.6525C27.2175 11.6525 27.2259 11.6271 27.2259 11.5962C27.2259 11.5652 27.2342 11.5399 27.2444 11.5399C27.2545 11.5399 27.2629 11.5066 27.2629 11.4659C27.2629 11.4252 27.2712 11.3868 27.2814 11.3804C27.2916 11.374 27.2999 11.3355 27.2999 11.2948C27.2999 11.2542 27.3082 11.2209 27.3184 11.2209C27.3286 11.2209 27.3369 11.1871 27.3369 11.1458C27.3369 11.1045 27.3452 11.0708 27.3554 11.0708C27.3656 11.0708 27.3739 11.0454 27.3739 11.0145C27.3739 10.9835 27.3822 10.9582 27.3924 10.9582C27.4026 10.9582 27.4109 10.9202 27.4109 10.8738C27.4109 10.8273 27.4193 10.7893 27.4294 10.7893C27.4396 10.7893 27.4479 10.7555 27.4479 10.7143C27.4479 10.673 27.4563 10.6392 27.4665 10.6392C27.4766 10.6392 27.485 10.6063 27.485 10.5662C27.485 10.5162 27.4944 10.4894 27.5148 10.4815C27.5339 10.4741 27.5412 10.4563 27.535 10.4322C27.5296 10.4115 27.537 10.3827 27.5514 10.3681C27.5657 10.3536 27.5775 10.3115 27.5775 10.2746C27.5775 10.2378 27.5858 10.2076 27.596 10.2076C27.6062 10.2076 27.6145 10.1744 27.6145 10.1337C27.6145 10.093 27.6228 10.0545 27.633 10.0481C27.6432 10.0418 27.6515 10.0117 27.6515 9.98135C27.6515 9.95099 27.6599 9.92617 27.67 9.92617C27.6802 9.92617 27.6885 9.89239 27.6885 9.85111C27.6885 9.80983 27.6969 9.77606 27.7071 9.77606C27.7172 9.77606 27.7256 9.74228 27.7256 9.701C27.7256 9.65972 27.7339 9.62594 27.7441 9.62594C27.7542 9.62594 27.7626 9.58794 27.7626 9.5415C27.7626 9.49506 27.7709 9.45707 27.7811 9.45707C27.7913 9.45707 27.7996 9.43174 27.7996 9.40077C27.7996 9.36981 27.8079 9.34448 27.8181 9.34448C27.8283 9.34448 27.8366 9.31071 27.8366 9.26943C27.8366 9.22815 27.8449 9.19437 27.8551 9.19437C27.8653 9.19437 27.8736 9.15637 27.8736 9.10993C27.8736 9.06349 27.882 9.02549 27.8921 9.02549C27.9023 9.02549 27.9106 8.99172 27.9106 8.95044C27.9106 8.90916 27.919 8.87538 27.9291 8.87538C27.9393 8.87538 27.9477 8.85095 27.9477 8.8211C27.9477 8.79016 27.9596 8.76216 27.9754 8.756C27.9927 8.74929 28.0032 8.72065 28.0032 8.68005C28.0032 8.64423 28.0115 8.60968 28.0217 8.6033C28.0319 8.59692 28.0402 8.55844 28.0402 8.51776C28.0402 8.47708 28.0485 8.44381 28.0587 8.44381C28.0689 8.44381 28.0772 8.41054 28.0772 8.36986C28.0772 8.32918 28.0855 8.2907 28.0957 8.28432C28.1059 8.27794 28.1142 8.2526 28.1142 8.22802C28.1142 8.20344 28.1226 8.17811 28.1327 8.17173C28.1429 8.16535 28.1512 8.12687 28.1512 8.08619C28.1512 8.04551 28.1596 8.01224 28.1697 8.01224C28.1799 8.01224 28.1883 7.97846 28.1883 7.93718C28.1883 7.8959 28.1966 7.86212 28.2068 7.86212C28.2169 7.86212 28.2253 7.83679 28.2253 7.80583C28.2253 7.77487 28.2336 7.74954 28.2438 7.74954C28.254 7.74954 28.2623 7.71154 28.2623 7.6651C28.2623 7.61866 28.2706 7.58066 28.2808 7.58066C28.291 7.58066 28.2993 7.54689 28.2993 7.50561C28.2993 7.46433 28.3076 7.43055 28.3178 7.43055C28.328 7.43055 28.3363 7.39678 28.3363 7.3555C28.3363 7.31422 28.3447 7.28044 28.3548 7.28044C28.365 7.28044 28.3733 7.25089 28.3733 7.21477C28.3733 7.17865 28.3817 7.14909 28.3918 7.14909C28.402 7.14909 28.4104 7.11622 28.4104 7.07604C28.4104 7.02842 28.42 6.99924 28.4381 6.99219C28.4554 6.98547 28.4659 6.95684 28.4659 6.91623C28.4659 6.88041 28.4742 6.84587 28.4844 6.83949C28.4946 6.83311 28.5029 6.79462 28.5029 6.75394C28.5029 6.71326 28.5112 6.67999 28.5214 6.67999C28.5316 6.67999 28.5399 6.65466 28.5399 6.6237C28.5399 6.59274 28.5482 6.56741 28.5584 6.56741C28.5686 6.56741 28.5769 6.53414 28.5769 6.49346C28.5769 6.45278 28.5853 6.41429 28.5954 6.40791C28.6056 6.40153 28.6139 6.36305 28.6139 6.32237C28.6139 6.28169 28.6223 6.24842 28.6324 6.24842C28.6426 6.24842 28.651 6.21464 28.651 6.17336C28.651 6.13208 28.6593 6.09831 28.6695 6.09831C28.6796 6.09831 28.688 6.07298 28.688 6.04201C28.688 6.01105 28.6963 5.98572 28.7065 5.98572C28.7167 5.98572 28.725 5.94773 28.725 5.90128C28.725 5.85484 28.7333 5.81685 28.7435 5.81685C28.7537 5.81685 28.762 5.78307 28.762 5.74179C28.762 5.70051 28.7703 5.66673 28.7805 5.66673C28.7907 5.66673 28.799 5.6414 28.799 5.61044C28.799 5.57948 28.8073 5.55415 28.8175 5.55415C28.8277 5.55415 28.836 5.51615 28.836 5.46971C28.836 5.40717 28.8432 5.38527 28.8638 5.38527C28.8838 5.38527 28.8916 5.36454 28.8916 5.31133C28.8916 5.27065 28.8999 5.23216 28.9101 5.22578C28.9202 5.2194 28.9286 5.18563 28.9286 5.15072C28.9286 5.11582 28.9369 5.08205 28.9471 5.07567C28.9573 5.06929 28.9656 5.03925 28.9656 5.00889C28.9656 4.97853 28.9739 4.9537 28.9841 4.9537C28.9943 4.9537 29.0026 4.91993 29.0026 4.87865C29.0026 4.83736 29.0109 4.80359 29.0211 4.80359C29.0313 4.80359 29.0396 4.76981 29.0396 4.72853C29.0396 4.68725 29.0479 4.65348 29.0581 4.65348C29.0683 4.65348 29.0766 4.61548 29.0766 4.56904C29.0766 4.5226 29.085 4.4846 29.0951 4.4846C29.1053 4.4846 29.1136 4.45927 29.1136 4.42831C29.1136 4.39735 29.122 4.37202 29.1322 4.37202C29.1423 4.37202 29.1507 4.33824 29.1507 4.29696C29.1507 4.25568 29.159 4.2219 29.1692 4.2219C29.1794 4.2219 29.1877 4.18391 29.1877 4.13747C29.1877 4.09103 29.196 4.05303 29.2062 4.05303C29.2164 4.05303 29.2247 4.0277 29.2247 3.99674C29.2247 3.96578 29.233 3.94044 29.2432 3.94044C29.2534 3.94044 29.2617 3.90667 29.2617 3.86539C29.2617 3.82411 29.27 3.79033 29.2802 3.79033C29.2904 3.79033 29.2987 3.75727 29.2987 3.71683C29.2987 3.67642 29.3083 3.64011 29.32 3.63617C29.3317 3.63223 29.3421 3.59633 29.3431 3.55644C29.3441 3.51653 29.3554 3.48035 29.3681 3.47605C29.3866 3.46979 29.3913 4.54643 29.3913 8.81761V14.167L31.3762 14.1622L33.3612 14.1575V7.48684V0.816235H29.854H26.3467L26.3409 0.877218C26.3377 0.910768 26.3273 0.938201 26.3178 0.938201C26.3083 0.938201 26.3005 0.971976 26.3005 1.01326C26.3005 1.05454 26.2921 1.08831 26.282 1.08831C26.2718 1.08831 26.2634 1.11364 26.2634 1.14461C26.2634 1.17557 26.2551 1.2009 26.2449 1.2009C26.2348 1.2009 26.2264 1.23364 26.2264 1.27366C26.2264 1.31367 26.2151 1.35594 26.2013 1.3676C26.1868 1.37977 26.1799 1.40895 26.185 1.43622C26.1906 1.46566 26.1817 1.49743 26.1617 1.51989C26.1416 1.54235 26.1327 1.57411 26.1383 1.60355C26.1434 1.63082 26.1365 1.66 26.122 1.67218C26.1082 1.68383 26.0969 1.71293 26.0969 1.73685C26.0969 1.7608 26.0885 1.78558 26.0784 1.79196C26.0682 1.79834 26.0599 1.83683 26.0599 1.87751C26.0599 1.91819 26.0515 1.95146 26.0414 1.95146C26.0312 1.95146 26.0228 1.98473 26.0228 2.02541C26.0228 2.06609 26.0145 2.10457 26.0043 2.11095C25.9942 2.11733 25.9858 2.15111 25.9858 2.18601C25.9858 2.22091 25.9775 2.25468 25.9673 2.26106C25.9571 2.26744 25.9488 2.29749 25.9488 2.32785C25.9488 2.35821 25.9405 2.38303 25.9303 2.38303C25.9201 2.38303 25.9118 2.41681 25.9118 2.45809C25.9118 2.49937 25.9035 2.53314 25.8933 2.53314C25.8831 2.53314 25.8748 2.56641 25.8748 2.60709C25.8748 2.64777 25.8665 2.68626 25.8563 2.69264C25.8461 2.69902 25.8378 2.72906 25.8378 2.75942C25.8378 2.78978 25.8294 2.8146 25.8193 2.8146C25.8091 2.8146 25.8007 2.84838 25.8007 2.88966C25.8007 2.93094 25.7924 2.96472 25.7822 2.96472C25.7721 2.96472 25.7637 2.99759 25.7637 3.03776C25.7637 3.08794 25.7543 3.11449 25.7336 3.12254C25.7108 3.1314 25.706 3.14988 25.7137 3.19844C25.7207 3.24169 25.7154 3.26986 25.6976 3.28485C25.6831 3.29706 25.6712 3.32664 25.6712 3.35056C25.6712 3.3745 25.6629 3.39929 25.6527 3.40567C25.6425 3.41205 25.6342 3.44582 25.6342 3.48073C25.6342 3.51563 25.6259 3.5494 25.6157 3.55578C25.6055 3.56216 25.5972 3.60065 25.5972 3.64133C25.5972 3.68201 25.5888 3.71528 25.5787 3.71528C25.5685 3.71528 25.5601 3.74905 25.5601 3.79033C25.5601 3.83161 25.5518 3.86539 25.5416 3.86539C25.5315 3.86539 25.5231 3.89021 25.5231 3.92057C25.5231 3.95093 25.5148 3.98097 25.5046 3.98735C25.4944 3.99373 25.4861 4.03222 25.4861 4.0729C25.4861 4.11358 25.4778 4.14685 25.4676 4.14685C25.4574 4.14685 25.4491 4.18062 25.4491 4.2219C25.4491 4.26319 25.4408 4.29696 25.4306 4.29696C25.4204 4.29696 25.4121 4.33074 25.4121 4.37202C25.4121 4.4133 25.4038 4.44707 25.3936 4.44707C25.3834 4.44707 25.3751 4.47663 25.3751 4.51275C25.3751 4.54887 25.3667 4.57842 25.3566 4.57842C25.3464 4.57842 25.3381 4.6113 25.3381 4.65147C25.3381 4.69618 25.3282 4.72836 25.3126 4.73443C25.2963 4.74077 25.2904 4.76203 25.2964 4.79338C25.3022 4.82453 25.2938 4.85564 25.2733 4.87861C25.2555 4.8985 25.2458 4.92751 25.2517 4.94308C25.2576 4.95864 25.2503 4.98369 25.2355 4.99874C25.2206 5.01377 25.2085 5.05574 25.2085 5.09199C25.2085 5.12823 25.2002 5.16311 25.19 5.16949C25.1798 5.17587 25.1715 5.20964 25.1715 5.24454C25.1715 5.27944 25.1632 5.31322 25.153 5.3196C25.1428 5.32598 25.1345 5.36447 25.1345 5.40515C25.1345 5.44583 25.1261 5.47909 25.116 5.47909C25.1058 5.47909 25.0975 5.50443 25.0975 5.53539C25.0975 5.56635 25.0891 5.59168 25.0789 5.59168C25.0688 5.59168 25.0604 5.62545 25.0604 5.66673C25.0604 5.70802 25.0521 5.74179 25.0419 5.74179C25.0318 5.74179 25.0234 5.77979 25.0234 5.82623C25.0234 5.87267 25.0151 5.91067 25.0049 5.91067C24.9947 5.91067 24.9864 5.94444 24.9864 5.98572C24.9864 6.027 24.9781 6.06078 24.9679 6.06078C24.9577 6.06078 24.9494 6.08611 24.9494 6.11707C24.9494 6.14803 24.9411 6.17336 24.9309 6.17336C24.9207 6.17336 24.9124 6.20663 24.9124 6.24731C24.9124 6.28799 24.904 6.32648 24.8939 6.33286C24.8837 6.33924 24.8754 6.37682 24.8754 6.4164C24.8754 6.46544 24.8658 6.49205 24.8453 6.50001C24.8234 6.50856 24.8182 6.52626 24.8261 6.56606C24.8333 6.60263 24.8275 6.6282 24.8085 6.64421C24.793 6.65729 24.7841 6.68305 24.7889 6.70144C24.7936 6.71985 24.7859 6.74469 24.7717 6.75666C24.7574 6.76861 24.7458 6.81115 24.7458 6.85116C24.7458 6.89118 24.7375 6.92392 24.7273 6.92392C24.7171 6.92392 24.7088 6.95719 24.7088 6.99787C24.7088 7.03855 24.7005 7.07704 24.6903 7.08342C24.6801 7.0898 24.6718 7.11513 24.6718 7.13971C24.6718 7.16429 24.6634 7.18962 24.6533 7.196C24.6431 7.20238 24.6348 7.24087 24.6348 7.28155C24.6348 7.32223 24.6264 7.3555 24.6162 7.3555C24.6061 7.3555 24.5977 7.38927 24.5977 7.43055C24.5977 7.47183 24.5894 7.50561 24.5792 7.50561C24.5691 7.50561 24.5607 7.53888 24.5607 7.57956C24.5607 7.62024 24.5524 7.65872 24.5422 7.6651C24.532 7.67148 24.5237 7.70152 24.5237 7.73188C24.5237 7.76224 24.5154 7.78707 24.5052 7.78707C24.495 7.78707 24.4867 7.82084 24.4867 7.86212C24.4867 7.90341 24.4784 7.93718 24.4682 7.93718C24.458 7.93718 24.4497 7.97026 24.4497 8.01068C24.4497 8.0517 24.4397 8.08752 24.4272 8.09178C24.4139 8.09624 24.4065 8.12675 24.4091 8.16576C24.4118 8.20727 24.4028 8.24114 24.3849 8.25619C24.3692 8.26942 24.3608 8.29473 24.3664 8.31246C24.3719 8.33019 24.3638 8.35536 24.3483 8.3684C24.3328 8.38144 24.3201 8.42013 24.3201 8.45437C24.3201 8.48864 24.3118 8.52187 24.3016 8.52825C24.2914 8.53463 24.2831 8.57311 24.2831 8.61379C24.2831 8.65447 24.2748 8.68774 24.2646 8.68774C24.2544 8.68774 24.2461 8.65447 24.2461 8.61379C24.2461 8.57311 24.2378 8.53463 24.2276 8.52825C24.2174 8.52187 24.2091 8.48338 24.2091 8.4427C24.2091 8.40202 24.2007 8.36875 24.1906 8.36875C24.1804 8.36875 24.1721 8.34342 24.1721 8.31246C24.1721 8.2815 24.1637 8.25617 24.1536 8.25617C24.1434 8.25617 24.135 8.2229 24.135 8.18222C24.135 8.14154 24.1267 8.10306 24.1165 8.09667C24.1064 8.0903 24.098 8.05652 24.098 8.02162C24.098 7.98672 24.0897 7.95294 24.0795 7.94656C24.0693 7.94018 24.061 7.91014 24.061 7.87978C24.061 7.84942 24.0527 7.8246 24.0425 7.8246C24.0323 7.8246 24.024 7.79133 24.024 7.75065C24.024 7.70997 24.0157 7.67148 24.0055 7.6651C23.9953 7.65872 23.987 7.62418 23.987 7.58836C23.987 7.54775 23.9765 7.51912 23.9592 7.5124C23.9411 7.50535 23.9315 7.47617 23.9315 7.42854C23.9315 7.38837 23.9231 7.3555 23.913 7.3555C23.9028 7.3555 23.8944 7.33067 23.8944 7.30031C23.8944 7.26995 23.8861 7.23991 23.8759 7.23353C23.8658 7.22715 23.8574 7.18867 23.8574 7.14799C23.8574 7.10731 23.8491 7.07404 23.8389 7.07404C23.8287 7.07404 23.8204 7.04026 23.8204 6.99898C23.8204 6.9577 23.8121 6.92392 23.8019 6.92392C23.7917 6.92392 23.7834 6.89065 23.7834 6.84997C23.7834 6.80929 23.7751 6.77081 23.7649 6.76443C23.7547 6.75805 23.7464 6.72801 23.7464 6.69765C23.7464 6.66729 23.7381 6.64246 23.7279 6.64246C23.7177 6.64246 23.7094 6.60869 23.7094 6.56741C23.7094 6.52613 23.701 6.49235 23.6909 6.49235C23.6807 6.49235 23.6723 6.45908 23.6723 6.4184C23.6723 6.37772 23.664 6.33924 23.6538 6.33286C23.6437 6.32648 23.6353 6.2927 23.6353 6.2578C23.6353 6.2229 23.627 6.18912 23.6168 6.18274C23.6066 6.17637 23.5983 6.15103 23.5983 6.12645C23.5983 6.10187 23.59 6.07654 23.5798 6.07016C23.5696 6.06378 23.5613 6.02599 23.5613 5.98617C23.5613 5.94602 23.5513 5.9104 23.5388 5.90618C23.5253 5.90164 23.5181 5.8707 23.5209 5.82921C23.5241 5.78103 23.5168 5.75648 23.4971 5.74881C23.4807 5.74241 23.4688 5.71494 23.4688 5.68349C23.4688 5.65364 23.4604 5.62921 23.4503 5.62921C23.4401 5.62921 23.4317 5.59543 23.4317 5.55415C23.4317 5.51287 23.4234 5.47909 23.4132 5.47909C23.4031 5.47909 23.3947 5.4411 23.3947 5.39466C23.3947 5.34822 23.3864 5.31022 23.3762 5.31022C23.366 5.31022 23.3577 5.27644 23.3577 5.23516C23.3577 5.19388 23.3494 5.16011 23.3392 5.16011C23.329 5.16011 23.3207 5.13477 23.3207 5.10381C23.3207 5.07285 23.3124 5.04752 23.3022 5.04752C23.292 5.04752 23.2837 5.01425 23.2837 4.97357C23.2837 4.93289 23.2754 4.89441 23.2652 4.88803C23.255 4.88165 23.2467 4.84316 23.2467 4.80248C23.2467 4.7618 23.2383 4.72853 23.2282 4.72853C23.218 4.72853 23.2097 4.69476 23.2097 4.65348C23.2097 4.6122 23.2013 4.57842 23.1911 4.57842C23.181 4.57842 23.1726 4.5536 23.1726 4.52324C23.1726 4.49288 23.1643 4.46283 23.1541 4.45645C23.144 4.45008 23.1356 4.4163 23.1356 4.3814C23.1356 4.3465 23.1273 4.31272 23.1171 4.30634C23.1069 4.29996 23.0986 4.26148 23.0986 4.2208C23.0986 4.16758 23.0908 4.14685 23.0708 4.14685C23.0515 4.14685 23.0431 4.12703 23.0431 4.08117C23.0431 4.04505 23.0348 4.0155 23.0246 4.0155C23.0144 4.0155 23.0061 3.98173 23.0061 3.94044C23.0061 3.89916 22.9977 3.86539 22.9876 3.86539C22.9774 3.86539 22.9691 3.83161 22.9691 3.79033C22.9691 3.74905 22.9607 3.71528 22.9505 3.71528C22.9404 3.71528 22.932 3.68201 22.932 3.64133C22.932 3.60065 22.9237 3.56216 22.9135 3.55578C22.9034 3.5494 22.895 3.51936 22.895 3.489C22.895 3.45864 22.8867 3.43382 22.8765 3.43382C22.8663 3.43382 22.858 3.40004 22.858 3.35876C22.858 3.31748 22.8497 3.2837 22.8395 3.2837C22.8293 3.2837 22.821 3.25044 22.821 3.20975C22.821 3.16907 22.8127 3.13059 22.8025 3.12421C22.7923 3.11783 22.784 3.07934 22.784 3.03866C22.784 2.99798 22.7756 2.96472 22.7655 2.96472C22.7553 2.96472 22.747 2.93938 22.747 2.90842C22.747 2.87746 22.7386 2.85213 22.7285 2.85213C22.7183 2.85213 22.7099 2.81886 22.7099 2.77818C22.7099 2.7375 22.7016 2.69902 22.6914 2.69264C22.6813 2.68626 22.6729 2.65303 22.6729 2.61876C22.6729 2.58452 22.6619 2.54718 22.6483 2.53579C22.6338 2.52357 22.6271 2.49197 22.6319 2.45867C22.6377 2.41866 22.6314 2.39885 22.6102 2.39063C22.5925 2.38373 22.5804 2.35744 22.5804 2.32584C22.5804 2.29659 22.5721 2.26744 22.5619 2.26106C22.5517 2.25468 22.5434 2.2162 22.5434 2.17552C22.5434 2.13484 22.535 2.10157 22.5249 2.10157C22.5147 2.10157 22.5064 2.0678 22.5064 2.02651C22.5064 1.98523 22.498 1.95146 22.4879 1.95146C22.4777 1.95146 22.4693 1.92613 22.4693 1.89517C22.4693 1.86421 22.461 1.83887 22.4508 1.83887C22.4407 1.83887 22.4323 1.80088 22.4323 1.75444C22.4323 1.708 22.424 1.67 22.4138 1.67C22.4036 1.67 22.3953 1.63622 22.3953 1.59494C22.3953 1.55366 22.387 1.51989 22.3768 1.51989C22.3666 1.51989 22.3583 1.48662 22.3583 1.44594C22.3583 1.40526 22.35 1.36677 22.3398 1.36039C22.3296 1.35401 22.3213 1.32868 22.3213 1.3041C22.3213 1.27952 22.313 1.25419 22.3028 1.24781C22.2926 1.24143 22.2843 1.20294 22.2843 1.16226C22.2843 1.12158 22.2759 1.08831 22.2658 1.08831C22.2556 1.08831 22.2472 1.05454 22.2472 1.01326C22.2472 0.971976 22.2395 0.938201 22.2299 0.938201C22.2204 0.938201 22.21 0.910768 22.2068 0.877218L22.201 0.816235L18.7015 0.811488C16.7768 0.80888 15.1965 0.812407 15.1896 0.819312ZM34.3822 0.819368C34.3754 0.826236 34.3699 1.64529 34.3699 2.63948V4.44707H36.2021H38.0343L38.039 9.30226L38.0437 14.1575L40.0286 14.1622L42.0136 14.167V9.30705V4.44707H43.8459H45.6781V2.62696V0.806853H40.0364C36.9333 0.806853 34.389 0.812482 34.3822 0.819368ZM53.109 0.825617C53.1024 0.836406 53.0047 0.844381 52.8789 0.844381C52.707 0.844381 52.6552 0.850423 52.6371 0.872527C52.6198 0.893674 52.5732 0.900673 52.4497 0.900673C52.3525 0.900673 52.2854 0.908329 52.2854 0.919437C52.2854 0.930151 52.2303 0.938201 52.157 0.938201C52.0863 0.938201 52.0234 0.946645 52.0171 0.956965C52.0108 0.967285 51.9562 0.975729 51.8957 0.975729C51.8347 0.975729 51.7857 0.984098 51.7857 0.994493C51.7857 1.00489 51.7367 1.01326 51.6758 1.01326C51.6153 1.01326 51.5607 1.0217 51.5544 1.03202C51.5481 1.04234 51.5018 1.05079 51.4515 1.05079C51.4012 1.05079 51.36 1.05923 51.36 1.06955C51.36 1.07987 51.3267 1.08831 51.286 1.08831C51.2453 1.08831 51.212 1.09676 51.212 1.10708C51.212 1.1174 51.1792 1.12584 51.139 1.12584C51.0989 1.12584 51.061 1.13429 51.0547 1.14461C51.0484 1.15493 51.0104 1.16337 50.9703 1.16337C50.9302 1.16337 50.8974 1.17181 50.8974 1.18213C50.8974 1.19245 50.864 1.2009 50.8233 1.2009C50.7826 1.2009 50.7493 1.20934 50.7493 1.21966C50.7493 1.22998 50.7248 1.23843 50.6949 1.23843C50.6649 1.23843 50.6353 1.24687 50.629 1.25719C50.6227 1.26751 50.5894 1.27595 50.555 1.27595C50.5205 1.27595 50.4872 1.2844 50.4809 1.29472C50.4746 1.30504 50.4502 1.31348 50.4266 1.31348C50.403 1.31348 50.3733 1.32615 50.3606 1.34163C50.3479 1.35711 50.3183 1.36977 50.2947 1.36977C50.2711 1.36977 50.2466 1.37822 50.2403 1.38854C50.234 1.39886 50.2044 1.4073 50.1745 1.4073C50.1445 1.4073 50.12 1.41575 50.12 1.42607C50.12 1.43639 50.1034 1.44483 50.083 1.44483C50.0626 1.44483 50.046 1.45327 50.046 1.46359C50.046 1.47391 50.021 1.48236 49.9905 1.48236C49.9599 1.48236 49.9349 1.4908 49.9349 1.50112C49.9349 1.51144 49.9183 1.51989 49.8979 1.51989C49.8776 1.51989 49.8609 1.52833 49.8609 1.53865C49.8609 1.54897 49.8404 1.55741 49.8152 1.55741C49.7901 1.55741 49.7398 1.5743 49.7036 1.59494C49.6674 1.61558 49.6255 1.63247 49.6105 1.63247C49.5955 1.63247 49.5833 1.64091 49.5833 1.65123C49.5833 1.66155 49.5583 1.67 49.5278 1.67C49.4972 1.67 49.4722 1.67844 49.4722 1.68876C49.4722 1.69908 49.4614 1.70753 49.4481 1.70753C49.4113 1.70753 49.2316 1.80236 49.2316 1.82178C49.2316 1.83118 49.215 1.83887 49.1946 1.83887C49.1743 1.83887 49.1576 1.84732 49.1576 1.85764C49.1576 1.86796 49.1428 1.8764 49.1247 1.8764C49.1066 1.8764 49.0798 1.89329 49.0651 1.91393C49.0504 1.93457 49.0236 1.95146 49.0055 1.95146C48.9874 1.95146 48.9725 1.9599 48.9725 1.97022C48.9725 1.98054 48.9613 1.98899 48.9476 1.98899C48.9123 1.98899 48.8141 2.04089 48.7871 2.07382C48.7747 2.08907 48.7542 2.10157 48.7418 2.10157C48.7293 2.10157 48.7041 2.11846 48.6857 2.1391C48.6672 2.15974 48.6424 2.17663 48.6305 2.17663C48.6186 2.17663 48.5893 2.19774 48.5654 2.22354C48.5415 2.24934 48.5122 2.27045 48.5002 2.27045C48.4883 2.27045 48.4635 2.28733 48.4451 2.30797C48.4267 2.32862 48.398 2.3455 48.3815 2.3455C48.365 2.3455 48.3394 2.36239 48.3248 2.38303C48.3101 2.40367 48.2868 2.42056 48.273 2.42056C48.2591 2.42056 48.2158 2.45433 48.1767 2.49561C48.1376 2.5369 48.0938 2.57067 48.0793 2.57067C48.0649 2.57067 47.9943 2.634 47.9224 2.7114C47.8505 2.7888 47.783 2.85213 47.7724 2.85213C47.7448 2.85213 47.4919 3.10004 47.4919 3.12704C47.4919 3.13939 47.4336 3.2093 47.3624 3.28241C47.2911 3.35551 47.2328 3.42487 47.2328 3.43654C47.2328 3.44821 47.2037 3.483 47.168 3.51384C47.1324 3.54469 47.1032 3.58237 47.1032 3.59755C47.1032 3.61273 47.0783 3.64883 47.0477 3.67775C47.0172 3.70666 46.9922 3.74198 46.9922 3.75618C46.9922 3.7704 46.9755 3.79422 46.9552 3.8091C46.9348 3.82398 46.9182 3.84931 46.9182 3.86539C46.9182 3.88147 46.9015 3.9068 46.8812 3.92168C46.8608 3.93656 46.8441 3.96244 46.8441 3.97921C46.8441 3.99597 46.8275 4.02498 46.8071 4.04365C46.7868 4.06232 46.7701 4.09318 46.7701 4.11223C46.7701 4.13128 46.7618 4.14685 46.7516 4.14685C46.7414 4.14685 46.7331 4.16284 46.7331 4.18237C46.7331 4.2019 46.7201 4.22296 46.7042 4.22915C46.6882 4.23534 46.6798 4.24795 46.6855 4.25718C46.6911 4.26639 46.6833 4.28437 46.6681 4.29713C46.653 4.30989 46.6406 4.33092 46.6406 4.34387C46.6406 4.35682 46.6282 4.3778 46.6132 4.39046C46.5742 4.42326 46.5295 4.52018 46.5295 4.57193C46.5295 4.59613 46.5212 4.61595 46.511 4.61595C46.5008 4.61595 46.4925 4.63284 46.4925 4.65348C46.4925 4.67412 46.4842 4.69101 46.474 4.69101C46.4638 4.69101 46.4555 4.70789 46.4555 4.72853C46.4555 4.74917 46.4471 4.76606 46.437 4.76606C46.4268 4.76606 46.4185 4.78295 46.4185 4.80359C46.4185 4.82423 46.4101 4.84112 46.3999 4.84112C46.3898 4.84112 46.3814 4.86594 46.3814 4.8963C46.3814 4.92666 46.3731 4.9567 46.3629 4.96308C46.3528 4.96946 46.3444 4.99951 46.3444 5.02987C46.3444 5.06023 46.3361 5.08505 46.3259 5.08505C46.3157 5.08505 46.3074 5.10104 46.3074 5.12057C46.3074 5.1401 46.2943 5.16118 46.2784 5.16739C46.26 5.17455 46.2534 5.1915 46.2603 5.21366C46.2667 5.23402 46.2593 5.25867 46.2427 5.27267C46.2248 5.28772 46.2157 5.32159 46.2185 5.36309C46.2211 5.40211 46.2136 5.43262 46.2004 5.43708C46.188 5.44127 46.1779 5.46932 46.1779 5.49942C46.1779 5.52953 46.1695 5.55415 46.1594 5.55415C46.1492 5.55415 46.1408 5.58742 46.1408 5.6281C46.1408 5.66878 46.1325 5.70726 46.1223 5.71364C46.1122 5.72002 46.1038 5.7538 46.1038 5.7887C46.1038 5.8236 46.0955 5.85738 46.0853 5.86376C46.0751 5.87014 46.0668 5.91707 46.0668 5.96807C46.0668 6.01907 46.0585 6.06078 46.0483 6.06078C46.038 6.06078 46.0298 6.11045 46.0298 6.17226C46.0298 6.23358 46.0215 6.28895 46.0113 6.29533C46.0011 6.30171 45.9928 6.36552 45.9928 6.43717C45.9928 6.51149 45.9848 6.56741 45.9743 6.56741C45.9629 6.56741 45.9558 6.65809 45.9558 6.80196C45.9558 6.94582 45.9486 7.03651 45.9373 7.03651C45.9254 7.03651 45.9187 7.19914 45.9187 7.48684C45.9187 7.77455 45.9254 7.93718 45.9373 7.93718C45.9486 7.93718 45.9558 8.02787 45.9558 8.17173C45.9558 8.31559 45.9629 8.40628 45.9743 8.40628C45.985 8.40628 45.9928 8.46571 45.9928 8.54701C45.9928 8.62832 46.0006 8.68774 46.0113 8.68774C46.0216 8.68774 46.0298 8.73779 46.0298 8.80033C46.0298 8.86287 46.038 8.91291 46.0483 8.91291C46.0585 8.91291 46.0668 8.94618 46.0668 8.98686C46.0668 9.02754 46.0751 9.06602 46.0853 9.0724C46.0955 9.07878 46.1038 9.12571 46.1038 9.17671C46.1038 9.22771 46.1122 9.26943 46.1223 9.26943C46.1325 9.26943 46.1408 9.29476 46.1408 9.32572C46.1408 9.35668 46.1492 9.38201 46.1594 9.38201C46.1695 9.38201 46.1779 9.41475 46.1779 9.45478C46.1779 9.49522 46.1897 9.53749 46.2045 9.54997C46.2192 9.5623 46.2265 9.58476 46.2208 9.59986C46.2151 9.61498 46.2249 9.6436 46.2426 9.66347C46.2604 9.68334 46.2699 9.7129 46.2637 9.72916C46.2572 9.74633 46.264 9.76318 46.28 9.76939C46.2955 9.77542 46.3074 9.8037 46.3074 9.83436C46.3074 9.86421 46.3157 9.88864 46.3259 9.88864C46.3361 9.88864 46.3444 9.91819 46.3444 9.95431C46.3444 9.99043 46.3528 10.02 46.3629 10.02C46.3731 10.02 46.3814 10.0369 46.3814 10.0575C46.3814 10.0782 46.3898 10.095 46.3999 10.095C46.4101 10.095 46.4185 10.1119 46.4185 10.1326C46.4185 10.1532 46.4268 10.1701 46.437 10.1701C46.4471 10.1701 46.4555 10.1954 46.4555 10.2264C46.4555 10.2574 46.4638 10.2827 46.474 10.2827C46.4842 10.2827 46.4925 10.2996 46.4925 10.3202C46.4925 10.3409 46.5008 10.3577 46.511 10.3577C46.5212 10.3577 46.5295 10.3688 46.5295 10.3823C46.5295 10.4109 46.6427 10.6435 46.6771 10.6855C46.69 10.7013 46.6933 10.7143 46.6845 10.7143C46.6756 10.7143 46.6912 10.7343 46.7192 10.7587C46.7472 10.7831 46.7701 10.8164 46.7701 10.8326C46.7701 10.8489 46.7784 10.8674 46.7886 10.8738C46.7988 10.8801 46.8071 10.8999 46.8071 10.9176C46.8071 10.9354 46.8238 10.9621 46.8441 10.977C46.8645 10.9918 46.8812 11.0172 46.8812 11.0332C46.8812 11.0493 46.8978 11.0747 46.9182 11.0895C46.9385 11.1044 46.9552 11.1297 46.9552 11.1458C46.9552 11.1619 46.9718 11.1872 46.9922 11.2021C47.0126 11.217 47.0292 11.2402 47.0292 11.2537C47.0292 11.2672 47.0563 11.3083 47.0894 11.3452C47.1224 11.382 47.1495 11.4185 47.1495 11.4261C47.1495 11.4337 47.1849 11.4745 47.2282 11.5166C47.2715 11.5588 47.3068 11.6032 47.3068 11.6154C47.3068 11.6402 47.9429 12.2904 47.9672 12.2904C47.9756 12.2904 48.0179 12.3242 48.0612 12.3655C48.1044 12.4068 48.1489 12.4405 48.1601 12.4405C48.1712 12.4405 48.2037 12.4659 48.2322 12.4968C48.2607 12.5278 48.2953 12.5533 48.3091 12.5535C48.3228 12.5537 48.3589 12.5833 48.3894 12.6192C48.4198 12.6551 48.4575 12.6845 48.4732 12.6845C48.4889 12.6845 48.5137 12.7014 48.5284 12.722C48.543 12.7426 48.568 12.7595 48.5839 12.7595C48.5997 12.7595 48.6247 12.7764 48.6394 12.7971C48.6541 12.8177 48.6809 12.8346 48.699 12.8346C48.7171 12.8346 48.7319 12.843 48.7319 12.8534C48.7319 12.8637 48.7476 12.8721 48.7667 12.8721C48.7858 12.8721 48.8117 12.8846 48.8242 12.8999C48.8496 12.931 48.9486 12.9847 48.9806 12.9847C48.992 12.9847 49.0134 13.0016 49.0281 13.0222C49.0427 13.0429 49.0696 13.0598 49.0877 13.0598C49.1058 13.0598 49.1206 13.0682 49.1206 13.0785C49.1206 13.0888 49.1373 13.0973 49.1576 13.0973C49.178 13.0973 49.1946 13.105 49.1946 13.1144C49.1946 13.1338 49.3743 13.2286 49.4111 13.2286C49.4244 13.2286 49.4352 13.2371 49.4352 13.2474C49.4352 13.2577 49.4519 13.2662 49.4722 13.2662C49.4926 13.2662 49.5093 13.2746 49.5093 13.2849C49.5093 13.2952 49.5342 13.3037 49.5648 13.3037C49.5953 13.3037 49.6203 13.3121 49.6203 13.3225C49.6203 13.3328 49.6325 13.3412 49.6475 13.3412C49.6625 13.3412 49.7044 13.3581 49.7406 13.3787C49.7768 13.3994 49.8271 13.4163 49.8522 13.4163C49.8774 13.4163 49.8979 13.4247 49.8979 13.435C49.8979 13.4454 49.9146 13.4538 49.9349 13.4538C49.9553 13.4538 49.972 13.4622 49.972 13.4726C49.972 13.4829 49.9969 13.4913 50.0275 13.4913C50.058 13.4913 50.083 13.4998 50.083 13.5101C50.083 13.5204 50.108 13.5289 50.1385 13.5289C50.1691 13.5289 50.1941 13.5373 50.1941 13.5476C50.1941 13.5579 50.2232 13.5664 50.2588 13.5664C50.3041 13.5664 50.3236 13.5749 50.3236 13.5945C50.3236 13.6132 50.342 13.6227 50.378 13.6227C50.408 13.6227 50.4376 13.6311 50.4439 13.6414C50.4502 13.6518 50.4752 13.6602 50.4994 13.6602C50.5237 13.6602 50.5487 13.6687 50.555 13.679C50.5612 13.6893 50.5862 13.6977 50.6105 13.6977C50.6347 13.6977 50.6597 13.7062 50.666 13.7165C50.6723 13.7268 50.7103 13.7353 50.7504 13.7353C50.7905 13.7353 50.8233 13.7437 50.8233 13.754C50.8233 13.7643 50.8566 13.7728 50.8974 13.7728C50.9381 13.7728 50.9714 13.7812 50.9714 13.7916C50.9714 13.8019 51.0042 13.8103 51.0443 13.8103C51.0844 13.8103 51.1224 13.8188 51.1287 13.8291C51.135 13.8394 51.173 13.8478 51.2131 13.8478C51.2532 13.8478 51.286 13.8563 51.286 13.8666C51.286 13.8769 51.3277 13.8854 51.3786 13.8854C51.4295 13.8854 51.4711 13.8938 51.4711 13.9041C51.4711 13.9145 51.5169 13.9229 51.5729 13.9229C51.6289 13.9229 51.6747 13.9313 51.6747 13.9417C51.6747 13.9521 51.724 13.9604 51.7857 13.9604C51.8474 13.9604 51.8968 13.9688 51.8968 13.9792C51.8968 13.9897 51.9486 13.998 52.0151 13.998C52.1032 13.998 52.1361 14.0051 52.1441 14.0261C52.1522 14.0476 52.1872 14.0543 52.293 14.0543C52.3691 14.0543 52.4365 14.0627 52.4428 14.073C52.4491 14.0835 52.5351 14.0918 52.6371 14.0918C52.739 14.0918 52.825 14.1001 52.8314 14.1105C52.8383 14.1218 52.9642 14.1293 53.1471 14.1293C53.3377 14.1293 53.4514 14.1363 53.4514 14.1481C53.4514 14.1605 54.5372 14.1668 56.6718 14.1668H59.8921V12.3467V10.5266H56.7088C54.5989 10.5266 53.5255 10.5203 53.5255 10.5079C53.5255 10.4964 53.4422 10.4891 53.3126 10.4891C53.1831 10.4891 53.0998 10.4818 53.0998 10.4703C53.0998 10.4595 53.0412 10.4516 52.961 10.4516C52.8808 10.4516 52.8222 10.4436 52.8222 10.4328C52.8222 10.4225 52.7774 10.414 52.7226 10.414C52.6567 10.414 52.6153 10.4045 52.6001 10.3859C52.5868 10.3697 52.5465 10.3577 52.5053 10.3577C52.4658 10.3577 52.4335 10.3493 52.4335 10.339C52.4335 10.3287 52.4007 10.3202 52.3606 10.3202C52.3204 10.3202 52.2825 10.3118 52.2762 10.3014C52.2699 10.2911 52.2366 10.2827 52.2022 10.2827C52.1677 10.2827 52.1344 10.2742 52.1281 10.2639C52.1218 10.2536 52.0922 10.2452 52.0623 10.2452C52.0323 10.2452 52.0078 10.2367 52.0078 10.2264C52.0078 10.2161 51.9828 10.2076 51.9523 10.2076C51.9218 10.2076 51.8968 10.1992 51.8968 10.1889C51.8968 10.1785 51.8718 10.1701 51.8413 10.1701C51.8107 10.1701 51.7857 10.1617 51.7857 10.1513C51.7857 10.141 51.7735 10.1326 51.7585 10.1326C51.7436 10.1326 51.7017 10.1157 51.6654 10.095C51.6292 10.0744 51.5873 10.0575 51.5723 10.0575C51.5574 10.0575 51.5451 10.0491 51.5451 10.0388C51.5451 10.0284 51.5285 10.02 51.5081 10.02C51.4878 10.02 51.4711 10.0115 51.4711 10.0012C51.4711 9.9909 51.4544 9.98246 51.4341 9.98246C51.4137 9.98246 51.3971 9.97422 51.3971 9.96416C51.3971 9.95411 51.361 9.92919 51.3168 9.90879C51.2727 9.88841 51.2258 9.85865 51.2127 9.84267C51.1997 9.82666 51.1767 9.81358 51.1616 9.81358C51.1466 9.81358 51.1109 9.78825 51.0824 9.75729C51.0539 9.72633 51.0217 9.701 51.011 9.701C50.9833 9.701 50.5457 9.25412 50.5457 9.22589C50.5457 9.21312 50.529 9.19049 50.5087 9.17561C50.4883 9.16073 50.4717 9.13354 50.4717 9.11517C50.4717 9.09682 50.4643 9.08179 50.4554 9.08179C50.4464 9.08179 50.4082 9.01846 50.3705 8.94106C50.3328 8.86365 50.2943 8.80033 50.285 8.80033C50.2757 8.80033 50.2681 8.78344 50.2681 8.7628C50.2681 8.74216 50.2598 8.72527 50.2496 8.72527C50.2394 8.72527 50.2311 8.69994 50.2311 8.66898C50.2311 8.63802 50.2227 8.61269 50.2126 8.61269C50.2024 8.61269 50.1941 8.58313 50.1941 8.54701C50.1941 8.51089 50.1857 8.48134 50.1755 8.48134C50.1654 8.48134 50.157 8.45601 50.157 8.42505C50.157 8.39408 50.1487 8.36875 50.1385 8.36875C50.1283 8.36875 50.12 8.33498 50.12 8.2937C50.12 8.25242 50.1117 8.21864 50.1015 8.21864C50.0911 8.21864 50.083 8.16548 50.083 8.09667C50.083 8.02787 50.0749 7.97471 50.0645 7.97471C50.0526 7.97471 50.046 7.79958 50.046 7.48684C50.046 7.1741 50.0526 6.99898 50.0645 6.99898C50.0749 6.99898 50.083 6.94582 50.083 6.87701C50.083 6.80821 50.0911 6.75505 50.1015 6.75505C50.1117 6.75505 50.12 6.72127 50.12 6.67999C50.12 6.63871 50.1283 6.60494 50.1385 6.60494C50.1487 6.60494 50.157 6.57116 50.157 6.52988C50.157 6.4886 50.1654 6.45482 50.1755 6.45482C50.1857 6.45482 50.1941 6.42527 50.1941 6.38915C50.1941 6.35303 50.2024 6.32347 50.2126 6.32347C50.2227 6.32347 50.2311 6.30659 50.2311 6.28595C50.2311 6.26531 50.2394 6.24842 50.2496 6.24842C50.2598 6.24842 50.2681 6.23153 50.2681 6.21089C50.2681 6.19025 50.2757 6.17336 50.285 6.17336C50.3025 6.17336 50.4347 5.91583 50.4347 5.88181C50.4347 5.87128 50.4513 5.85049 50.4717 5.83561C50.492 5.82073 50.5087 5.79692 50.5087 5.7827C50.5087 5.76849 50.5337 5.73318 50.5642 5.70426C50.5947 5.67535 50.6197 5.64279 50.6197 5.63193C50.6197 5.60575 50.9107 5.31022 50.9365 5.31022C50.9475 5.31022 50.9799 5.28489 51.0084 5.25393C51.0369 5.22297 51.0717 5.19763 51.0858 5.19763C51.0998 5.19763 51.1233 5.18075 51.138 5.16011C51.1526 5.13947 51.1784 5.12258 51.1953 5.12258C51.2122 5.12258 51.2367 5.1095 51.2498 5.09349C51.2628 5.07751 51.3097 5.04775 51.3538 5.02737C51.398 5.00697 51.4341 4.98205 51.4341 4.972C51.4341 4.96194 51.4507 4.9537 51.4711 4.9537C51.4915 4.9537 51.5081 4.94526 51.5081 4.93494C51.5081 4.92462 51.5248 4.91617 51.5451 4.91617C51.5655 4.91617 51.5821 4.90773 51.5821 4.89741C51.5821 4.88709 51.603 4.87865 51.6284 4.87865C51.6539 4.87865 51.6747 4.8702 51.6747 4.85988C51.6747 4.84956 51.6913 4.84112 51.7117 4.84112C51.7321 4.84112 51.7487 4.83267 51.7487 4.82235C51.7487 4.81203 51.7737 4.80359 51.8042 4.80359C51.8348 4.80359 51.8598 4.79515 51.8598 4.78483C51.8598 4.77451 51.8764 4.76606 51.8968 4.76606C51.9171 4.76606 51.9338 4.75762 51.9338 4.7473C51.9338 4.73698 51.9588 4.72853 51.9893 4.72853C52.0198 4.72853 52.0448 4.72009 52.0448 4.70977C52.0448 4.69945 52.0776 4.69101 52.1178 4.69101C52.1579 4.69101 52.1959 4.68256 52.2022 4.67224C52.2084 4.66192 52.2464 4.65348 52.2865 4.65348C52.3267 4.65348 52.3595 4.64503 52.3595 4.63471C52.3595 4.62439 52.3923 4.61595 52.4324 4.61595C52.4725 4.61595 52.5105 4.60751 52.5168 4.59719C52.5231 4.58686 52.5647 4.57842 52.6093 4.57842C52.6539 4.57842 52.6956 4.56998 52.7019 4.55966C52.7082 4.54934 52.7628 4.54089 52.8233 4.54089C52.9086 4.54089 52.9332 4.53461 52.9332 4.51275C52.9332 4.48993 52.963 4.4846 53.0905 4.4846C53.1831 4.4846 53.2478 4.47687 53.2478 4.46584C53.2478 4.4534 54.3676 4.44707 56.57 4.44707H59.8921V2.62696V0.806853H56.5063C54.2691 0.806853 53.1166 0.813214 53.109 0.825617Z" fill="black"/>
</svg>