<svg width="100" height="23" viewBox="0 0 100 23" fill="none" xmlns="http://www.w3.org/2000/svg">
    <path fill-rule="evenodd" clip-rule="evenodd" d="M26.3405 16.1951V7.08592H34.0122V16.1951H32.1383V8.82706H28.2139V16.1951H26.3405ZM39.4938 10.946H38.4303C37.5442 10.946 37.1009 11.2508 37.1009 11.8473C37.1009 12.4318 37.5319 12.7238 38.3927 12.7238C38.7728 12.7238 39.1394 12.7 39.4938 12.639V10.946ZM41.2284 9.55782V16.1946H39.4938V13.8919C39.1577 13.9509 38.8019 14.0286 38.372 14.0405L36.9364 16.1946H34.9868L36.7016 13.8061C35.8022 13.4407 35.3288 12.8095 35.3288 11.823C35.3288 10.471 36.3537 9.55782 38.3799 9.55782H41.2284ZM52.9515 10.118C53.4828 10.6173 53.7486 11.2994 53.7486 12.1883V16.1946H51.9641V12.5047C51.9641 11.4943 51.4072 10.9584 50.5838 10.9584C49.6844 10.9584 49.0647 11.5795 49.0647 12.5537V16.1951H47.2797V12.5175C47.2797 11.531 46.7351 10.9584 45.8871 10.9584C45.0139 10.9584 44.3808 11.5795 44.3808 12.5661V16.1951H42.5958V9.55782H44.3427V10.5077C44.7351 9.81363 45.5451 9.36346 46.444 9.37537C47.3049 9.37537 48.1025 9.77742 48.4697 10.5444C48.9763 9.81363 49.9127 9.37537 50.9382 9.37537C51.7615 9.37537 52.4321 9.61784 52.9515 10.118ZM67.7258 14.2339C68.0801 13.8685 68.2575 13.4183 68.2575 12.8829C68.2575 12.3465 68.0801 11.8963 67.7258 11.5305C67.3714 11.1656 66.9153 10.9826 66.346 10.9826C65.789 10.9826 65.3329 11.1656 64.979 11.5305C64.6242 11.8963 64.4468 12.3465 64.4468 12.8829C64.4468 13.4183 64.6247 13.869 64.979 14.2344C65.3334 14.5997 65.789 14.7822 66.346 14.7822C66.9153 14.7822 67.3714 14.5993 67.7258 14.2339ZM69.0932 10.3981C69.7386 11.0679 70.0554 11.8963 70.0554 12.8705C70.0554 13.8447 69.7262 14.6726 69.0803 15.3429C68.4349 16.0122 67.6249 16.3528 66.6494 16.3528C65.8019 16.3528 65.0191 15.9965 64.4849 15.3658V18.9228H62.6999V9.55782H64.472V10.4286C65.0388 9.74837 65.789 9.38775 66.6623 9.38775C67.6373 9.38775 68.4473 9.72836 69.0932 10.3981ZM74.3978 14.7703C74.9419 14.7703 75.3852 14.5874 75.7519 14.222C76.1195 13.8447 76.3093 13.394 76.3093 12.8705C76.3093 12.3465 76.1195 11.8963 75.7523 11.531C75.3852 11.1656 74.9419 10.9831 74.3978 10.9831C73.8532 10.9831 73.3975 11.1656 73.0304 11.531C72.6637 11.8963 72.4863 12.347 72.4863 12.8705C72.4863 13.394 72.6637 13.8447 73.0304 14.222C73.3975 14.5874 73.8532 14.7703 74.3978 14.7703ZM71.7391 10.3981C72.4359 9.71597 73.3219 9.37537 74.3978 9.37537C75.4736 9.37537 76.3597 9.71597 77.0565 10.3981C77.7523 11.0679 78.0943 11.8963 78.0943 12.8705C78.0943 13.8566 77.7523 14.685 77.0565 15.3548C76.3597 16.0241 75.4736 16.3657 74.3978 16.3657C73.3219 16.3657 72.4359 16.0241 71.7391 15.3548C71.0427 14.685 70.7013 13.8571 70.7013 12.8705C70.7013 11.8963 71.0427 11.0679 71.7391 10.3981ZM83.1202 9.55782H84.9057V16.1951H83.1202V13.9609C82.5978 14.2482 82.032 14.3925 81.5882 14.3925C80.7659 14.3925 80.158 14.2463 79.6134 13.8933C79.0698 13.516 78.7659 12.8095 78.7659 11.7863V9.55782H80.5381V11.6648C80.5381 12.4442 80.9557 12.8338 81.7913 12.8338C82.2598 12.8338 82.6591 12.771 83.1207 12.5933L83.1202 9.55782ZM90.8053 16.1951L88.0581 13.1301V16.1951H86.2731V9.54781H88.0581V12.1812L90.5646 9.55782H92.8181L89.7418 12.6318L92.9956 16.1951H90.8053Z" fill="black"/>
    <path fill-rule="evenodd" clip-rule="evenodd" d="M97.6992 11.5186C97.332 11.1409 96.8759 10.9584 96.319 10.9584C95.7497 10.9584 95.2935 11.1409 94.9263 11.5186C94.572 11.8964 94.3946 12.3466 94.3946 12.8701C94.3946 13.406 94.572 13.8567 94.9392 14.2344C95.3064 14.6117 95.762 14.7942 96.319 14.7942C96.8759 14.7942 97.332 14.6117 97.6992 14.2344C98.0659 13.8567 98.2562 13.406 98.2562 12.8701C98.2562 12.3466 98.0659 11.8964 97.6992 11.5186ZM98.231 9.55788H99.927V16.1947H98.231V15.3182C97.638 16.0099 96.9016 16.3533 96.0279 16.3533C95.0405 16.3533 94.2177 16.0246 93.5718 15.3549C92.9264 14.6851 92.6101 13.8448 92.6101 12.8463C92.6101 11.8473 92.9392 11.0194 93.5846 10.3739C94.2305 9.71651 95.0533 9.38781 96.0279 9.38781C96.8888 9.38781 97.6483 9.76415 98.231 10.4282V9.55788ZM58.6871 7.88962C58.6871 7.3175 59.1556 6.89114 59.7629 6.89114C60.3579 6.89114 60.8141 7.34179 60.8141 7.88962C60.8141 8.48652 60.3579 8.92478 59.7629 8.92478C59.1556 8.92478 58.6871 8.48652 58.6871 7.88962ZM56.4845 12.2008H59.9912C59.8267 11.3357 59.1808 10.8126 58.2695 10.8126C57.3701 10.8126 56.6995 11.3362 56.4845 12.2008ZM57.0034 6.89114C57.5984 6.89114 58.0669 7.34179 58.0669 7.88962C58.0669 8.48652 57.6112 8.92478 57.0034 8.92478C56.3955 8.92478 55.9399 8.48652 55.9399 7.88962C55.9399 7.34179 56.4084 6.89114 57.0034 6.89114ZM61.6621 13.4794H56.4845C56.7375 14.4169 57.4086 14.8918 58.4973 14.8918C59.244 14.8918 60.0757 14.6227 60.7063 14.1415L61.4249 15.2291C60.5536 16.0137 59.5608 16.341 58.4212 16.341C57.2055 16.341 56.2814 16.0003 55.636 15.3306C54.9906 14.6608 54.6738 13.8324 54.6738 12.8706C54.6738 11.8597 55.0029 11.0318 55.674 10.3744C56.3451 9.71651 57.206 9.38734 58.2695 9.38734C59.2697 9.38734 60.1049 9.69174 60.7503 10.2886C61.3962 10.8855 61.7253 11.6892 61.7253 12.7239C61.7253 12.9554 61.7006 13.2117 61.6621 13.4794Z" fill="black"/>
    <path fill-rule="evenodd" clip-rule="evenodd" d="M11.8632 0C5.44715 0 0.227539 5.03154 0.227539 11.2162C0.227539 17.4008 5.44715 22.4324 11.8632 22.4324C18.2787 22.4324 23.4988 17.4008 23.4988 11.2162C23.4988 5.03154 18.2787 0 11.8632 0ZM18.6479 3.87577C17.3343 6.63393 14.4067 6.91022 11.8973 6.91022C11.5767 6.91022 11.2641 6.90588 10.9624 6.90153C10.7455 6.89851 10.5342 6.89568 10.3297 6.89454L9.69762 9.27746C12.9346 6.73364 17.2152 9.25555 16.7576 13.0941C16.4492 15.6793 14.5372 17.3701 12.5145 17.856C10.311 18.3857 7.86966 17.5929 6.77504 15.4283C6.6589 15.1996 6.45677 14.7415 6.37965 14.4965L8.70333 13.9211C8.74437 14.0501 8.81404 14.1749 8.88716 14.2888C10.4429 16.7074 13.5953 15.4978 13.9511 12.9887C14.3133 10.4364 10.598 9.0769 8.90495 12.0598L6.8442 11.2134L6.80863 11.1981L7.80244 7.35232C7.86372 7.07886 8.07029 6.31534 8.10585 6.18994C9.22916 2.20841 12.8629 2.14553 15.7777 2.13514C14.5723 1.65168 13.2508 1.38389 11.8637 1.38389C6.22992 1.38389 1.66364 5.78562 1.66364 11.2162C1.66364 16.647 6.22992 21.0485 11.8637 21.0485C17.4974 21.0485 22.0637 16.647 22.0637 11.2162C22.0637 8.29695 20.7432 5.67646 18.6479 3.87577ZM11.897 5.82357C14.8255 5.82357 16.8472 5.36675 17.7353 3.17117C17.1662 3.2165 16.5457 3.21876 15.8978 3.22122H15.894C14.4035 3.22556 12.7144 3.23123 11.4151 3.78852C10.4831 4.1887 9.82829 4.84854 9.41813 5.81942C9.65583 5.80941 9.89702 5.80639 10.1362 5.80639C10.364 5.80639 10.5957 5.80941 10.8376 5.81281L10.9709 5.81451C11.2713 5.81885 11.5827 5.82357 11.897 5.82357Z" fill="black"/>
</svg>