<svg width="98" height="23" viewBox="0 0 98 23" fill="none" xmlns="http://www.w3.org/2000/svg">
    <path fill-rule="evenodd" clip-rule="evenodd" d="M49.0476 0.769714C45.9906 1.17991 43.3644 1.51962 43.2115 1.52451C43.0132 1.53096 42.9336 2.04165 42.9336 3.30847V5.08308L44.7326 6.28765L46.5317 7.49222L45.7887 7.64941C44.5988 7.9013 43.6419 8.60986 42.9871 9.7235C42.4327 10.6671 42.3778 10.9601 42.3778 12.9835C42.3778 14.8713 42.4542 15.3497 42.884 16.1545C43.8369 17.9385 45.8058 18.8752 48.6029 18.8752C51.4 18.8752 53.3689 17.9385 54.3218 16.1545C54.7516 15.3497 54.8281 14.8713 54.8281 12.9835C54.8281 9.79864 54.5693 9.40913 50.7206 6.79767C47.9604 4.92479 47.7683 4.75115 48.3806 4.68112C48.7474 4.63932 50.3982 4.4888 52.049 4.34696L55.0504 4.08906L55.1144 2.0332C55.1631 0.46268 55.1106 -0.0171019 54.8921 0.000461986C54.7345 0.013357 52.1046 0.35952 49.0476 0.769714ZM5.38029 7.98512C4.71886 8.34974 4.14348 8.6481 4.1019 8.6481C4.06033 8.6481 4.02631 8.39798 4.02631 8.09228C4.02631 7.54891 3.98919 7.53646 2.35886 7.53646H0.691406V14.9844V22.4324H2.35886H4.02631V19.7631V17.0936L4.93185 17.7497C6.55573 18.9261 9.53603 19.0961 11.0574 18.0992C12.4443 17.1906 13.1393 15.4829 13.1393 12.9835C13.1393 10.3193 12.4243 8.74103 10.8006 7.82149C10.1023 7.42575 9.57004 7.32147 8.25053 7.32192C6.81763 7.32214 6.41388 7.41552 5.38029 7.98512ZM17.7761 7.64429C16.4737 8.12341 15.8321 8.6421 15.1891 9.73572C14.6427 10.6651 14.5869 10.9665 14.5869 12.9835C14.5869 15.6018 15.0191 16.6821 16.494 17.7504C18.5781 19.2602 23.046 19.2602 25.1301 17.7504C26.605 16.6821 27.0372 15.6018 27.0372 12.9835C27.0372 11.0477 26.9687 10.6406 26.5071 9.83511C25.4471 7.9849 23.8826 7.3068 20.7284 7.3297C19.5285 7.33859 18.2319 7.47666 17.7761 7.64429ZM31.7827 7.63273C30.465 8.1363 29.8349 8.64855 29.1958 9.73572C28.6493 10.6651 28.5935 10.9665 28.5935 12.9835C28.5935 14.8713 28.6699 15.3497 29.0997 16.1545C30.0624 17.9569 32.0335 18.882 34.8851 18.8698C37.3952 18.8589 39.4001 18.0107 40.2783 16.5885C40.7272 15.8615 41.0529 14.9164 40.9037 14.7741C40.8586 14.7308 40.0562 14.6247 39.1211 14.538C37.4979 14.3877 37.4136 14.4028 37.2653 14.8695C36.9547 15.8482 34.7617 16.2922 33.2852 15.6754C32.4342 15.3197 32.0271 14.4317 32.0618 13.0059C32.1134 10.8796 32.7959 10.1726 34.7966 10.1726C36.1486 10.1726 37.025 10.5621 37.2471 11.2618C37.3583 11.6122 37.5826 11.6531 38.9868 11.5788C39.8737 11.5317 40.685 11.4125 40.7899 11.314C41.1094 11.0137 40.5231 9.65791 39.7612 8.9349C38.4499 7.69054 37.7167 7.44953 35.041 7.38284C33.3517 7.34082 32.3441 7.41819 31.7827 7.63273ZM58.6143 7.82149C56.8708 8.80884 56.1698 10.5561 56.3206 13.5393C56.4771 16.6394 57.6332 18.2037 60.1061 18.6611C61.6059 18.9383 63.132 18.6502 64.3279 17.8638C65.3535 17.1895 65.3886 17.1899 65.3886 17.8747C65.3886 18.418 65.4257 18.4305 67.0561 18.4305H68.7235V12.9835V7.53646H67.0561H65.3886V8.23791C65.3886 8.88799 65.3602 8.91423 64.9995 8.59719C63.4466 7.2321 60.3245 6.85281 58.6143 7.82149ZM70.9468 12.9835V18.4305H72.6058H74.265L74.3288 16.374L74.3929 14.3174L76.6717 14.2541L78.9506 14.1907V16.3106V18.4305H80.7292H82.5078V12.9835V7.53646H80.7292H78.9506V9.53741V11.5384H76.6161H74.2817V9.53741V7.53646H72.6143H70.9468V12.9835ZM84.5088 12.9835V18.4305H86.2874H88.066L88.0756 15.9293L88.0853 13.4281L90.4656 15.9402L92.846 18.4523L95.0368 18.3858L97.2274 18.3193L94.5539 15.5402L91.8804 12.7612L94.4719 10.1488L97.0633 7.53646H94.8472H92.6312L90.3486 9.81132L88.066 12.0862V9.81132V7.53646H86.2874H84.5088V12.9835ZM8.67429 10.4652C9.86107 11.2064 9.90687 14.5811 8.74209 15.4562C8.14781 15.9026 6.59642 16.0605 5.70266 15.7655C4.72776 15.4438 4.29333 14.8284 4.12102 13.5248C3.8191 11.2387 5.05614 9.83955 7.17758 10.0677C7.74896 10.129 8.42261 10.308 8.67429 10.4652ZM22.8052 10.6426C23.5002 11.2193 23.7583 13.0397 23.3521 14.502C23.0846 15.4653 22.1947 15.9849 20.812 15.9849C19.4689 15.9849 18.5621 15.4693 18.2517 14.5293C17.8755 13.389 18.1023 11.3703 18.6706 10.802C19.4465 10.0261 21.9461 9.92959 22.8052 10.6426ZM50.4769 10.5281C50.8924 10.7849 51.3822 12.0813 51.3807 12.9208C51.3782 14.3984 50.9611 15.3306 50.151 15.6692C48.5213 16.3502 46.6229 15.9106 46.1333 14.7392C45.5677 13.3854 45.9048 11.0375 46.7385 10.5223C47.5053 10.0483 49.7061 10.0519 50.4769 10.5281ZM64.6518 10.7493C65.3041 11.4988 65.5171 13.0442 65.1347 14.253C64.7347 15.5162 63.7492 16.0623 62.1751 15.892C60.6028 15.7219 59.9996 15.0609 59.8778 13.3752C59.6933 10.8247 60.6066 9.88113 63.0542 10.0941C63.8895 10.1668 64.2868 10.3298 64.6518 10.7493Z" fill="black"/>
</svg>