<svg width="80" height="23" viewBox="0 0 80 23" fill="none" xmlns="http://www.w3.org/2000/svg">
    <path d="M32.2897 11.078C32.1439 10.5424 31.8546 9.50439 30.3335 9.50439C29.4494 9.50439 28.1132 10.1404 28.1132 12.6433C28.1132 14.2327 28.7811 15.7055 30.3335 15.7055C31.355 15.7055 32.0717 15.0852 32.2897 13.9982H34.1259C33.7621 15.9293 32.51 17.2717 30.2999 17.2717C27.9568 17.2717 26.2793 15.6694 26.2793 12.6179C26.2793 9.51503 28.0538 7.94141 30.3229 7.94141C32.9608 7.94141 34.0256 9.77222 34.1259 11.078H32.2897Z" fill="black"/>
    <path d="M36.3734 12.9615L38.5321 10.4687H40.6346L38.3398 13.0077L40.6962 17.0403H38.642L37.085 14.2178L36.3734 14.9648V17.0403H34.66V10.4687H36.3734V12.9615Z" fill="black"/>
    <path d="M46.9643 13.7415C46.9643 16.1103 45.3843 17.2126 43.635 17.2126C41.8885 17.2126 40.2957 16.1265 40.2957 13.7568C40.2957 11.3853 41.8885 10.2978 43.635 10.2978C45.3843 10.2978 46.9643 11.3723 46.9643 13.7415ZM42.0573 13.7415C42.0573 14.5834 42.3112 15.755 43.635 15.755C44.9593 15.755 45.2021 14.5963 45.2021 13.7568C45.2021 12.9122 44.9593 11.753 43.635 11.753C42.3112 11.753 42.0573 12.8992 42.0573 13.7415Z" fill="black"/>
    <path d="M53.4025 10.4682V17.0402H51.6892V11.8512H49.8557V13.8777C49.8557 16.3913 49.1032 17.1841 47.8995 17.1841C47.6001 17.1841 47.1107 17.1355 46.8572 17.0402V15.7552C46.8926 15.7807 47.1106 15.8043 47.3641 15.8043C47.8788 15.8043 48.1451 15.5489 48.1451 13.5479V10.4682H53.4025Z" fill="black"/>
    <path d="M55.9909 12.9615L58.1496 10.4687H60.2521L57.955 13.0077L60.3137 17.0403H58.2595L56.7052 14.2178L55.9909 14.9648V17.0403H54.2775V10.4687H55.9909V12.9615Z" fill="black"/>
    <path d="M66.5817 13.7415C66.5817 16.1103 65.0045 17.2126 63.2552 17.2126C61.506 17.2126 59.9158 16.1265 59.9158 13.7568C59.9158 11.3853 61.506 10.2978 63.2552 10.2978C65.0045 10.2978 66.5817 11.3723 66.5817 13.7415ZM61.678 13.7415C61.678 14.5834 61.9314 15.755 63.2552 15.755C64.5735 15.755 64.8251 14.5963 64.8251 13.7568C64.8251 12.9122 64.5735 11.753 63.2552 11.753C61.9314 11.753 61.678 12.8992 61.678 13.7415Z" fill="black"/>
    <path d="M67.137 10.4686H70.0873C71.5467 10.4686 72.6143 11.069 72.6143 12.1662C72.6143 12.923 72.0794 13.4096 71.3977 13.5821C72.066 13.7426 72.8084 14.1719 72.8084 15.2464C72.8084 16.4639 71.8922 17.0412 70.412 17.0412H67.137V10.4686ZM68.8472 13.1293H69.964C70.5325 13.1293 70.935 12.9003 70.935 12.385C70.935 11.8489 70.5477 11.6537 69.9769 11.6537H68.8472V13.1293ZM68.8472 15.8565H70.107C70.74 15.8565 71.1318 15.6609 71.1318 15.0114C71.1318 14.4374 70.7193 14.1719 70.0873 14.1719H68.8472V15.8565Z" fill="black"/>
    <path d="M79.6661 13.7415C79.6661 16.1103 78.0912 17.2126 76.3396 17.2126C74.5927 17.2126 72.9975 16.1265 72.9975 13.7568C72.9975 11.3853 74.5927 10.2978 76.3396 10.2978C78.0912 10.2978 79.6661 11.3723 79.6661 13.7415ZM74.7596 13.7415C74.7596 14.5834 75.0177 15.755 76.3396 15.755C77.6634 15.755 77.9045 14.5963 77.9045 13.7568C77.9045 12.9122 77.6634 11.753 76.3396 11.753C75.0177 11.753 74.7596 12.8992 74.7596 13.7415Z" fill="black"/>
    <path fill-rule="evenodd" clip-rule="evenodd" d="M5.6027 0.0141721C3.75714 0.179439 2.1242 1.22354 1.20147 2.8283C0.864279 3.41475 0.625116 4.11594 0.51365 4.84489C0.481006 5.05832 0.478516 5.50985 0.478516 11.2213C0.478516 17.039 0.480475 17.3806 0.515242 17.6028C0.714534 18.8769 1.23806 19.9249 2.11166 20.7988C2.98487 21.6723 4.03356 22.1964 5.30668 22.3957C5.52888 22.4304 5.87038 22.4324 11.6864 22.4324C17.5024 22.4324 17.8439 22.4304 18.0661 22.3957C19.3392 22.1964 20.3879 21.6723 21.2611 20.7988C22.1289 19.9308 22.6363 18.9213 22.8571 17.6233C22.8917 17.42 22.8939 16.9543 22.8993 8.70442L22.9049 0L14.2946 0.00343072C9.559 0.00532986 5.64761 0.0101492 5.6027 0.0141721ZM8.87932 5.54353C9.73298 5.63473 10.3814 5.86877 10.986 6.30386C11.1605 6.42943 11.4507 6.70164 11.5914 6.87164L11.6759 6.97375L11.6761 6.29475L11.6762 5.61575H12.7071H13.7381V8.41512C13.7381 10.0415 13.7457 11.2116 13.7563 11.2077C13.7663 11.2039 14.3467 10.5737 15.0461 9.80715L16.3178 8.41342H17.6513C18.3847 8.41342 18.9848 8.41759 18.9848 8.42267C18.9848 8.42776 18.3007 9.18178 17.4646 10.0983L15.9443 11.7646L16.115 12.0443C16.5014 12.6775 18.9848 16.7919 18.9848 16.7989C18.9848 16.803 18.4446 16.8064 17.7844 16.8064H16.584L15.547 15.1013C14.9766 14.1634 14.5022 13.3913 14.4928 13.3855C14.4833 13.3796 14.3097 13.5563 14.1068 13.7782L13.7381 14.1815V15.4939V16.8064H12.7071H11.6762V16.3454V15.8843L11.569 15.9758C11.4113 16.1103 11.0933 16.3178 10.8655 16.4347C10.1122 16.8215 9.25786 16.9868 8.30453 16.9303C7.46153 16.8803 6.85294 16.7281 6.24578 16.4154C5.90835 16.2416 5.65911 16.0573 5.36699 15.7655C5.01232 15.4113 4.7617 15.0282 4.5719 14.5503C4.45568 14.2577 4.32676 13.6735 4.32676 13.4395V13.3549L5.43256 13.3602L6.53838 13.3655L6.56721 13.5084C6.68086 14.0721 7.1137 14.5355 7.71348 14.7356C8.02989 14.8412 8.26552 14.8747 8.68538 14.8739C8.92948 14.8735 9.11803 14.8621 9.24704 14.84C10.0536 14.7016 10.5516 14.3526 10.6831 13.8337C10.7583 13.5368 10.7423 13.2838 10.6335 13.0501C10.5533 12.878 10.4579 12.764 10.2988 12.6504C9.94868 12.4005 9.49132 12.2718 8.4506 12.1301C7.3614 11.9819 6.80049 11.84 6.23422 11.5695C5.54015 11.238 5.10361 10.8224 4.78706 10.192C4.67761 9.97399 4.57047 9.66547 4.51686 9.41405C4.46117 9.15278 4.46632 8.55727 4.52662 8.28448C4.6811 7.58566 5.02069 6.97552 5.52112 6.49757C6.08017 5.96367 6.81842 5.63299 7.66462 5.53744C7.92463 5.50808 8.57814 5.51136 8.87932 5.54353ZM7.83815 7.48411C7.46515 7.55893 7.18081 7.70402 6.93736 7.94374C6.62929 8.24707 6.51658 8.57836 6.59549 8.94847C6.69246 9.4032 7.05979 9.70282 7.74038 9.88226C8.05335 9.96476 8.30956 10.0117 8.97625 10.1086C9.76139 10.2228 9.98833 10.2625 10.3238 10.3447C10.831 10.4688 11.2036 10.6214 11.5078 10.8294L11.6762 10.9445V9.94446V8.94437H11.0759H10.4757L10.4321 8.80099C10.3731 8.60646 10.2064 8.28781 10.0826 8.13272C9.80382 7.78335 9.38943 7.56505 8.85419 7.48556C8.59326 7.4468 8.02809 7.44598 7.83815 7.48411Z" fill="black"/>
</svg>
