<svg width="68" height="20" viewBox="0 0 68 20" fill="none" xmlns="http://www.w3.org/2000/svg">
<path fill-rule="evenodd" clip-rule="evenodd" d="M3.6736 0.820923C2.96509 1.00292 2.32817 1.61121 2.16427 2.26212C2.02241 2.8258 2.04506 5.10267 2.19915 5.7561C2.4053 6.63109 2.72137 7.14678 4.79119 9.98621C5.86983 11.4659 6.86986 12.9073 7.01337 13.1895C7.26828 13.6906 7.27426 13.7315 7.27426 14.977V16.2518L8.25035 16.3068C9.7222 16.3897 9.61713 16.4879 9.61539 15.0313C9.61366 13.6298 9.47978 12.8515 9.11581 12.1264C8.98011 11.8561 7.95987 10.386 6.84852 8.85945C5.73717 7.33286 4.7453 5.9269 4.6443 5.7351C4.39304 5.25768 4.31452 3.37699 4.53203 3.04494C4.72439 2.75134 5.2578 2.62411 5.98904 2.69762C6.93866 2.793 6.96218 2.83014 7.01398 4.31525L7.05736 5.55996H8.18528H9.3132V3.8676C9.3132 2.45531 9.28942 2.13185 9.16943 1.91306C8.96979 1.54898 8.59775 1.1935 8.1864 0.973669C7.86321 0.800962 7.69793 0.786382 5.88606 0.77076C4.81236 0.761561 3.81676 0.784125 3.6736 0.820923ZM10.4556 0.801136C10.4238 0.8329 10.3977 1.25833 10.3977 1.74651C10.3977 2.4757 10.4222 2.64338 10.535 2.68668C10.6105 2.71567 11.2742 2.73936 12.01 2.73936H13.3477V9.46028C13.3477 13.9301 13.3773 16.1995 13.4361 16.2359C13.5773 16.3232 14.9054 16.3853 15.3156 16.3238L15.6903 16.2676L15.6904 11.9119C15.6905 9.51617 15.7163 6.47227 15.7478 5.14772L15.805 2.73936H17.1287C17.8568 2.73936 18.5142 2.71567 18.5897 2.68668C18.7929 2.60866 18.7929 0.873951 18.5897 0.795929C18.4019 0.723808 10.5279 0.728842 10.4556 0.801136ZM21.6089 0.851733C21.5598 0.911443 21.2436 2.34665 20.9062 4.04118C20.5689 5.7357 19.882 9.17041 19.3798 11.6739C18.8776 14.1774 18.4667 16.2375 18.4667 16.2519C18.4667 16.2664 18.9894 16.2782 19.6284 16.2782H20.7899L20.8391 15.9962C20.9558 15.3267 21.883 10.1128 22.323 7.65128C22.5867 6.17615 22.8206 4.95114 22.8428 4.92893C22.9018 4.86991 23.064 5.69847 23.6291 8.94468C23.7537 9.66067 23.9316 10.6427 24.0244 11.1269C24.1171 11.6112 24.1931 12.1091 24.1931 12.2335V12.4596H23.0651C21.9631 12.4596 21.9372 12.4639 21.9372 12.6493C21.9372 12.9022 22.2803 14.1239 22.3888 14.2578C22.4457 14.3279 22.8307 14.3719 23.5291 14.388L24.5835 14.4123L24.7604 15.3236L24.9372 16.2348L25.7875 16.3082C26.6653 16.3838 27.2298 16.3351 27.2298 16.1835C27.2298 16.1041 25.4945 7.3378 24.5809 2.80194C24.3714 1.76231 24.1767 0.873864 24.1481 0.827519C24.067 0.696296 21.7184 0.718688 21.6089 0.851733ZM29.1787 0.850518C29.1022 1.04987 29.0943 2.14574 29.1168 9.34832L29.1385 16.2611L30.124 16.3227C30.8082 16.3654 31.1663 16.3539 31.2953 16.2848L31.4811 16.1854V9.46236V2.73936H32.5174C33.4877 2.73936 33.5693 2.75273 33.7972 2.94869L34.0407 3.15811L34.0667 6.06558C34.1004 9.84119 34.1273 9.76916 32.68 9.76916C32.0559 9.76916 31.9861 9.78539 32.0251 9.92104C32.3237 10.9604 34.0042 16.1463 34.0608 16.2029C34.1554 16.2976 36.2984 16.3459 36.3905 16.2554C36.4275 16.219 36.1324 15.1646 35.7349 13.9121C34.8453 11.1101 34.8605 11.1879 35.1806 11.0672C35.5148 10.9411 35.9672 10.4967 36.1929 10.0729C36.3728 9.73496 36.3778 9.62995 36.3805 6.12408C36.382 4.14315 36.3518 2.37364 36.3132 2.19173C36.2289 1.79294 35.7467 1.23551 35.2612 0.975666C34.9228 0.794453 34.7915 0.785514 32.0665 0.75861C29.7101 0.735438 29.2168 0.751146 29.1787 0.850518ZM37.501 0.846526C37.392 1.02288 37.3599 2.24927 37.4576 2.5007L37.5502 2.73936H38.984H40.4177V9.49864V16.258L40.613 16.3103C40.8682 16.3787 42.446 16.3803 42.6231 16.3123C42.7466 16.2649 42.7603 15.5838 42.7603 9.49951V2.73936H44.1813C45.3481 2.73936 45.6219 2.71576 45.7119 2.60719C45.793 2.50946 45.806 2.26785 45.7617 1.68073C45.7288 1.24384 45.6818 0.85425 45.6575 0.814848C45.5828 0.693953 37.5761 0.725023 37.501 0.846526ZM49.7085 0.903545C49.6445 1.02305 49.6226 3.41735 49.6373 8.65567L49.6587 16.2348L50.5806 16.312C51.0877 16.3543 51.6049 16.3634 51.7299 16.332L51.9572 16.2749L51.9635 13.6513C51.9849 4.71777 52.0064 2.82954 52.0874 2.75551C52.1366 2.71055 52.6145 2.69927 53.1906 2.72947C54.002 2.772 54.2385 2.814 54.3619 2.9375C54.5024 3.07792 54.5213 3.36753 54.5659 6.06185C54.6288 9.8523 54.6573 9.76916 53.2964 9.76916C52.6948 9.76916 52.6513 9.78166 52.6513 9.95514C52.6513 10.113 53.0562 11.4357 54.3642 15.55L54.588 16.2538L55.5141 16.3101C56.496 16.3697 56.9895 16.3192 56.9895 16.159C56.9895 16.1053 56.8163 15.5342 56.6046 14.8897C55.9323 12.8429 55.5145 11.4724 55.5145 11.3138C55.5145 11.2225 55.6289 11.1122 55.7965 11.042C56.1642 10.888 56.677 10.3144 56.8271 9.88901C56.9204 9.625 56.9461 8.79262 56.9461 6.03729C56.9461 4.1041 56.9162 2.38232 56.8797 2.21109C56.7953 1.81508 56.2948 1.22726 55.8306 0.978964C55.484 0.793586 55.3693 0.785601 52.636 0.758697C49.8789 0.731532 49.7984 0.735524 49.7085 0.903545ZM58.5171 0.880546C58.4317 1.10307 58.4609 14.3792 58.5476 14.753C58.673 15.2941 59.0589 15.7718 59.5868 16.0396L60.0573 16.2782L62.1023 16.2774C64.0653 16.2766 64.1649 16.2683 64.5848 16.0728C65.0911 15.837 65.4171 15.4846 65.6158 14.9581C65.7419 14.6244 65.7539 13.8721 65.7327 7.68625L65.7092 0.786642H64.5812H63.4533L63.4099 7.40116C63.3692 13.6003 63.3568 14.0253 63.2117 14.1706C63.0916 14.2908 62.8815 14.3324 62.2748 14.356C61.3457 14.3922 61.0309 14.291 60.8994 13.9138C60.8373 13.7355 60.807 11.5362 60.807 7.19599V0.743248H59.6884C58.7484 0.743248 58.5614 0.765206 58.5171 0.880546ZM2.16462 14.4878C2.09712 14.5692 2.07039 14.8905 2.08679 15.4233L2.11187 16.2348L3.26442 16.259L4.41698 16.2833L4.39234 15.3478L4.3677 14.4123L3.31761 14.388C2.49093 14.3689 2.24565 14.3902 2.16462 14.4878ZM45.8479 14.4436C45.778 14.5568 45.7103 16.0037 45.7679 16.1538C45.8059 16.253 46.0433 16.2782 46.9372 16.2782H48.0588L48.0341 15.3453L48.0095 14.4123L46.9534 14.388C46.3725 14.3746 45.875 14.3996 45.8479 14.4436ZM0.0803084 17.3542C0.0148891 17.433 -0.0115737 17.7743 0.00465095 18.3293L0.0295517 19.183L0.376604 19.2444C0.808423 19.3208 67.1728 19.3161 67.5312 19.2398L67.7915 19.1842L67.8164 18.2808C67.8347 17.6164 67.8117 17.3585 67.7296 17.3064C67.6682 17.2674 52.4446 17.235 33.8994 17.2342C5.13035 17.2331 0.166204 17.2507 0.0803084 17.3542Z" fill="black"/>
</svg>
