<svg width="147" height="20" viewBox="0 0 147 20" fill="none" xmlns="http://www.w3.org/2000/svg">
<path d="M82.1076 18H74V2H81.1278C84.3531 2 86.1036 4.07586 86.1036 6.53224C86.1036 7.63447 85.5655 8.76115 84.7411 9.61361C85.9575 10.2769 87 11.7713 87 13.3295C86.998 16.0708 84.9263 18 82.1076 18ZM77.8283 14.7814H81.5857C82.5141 14.7814 83.1243 14.0725 83.1243 13.202V13.1765C83.1243 12.306 82.5141 11.597 81.5857 11.597H77.8283V14.7814ZM77.8283 8.37744H80.6287C81.6311 8.37744 82.2279 7.66849 82.2279 6.79797C82.2279 5.92744 81.6681 5.21849 80.6287 5.21849H77.8283V8.37744Z" fill="black"/>
<path d="M38 18L31.9447 9.82089L37.8179 2H32.9225L28.2551 8.40828V2H24V18H28.2551V11.4354L32.9415 18H38Z" fill="black"/>
<path d="M110.03 2V13.546C110.03 14.0642 109.806 14.4623 109.33 14.4623C108.66 14.4623 108.63 13.6797 108.63 13.1625H105C105 15.6657 106.406 18 109.441 18C112.081 18 113.899 15.8077 113.899 13.1137V5.51386H119.131V17.604H123V2H110.03Z" fill="black"/>
<path d="M56 2L50.3799 13.5226C49.3393 15.7151 47.1962 18 43.5465 18C40.4396 18 37.5192 16.1651 37 12.1241H40.9375C41.2286 13.7383 42.411 14.4556 43.73 14.4556C44.8612 14.4556 45.6214 13.8036 45.8314 13.4303L39.1377 2H43.8077L48.0599 9.55421L51.5666 2H56Z" fill="black"/>
<path d="M17.2119 18H7V2H16.253C19.4096 2 21.1228 4.07586 21.1228 6.53224C21.1228 7.63447 20.5961 8.76115 19.7893 9.61361C20.9798 10.2769 22 11.7713 22 13.3295C21.9991 16.0708 19.9716 18 17.2119 18ZM10.7477 14.7814H16.7022C17.6107 14.7814 18.208 14.0725 18.208 13.202V13.1765C18.208 12.306 17.6107 11.597 16.7022 11.597H10.7477V14.7814ZM10.7477 8.37744H15.7656C16.7465 8.37744 17.3307 7.66849 17.3307 6.79797C17.3307 5.92744 16.7828 5.21849 15.7656 5.21849H10.7477V8.37744Z" fill="black"/>
<path d="M67.5309 11.8984C66.8927 13.2941 65.5217 14.2761 63.6105 14.2761C60.912 14.2761 59.2883 12.3181 59.2883 10.0051V9.998C59.2883 7.68397 60.9132 5.72593 63.6105 5.72593C65.5282 5.72593 66.9035 6.71607 67.5384 8.11886H72C71.1658 4.63162 68.0154 2 63.6105 2C58.4433 2 55 5.62176 55 9.99699V10.0031C55 14.3783 58.4433 18 63.6105 18C68.0089 18 71.156 15.3755 71.9967 11.8964H67.5309V11.8984Z" fill="black"/>
<path d="M100.177 2L93.1879 11.2473V2H89V18H92.8207L99.812 8.76117V18H104V2H100.177Z" fill="black"/>
<path d="M127.791 2V12.8208C127.791 13.822 127.218 14.4151 126.194 14.4151H125V18H127.148C129.97 18 131.845 16.2251 131.845 12.9664V5.60197H135.946V17.999H140V2H127.791Z" fill="black"/>
</svg>
