<svg width="64" height="23" viewBox="0 0 64 23" fill="none" xmlns="http://www.w3.org/2000/svg">
    <path d="M18.8101 2.98828H3.94492L5.01579 0H19.8809L18.8101 2.98828ZM18.2746 4.48242H3.40278L2.3319 7.4707H17.197L18.2746 4.48242ZM16.6683 8.95125H1.79646L0.725586 11.9395H15.5773L16.6683 8.95125Z" fill="black"/>
    <path d="M54.2272 19.4183H56.9044C57.2849 19.4644 57.6708 19.4147 58.0279 19.2738C58.3851 19.1329 58.7026 18.9049 58.9524 18.6101C59.3197 18.1224 59.5047 17.5184 59.4745 16.9054C59.4996 16.5153 59.429 16.125 59.269 15.7694C59.109 15.4138 58.8645 15.1041 58.5576 14.8679C58.0606 14.538 57.4696 14.3851 56.8776 14.4333H54.2272V19.4183ZM50.7134 22.4269V4.48365H62.2186L61.208 7.49231H54.2272V11.4654H57.0717C59.3674 11.4654 60.5588 12.0223 61.382 12.7354C61.9706 13.2642 62.4335 13.9215 62.736 14.6578C63.0386 15.3941 63.1729 16.1904 63.1289 16.9869C63.1741 17.8446 63.0073 18.7002 62.6438 19.4759C62.2803 20.2516 61.7315 20.9228 61.0474 21.4285C59.943 22.2028 58.7851 22.4201 56.4292 22.4201L50.7134 22.4269ZM40.5266 22.4269V7.48551H35.4132V4.48365H49.609L48.5984 7.49231H44.0739V22.4337L40.5266 22.4269ZM26.3576 11.6691H28.3655C28.7761 11.6976 29.1887 11.6655 29.5903 11.574C30.008 11.4386 30.3679 11.1633 30.6111 10.7931C30.8543 10.4229 30.9664 9.97984 30.9289 9.53656C30.9846 9.09609 30.8791 8.65019 30.6324 8.2834C30.3856 7.91662 30.0148 7.65446 29.5903 7.54664C29.1518 7.44334 28.7013 7.4022 28.2517 7.42439H26.3576V11.6691ZM26.3576 14.7728V19.4794H28.8072C29.4823 19.5577 30.1611 19.3678 30.7013 18.9496C30.9503 18.7156 31.1454 18.4287 31.2726 18.1094C31.3999 17.7901 31.4562 17.4462 31.4376 17.1023C31.4482 16.5529 31.2839 16.0146 30.969 15.5674C30.447 14.8883 29.8045 14.7593 28.7068 14.7593L26.3576 14.7728ZM32.0198 12.878V12.9391C32.6166 13.1722 33.1742 13.4975 33.673 13.9035C34.1772 14.3281 34.5757 14.8673 34.8362 15.4773C35.0966 16.0874 35.2118 16.7511 35.1722 17.4147C35.1722 19.8665 33.8872 21.6391 31.7789 22.1688C30.9385 22.3773 30.0729 22.4619 29.2088 22.4201H22.8438V4.48365H28.506C29.4054 4.45029 30.3052 4.53475 31.1832 4.73494C33.2313 5.29185 34.5766 6.72486 34.5766 8.98644C34.5933 9.52565 34.5016 10.0627 34.3072 10.5647C34.1127 11.0668 33.8195 11.5235 33.4455 11.9068C33.0482 12.3161 32.5751 12.6415 32.0533 12.8644L32.0198 12.878Z" fill="black"/>
</svg>