<svg width="30" height="23" viewBox="0 0 30 23" fill="none" xmlns="http://www.w3.org/2000/svg">
    <path opacity="0.7" d="M0.926758 10.5697H29.6616V12.256H0.926758V10.5697ZM0.926758 22.4324H2.68674V20.5249H12.7501V13.9373H0.926758V22.4324ZM2.68674 15.6235H10.9901V18.8387H2.68674V15.6235ZM14.4707 20.5249H21.1321V22.4324H22.9658V20.5249H29.6616V13.9373H14.4707V20.5249ZM22.9658 15.6235H27.9017V18.8387H22.9658V15.6235ZM16.2307 15.6235H21.1321V18.8387H16.2307V15.6235ZM27.2675 1.64691H29.1946V0H20.9551V8.86382H26.4268C28.762 8.86382 29.7256 7.68886 29.7256 6.11077C29.7256 4.54744 28.8308 3.39706 26.4809 3.39706H22.8921V1.64691H27.2675ZM26.4809 5.03414C27.3756 5.03414 27.7198 5.54542 27.7198 6.13044C27.7198 6.71546 27.3756 7.21199 26.4809 7.21199H22.8921V5.02922H26.4809V5.03414ZM15.3753 7.21691H11.172V8.86873H15.5572C18.1529 8.86873 19.9228 7.06942 19.9228 4.43437C19.9228 1.79931 18.1529 0 15.5572 0H11.172V1.65183H15.3802V1.65674C16.6191 1.65674 17.5335 2.42858 17.8088 3.63303H12.1208V5.24061H17.8088C17.5286 6.44015 16.6191 7.21691 15.3753 7.21691ZM9.80532 2.43349C9.80532 0.973397 8.83192 0 6.49675 0H0.93659V8.86873H6.83597C9.17114 8.86873 10.1347 7.7921 10.1347 6.31233C10.1347 5.33894 9.71683 4.62118 8.72868 4.25247C9.47102 3.88376 9.80532 3.26432 9.80532 2.43349ZM2.87355 1.64691H6.56066C7.44557 1.64691 7.79953 2.17785 7.79953 2.74321C7.79953 3.29874 7.4554 3.74119 6.56066 3.74119H2.87355V1.64691ZM6.89496 7.22674H2.87355V5.09313H6.89496C7.80445 5.09313 8.13383 5.57983 8.13383 6.15502C8.13383 6.73021 7.79953 7.22674 6.89496 7.22674Z" fill="black"/>
</svg>