<svg width="76" height="23" viewBox="0 0 76 23" fill="none" xmlns="http://www.w3.org/2000/svg">
    <path fill-rule="evenodd" clip-rule="evenodd" d="M44.6274 7.15978C42.9449 7.42427 42.9393 7.42785 42.8921 8.24349C42.8546 8.88931 42.8775 8.96114 43.0985 8.89426C43.6083 8.73972 45.1592 8.53537 45.8239 8.53509C47.2094 8.53454 47.8027 8.87624 48.0314 9.80623L48.1244 10.1847H47.0013C45.0209 10.1847 43.3121 10.7419 42.6807 11.5934C42.5004 11.8363 42.3817 12.2514 42.3459 12.7631C42.2995 13.4263 42.3437 13.6345 42.6155 14.0346C43.3688 15.1429 44.4968 15.4835 47.0565 15.3753C47.9681 15.3368 48.9461 15.2339 49.2299 15.1467L49.7459 14.9882L49.7429 12.0704C49.7394 8.76958 49.6194 8.23922 48.7562 7.70872C47.8737 7.16638 46.0923 6.92955 44.6274 7.15978ZM54.3432 7.15359C52.9342 7.45235 52.0192 8.13505 51.5268 9.25481C51.2732 9.83155 51.2075 10.2313 51.203 11.226C51.1976 12.3595 51.2376 12.5562 51.6403 13.3741C52.3505 14.8166 53.4097 15.3976 55.3484 15.4079C57.46 15.4192 58.8335 14.5278 59.3285 12.8248C59.6735 11.6384 59.5435 9.90325 59.0404 8.98C58.3899 7.78606 57.4081 7.22349 55.7574 7.09854C55.2894 7.06317 54.6529 7.08794 54.3432 7.15359ZM63.1422 7.1646C62.7521 7.23285 62.0779 7.42152 61.6439 7.5839L60.8548 7.87922L60.9405 9.82316C60.9877 10.8924 61.0272 12.5569 61.0283 13.5218L61.0302 15.2764H61.8559H62.6816V12.1161C62.6816 8.45376 62.612 8.61917 64.1575 8.60816C64.9141 8.6028 65.0588 8.6467 65.396 8.98344L65.7779 9.36463L65.8199 12.3206L65.8619 15.2764H66.7488H67.6357V12.1166V8.95674L68.352 8.74413C69.2684 8.47193 69.8787 8.58532 70.32 9.10977C70.662 9.51628 70.6632 9.52825 70.6632 12.3971V15.2764H71.5646H72.4658L72.4247 11.9392C72.3845 8.69582 72.3743 8.58945 72.0622 8.1517C71.6897 7.62946 70.972 7.2301 70.1644 7.09565C69.4621 6.97882 68.0345 7.22611 67.3262 7.58748L66.7953 7.85831L66.0803 7.51579C65.2518 7.11918 64.1524 6.98762 63.1422 7.1646ZM30.6565 9.11816C31.436 10.121 32.118 11.0137 32.1722 11.1019C32.2303 11.1964 31.65 12.0533 30.756 13.1926C29.9231 14.2545 29.2415 15.1576 29.2415 15.1997C29.2415 15.242 29.6683 15.2764 30.19 15.2764H31.1386L32.1934 13.9002C32.7736 13.1434 33.2734 12.5241 33.3041 12.5241C33.3346 12.5241 33.8288 13.1434 34.402 13.9002L35.4441 15.2764H36.4881C37.3018 15.2764 37.503 15.2384 37.4002 15.1044C37.3276 15.0098 36.6283 14.1049 35.8461 13.0935C34.5595 11.4301 34.4405 11.2279 34.5989 10.9744C34.6951 10.8203 35.3127 10.0067 35.9712 9.1666C36.6297 8.32633 37.2154 7.56147 37.2727 7.46679C37.3521 7.33565 37.147 7.29478 36.4081 7.29478H35.4393L34.4566 8.60211C33.9162 9.32114 33.4324 9.90944 33.3817 9.90944C33.3309 9.90944 32.8585 9.32307 32.3319 8.60651L31.3745 7.30345L30.3069 7.29918L29.2393 7.29478L30.6565 9.11816ZM39.012 11.2856V15.2764H39.8377H40.6634V11.2856V7.29478H39.8377H39.012V11.2856ZM74.1036 11.2856V15.2764H74.998H75.8925V11.2856V7.29478H74.998H74.1036V11.2856ZM56.4465 8.66362C57.9272 9.33587 58.1767 12.4268 56.8446 13.5964C55.6734 14.6248 53.7714 14.1146 53.2319 12.6277C52.8093 11.4624 53.1231 9.54119 53.8401 8.90376C54.4445 8.36665 55.5651 8.26344 56.4465 8.66362ZM48.0945 12.6591C48.0945 13.8914 48.0934 13.8953 47.7161 13.9946C47.508 14.0494 46.8732 14.0929 46.3056 14.0911C44.5537 14.0857 43.7066 13.4827 44.1039 12.5238C44.3977 11.8146 45.38 11.4742 47.2345 11.4394L48.0945 11.4232V12.6591Z" fill="black"/>
    <path fill-rule="evenodd" clip-rule="evenodd" d="M1.74412 22.4336H22.4721C22.9424 22.4336 23.3236 22.0523 23.3236 21.582V0.852592C23.3236 0.382246 22.9424 0.00120735 22.4721 0.00120735H1.74412C1.27381 0.00120735 0.892578 0.382246 0.892578 0.852592V21.582C0.892578 22.0523 1.27381 22.4336 1.74412 22.4336ZM16.7189 7.05672H18.4836C18.5585 7.05672 18.6206 7.11683 18.6206 7.19089V15.243C18.6206 15.3165 18.5585 15.3766 18.4836 15.3766H16.7189C16.6434 15.3766 16.5822 15.3165 16.5822 15.243V7.19089C16.5822 7.11683 16.6434 7.05672 16.7189 7.05672ZM12.4571 7.05672H5.73509C5.65953 7.05672 5.59878 7.11683 5.59878 7.19089V15.243C5.59878 15.3165 5.65953 15.3766 5.73509 15.3766H7.50022C7.57535 15.3766 7.6376 15.3165 7.6376 15.243V8.92329C7.6376 8.85031 7.69834 8.78977 7.7739 8.78977H11.5761C12.6453 8.78977 12.9489 9.60875 12.9489 10.1371V15.243C12.9489 15.3165 13.0103 15.3766 13.0858 15.3766H14.8499C14.925 15.3766 14.9866 15.3165 14.9866 15.243V9.53082C14.9866 9.05961 14.9299 8.38211 14.322 7.78575C13.686 7.1632 13.1058 7.05672 12.4571 7.05672ZM9.36723 10.264H11.2204C11.2953 10.264 11.3567 10.3241 11.3567 10.3977V15.2437C11.3567 15.3169 11.2953 15.3771 11.2204 15.3771H9.36723C9.29167 15.3771 9.22964 15.3169 9.22964 15.2437V10.3977C9.22964 10.3241 9.29167 10.264 9.36723 10.264Z" fill="black"/>
</svg>