<svg width="122" height="30" viewBox="0 0 122 30" fill="none" xmlns="http://www.w3.org/2000/svg">
<path d="M70.6722 5.02921H75.7731L68.948 22.9915H63.6663L56.8411 5.02921H61.9421L66.2886 17.6036L70.6722 5.02921Z" fill="#1078F1"/>
<path d="M32.3194 22.9915H37.4203L30.5952 5.02921H25.3135L18.4883 22.9915H23.5893L27.9357 10.4171L32.3194 22.9915Z" fill="#1078F1"/>
<path d="M39.3146 22.9915V9.4846H36.1902V5.02923H39.3146V1.40011L43.9479 0V5.02923H48.0075V9.4846H43.9479V22.9915H39.3146Z" fill="#1078F1"/>
<path d="M87.5638 22.9915V9.4846H84.4395V5.02923H87.5638V1.40011L92.1972 0V5.02923H96.2567V9.4846H92.1972V22.9915H87.5638Z" fill="#1078F1"/>
<path d="M55.0054 5.02921V22.9915H50.372V5.02921H55.0054Z" fill="#1078F1"/>
<path d="M82.2424 22.9915V5.02921H77.609V22.9915H82.2424Z" fill="#1078F1"/>
<path d="M16.7774 22.9915V8.26513C15.5128 7.00052 14.8034 6.29116 13.5388 5.02921H6.89692L4.64134 7.28479V5.02921H0V22.9915H4.63337V9.66524H12.1413V22.9915H16.7774Z" fill="#1078F1"/>
<path d="M109.738 7.21492L106.472 17.1015L101.801 5.03187H96.7349L104.099 22.4176C103.669 23.6397 102.08 28.1217 102.08 28.1217L106.076 30L113.101 11.2221C111.496 10.4106 110.265 8.96519 109.738 7.21492Z" fill="#1078F1"/>
<path fill-rule="evenodd" clip-rule="evenodd" d="M116.088 10.4165C118.912 10.4165 121.202 8.12663 121.202 5.30198C121.202 2.47733 118.912 0.1875 116.088 0.1875C113.263 0.1875 110.973 2.47733 110.973 5.30198C110.973 8.12663 113.263 10.4165 116.088 10.4165ZM116.939 3.15744H116.147L114.933 3.5864L115.157 4.36512L116.028 4.12095V7.77698H116.939V3.15744Z" fill="#FF5530"/>
</svg>
