<svg width="24" height="24" viewBox="0 0 24 24" fill="none" xmlns="http://www.w3.org/2000/svg">
    <circle cx="12" cy="12" r="11.2" stroke="#1B81F9" stroke-width="1.6"/>
    <path d="M8.04321 12.6506L8.04316 12.6506C7.71895 12.3262 7.71895 11.8005 8.04316 11.4762L8.04321 11.4761C8.36753 11.1519 8.89326 11.1519 9.21758 11.4761L9.21761 11.4762L11.2288 13.4874L16.7824 7.93381L16.7824 7.93379C17.1067 7.60957 17.6325 7.60957 17.9568 7.93379L17.9568 7.93384C18.2811 8.25816 18.2811 8.78388 17.9568 9.10821L17.9568 9.10824L12.127 14.9372L8.04321 12.6506ZM8.04321 12.6506L10.3306 14.9372M8.04321 12.6506L10.3306 14.9372M10.3306 14.9372L10.3308 14.9373C10.5689 15.1757 10.892 15.3096 11.2289 15.3095L11.2288 15.1095L11.2287 15.3095L10.3306 14.9372Z" fill="#1B81F9" stroke="#1B81F9" stroke-width="0.4"/>
</svg>