<svg width="28" height="28" viewBox="0 0 28 28" fill="none" xmlns="http://www.w3.org/2000/svg">
<path d="M15.53 20.3417C15.5531 20.2948 15.5769 20.249 15.6027 20.2C15.6341 20.2298 15.6634 20.2579 15.6926 20.2875L20.7667 25.4273L20.7669 25.4275C20.9686 25.6313 21.1707 25.764 21.3959 25.764C21.6212 25.764 21.823 25.6313 22.0243 25.4273C23.0304 24.4128 24.034 23.3979 25.0349 22.3827L25.0352 22.3824C25.2477 22.1656 25.387 21.9574 25.3883 21.7265C25.3896 21.4947 25.2518 21.2876 25.0406 21.0737L25.0406 21.0737C23.356 19.3686 21.6704 17.6635 19.9839 15.9584L19.9783 15.9528L19.9721 15.9478C19.9391 15.9212 19.9053 15.8956 19.8709 15.871C19.9412 15.8336 19.9958 15.8045 20.0511 15.776C22.1544 14.7111 24.2583 13.6468 26.3628 12.5832L26.3633 12.583C26.3756 12.5767 26.3883 12.5703 26.4012 12.5638C26.5282 12.4995 26.6777 12.4239 26.7936 12.3168C26.9304 12.1902 27.0228 12.0191 27.0144 11.7768C27.0061 11.536 26.9059 11.3716 26.7609 11.2545C26.6335 11.1517 26.4718 11.0866 26.3326 11.0305C26.3241 11.0271 26.3157 11.0238 26.3074 11.0204C18.9716 8.04706 11.6324 5.07304 4.29006 2.09837L4.28996 2.09833C3.54637 1.7977 2.80278 1.49773 2.0592 1.19841C1.92931 1.13932 1.78431 1.12266 1.64446 1.1509C1.50535 1.179 1.37859 1.25006 1.28151 1.35388C1.17769 1.45101 1.10652 1.57829 1.07766 1.71792C1.04867 1.85818 1.06376 2.00411 1.12085 2.1353C1.12977 2.15882 1.13878 2.1828 1.14787 2.20703C1.16729 2.25874 1.18714 2.31161 1.20756 2.36365L1.20768 2.36395L9.75365 24.0003L9.75368 24.0004C10.1356 24.9657 10.5169 25.9319 10.8976 26.8991L10.8977 26.8994C10.9529 27.0387 11.0312 27.1651 11.1425 27.2589C11.2559 27.3545 11.3965 27.4099 11.5631 27.4165C11.729 27.4231 11.8739 27.38 11.9948 27.2944C12.1138 27.2101 12.2019 27.0903 12.2668 26.9544L12.2673 26.9535C12.2937 26.8969 12.3213 26.8412 12.3495 26.7839C13.4094 24.6368 14.4695 22.4894 15.53 20.3417L15.53 20.3417ZM23.5337 21.6009L23.5336 21.601L23.5363 21.6035C23.5672 21.6331 23.5988 21.662 23.6311 21.6902L21.3603 23.9939C21.3371 23.9624 21.3129 23.9316 21.2875 23.9017L21.2878 23.9015L21.2805 23.8941C20.7538 23.3597 20.2261 22.8267 19.6985 22.2938C18.4876 21.0708 17.2772 19.8483 16.0811 18.6107C15.8223 18.3427 15.5399 18.2294 15.2695 18.2877C15.0046 18.3448 14.7981 18.557 14.6648 18.8353L14.6647 18.8354C13.9491 20.3323 13.2114 21.8187 12.4732 23.3058C12.2151 23.8259 11.9569 24.346 11.6996 24.8668L11.6996 24.8668C11.6901 24.8861 11.6805 24.9052 11.6706 24.9247L3.07933 3.16775L24.557 11.8719C24.5442 11.879 24.5317 11.8858 24.5192 11.8922C24.5191 11.8922 24.5191 11.8922 24.519 11.8923L18.522 14.9286C18.5219 14.9286 18.5219 14.9286 18.5219 14.9286C18.2159 15.0834 18.0029 15.2834 17.9608 15.5435C17.9188 15.8033 18.0576 16.0609 18.2991 16.3055C20.0407 18.071 21.7856 19.8361 23.5337 21.6009Z" fill="#1B81F9" stroke="#1B81F9" stroke-width="0.279681"/>
</svg>
