<svg width="30" height="26" viewBox="0 0 30 26" fill="none" xmlns="http://www.w3.org/2000/svg">
<path d="M26.0506 3.76088C25.4122 3.12213 24.6542 2.61543 23.8198 2.26973C22.9855 1.92403 22.0912 1.74609 21.1881 1.74609C20.285 1.74609 19.3908 1.92403 18.5564 2.26973C17.7221 2.61543 16.9641 3.12213 16.3256 3.76088L15.0006 5.08588L13.6756 3.76088C12.386 2.47126 10.6369 1.74676 8.81314 1.74676C6.98935 1.74676 5.24025 2.47126 3.95064 3.76088C2.66102 5.05049 1.93652 6.79958 1.93652 8.62338C1.93652 10.4472 2.66102 12.1963 3.95064 13.4859L5.27564 14.8109L15.0006 24.5359L24.7256 14.8109L26.0506 13.4859C26.6894 12.8474 27.1961 12.0894 27.5418 11.2551C27.8875 10.4207 28.0654 9.52648 28.0654 8.62338C28.0654 7.72027 27.8875 6.82601 27.5418 5.99168C27.1961 5.15736 26.6894 4.39932 26.0506 3.76088V3.76088Z" stroke="#1B81F9" stroke-width="2.16722" stroke-linecap="round" stroke-linejoin="round"/>
</svg>
