<svg width="45" height="44" viewBox="0 0 45 44" fill="none" xmlns="http://www.w3.org/2000/svg">
<path d="M44.4314 21.6701C44.4314 9.70218 34.4851 0.000288463 22.2157 0.00028898C9.94632 0.000289498 -1.52446e-06 9.70218 -9.82074e-07 21.6701C-4.39689e-07 33.638 9.94632 43.3398 22.2157 43.3398C34.4851 43.3398 44.4314 33.638 44.4314 21.6701Z" fill="white"/>
<path d="M25.1523 17.2422L19.6523 12.2422L14.1523 17.2422" fill="white"/>
<path d="M25.1523 17.2422L19.6523 12.2422L14.1523 17.2422" stroke="#1B81F9" stroke-width="1.71418" stroke-linecap="round" stroke-linejoin="round"/>
<path d="M19.6533 22.2422L19.6533 12.2422" stroke="#1B81F9" stroke-width="1.71418" stroke-linecap="round" stroke-linejoin="round"/>
<path d="M18.1523 25.2422L23.6523 30.2422L29.1523 25.2422" fill="white"/>
<path d="M18.1523 25.2422L23.6523 30.2422L29.1523 25.2422" stroke="#1B81F9" stroke-width="1.71418" stroke-linecap="round" stroke-linejoin="round"/>
<path d="M23.6514 20.2422V30.2422" stroke="#1B81F9" stroke-width="1.71418" stroke-linecap="round" stroke-linejoin="round"/>
</svg>