<svg width="23" height="22" viewBox="0 0 23 22" fill="none" xmlns="http://www.w3.org/2000/svg">
<g clip-path="url(#clip0_4788_5247)">
<path d="M22.1426 11.3066C21.9505 11.53 21.7764 11.7756 21.5643 11.9794C19.7021 13.766 17.6133 15.2076 15.1673 16.0853C13.8193 16.5688 12.4322 16.8434 10.9937 16.7658C9.33193 16.6765 7.76675 16.2031 6.2758 15.4817C4.30202 14.5264 2.56491 13.2395 1.02875 11.6802C0.65141 11.2977 0.649736 10.9811 1.02875 10.5993C2.93165 8.68648 5.09466 7.16173 7.64171 6.22543C9.01823 5.71904 10.4388 5.43263 11.9136 5.51358C13.5396 5.60291 15.073 6.06017 16.5366 6.75807C18.5098 7.69938 20.2453 8.9768 21.7881 10.5205C21.9226 10.6551 22.0259 10.8215 22.1437 10.9728L22.1426 11.3066ZM11.4576 6.75137C10.2955 6.75017 9.18034 7.2094 8.356 8.02857C7.53166 8.84774 7.0653 9.96015 7.05896 11.1224C7.05657 12.2847 7.51445 13.4006 8.33247 14.2261C9.15048 15.0516 10.262 15.5195 11.4241 15.5275C12.0013 15.5294 12.5733 15.4176 13.1073 15.1984C13.6413 14.9792 14.1269 14.6569 14.5364 14.25C14.9459 13.843 15.2713 13.3594 15.4939 12.8267C15.7165 12.294 15.832 11.7227 15.8338 11.1453C15.8335 9.98294 15.3729 8.86803 14.5527 8.04455C13.7326 7.22107 12.6197 6.75609 11.4576 6.75137ZM20.6231 11.1297C19.2801 9.85056 17.8093 8.77972 16.1191 7.94727C17.4118 10.0918 17.4102 12.1905 16.1386 14.2953C17.0786 13.9955 19.7105 12.1402 20.6231 11.1297ZM6.77539 14.3321C5.48484 12.196 5.48317 10.1035 6.74414 7.98803C5.7338 8.33083 2.72511 10.4787 2.28358 11.1626C3.6132 12.4289 5.08405 13.4958 6.77539 14.3321Z" fill="#1078F1"/>
<path d="M22.1427 3.74166C22.1261 3.76165 22.1112 3.78293 22.098 3.80531C21.9468 4.10512 21.6705 4.25196 21.3875 4.18775C21.0799 4.11573 20.8912 3.87063 20.8901 3.53062C20.8873 2.98124 20.8901 2.43186 20.8901 1.88248V1.69432H20.5284C20.026 1.69432 19.5275 1.69767 19.0268 1.69432C18.6579 1.69042 18.3832 1.41517 18.3838 1.06678C18.3843 0.718393 18.6629 0.445376 19.0302 0.443143C19.8507 0.439235 20.6713 0.443143 21.4913 0.443143C21.8217 0.443143 22.0059 0.637436 22.1438 0.903752L22.1427 3.74166Z" fill="#1078F1"/>
<path d="M1.20935 21.835C0.848201 21.6675 0.733221 21.3833 0.743827 20.9948C0.763922 20.2583 0.749401 19.5208 0.74996 18.7833C0.74996 18.3601 1.00282 18.0753 1.37458 18.0742C1.74634 18.0731 2.00199 18.3584 2.00311 18.7799C2.00311 19.3706 2.00311 19.9608 2.00311 20.5716C2.07958 20.5749 2.14601 20.581 2.21243 20.581H3.77538C4.17115 20.581 4.41899 20.753 4.49491 21.0785C4.56413 21.3744 4.41564 21.6301 4.07403 21.8043C4.06342 21.8099 4.05784 21.8244 4.04947 21.835H1.20935Z" fill="#1078F1"/>
<path d="M18.8411 21.8357C18.802 21.8111 18.7629 21.7849 18.7222 21.7626C18.6011 21.6998 18.5037 21.5994 18.4447 21.4764C18.3857 21.3534 18.3683 21.2146 18.3951 21.0809C18.4247 20.9401 18.5019 20.8138 18.6138 20.7233C18.7256 20.6328 18.8652 20.5836 19.0091 20.584C19.5511 20.5784 20.0931 20.584 20.6351 20.584H20.8885V19.914C20.8885 19.5455 20.8885 19.1772 20.8885 18.8091C20.8885 18.4149 21.0621 18.1659 21.387 18.0905C21.6828 18.0219 21.9385 18.1715 22.1127 18.5126C22.1182 18.5232 22.1328 18.5288 22.1434 18.5372V21.379C22.048 21.5807 21.8856 21.7431 21.684 21.8385L18.8411 21.8357Z" fill="#1078F1"/>
<path d="M2.0037 1.69343C2.0037 2.33046 2.00873 2.94182 2.0037 3.55317C1.99868 4.0255 1.55268 4.3309 1.13682 4.14945C0.900146 4.0456 0.758373 3.85578 0.755582 3.59728C0.748139 2.74752 0.748139 1.89814 0.755582 1.04913C0.756016 0.96852 0.772409 0.888794 0.803825 0.814556C0.83524 0.740319 0.881046 0.673043 0.938604 0.616615C0.996163 0.560186 1.06433 0.515722 1.13917 0.485794C1.214 0.455866 1.29403 0.441064 1.37461 0.442246C2.21042 0.435918 3.04586 0.435918 3.88093 0.442246C3.96304 0.441288 4.04453 0.456564 4.12072 0.487196C4.19692 0.517829 4.26631 0.563214 4.32492 0.620747C4.38353 0.678279 4.4302 0.746824 4.46225 0.822447C4.4943 0.89807 4.51111 0.97928 4.51169 1.06142C4.51262 1.14535 4.49662 1.22862 4.46466 1.30624C4.4327 1.38385 4.38542 1.45423 4.32566 1.51317C4.2659 1.57211 4.19488 1.6184 4.11684 1.64927C4.0388 1.68015 3.95533 1.69498 3.87143 1.69287C3.25797 1.69901 2.64619 1.69343 2.0037 1.69343Z" fill="#1078F1"/>
<path d="M11.4577 8.42188C12.179 8.42616 12.8691 8.71672 13.3764 9.22971C13.8836 9.7427 14.1664 10.4361 14.1627 11.1576C14.1552 11.8756 13.8647 12.5615 13.3543 13.0664C12.8439 13.5712 12.1549 13.8542 11.4371 13.8537C10.7158 13.849 10.0259 13.5583 9.51868 13.0454C9.01146 12.5325 8.72835 11.8394 8.73147 11.118C8.73883 10.3999 9.02939 9.71375 9.53994 9.20884C10.0505 8.70394 10.7397 8.4211 11.4577 8.42188ZM11.446 9.67641C11.0587 9.67759 10.6876 9.83215 10.414 10.1063C10.1403 10.3804 9.98633 10.7518 9.98574 11.1392C9.98706 11.5266 10.1416 11.8977 10.4157 12.1715C10.6897 12.4452 11.0609 12.5994 11.4482 12.6003C11.8356 12.599 12.2068 12.4443 12.4805 12.1701C12.7542 11.8959 12.9083 11.5244 12.909 11.137C12.908 10.7494 12.7534 10.3781 12.4792 10.1043C12.205 9.83058 11.8334 9.6767 11.446 9.67641Z" fill="#1078F1"/>
</g>
<defs>
<clipPath id="clip0_4788_5247">
<rect width="21.3996" height="21.3996" fill="white" transform="translate(0.743164 0.4375)"/>
</clipPath>
</defs>
</svg>
