<svg width="21" height="28" viewBox="0 0 21 28" fill="none" xmlns="http://www.w3.org/2000/svg">
<path d="M11.0258 1.0149L11.0175 1.01386H11.0091H9.97983H9.97158L9.96339 1.01487C9.87221 1.02609 9.78031 1.03693 9.68804 1.04781C9.49979 1.07 9.31001 1.09238 9.12178 1.1186C7.17716 1.38075 5.35818 2.21587 3.90367 3.51465C2.58503 4.66421 1.60889 6.14595 1.08029 7.80097C0.628287 9.19843 0.474198 10.6353 0.73645 12.0978L0.736454 12.0978C1.03752 13.7748 1.71218 15.302 2.65854 16.7134C4.823 19.9468 6.98895 23.1789 9.1564 26.4099C9.24868 26.5503 9.35142 26.6837 9.46375 26.8091L9.46408 26.8095C9.8961 27.2882 10.5976 27.4421 11.15 27.0941L11.15 27.0942L11.1531 27.0921C11.4155 26.9168 11.6396 26.6911 11.8119 26.4285C13.9913 23.1946 16.1632 19.956 18.3277 16.7127C18.9923 15.7311 19.518 14.6648 19.8903 13.5433L19.8905 13.5426C20.5622 11.4836 20.5595 9.42801 19.7583 7.41292L19.6332 7.46265L19.7583 7.41292C18.3365 3.83727 15.6674 1.73589 11.8183 1.11465L11.818 1.1146C11.6381 1.086 11.4549 1.06497 11.2753 1.04435C11.1911 1.03469 11.1077 1.02511 11.0258 1.0149ZM10.6342 25.6616L10.6341 25.6618C10.592 25.7247 10.5475 25.7818 10.4925 25.8521C10.4396 25.7831 10.3981 25.7287 10.3593 25.6692L10.3583 25.6676C8.18721 22.439 6.02153 19.2059 3.86125 15.9685L3.86124 15.9685C2.964 14.6245 2.31809 13.1839 2.09436 11.5848L2.09433 11.5846C1.92975 10.4204 2.07625 9.28103 2.44798 8.16875L2.44822 8.16802C3.00353 6.47444 4.10213 5.00375 5.57931 3.9773L5.57931 3.97731L5.58036 3.97657C6.69938 3.18311 7.93922 2.66719 9.30356 2.51084C12.7489 2.11645 15.4988 3.31954 17.5015 6.09422L17.5019 6.09485C18.6092 7.61045 19.1148 9.47245 18.9236 11.3296L18.9234 11.3317C18.8086 12.6567 18.378 13.9364 17.6667 15.067C16.777 16.4685 15.8568 17.8492 14.9357 19.231C14.6788 19.6165 14.4218 20.002 14.1654 20.3881C12.9895 22.1471 11.8125 23.9049 10.6342 25.6616Z" fill="#1078F1" stroke="#1078F1" stroke-width="0.269155"/>
<path d="M10.4801 15.9657L10.4802 15.9657C11.1753 15.9671 11.8639 15.8335 12.5068 15.5727C13.1496 15.3119 13.7341 14.9288 14.2268 14.4454C14.7196 13.9619 15.111 13.3875 15.3785 12.7548C15.646 12.1222 15.7844 11.4438 15.7857 10.7583V10.758C15.7848 9.37793 15.2301 8.05461 14.2433 7.07619C13.2565 6.09784 11.9175 5.54358 10.5182 5.53353C7.61067 5.51266 5.2105 7.85614 5.19943 10.7336L5.19943 10.7338C5.19737 11.4192 5.33244 12.0984 5.5969 12.7323C5.86135 13.3663 6.24997 13.9425 6.74044 14.4283C7.23092 14.9141 7.81364 15.2998 8.45528 15.5636C9.09691 15.8273 9.78495 15.964 10.4801 15.9657ZM6.6146 10.8412L6.61455 10.84C6.54189 8.75705 8.2481 7.00167 10.4363 6.93135C12.5196 6.86479 14.3108 8.56516 14.3733 10.6771L14.3733 10.6773C14.4365 12.7226 12.7344 14.5012 10.6414 14.5679L10.6409 14.5679C10.127 14.5862 9.61458 14.5039 9.13327 14.3259C8.65195 14.1478 8.2114 13.8776 7.83704 13.5309C7.46269 13.1842 7.16197 12.768 6.95218 12.3063C6.74239 11.8447 6.62767 11.3467 6.6146 10.8412Z" fill="#1078F1" stroke="#1078F1" stroke-width="0.269155"/>
</svg>
