<svg width="93" height="20" viewBox="0 0 93 20" fill="none" xmlns="http://www.w3.org/2000/svg">
<path d="M32.6371 15V4.5H34.6471L40.8421 12.06H39.8671V4.5H42.2671V15H40.2721L34.0621 7.44H35.0371V15H32.6371ZM49.5363 15V13.425L49.3863 13.08V10.26C49.3863 9.76 49.2313 9.37 48.9213 9.09C48.6213 8.81 48.1563 8.67 47.5263 8.67C47.0963 8.67 46.6713 8.74 46.2513 8.88C45.8413 9.01 45.4913 9.19 45.2013 9.42L44.3613 7.785C44.8013 7.475 45.3313 7.235 45.9513 7.065C46.5713 6.895 47.2013 6.81 47.8413 6.81C49.0713 6.81 50.0263 7.1 50.7063 7.68C51.3863 8.26 51.7263 9.165 51.7263 10.395V15H49.5363ZM47.0763 15.12C46.4463 15.12 45.9063 15.015 45.4563 14.805C45.0063 14.585 44.6613 14.29 44.4213 13.92C44.1813 13.55 44.0613 13.135 44.0613 12.675C44.0613 12.195 44.1763 11.775 44.4063 11.415C44.6463 11.055 45.0213 10.775 45.5313 10.575C46.0413 10.365 46.7063 10.26 47.5263 10.26H49.6713V11.625H47.7813C47.2313 11.625 46.8513 11.715 46.6413 11.895C46.4413 12.075 46.3413 12.3 46.3413 12.57C46.3413 12.87 46.4563 13.11 46.6863 13.29C46.9263 13.46 47.2513 13.545 47.6613 13.545C48.0513 13.545 48.4013 13.455 48.7113 13.275C49.0213 13.085 49.2463 12.81 49.3863 12.45L49.7463 13.53C49.5763 14.05 49.2663 14.445 48.8163 14.715C48.3663 14.985 47.7863 15.12 47.0763 15.12ZM57.1442 15.12C56.1942 15.12 55.4542 14.88 54.9242 14.4C54.3942 13.91 54.1292 13.185 54.1292 12.225V5.145H56.4692V12.195C56.4692 12.535 56.5592 12.8 56.7392 12.99C56.9192 13.17 57.1642 13.26 57.4742 13.26C57.8442 13.26 58.1592 13.16 58.4192 12.96L59.0492 14.61C58.8092 14.78 58.5192 14.91 58.1792 15C57.8492 15.08 57.5042 15.12 57.1442 15.12ZM52.8842 8.91V7.11H58.4792V8.91H52.8842ZM60.3627 15V6.93H62.7027V15H60.3627ZM61.5327 5.805C61.1027 5.805 60.7527 5.68 60.4827 5.43C60.2127 5.18 60.0777 4.87 60.0777 4.5C60.0777 4.13 60.2127 3.82 60.4827 3.57C60.7527 3.32 61.1027 3.195 61.5327 3.195C61.9627 3.195 62.3127 3.315 62.5827 3.555C62.8527 3.785 62.9877 4.085 62.9877 4.455C62.9877 4.845 62.8527 5.17 62.5827 5.43C62.3227 5.68 61.9727 5.805 61.5327 5.805ZM67.0644 15L63.6744 6.93H66.0894L68.9094 13.875H67.7094L70.6344 6.93H72.8844L69.4794 15H67.0644ZM73.8393 15V6.93H76.1793V15H73.8393ZM75.0093 5.805C74.5793 5.805 74.2293 5.68 73.9593 5.43C73.6893 5.18 73.5543 4.87 73.5543 4.5C73.5543 4.13 73.6893 3.82 73.9593 3.57C74.2293 3.32 74.5793 3.195 75.0093 3.195C75.4393 3.195 75.7893 3.315 76.0593 3.555C76.3293 3.785 76.4643 4.085 76.4643 4.455C76.4643 4.845 76.3293 5.17 76.0593 5.43C75.7993 5.68 75.4493 5.805 75.0093 5.805ZM81.651 15.12C80.701 15.12 79.961 14.88 79.431 14.4C78.901 13.91 78.636 13.185 78.636 12.225V5.145H80.976V12.195C80.976 12.535 81.066 12.8 81.246 12.99C81.426 13.17 81.671 13.26 81.981 13.26C82.351 13.26 82.666 13.16 82.926 12.96L83.556 14.61C83.316 14.78 83.026 14.91 82.686 15C82.356 15.08 82.011 15.12 81.651 15.12ZM77.391 8.91V7.11H82.986V8.91H77.391ZM85.7431 18.03C85.3231 18.03 84.9081 17.965 84.4981 17.835C84.0881 17.705 83.7531 17.525 83.4931 17.295L84.3481 15.63C84.5281 15.79 84.7331 15.915 84.9631 16.005C85.2031 16.095 85.4381 16.14 85.6681 16.14C85.9981 16.14 86.2581 16.06 86.4481 15.9C86.6481 15.75 86.8281 15.495 86.9881 15.135L87.4081 14.145L87.5881 13.89L90.4831 6.93H92.7331L89.0881 15.495C88.8281 16.145 88.5281 16.655 88.1881 17.025C87.8581 17.395 87.4881 17.655 87.0781 17.805C86.6781 17.955 86.2331 18.03 85.7431 18.03ZM87.1231 15.315L83.5231 6.93H85.9381L88.7281 13.68L87.1231 15.315Z" fill="#1B81F9"/>
<g clip-path="url(#clip0_1508_2068)">
<path d="M15.8333 3.33333H14.9167C14.7233 2.39284 14.2115 1.54779 13.4677 0.940598C12.7239 0.333408 11.7935 0.0012121 10.8333 0L9.16667 0C8.2065 0.0012121 7.2761 0.333408 6.53229 0.940598C5.78848 1.54779 5.27675 2.39284 5.08333 3.33333H4.16667C3.062 3.33466 2.00296 3.77407 1.22185 4.55518C0.440735 5.3363 0.00132321 6.39534 0 7.5L0 10H20V7.5C19.9987 6.39534 19.5593 5.3363 18.7782 4.55518C17.997 3.77407 16.938 3.33466 15.8333 3.33333ZM6.82 3.33333C6.99174 2.84758 7.30936 2.42674 7.72942 2.12841C8.14948 1.83007 8.65145 1.6688 9.16667 1.66667H10.8333C11.3485 1.6688 11.8505 1.83007 12.2706 2.12841C12.6906 2.42674 13.0083 2.84758 13.18 3.33333H6.82Z" fill="#1B81F9"/>
<path d="M10.8333 12.4993C10.8333 12.7204 10.7455 12.9323 10.5893 13.0886C10.433 13.2449 10.221 13.3327 10 13.3327C9.77899 13.3327 9.56702 13.2449 9.41074 13.0886C9.25446 12.9323 9.16667 12.7204 9.16667 12.4993V11.666H0V15.8327C0.00132321 16.9373 0.440735 17.9964 1.22185 18.7775C2.00296 19.5586 3.062 19.998 4.16667 19.9993H15.8333C16.938 19.998 17.997 19.5586 18.7782 18.7775C19.5593 17.9964 19.9987 16.9373 20 15.8327V11.666H10.8333V12.4993Z" fill="#1B81F9"/>
</g>
<defs>
<clipPath id="clip0_1508_2068">
<rect width="20" height="20" fill="white"/>
</clipPath>
</defs>
</svg>