<svg width="27" height="27" viewBox="0 0 27 27" fill="none" xmlns="http://www.w3.org/2000/svg">
<path d="M24.2978 10.6618L24.4494 10.6323L24.4051 10.4844C23.9874 9.08857 23.2955 7.79002 22.3699 6.66474C21.4443 5.53947 20.3036 4.61006 19.0145 3.93089C17.7254 3.25172 16.3139 2.83642 14.8624 2.70928C13.4109 2.58214 11.9486 2.74572 10.5611 3.19045L10.4141 3.23758L10.4755 3.37926L14.0939 11.7209L14.0944 11.7221C14.2108 11.984 14.3476 12.2364 14.5035 12.4769L14.5548 12.5562L14.6475 12.5381L24.2978 10.6618ZM8.74634 4.14002L8.68482 3.99827L8.54989 4.0736C6.4297 5.25731 4.76228 7.11116 3.80905 9.34449C2.85583 11.5778 2.67071 14.0643 3.28271 16.4142C3.89471 18.7641 5.26924 20.8444 7.19077 22.329C9.11231 23.8136 11.4722 24.6186 13.9004 24.6177C15.3995 24.617 16.8824 24.3081 18.2571 23.7103C19.6317 23.1124 20.8688 22.2384 21.8915 21.1424L21.9967 21.0296L21.8742 20.9359L14.6668 15.4196C13.6607 14.6489 12.8676 13.6344 12.3625 12.4719C12.3625 12.4719 12.3625 12.4719 12.3625 12.4719L8.74634 4.14002ZM23.0237 19.4377L23.146 19.5312L23.2274 19.4006C24.3038 17.6736 24.8748 15.6796 24.8757 13.6446V13.6445C24.8757 13.3042 24.8548 12.9672 24.8253 12.6397L24.8115 12.4854L24.6594 12.5149L16.4466 14.1107L16.1414 14.17L16.3883 14.359L23.0237 19.4377ZM6.75567 2.9517C8.87049 1.53862 11.3568 0.784388 13.9003 0.784372C17.3099 0.788078 20.5788 2.14418 22.9898 4.55514C25.4008 6.96612 26.7569 10.235 26.7606 13.6447C26.7605 16.1881 26.0063 18.6745 24.5932 20.7893C23.1801 22.9041 21.1717 24.5524 18.8218 25.5258C16.4719 26.4991 13.8861 26.7538 11.3915 26.2576C8.89688 25.7614 6.60542 24.5366 4.80689 22.738C3.00837 20.9395 1.78355 18.6481 1.28734 16.1534C0.791129 13.6588 1.0458 11.073 2.01916 8.72316C2.99251 6.37327 4.64083 4.36479 6.75567 2.9517Z" fill="#1B81F9" stroke="white" stroke-width="0.279681"/>
</svg>
