<svg width="25" height="28" viewBox="0 0 25 28" fill="none" xmlns="http://www.w3.org/2000/svg">
<path d="M15.5082 12.9896L15.3568 13.1788L15.5643 13.3042C16.6965 13.9883 17.5858 15.0102 18.107 16.2261C18.2199 16.4933 18.2223 16.7944 18.1135 17.0633C18.0048 17.3317 17.7943 17.5462 17.528 17.6599C17.3911 17.7153 17.2452 17.7452 17.0976 17.7482C16.8834 17.7476 16.674 17.6842 16.4954 17.5658C16.3162 17.447 16.176 17.2781 16.0921 17.0802L16.0918 17.0795C15.7741 16.3367 15.2457 15.7033 14.572 15.2574C13.8983 14.8116 13.1088 14.5728 12.3009 14.5706L12.2991 14.5706C11.4935 14.5755 10.707 14.8155 10.036 15.2612C9.36499 15.7069 8.83876 16.3389 8.52193 17.0795L8.52176 17.0794L8.51859 17.0877C8.46637 17.2256 8.38686 17.3514 8.28483 17.4578L8.43818 17.6049L8.28483 17.4578C8.1828 17.5642 8.06034 17.6488 7.92481 17.7068C7.78927 17.7647 7.64344 17.7946 7.49605 17.7948C7.34866 17.7951 7.20274 17.7655 7.06704 17.708C6.93134 17.6505 6.80864 17.5661 6.70631 17.4601C6.60397 17.354 6.5241 17.2284 6.47148 17.0907C6.41886 16.953 6.39457 16.8061 6.40006 16.6588C6.40556 16.5115 6.44073 16.3669 6.50347 16.2335L6.5036 16.2336L6.50665 16.2264C7.02448 15.0121 7.90926 13.9901 9.037 13.3039L9.24342 13.1782L9.09246 12.9896C8.52812 12.2842 8.2175 11.4095 8.21058 10.5062C8.21078 9.42182 8.64165 8.38188 9.40845 7.61508C10.1754 6.8481 11.2157 6.41722 12.3003 6.41722C13.385 6.41722 14.4253 6.8481 15.1922 7.61508C15.959 8.38186 16.3899 9.42178 16.3901 10.5062C16.3832 11.4095 16.0726 12.2842 15.5082 12.9896ZM7.9917 23.0414L7.92941 22.9789H7.84116H4.45428C3.47019 22.9789 2.5264 22.588 1.83054 21.8921C1.13468 21.1963 0.74375 20.2525 0.74375 19.2684V4.88396C0.74375 3.89987 1.13468 2.95608 1.83054 2.26023C2.5264 1.56437 3.47019 1.17344 4.45428 1.17344H20.1464C21.1305 1.17344 22.0743 1.56437 22.7701 2.26023C23.466 2.95608 23.8569 3.89987 23.8569 4.88396V19.2684C23.8569 20.2525 23.466 21.1963 22.7701 21.8921C22.0743 22.588 21.1305 22.9789 20.1464 22.9789H17.361H17.2824L17.2228 23.0301L13.0122 26.6391C13.0122 26.6391 13.0121 26.6392 13.0121 26.6392C12.8137 26.8088 12.5613 26.902 12.3004 26.9019L12.2991 26.902C12.155 26.9028 12.0121 26.8752 11.8787 26.8207C11.7454 26.7662 11.6242 26.6861 11.522 26.5848C11.5218 26.5846 11.5217 26.5845 11.5215 26.5844L7.9917 23.0414ZM12.2151 24.1783L12.3543 24.318L12.504 24.1897L16.1653 21.0514C16.1654 21.0514 16.1654 21.0513 16.1655 21.0513C16.3638 20.8817 16.6162 20.7886 16.8772 20.7886H20.1464C20.5496 20.7886 20.9362 20.6284 21.2213 20.3433C21.5064 20.0582 21.6666 19.6716 21.6666 19.2684V4.88396C21.6666 4.48079 21.5064 4.09413 21.2213 3.80904C20.9362 3.52395 20.5496 3.36379 20.1464 3.36379H4.45428C4.0511 3.36379 3.66444 3.52395 3.37935 3.80904C3.09427 4.09413 2.9341 4.48079 2.9341 4.88396V19.2684C2.9341 19.6716 3.09426 20.0582 3.37935 20.3433C3.66444 20.6284 4.0511 20.7886 4.45428 20.7886L8.37731 20.7886L8.37854 20.7886C8.52267 20.7877 8.66555 20.8154 8.79898 20.8699C8.93219 20.9243 9.05337 21.0044 9.15559 21.1057C9.15576 21.1058 9.15594 21.106 9.15611 21.1062L12.2151 24.1783ZM11.2436 12.0591C11.5562 12.2684 11.924 12.3802 12.3003 12.3802C12.8015 12.3802 13.2824 12.1821 13.6382 11.8291C13.994 11.4761 14.1959 10.9967 14.1997 10.4955C14.2027 10.1193 14.0937 9.75059 13.8868 9.43631C13.6799 9.12202 13.3843 8.87628 13.0375 8.73026C12.6907 8.58424 12.3083 8.54452 11.9389 8.61613C11.5695 8.68775 11.2297 8.86748 10.9625 9.13252C10.6954 9.39756 10.5131 9.73597 10.4386 10.1048C10.3641 10.4737 10.4008 10.8563 10.5441 11.2042C10.6875 11.5522 10.9309 11.8497 11.2436 12.0591Z" fill="#1B81F9" stroke="white" stroke-width="0.425"/>
</svg>
