<svg width="8" height="9" viewBox="0 0 8 9" fill="none" xmlns="http://www.w3.org/2000/svg">
    <path d="M4.00047 5.04328C4.67775 5.04328 5.3274 4.77767 5.80644 4.30471C6.28534 3.83188 6.55439 3.19044 6.55439 2.52164C6.55439 1.85284 6.28536 1.21155 5.80644 0.738577C5.32743 0.26575 4.67775 0 4.00047 0C3.32308 0 2.67343 0.26573 2.1945 0.738577C1.71549 1.21152 1.44644 1.85284 1.44644 2.52164C1.44711 3.19021 1.71648 3.8312 2.19527 4.30392C2.67409 4.77666 3.32331 5.04252 4.00047 5.04328ZM4.00047 0.79123C4.46518 0.79123 4.91101 0.973609 5.23963 1.29808C5.56825 1.62254 5.75289 2.06261 5.75289 2.52153C5.75289 2.98045 5.56827 3.42052 5.23963 3.74497C4.91101 4.06954 4.46518 4.25183 4.00047 4.25183C3.53565 4.25183 3.08984 4.06956 2.7612 3.74497C2.43258 3.42052 2.24795 2.98045 2.24795 2.52153C2.24839 2.06283 2.43323 1.62299 2.76174 1.29854C3.09027 0.974171 3.53577 0.791654 4.00047 0.79123ZM8 8.60433C8 8.82281 7.82053 9 7.59924 9C7.37796 9 7.19849 8.82281 7.19849 8.60433C7.19793 8.07981 6.9866 7.57694 6.61101 7.206C6.23531 6.83505 5.72598 6.62651 5.19472 6.62597H2.80528C2.27402 6.62652 1.76461 6.83507 1.38899 7.206C1.01328 7.57694 0.802052 8.07981 0.801509 8.60433C0.801509 8.82281 0.622042 9 0.400754 9C0.179355 9 0 8.82281 0 8.60433C0.000894541 7.87007 0.296644 7.16603 0.822634 6.64683C1.34851 6.12762 2.06145 5.8355 2.80528 5.83463H5.19492C5.93872 5.83551 6.65158 6.12762 7.17745 6.64683C7.70344 7.16603 7.99911 7.87005 8 8.60433Z" fill="#1B81F9"/>
</svg>