<svg width="23" height="21" viewBox="0 0 23 21" fill="none" xmlns="http://www.w3.org/2000/svg">
<path d="M19 14.0084C18.3793 14.0116 17.7748 14.2073 17.27 14.5684L14.82 13.1184C14.9356 12.7596 14.9963 12.3854 15 12.0084C14.9971 11.1239 14.7011 10.2652 14.1583 9.56679C13.6155 8.86836 12.8565 8.36956 12 8.14843V5.82843C12.6672 5.59253 13.2296 5.12836 13.5876 4.51795C13.9457 3.90754 14.0765 3.19019 13.9568 2.49269C13.8371 1.7952 13.4747 1.16246 12.9337 0.706322C12.3926 0.25018 11.7077 0 11 0C10.2923 0 9.60741 0.25018 9.06634 0.706322C8.52527 1.16246 8.16288 1.7952 8.04321 2.49269C7.92353 3.19019 8.05429 3.90754 8.41237 4.51795C8.77045 5.12836 9.33279 5.59253 10 5.82843V8.14843C9.14353 8.36956 8.38451 8.86836 7.84169 9.56679C7.29887 10.2652 7.00287 11.1239 7 12.0084C7.00372 12.3854 7.0644 12.7596 7.18 13.1184L4.73 14.5684C4.22516 14.2073 3.62072 14.0116 3 14.0084C2.40666 14.0084 1.82664 14.1844 1.33329 14.514C0.839943 14.8437 0.455426 15.3122 0.228363 15.8604C0.00129986 16.4086 -0.0581102 17.0118 0.0576455 17.5937C0.173401 18.1756 0.459123 18.7102 0.878681 19.1297C1.29824 19.5493 1.83279 19.835 2.41473 19.9508C2.99667 20.0665 3.59987 20.0071 4.14805 19.7801C4.69623 19.553 5.16477 19.1685 5.49441 18.6751C5.82405 18.1818 6 17.6018 6 17.0084C5.9963 16.7376 5.95594 16.4685 5.88 16.2084L8.18 14.8384C8.92945 15.5834 9.94326 16.0016 11 16.0016C12.0567 16.0016 13.0706 15.5834 13.82 14.8384L16.12 16.2084C15.9524 16.814 15.9793 17.457 16.1967 18.0465C16.4141 18.636 16.8112 19.1424 17.3318 19.4942C17.8525 19.846 18.4705 20.0254 19.0986 20.0071C19.7267 19.9889 20.3332 19.7739 20.8325 19.3924C21.3318 19.011 21.6988 18.4824 21.8816 17.8812C22.0644 17.28 22.0538 16.6366 21.8514 16.0418C21.6489 15.4469 21.2648 14.9307 20.7532 14.5659C20.2416 14.201 19.6284 14.006 19 14.0084ZM3 18.0084C2.80222 18.0084 2.60888 17.9498 2.44443 17.8399C2.27998 17.73 2.15181 17.5738 2.07612 17.3911C2.00043 17.2084 1.98063 17.0073 2.01922 16.8133C2.0578 16.6194 2.15304 16.4412 2.29289 16.3013C2.43275 16.1615 2.61093 16.0662 2.80491 16.0276C2.99889 15.9891 3.19996 16.0089 3.38268 16.0845C3.56541 16.1602 3.72159 16.2884 3.83147 16.4529C3.94135 16.6173 4 16.8106 4 17.0084C4 17.2736 3.89464 17.528 3.70711 17.7155C3.51957 17.9031 3.26522 18.0084 3 18.0084ZM11 2.00843C11.1978 2.00843 11.3911 2.06708 11.5556 2.17696C11.72 2.28684 11.8482 2.44302 11.9239 2.62574C11.9996 2.80847 12.0194 3.00954 11.9808 3.20352C11.9422 3.3975 11.847 3.57568 11.7071 3.71553C11.5673 3.85539 11.3891 3.95063 11.1951 3.98921C11.0011 4.0278 10.8 4.00799 10.6173 3.93231C10.4346 3.85662 10.2784 3.72845 10.1685 3.564C10.0587 3.39955 10 3.20621 10 3.00843C10 2.74321 10.1054 2.48886 10.2929 2.30132C10.4804 2.11378 10.7348 2.00843 11 2.00843ZM11 14.0084C10.6044 14.0084 10.2178 13.8911 9.88886 13.6714C9.55996 13.4516 9.30362 13.1392 9.15224 12.7738C9.00087 12.4083 8.96126 12.0062 9.03843 11.6182C9.1156 11.2303 9.30608 10.8739 9.58579 10.5942C9.86549 10.3145 10.2219 10.124 10.6098 10.0469C10.9978 9.96969 11.3999 10.0093 11.7654 10.1607C12.1308 10.312 12.4432 10.5684 12.6629 10.8973C12.8827 11.2262 13 11.6129 13 12.0084C13 12.5389 12.7893 13.0476 12.4142 13.4226C12.0391 13.7977 11.5304 14.0084 11 14.0084ZM19 18.0084C18.8022 18.0084 18.6089 17.9498 18.4444 17.8399C18.28 17.73 18.1518 17.5738 18.0761 17.3911C18.0004 17.2084 17.9806 17.0073 18.0192 16.8133C18.0578 16.6194 18.153 16.4412 18.2929 16.3013C18.4327 16.1615 18.6109 16.0662 18.8049 16.0276C18.9989 15.9891 19.2 16.0089 19.3827 16.0845C19.5654 16.1602 19.7216 16.2884 19.8315 16.4529C19.9414 16.6173 20 16.8106 20 17.0084C20 17.2736 19.8946 17.528 19.7071 17.7155C19.5196 17.9031 19.2652 18.0084 19 18.0084Z" fill="#1B81F9"/>
</svg>
