<svg width="8" height="5" viewBox="0 0 8 5" fill="none" xmlns="http://www.w3.org/2000/svg">
    <path d="M7.98359 2.44313C7.55919 0.981694 5.60318 0 4.04252 0C2.47382 0 0.434592 1.0033 0.0165255 2.44313L0 2.5L0.0164664 2.55687C0.434654 3.99666 2.47376 5 4.04246 5C5.60312 5 7.5591 4.01833 7.98353 2.55687L8 2.5L7.98359 2.44313ZM4.04252 4.55668C2.67138 4.55668 0.901486 3.71504 0.502374 2.50003C0.901607 1.28504 2.67141 0.443386 4.04252 0.443386C5.3742 0.443386 7.1 1.28503 7.49774 2.50003C7.09994 3.71502 5.3742 4.55668 4.04252 4.55668ZM4.06372 1.18292C3.24535 1.18292 2.58211 1.79 2.58211 2.53885C2.58211 3.28769 3.24547 3.89478 4.06372 3.89478C4.88204 3.89483 5.54539 3.2878 5.54539 2.5389C5.54539 1.78995 4.8821 1.18292 4.06372 1.18292Z" fill="#1B81F9"/>
</svg>