<svg width="293" height="141" viewBox="0 0 293 141" fill="none" xmlns="http://www.w3.org/2000/svg">
<g filter="url(#filter0_d_590_5562)">
<path d="M270.648 124H17C17.3279 123.583 18.2986 122.457 19.5579 121.289C20.8171 120.121 21.0008 117.466 20.9352 116.284C20.8696 87.8543 20.7778 30.2856 20.9352 24.113C21.0926 17.9404 26.6412 16.8144 29.3959 17.0229L268.287 17.0229C274.741 17.0229 276.092 22.1667 275.961 24.7386V116.284C275.961 122.29 272.419 123.93 270.648 124Z" fill="white"/>
</g>
<path d="M36.413 47.3V55H35.39V48.268H31.848V55H30.825V47.3H36.413ZM42.6082 54.307C42.0436 54.8643 41.3579 55.143 40.5512 55.143C39.7446 55.143 39.0589 54.8643 38.4942 54.307C37.9369 53.7497 37.6582 53.064 37.6582 52.25C37.6582 51.436 37.9369 50.7503 38.4942 50.193C39.0589 49.6357 39.7446 49.357 40.5512 49.357C41.3579 49.357 42.0436 49.6357 42.6082 50.193C43.1729 50.7503 43.4552 51.436 43.4552 52.25C43.4552 53.064 43.1729 53.7497 42.6082 54.307ZM40.5512 54.208C41.1012 54.208 41.5632 54.021 41.9372 53.647C42.3112 53.273 42.4982 52.8073 42.4982 52.25C42.4982 51.6927 42.3112 51.227 41.9372 50.853C41.5632 50.479 41.1012 50.292 40.5512 50.292C40.0086 50.292 39.5502 50.479 39.1762 50.853C38.8022 51.227 38.6152 51.6927 38.6152 52.25C38.6152 52.8073 38.8022 53.273 39.1762 53.647C39.5502 54.021 40.0086 54.208 40.5512 54.208ZM48.9771 49.5V55H48.0201V50.424H45.8531V52.668C45.8531 53.57 45.6697 54.2007 45.3031 54.56C44.9437 54.912 44.4341 55.0587 43.7741 55V54.098C44.1481 54.1493 44.4267 54.0687 44.6101 53.856C44.8007 53.636 44.8961 53.2327 44.8961 52.646V49.5H48.9771ZM51.0982 52.69C51.1935 53.1813 51.4172 53.5627 51.7692 53.834C52.1285 54.1053 52.5685 54.241 53.0892 54.241C53.8152 54.241 54.3432 53.9733 54.6732 53.438L55.4872 53.9C54.9518 54.7287 54.1452 55.143 53.0672 55.143C52.1945 55.143 51.4832 54.8717 50.9332 54.329C50.3905 53.779 50.1192 53.086 50.1192 52.25C50.1192 51.4213 50.3868 50.732 50.9222 50.182C51.4575 49.632 52.1505 49.357 53.0012 49.357C53.8078 49.357 54.4642 49.643 54.9702 50.215C55.4835 50.7797 55.7402 51.4617 55.7402 52.261C55.7402 52.4003 55.7292 52.5433 55.7072 52.69H51.0982ZM53.0012 50.259C52.4878 50.259 52.0625 50.4057 51.7252 50.699C51.3878 50.985 51.1788 51.37 51.0982 51.854H54.7722C54.6915 51.3333 54.4862 50.9373 54.1562 50.666C53.8262 50.3947 53.4412 50.259 53.0012 50.259ZM59.6921 52.184C60.3008 52.4333 60.6051 52.8697 60.6051 53.493C60.6051 53.955 60.4218 54.3473 60.0551 54.67C59.6884 54.9853 59.1678 55.143 58.4931 55.143C57.3931 55.143 56.6561 54.703 56.2821 53.823L57.0851 53.35C57.2978 53.9513 57.7708 54.252 58.5041 54.252C58.8708 54.252 59.1531 54.175 59.3511 54.021C59.5564 53.8597 59.6591 53.6543 59.6591 53.405C59.6591 53.185 59.5748 53.0053 59.4061 52.866C59.2448 52.7267 59.0248 52.657 58.7461 52.657H57.9431V51.788H58.5371C58.8158 51.788 59.0321 51.722 59.1861 51.59C59.3401 51.4507 59.4171 51.2637 59.4171 51.029C59.4171 50.7943 59.3254 50.6037 59.1421 50.457C58.9661 50.3103 58.7204 50.237 58.4051 50.237C57.7891 50.237 57.3711 50.4973 57.1511 51.018L56.3701 50.567C56.7588 49.7603 57.4371 49.357 58.4051 49.357C59.0064 49.357 59.4794 49.511 59.8241 49.819C60.1761 50.127 60.3521 50.5047 60.3521 50.952C60.3521 51.5093 60.1321 51.92 59.6921 52.184ZM65.448 49.5H66.405V55H65.448V52.701H62.599V55H61.642V49.5H62.599V51.788H65.448V49.5ZM70.1827 51.48C70.7327 51.48 71.1874 51.645 71.5467 51.975C71.9134 52.2977 72.0967 52.7193 72.0967 53.24C72.0967 53.7607 71.9134 54.186 71.5467 54.516C71.1874 54.8387 70.7327 55 70.1827 55H67.8617V49.5H68.8187V51.48H70.1827ZM72.8117 49.5H73.7687V55H72.8117V49.5ZM70.1827 54.109C70.4541 54.109 70.6814 54.032 70.8647 53.878C71.0554 53.7167 71.1507 53.504 71.1507 53.24C71.1507 52.976 71.0554 52.7633 70.8647 52.602C70.6814 52.4407 70.4541 52.36 70.1827 52.36H68.8187V54.109H70.1827ZM75.9019 52.69C75.9972 53.1813 76.2209 53.5627 76.5729 53.834C76.9322 54.1053 77.3722 54.241 77.8929 54.241C78.6189 54.241 79.1469 53.9733 79.4769 53.438L80.2909 53.9C79.7555 54.7287 78.9489 55.143 77.8709 55.143C76.9982 55.143 76.2869 54.8717 75.7369 54.329C75.1942 53.779 74.9229 53.086 74.9229 52.25C74.9229 51.4213 75.1905 50.732 75.7259 50.182C76.2612 49.632 76.9542 49.357 77.8049 49.357C78.6115 49.357 79.2679 49.643 79.7739 50.215C80.2872 50.7797 80.5439 51.4617 80.5439 52.261C80.5439 52.4003 80.5329 52.5433 80.5109 52.69H75.9019ZM77.8049 50.259C77.2915 50.259 76.8662 50.4057 76.5289 50.699C76.1915 50.985 75.9825 51.37 75.9019 51.854H79.5759C79.4952 51.3333 79.2899 50.9373 78.9599 50.666C78.6299 50.3947 78.2449 50.259 77.8049 50.259ZM86.979 55.143C86.1503 55.143 85.461 54.868 84.911 54.318C84.361 53.7607 84.086 53.0713 84.086 52.25C84.086 51.4287 84.361 50.743 84.911 50.193C85.461 49.6357 86.1503 49.357 86.979 49.357C87.5216 49.357 88.0093 49.489 88.442 49.753C88.8746 50.0097 89.1973 50.358 89.41 50.798L88.607 51.26C88.4676 50.9667 88.2513 50.732 87.958 50.556C87.672 50.38 87.3456 50.292 86.979 50.292C86.429 50.292 85.967 50.479 85.593 50.853C85.2263 51.227 85.043 51.6927 85.043 52.25C85.043 52.8 85.2263 53.262 85.593 53.636C85.967 54.01 86.429 54.197 86.979 54.197C87.3456 54.197 87.6756 54.1127 87.969 53.944C88.2623 53.768 88.486 53.5333 88.64 53.24L89.454 53.713C89.2193 54.1457 88.882 54.494 88.442 54.758C88.002 55.0147 87.5143 55.143 86.979 55.143ZM94.9657 54.307C94.401 54.8643 93.7153 55.143 92.9087 55.143C92.102 55.143 91.4163 54.8643 90.8517 54.307C90.2943 53.7497 90.0157 53.064 90.0157 52.25C90.0157 51.436 90.2943 50.7503 90.8517 50.193C91.4163 49.6357 92.102 49.357 92.9087 49.357C93.7153 49.357 94.401 49.6357 94.9657 50.193C95.5303 50.7503 95.8127 51.436 95.8127 52.25C95.8127 53.064 95.5303 53.7497 94.9657 54.307ZM92.9087 54.208C93.4587 54.208 93.9207 54.021 94.2947 53.647C94.6687 53.273 94.8557 52.8073 94.8557 52.25C94.8557 51.6927 94.6687 51.227 94.2947 50.853C93.9207 50.479 93.4587 50.292 92.9087 50.292C92.366 50.292 91.9077 50.479 91.5337 50.853C91.1597 51.227 90.9727 51.6927 90.9727 52.25C90.9727 52.8073 91.1597 53.273 91.5337 53.647C91.9077 54.021 92.366 54.208 92.9087 54.208ZM100.604 52.173C101.169 52.4077 101.451 52.833 101.451 53.449C101.451 53.9037 101.297 54.2777 100.989 54.571C100.688 54.857 100.256 55 99.6908 55H96.9408V49.5H99.4708C100.021 49.5 100.446 49.6393 100.747 49.918C101.048 50.1893 101.198 50.5487 101.198 50.996C101.198 51.524 101 51.9163 100.604 52.173ZM99.4268 50.358H97.8758V51.799H99.4268C99.9842 51.799 100.263 51.5533 100.263 51.062C100.263 50.5927 99.9842 50.358 99.4268 50.358ZM99.6358 54.131C99.9145 54.131 100.127 54.065 100.274 53.933C100.428 53.801 100.505 53.614 100.505 53.372C100.505 53.1447 100.428 52.9687 100.274 52.844C100.127 52.712 99.9145 52.646 99.6358 52.646H97.8758V54.131H99.6358ZM103.155 52.69C103.25 53.1813 103.474 53.5627 103.826 53.834C104.185 54.1053 104.625 54.241 105.146 54.241C105.872 54.241 106.4 53.9733 106.73 53.438L107.544 53.9C107.008 54.7287 106.202 55.143 105.124 55.143C104.251 55.143 103.54 54.8717 102.99 54.329C102.447 53.779 102.176 53.086 102.176 52.25C102.176 51.4213 102.443 50.732 102.979 50.182C103.514 49.632 104.207 49.357 105.058 49.357C105.864 49.357 106.521 49.643 107.027 50.215C107.54 50.7797 107.797 51.4617 107.797 52.261C107.797 52.4003 107.786 52.5433 107.764 52.69H103.155ZM105.058 50.259C104.544 50.259 104.119 50.4057 103.782 50.699C103.444 50.985 103.235 51.37 103.155 51.854H106.829C106.748 51.3333 106.543 50.9373 106.213 50.666C105.883 50.3947 105.498 50.259 105.058 50.259ZM112.774 49.5V50.424H110.904V55H109.947V50.424H108.066V49.5H112.774ZM115.934 51.48C116.484 51.48 116.938 51.645 117.298 51.975C117.664 52.2977 117.848 52.7193 117.848 53.24C117.848 53.7607 117.664 54.186 117.298 54.516C116.938 54.8387 116.484 55 115.934 55H113.613V49.5H114.57V51.48H115.934ZM118.563 49.5H119.52V55H118.563V49.5ZM115.934 54.109C116.205 54.109 116.432 54.032 116.616 53.878C116.806 53.7167 116.902 53.504 116.902 53.24C116.902 52.976 116.806 52.7633 116.616 52.602C116.432 52.4407 116.205 52.36 115.934 52.36H114.57V54.109H115.934ZM122.412 53.867L121.697 56.54H120.872L121.312 53.867H122.412ZM131.101 49.5V55H130.144V50.424H127.977V52.668C127.977 53.57 127.794 54.2007 127.427 54.56C127.068 54.912 126.558 55.0587 125.898 55V54.098C126.272 54.1493 126.551 54.0687 126.734 53.856C126.925 53.636 127.02 53.2327 127.02 52.646V49.5H131.101ZM137.105 49.5H138.062V55H137.105V54.054C136.629 54.78 135.936 55.143 135.026 55.143C134.256 55.143 133.6 54.8643 133.057 54.307C132.515 53.7423 132.243 53.0567 132.243 52.25C132.243 51.4433 132.515 50.7613 133.057 50.204C133.6 49.6393 134.256 49.357 135.026 49.357C135.936 49.357 136.629 49.72 137.105 50.446V49.5ZM135.147 54.219C135.705 54.219 136.17 54.032 136.544 53.658C136.918 53.2767 137.105 52.8073 137.105 52.25C137.105 51.6927 136.918 51.227 136.544 50.853C136.17 50.4717 135.705 50.281 135.147 50.281C134.597 50.281 134.135 50.4717 133.761 50.853C133.387 51.227 133.2 51.6927 133.2 52.25C133.2 52.8073 133.387 53.2767 133.761 53.658C134.135 54.032 134.597 54.219 135.147 54.219ZM140.414 48.675V47.839H143.384V48.675H140.414ZM143.505 49.5H144.275V55H143.329V51.139L140.282 55H139.512V49.5H140.458V53.361L143.505 49.5ZM151.254 50.325C151.767 50.853 152.024 51.4947 152.024 52.25C152.024 53.0053 151.767 53.647 151.254 54.175C150.741 54.703 150.055 55.0147 149.197 55.11V57.2H148.251V55.11C147.393 55.0147 146.707 54.703 146.194 54.175C145.681 53.647 145.424 53.0053 145.424 52.25C145.424 51.4947 145.681 50.853 146.194 50.325C146.707 49.797 147.393 49.4853 148.251 49.39V47.3H149.197V49.39C150.055 49.4853 150.741 49.797 151.254 50.325ZM146.37 52.25C146.37 52.756 146.535 53.185 146.865 53.537C147.202 53.889 147.664 54.1053 148.251 54.186V50.314C147.664 50.3873 147.202 50.6 146.865 50.952C146.535 51.304 146.37 51.7367 146.37 52.25ZM149.197 54.186C149.784 54.1053 150.242 53.889 150.572 53.537C150.902 53.185 151.067 52.756 151.067 52.25C151.067 51.744 150.902 51.315 150.572 50.963C150.242 50.611 149.784 50.3947 149.197 50.314V54.186ZM157.542 55H156.42L154.88 52.921L153.329 55H152.207L154.319 52.173L152.328 49.5H153.461L154.88 51.414L156.299 49.5H157.421L155.441 52.162L157.542 55ZM162.596 49.5H163.553V55H162.596V54.054C162.12 54.78 161.427 55.143 160.517 55.143C159.747 55.143 159.091 54.8643 158.548 54.307C158.006 53.7423 157.734 53.0567 157.734 52.25C157.734 51.4433 158.006 50.7613 158.548 50.204C159.091 49.6393 159.747 49.357 160.517 49.357C161.427 49.357 162.12 49.72 162.596 50.446V49.5ZM160.638 54.219C161.196 54.219 161.661 54.032 162.035 53.658C162.409 53.2767 162.596 52.8073 162.596 52.25C162.596 51.6927 162.409 51.227 162.035 50.853C161.661 50.4717 161.196 50.281 160.638 50.281C160.088 50.281 159.626 50.4717 159.252 50.853C158.878 51.227 158.691 51.6927 158.691 52.25C158.691 52.8073 158.878 53.2767 159.252 53.658C159.626 54.032 160.088 54.219 160.638 54.219ZM169.656 55H168.468L165.96 52.393V55H165.003V49.5H165.96V51.931L168.336 49.5H169.568L166.939 52.162L169.656 55ZM174.539 49.5H175.309V55H174.363V51.139L171.316 55H170.546V49.5H171.492V53.361L174.539 49.5ZM178.196 53.867L177.481 56.54H176.656L177.096 53.867H178.196ZM184.278 49.357C185.114 49.357 185.789 49.6283 186.302 50.171C186.823 50.7137 187.083 51.4067 187.083 52.25C187.083 53.086 186.823 53.779 186.302 54.329C185.782 54.8717 185.103 55.143 184.267 55.143C183.681 55.143 183.167 55.0147 182.727 54.758C182.287 54.494 181.968 54.1383 181.77 53.691L182.584 53.218C182.702 53.5187 182.903 53.7607 183.189 53.944C183.483 54.1273 183.842 54.219 184.267 54.219C184.744 54.219 185.144 54.0797 185.466 53.801C185.789 53.5223 185.994 53.1557 186.082 52.701H183.629V51.799H186.082C185.994 51.3443 185.793 50.9777 185.477 50.699C185.162 50.4203 184.766 50.281 184.289 50.281C183.901 50.281 183.56 50.3727 183.266 50.556C182.98 50.732 182.768 50.9703 182.628 51.271L181.803 50.798C182.023 50.3507 182.353 49.9987 182.793 49.742C183.233 49.4853 183.728 49.357 184.278 49.357ZM192.87 55H191.682L189.174 52.393V55H188.217V49.5H189.174V51.931L191.55 49.5H192.782L190.153 52.162L192.87 55ZM195.84 55.143C195.012 55.143 194.322 54.868 193.772 54.318C193.222 53.7607 192.947 53.0713 192.947 52.25C192.947 51.4287 193.222 50.743 193.772 50.193C194.322 49.6357 195.012 49.357 195.84 49.357C196.383 49.357 196.871 49.489 197.303 49.753C197.736 50.0097 198.059 50.358 198.271 50.798L197.468 51.26C197.329 50.9667 197.113 50.732 196.819 50.556C196.533 50.38 196.207 50.292 195.84 50.292C195.29 50.292 194.828 50.479 194.454 50.853C194.088 51.227 193.904 51.6927 193.904 52.25C193.904 52.8 194.088 53.262 194.454 53.636C194.828 54.01 195.29 54.197 195.84 54.197C196.207 54.197 196.537 54.1127 196.83 53.944C197.124 53.768 197.347 53.5333 197.501 53.24L198.315 53.713C198.081 54.1457 197.743 54.494 197.303 54.758C196.863 55.0147 196.376 55.143 195.84 55.143ZM204.034 49.5V55H203.077V50.413H200.228V55H199.271V49.5H204.034ZM206.162 52.69C206.257 53.1813 206.481 53.5627 206.833 53.834C207.192 54.1053 207.632 54.241 208.153 54.241C208.879 54.241 209.407 53.9733 209.737 53.438L210.551 53.9C210.015 54.7287 209.209 55.143 208.131 55.143C207.258 55.143 206.547 54.8717 205.997 54.329C205.454 53.779 205.183 53.086 205.183 52.25C205.183 51.4213 205.45 50.732 205.986 50.182C206.521 49.632 207.214 49.357 208.065 49.357C208.871 49.357 209.528 49.643 210.034 50.215C210.547 50.7797 210.804 51.4617 210.804 52.261C210.804 52.4003 210.793 52.5433 210.771 52.69H206.162ZM208.065 50.259C207.551 50.259 207.126 50.4057 206.789 50.699C206.451 50.985 206.242 51.37 206.162 51.854H209.836C209.755 51.3333 209.55 50.9373 209.22 50.666C208.89 50.3947 208.505 50.259 208.065 50.259ZM214.94 49.357C215.71 49.357 216.366 49.6393 216.909 50.204C217.451 50.7613 217.723 51.4433 217.723 52.25C217.723 53.0567 217.451 53.7423 216.909 54.307C216.366 54.8643 215.71 55.143 214.94 55.143C214.03 55.143 213.337 54.78 212.861 54.054V57.2H211.904V49.5H212.861V50.446C213.337 49.72 214.03 49.357 214.94 49.357ZM214.819 54.219C215.369 54.219 215.831 54.032 216.205 53.658C216.579 53.2767 216.766 52.8073 216.766 52.25C216.766 51.6927 216.579 51.227 216.205 50.853C215.831 50.4717 215.369 50.281 214.819 50.281C214.261 50.281 213.796 50.4717 213.422 50.853C213.048 51.227 212.861 51.6927 212.861 52.25C212.861 52.8073 213.048 53.2767 213.422 53.658C213.796 54.032 214.261 54.219 214.819 54.219ZM222.742 49.5V50.424H220.872V55H219.915V50.424H218.034V49.5H222.742ZM227.386 49.5H228.343V55H227.386V52.701H224.537V55H223.58V49.5H224.537V51.788H227.386V49.5ZM232.121 51.48C232.671 51.48 233.126 51.645 233.485 51.975C233.852 52.2977 234.035 52.7193 234.035 53.24C234.035 53.7607 233.852 54.186 233.485 54.516C233.126 54.8387 232.671 55 232.121 55H229.8V49.5H230.757V51.48H232.121ZM234.75 49.5H235.707V55H234.75V49.5ZM232.121 54.109C232.393 54.109 232.62 54.032 232.803 53.878C232.994 53.7167 233.089 53.504 233.089 53.24C233.089 52.976 232.994 52.7633 232.803 52.602C232.62 52.4407 232.393 52.36 232.121 52.36H230.757V54.109H232.121ZM237.84 52.69C237.936 53.1813 238.159 53.5627 238.511 53.834C238.871 54.1053 239.311 54.241 239.831 54.241C240.557 54.241 241.085 53.9733 241.415 53.438L242.229 53.9C241.694 54.7287 240.887 55.143 239.809 55.143C238.937 55.143 238.225 54.8717 237.675 54.329C237.133 53.779 236.861 53.086 236.861 52.25C236.861 51.4213 237.129 50.732 237.664 50.182C238.2 49.632 238.893 49.357 239.743 49.357C240.55 49.357 241.206 49.643 241.712 50.215C242.226 50.7797 242.482 51.4617 242.482 52.261C242.482 52.4003 242.471 52.5433 242.449 52.69H237.84ZM239.743 50.259C239.23 50.259 238.805 50.4057 238.467 50.699C238.13 50.985 237.921 51.37 237.84 51.854H241.514C241.434 51.3333 241.228 50.9373 240.898 50.666C240.568 50.3947 240.183 50.259 239.743 50.259ZM36.226 61.5V67H35.291V63.007L33.542 65.823H33.421L31.672 63.007V67H30.726V61.5H31.749L33.476 64.283L35.203 61.5H36.226ZM41.4929 61.5H42.4499V67H41.4929V64.701H38.6439V67H37.6869V61.5H38.6439V63.788H41.4929V61.5ZM44.5777 64.69C44.673 65.1813 44.8967 65.5627 45.2487 65.834C45.608 66.1053 46.048 66.241 46.5687 66.241C47.2947 66.241 47.8227 65.9733 48.1527 65.438L48.9667 65.9C48.4313 66.7287 47.6247 67.143 46.5467 67.143C45.674 67.143 44.9627 66.8717 44.4127 66.329C43.87 65.779 43.5987 65.086 43.5987 64.25C43.5987 63.4213 43.8663 62.732 44.4017 62.182C44.937 61.632 45.63 61.357 46.4807 61.357C47.2873 61.357 47.9437 61.643 48.4497 62.215C48.963 62.7797 49.2197 63.4617 49.2197 64.261C49.2197 64.4003 49.2087 64.5433 49.1867 64.69H44.5777ZM46.4807 62.259C45.9673 62.259 45.542 62.4057 45.2047 62.699C44.8673 62.985 44.6583 63.37 44.5777 63.854H48.2517C48.171 63.3333 47.9657 62.9373 47.6357 62.666C47.3057 62.3947 46.9207 62.259 46.4807 62.259ZM54.1258 61.5H55.0828V67H54.1258V64.701H51.2768V67H50.3197V61.5H51.2768V63.788H54.1258V61.5ZM60.5325 61.5H61.3025V67H60.3565V63.139L57.3095 67H56.5395V61.5H57.4855V65.361L60.5325 61.5ZM66.8732 61.5V67H65.9272V65.02H65.1242L63.5842 67H62.4182L64.0242 64.965C63.6135 64.8623 63.2799 64.657 63.0232 64.349C62.7665 64.041 62.6382 63.6817 62.6382 63.271C62.6382 62.765 62.8179 62.3433 63.1772 62.006C63.5365 61.6687 63.9875 61.5 64.5302 61.5H66.8732ZM64.5632 64.162H65.9272V62.391H64.5632C64.2919 62.391 64.0609 62.4717 63.8702 62.633C63.6795 62.7943 63.5842 63.0107 63.5842 63.282C63.5842 63.546 63.6795 63.7587 63.8702 63.92C64.0609 64.0813 64.2919 64.162 64.5632 64.162ZM75.0667 61.5H75.8367V67H74.8907V63.139L71.8437 67H71.0737V61.5H72.0197V65.361L75.0667 61.5ZM80.2634 64.184C80.872 64.4333 81.1764 64.8697 81.1764 65.493C81.1764 65.955 80.993 66.3473 80.6264 66.67C80.2597 66.9853 79.739 67.143 79.0644 67.143C77.9644 67.143 77.2274 66.703 76.8534 65.823L77.6564 65.35C77.869 65.9513 78.342 66.252 79.0754 66.252C79.442 66.252 79.7244 66.175 79.9224 66.021C80.1277 65.8597 80.2304 65.6543 80.2304 65.405C80.2304 65.185 80.146 65.0053 79.9774 64.866C79.816 64.7267 79.596 64.657 79.3174 64.657H78.5144V63.788H79.1084C79.387 63.788 79.6034 63.722 79.7574 63.59C79.9114 63.4507 79.9884 63.2637 79.9884 63.029C79.9884 62.7943 79.8967 62.6037 79.7134 62.457C79.5374 62.3103 79.2917 62.237 78.9764 62.237C78.3604 62.237 77.9424 62.4973 77.7224 63.018L76.9414 62.567C77.33 61.7603 78.0084 61.357 78.9764 61.357C79.5777 61.357 80.0507 61.511 80.3954 61.819C80.7474 62.127 80.9234 62.5047 80.9234 62.952C80.9234 63.5093 80.7034 63.92 80.2634 64.184ZM89.6053 66.307C89.0406 66.8643 88.355 67.143 87.5483 67.143C86.7416 67.143 86.056 66.8643 85.4913 66.307C84.934 65.7497 84.6553 65.064 84.6553 64.25C84.6553 63.436 84.934 62.7503 85.4913 62.193C86.056 61.6357 86.7416 61.357 87.5483 61.357C88.355 61.357 89.0406 61.6357 89.6053 62.193C90.17 62.7503 90.4523 63.436 90.4523 64.25C90.4523 65.064 90.17 65.7497 89.6053 66.307ZM87.5483 66.208C88.0983 66.208 88.5603 66.021 88.9343 65.647C89.3083 65.273 89.4953 64.8073 89.4953 64.25C89.4953 63.6927 89.3083 63.227 88.9343 62.853C88.5603 62.479 88.0983 62.292 87.5483 62.292C87.0056 62.292 86.5473 62.479 86.1733 62.853C85.7993 63.227 85.6123 63.6927 85.6123 64.25C85.6123 64.8073 85.7993 65.273 86.1733 65.647C86.5473 66.021 87.0056 66.208 87.5483 66.208ZM94.0775 67.143C93.2635 67.143 92.5925 66.8753 92.0645 66.34C91.5365 65.8047 91.2725 65.1153 91.2725 64.272C91.2725 63.3333 91.4082 62.611 91.6795 62.105C91.9582 61.599 92.5228 61.1407 93.3735 60.73C93.5275 60.6567 93.7365 60.5613 94.0005 60.444C94.2718 60.3267 94.4698 60.2387 94.5945 60.18C94.7192 60.114 94.8585 60.0297 95.0125 59.927C95.1665 59.817 95.2802 59.6997 95.3535 59.575C95.4342 59.443 95.4928 59.2927 95.5295 59.124L96.2995 59.564C96.2775 59.6813 96.2482 59.7913 96.2115 59.894C96.1748 59.9893 96.1198 60.0847 96.0465 60.18C95.9805 60.268 95.9218 60.345 95.8705 60.411C95.8192 60.477 95.7312 60.5503 95.6065 60.631C95.4892 60.7043 95.4012 60.7593 95.3425 60.796C95.2912 60.8327 95.1848 60.8877 95.0235 60.961C94.8695 61.0343 94.7632 61.0857 94.7045 61.115C94.6532 61.137 94.5322 61.1883 94.3415 61.269C94.1508 61.3423 94.0335 61.39 93.9895 61.412C93.4908 61.6247 93.1242 61.841 92.8895 62.061C92.6622 62.281 92.4972 62.5597 92.3945 62.897C92.6292 62.6037 92.9225 62.3873 93.2745 62.248C93.6265 62.1087 93.9785 62.039 94.3305 62.039C95.0198 62.039 95.6028 62.2737 96.0795 62.743C96.5635 63.2123 96.8055 63.8173 96.8055 64.558C96.8055 65.306 96.5488 65.9257 96.0355 66.417C95.5222 66.901 94.8695 67.143 94.0775 67.143ZM92.7905 65.735C93.1352 66.0577 93.5642 66.219 94.0775 66.219C94.5908 66.219 95.0125 66.0613 95.3425 65.746C95.6798 65.4307 95.8485 65.0347 95.8485 64.558C95.8485 64.0667 95.6872 63.667 95.3645 63.359C95.0492 63.0437 94.6312 62.886 94.1105 62.886C93.6412 62.886 93.2158 63.0363 92.8345 63.337C92.4605 63.6303 92.2735 64.019 92.2735 64.503C92.2735 65.0017 92.4458 65.4123 92.7905 65.735ZM102.215 61.5V67H101.258V62.424H99.0913V64.668C99.0913 65.57 98.908 66.2007 98.5413 66.56C98.182 66.912 97.6723 67.0587 97.0123 67V66.098C97.3863 66.1493 97.665 66.0687 97.8483 65.856C98.039 65.636 98.1343 65.2327 98.1343 64.646V61.5H102.215ZM108.219 61.5H109.176V67H108.219V66.054C107.743 66.78 107.05 67.143 106.14 67.143C105.37 67.143 104.714 66.8643 104.171 66.307C103.629 65.7423 103.357 65.0567 103.357 64.25C103.357 63.4433 103.629 62.7613 104.171 62.204C104.714 61.6393 105.37 61.357 106.14 61.357C107.05 61.357 107.743 61.72 108.219 62.446V61.5ZM106.261 66.219C106.819 66.219 107.284 66.032 107.658 65.658C108.032 65.2767 108.219 64.8073 108.219 64.25C108.219 63.6927 108.032 63.227 107.658 62.853C107.284 62.4717 106.819 62.281 106.261 62.281C105.711 62.281 105.249 62.4717 104.875 62.853C104.501 63.227 104.314 63.6927 104.314 64.25C104.314 64.8073 104.501 65.2767 104.875 65.658C105.249 66.032 105.711 66.219 106.261 66.219ZM113.211 67.143C112.383 67.143 111.693 66.868 111.143 66.318C110.593 65.7607 110.318 65.0713 110.318 64.25C110.318 63.4287 110.593 62.743 111.143 62.193C111.693 61.6357 112.383 61.357 113.211 61.357C113.754 61.357 114.242 61.489 114.674 61.753C115.107 62.0097 115.43 62.358 115.642 62.798L114.839 63.26C114.7 62.9667 114.484 62.732 114.19 62.556C113.904 62.38 113.578 62.292 113.211 62.292C112.661 62.292 112.199 62.479 111.825 62.853C111.459 63.227 111.275 63.6927 111.275 64.25C111.275 64.8 111.459 65.262 111.825 65.636C112.199 66.01 112.661 66.197 113.211 66.197C113.578 66.197 113.908 66.1127 114.201 65.944C114.495 65.768 114.718 65.5333 114.872 65.24L115.686 65.713C115.452 66.1457 115.114 66.494 114.674 66.758C114.234 67.0147 113.747 67.143 113.211 67.143ZM120.637 61.5V62.424H118.767V67H117.81V62.424H115.929V61.5H120.637ZM125.469 61.5H126.239V67H125.293V63.139L122.246 67H121.476V61.5H122.422V65.361L125.469 61.5ZM135.099 67H133.911L131.403 64.393V67H130.446V61.5H131.403V63.931L133.779 61.5H135.011L132.382 64.162L135.099 67ZM139.025 61.357C139.795 61.357 140.451 61.6393 140.994 62.204C141.536 62.7613 141.808 63.4433 141.808 64.25C141.808 65.0567 141.536 65.7423 140.994 66.307C140.451 66.8643 139.795 67.143 139.025 67.143C138.115 67.143 137.422 66.78 136.946 66.054V69.2H135.989V61.5H136.946V62.446C137.422 61.72 138.115 61.357 139.025 61.357ZM138.904 66.219C139.454 66.219 139.916 66.032 140.29 65.658C140.664 65.2767 140.851 64.8073 140.851 64.25C140.851 63.6927 140.664 63.227 140.29 62.853C139.916 62.4717 139.454 62.281 138.904 62.281C138.346 62.281 137.881 62.4717 137.507 62.853C137.133 63.227 136.946 63.6927 136.946 64.25C136.946 64.8073 137.133 65.2767 137.507 65.658C137.881 66.032 138.346 66.219 138.904 66.219ZM147.504 61.5H148.461V67H147.504V66.054C147.027 66.78 146.334 67.143 145.425 67.143C144.655 67.143 143.998 66.8643 143.456 66.307C142.913 65.7423 142.642 65.0567 142.642 64.25C142.642 63.4433 142.913 62.7613 143.456 62.204C143.998 61.6393 144.655 61.357 145.425 61.357C146.334 61.357 147.027 61.72 147.504 62.446V61.5ZM145.546 66.219C146.103 66.219 146.569 66.032 146.943 65.658C147.317 65.2767 147.504 64.8073 147.504 64.25C147.504 63.6927 147.317 63.227 146.943 62.853C146.569 62.4717 146.103 62.281 145.546 62.281C144.996 62.281 144.534 62.4717 144.16 62.853C143.786 63.227 143.599 63.6927 143.599 64.25C143.599 64.8073 143.786 65.2767 144.16 65.658C144.534 66.032 144.996 66.219 145.546 66.219ZM152.496 67.143C151.667 67.143 150.978 66.868 150.428 66.318C149.878 65.7607 149.603 65.0713 149.603 64.25C149.603 63.4287 149.878 62.743 150.428 62.193C150.978 61.6357 151.667 61.357 152.496 61.357C153.038 61.357 153.526 61.489 153.959 61.753C154.391 62.0097 154.714 62.358 154.927 62.798L154.124 63.26C153.984 62.9667 153.768 62.732 153.475 62.556C153.189 62.38 152.862 62.292 152.496 62.292C151.946 62.292 151.484 62.479 151.11 62.853C150.743 63.227 150.56 63.6927 150.56 64.25C150.56 64.8 150.743 65.262 151.11 65.636C151.484 66.01 151.946 66.197 152.496 66.197C152.862 66.197 153.192 66.1127 153.486 65.944C153.779 65.768 154.003 65.5333 154.157 65.24L154.971 65.713C154.736 66.1457 154.399 66.494 153.959 66.758C153.519 67.0147 153.031 67.143 152.496 67.143ZM160.482 66.307C159.918 66.8643 159.232 67.143 158.425 67.143C157.619 67.143 156.933 66.8643 156.368 66.307C155.811 65.7497 155.532 65.064 155.532 64.25C155.532 63.436 155.811 62.7503 156.368 62.193C156.933 61.6357 157.619 61.357 158.425 61.357C159.232 61.357 159.918 61.6357 160.482 62.193C161.047 62.7503 161.329 63.436 161.329 64.25C161.329 65.064 161.047 65.7497 160.482 66.307ZM158.425 66.208C158.975 66.208 159.437 66.021 159.811 65.647C160.185 65.273 160.372 64.8073 160.372 64.25C160.372 63.6927 160.185 63.227 159.811 62.853C159.437 62.479 158.975 62.292 158.425 62.292C157.883 62.292 157.424 62.479 157.05 62.853C156.676 63.227 156.489 63.6927 156.489 64.25C156.489 64.8073 156.676 65.273 157.05 65.647C157.424 66.021 157.883 66.208 158.425 66.208ZM166.335 61.5V62.424H164.465V67H163.508V62.424H161.627V61.5H166.335ZM169.494 63.48C170.044 63.48 170.499 63.645 170.858 63.975C171.225 64.2977 171.408 64.7193 171.408 65.24C171.408 65.7607 171.225 66.186 170.858 66.516C170.499 66.8387 170.044 67 169.494 67H167.173V61.5H168.13V63.48H169.494ZM172.123 61.5H173.08V67H172.123V61.5ZM169.494 66.109C169.766 66.109 169.993 66.032 170.176 65.878C170.367 65.7167 170.462 65.504 170.462 65.24C170.462 64.976 170.367 64.7633 170.176 64.602C169.993 64.4407 169.766 64.36 169.494 64.36H168.13V66.109H169.494ZM181.098 61.5H182.055V67H181.098V64.701H178.249V67H177.292V61.5H178.249V63.788H181.098V61.5ZM188.066 61.5H189.023V67H188.066V66.054C187.589 66.78 186.896 67.143 185.987 67.143C185.217 67.143 184.561 66.8643 184.018 66.307C183.475 65.7423 183.204 65.0567 183.204 64.25C183.204 63.4433 183.475 62.7613 184.018 62.204C184.561 61.6393 185.217 61.357 185.987 61.357C186.896 61.357 187.589 61.72 188.066 62.446V61.5ZM186.108 66.219C186.665 66.219 187.131 66.032 187.505 65.658C187.879 65.2767 188.066 64.8073 188.066 64.25C188.066 63.6927 187.879 63.227 187.505 62.853C187.131 62.4717 186.665 62.281 186.108 62.281C185.558 62.281 185.096 62.4717 184.722 62.853C184.348 63.227 184.161 63.6927 184.161 64.25C184.161 64.8073 184.348 65.2767 184.722 65.658C185.096 66.032 185.558 66.219 186.108 66.219ZM197.876 67H196.688L194.18 64.393V67H193.223V61.5H194.18V63.931L196.556 61.5H197.788L195.159 64.162L197.876 67ZM202.815 61.5H203.772V67H202.815V66.054C202.338 66.78 201.645 67.143 200.736 67.143C199.966 67.143 199.31 66.8643 198.767 66.307C198.224 65.7423 197.953 65.0567 197.953 64.25C197.953 63.4433 198.224 62.7613 198.767 62.204C199.31 61.6393 199.966 61.357 200.736 61.357C201.645 61.357 202.338 61.72 202.815 62.446V61.5ZM200.857 66.219C201.414 66.219 201.88 66.032 202.254 65.658C202.628 65.2767 202.815 64.8073 202.815 64.25C202.815 63.6927 202.628 63.227 202.254 62.853C201.88 62.4717 201.414 62.281 200.857 62.281C200.307 62.281 199.845 62.4717 199.471 62.853C199.097 63.227 198.91 63.6927 198.91 64.25C198.91 64.8073 199.097 65.2767 199.471 65.658C199.845 66.032 200.307 66.219 200.857 66.219ZM209.028 61.5H209.985V67H209.028V64.701H206.179V67H205.222V61.5H206.179V63.788H209.028V61.5ZM215.996 61.5H216.953V67H215.996V66.054C215.519 66.78 214.826 67.143 213.917 67.143C213.147 67.143 212.49 66.8643 211.948 66.307C211.405 65.7423 211.134 65.0567 211.134 64.25C211.134 63.4433 211.405 62.7613 211.948 62.204C212.49 61.6393 213.147 61.357 213.917 61.357C214.826 61.357 215.519 61.72 215.996 62.446V61.5ZM214.038 66.219C214.595 66.219 215.061 66.032 215.435 65.658C215.809 65.2767 215.996 64.8073 215.996 64.25C215.996 63.6927 215.809 63.227 215.435 62.853C215.061 62.4717 214.595 62.281 214.038 62.281C213.488 62.281 213.026 62.4717 212.652 62.853C212.278 63.227 212.091 63.6927 212.091 64.25C212.091 64.8073 212.278 65.2767 212.652 65.658C213.026 66.032 213.488 66.219 214.038 66.219ZM222.99 61.5V67H222.033V62.424H219.866V64.668C219.866 65.57 219.682 66.2007 219.316 66.56C218.956 66.912 218.447 67.0587 217.787 67V66.098C218.161 66.1493 218.439 66.0687 218.623 65.856C218.813 65.636 218.909 65.2327 218.909 64.646V61.5H222.99ZM225.111 64.69C225.206 65.1813 225.43 65.5627 225.782 65.834C226.141 66.1053 226.581 66.241 227.102 66.241C227.828 66.241 228.356 65.9733 228.686 65.438L229.5 65.9C228.965 66.7287 228.158 67.143 227.08 67.143C226.207 67.143 225.496 66.8717 224.946 66.329C224.403 65.779 224.132 65.086 224.132 64.25C224.132 63.4213 224.4 62.732 224.935 62.182C225.47 61.632 226.163 61.357 227.014 61.357C227.821 61.357 228.477 61.643 228.983 62.215C229.496 62.7797 229.753 63.4617 229.753 64.261C229.753 64.4003 229.742 64.5433 229.72 64.69H225.111ZM227.014 62.259C226.501 62.259 226.075 62.4057 225.738 62.699C225.401 62.985 225.192 63.37 225.111 63.854H228.785C228.704 63.3333 228.499 62.9373 228.169 62.666C227.839 62.3947 227.454 62.259 227.014 62.259Z" fill="black"/>
<path d="M34.422 72.268C35.1993 72.268 35.8887 72.4587 36.49 72.84C37.0913 73.214 37.5387 73.6833 37.832 74.248C38.1253 74.8127 38.272 75.4067 38.272 76.03C38.272 76.8 38.1107 77.3867 37.788 77.79C37.4653 78.186 37.0803 78.384 36.633 78.384C35.9363 78.384 35.5 78.076 35.324 77.46C35.0307 77.834 34.6383 78.021 34.147 78.021C33.6483 78.021 33.234 77.8523 32.904 77.515C32.5813 77.1777 32.42 76.756 32.42 76.25C32.42 75.744 32.5813 75.3223 32.904 74.985C33.234 74.6477 33.6483 74.479 34.147 74.479C34.587 74.479 34.9573 74.6403 35.258 74.963V74.567H36.105V76.998C36.105 77.6433 36.336 77.966 36.798 77.966C37.1207 77.966 37.3847 77.8083 37.59 77.493C37.8027 77.1703 37.909 76.6827 37.909 76.03C37.909 75.062 37.5717 74.248 36.897 73.588C36.2297 72.928 35.4047 72.598 34.422 72.598C33.41 72.598 32.5483 72.95 31.837 73.654C31.1257 74.3507 30.77 75.216 30.77 76.25C30.77 77.306 31.133 78.1787 31.859 78.868C32.5923 79.5573 33.5127 79.902 34.62 79.902C35.346 79.902 35.9693 79.7993 36.49 79.594V79.946C35.9767 80.1367 35.3533 80.232 34.62 80.232C33.4173 80.232 32.4163 79.8543 31.617 79.099C30.8177 78.351 30.418 77.4013 30.418 76.25C30.418 75.1427 30.7993 74.204 31.562 73.434C32.332 72.6567 33.2853 72.268 34.422 72.268ZM33.564 76.965C33.762 77.141 34.0003 77.229 34.279 77.229C34.5577 77.229 34.7887 77.141 34.972 76.965C35.1627 76.7817 35.258 76.5433 35.258 76.25C35.258 75.9567 35.1627 75.722 34.972 75.546C34.7887 75.3627 34.5577 75.271 34.279 75.271C34.0003 75.271 33.762 75.3627 33.564 75.546C33.3733 75.722 33.278 75.9567 33.278 76.25C33.278 76.5433 33.3733 76.7817 33.564 76.965ZM42.1447 73.357C42.79 73.357 43.307 73.5623 43.6957 73.973C44.0844 74.3763 44.2787 74.9263 44.2787 75.623V79H43.3217V75.678C43.3217 75.2307 43.2007 74.886 42.9587 74.644C42.7167 74.3947 42.383 74.27 41.9577 74.27C41.481 74.27 41.096 74.4203 40.8027 74.721C40.5094 75.0143 40.3627 75.469 40.3627 76.085V79H39.4057V71.3H40.3627V74.292C40.7514 73.6687 41.3454 73.357 42.1447 73.357ZM50.1687 73.5H51.1257V79H50.1687V78.054C49.692 78.78 48.999 79.143 48.0897 79.143C47.3197 79.143 46.6633 78.8643 46.1207 78.307C45.578 77.7423 45.3067 77.0567 45.3067 76.25C45.3067 75.4433 45.578 74.7613 46.1207 74.204C46.6633 73.6393 47.3197 73.357 48.0897 73.357C48.999 73.357 49.692 73.72 50.1687 74.446V73.5ZM48.2107 78.219C48.768 78.219 49.2337 78.032 49.6077 77.658C49.9817 77.2767 50.1687 76.8073 50.1687 76.25C50.1687 75.6927 49.9817 75.227 49.6077 74.853C49.2337 74.4717 48.768 74.281 48.2107 74.281C47.6607 74.281 47.1987 74.4717 46.8247 74.853C46.4507 75.227 46.2637 75.6927 46.2637 76.25C46.2637 76.8073 46.4507 77.2767 46.8247 77.658C47.1987 78.032 47.6607 78.219 48.2107 78.219ZM55.6116 73.357C56.3816 73.357 57.0379 73.6393 57.5806 74.204C58.1233 74.7613 58.3946 75.4433 58.3946 76.25C58.3946 77.0567 58.1233 77.7423 57.5806 78.307C57.0379 78.8643 56.3816 79.143 55.6116 79.143C54.7023 79.143 54.0093 78.78 53.5326 78.054V81.2H52.5756V73.5H53.5326V74.446C54.0093 73.72 54.7023 73.357 55.6116 73.357ZM55.4906 78.219C56.0406 78.219 56.5026 78.032 56.8766 77.658C57.2506 77.2767 57.4376 76.8073 57.4376 76.25C57.4376 75.6927 57.2506 75.227 56.8766 74.853C56.5026 74.4717 56.0406 74.281 55.4906 74.281C54.9333 74.281 54.4676 74.4717 54.0936 74.853C53.7196 75.227 53.5326 75.6927 53.5326 76.25C53.5326 76.8073 53.7196 77.2767 54.0936 77.658C54.4676 78.032 54.9333 78.219 55.4906 78.219ZM62.5725 73.357C63.3425 73.357 63.9989 73.6393 64.5415 74.204C65.0842 74.7613 65.3555 75.4433 65.3555 76.25C65.3555 77.0567 65.0842 77.7423 64.5415 78.307C63.9989 78.8643 63.3425 79.143 62.5725 79.143C61.6632 79.143 60.9702 78.78 60.4935 78.054V81.2H59.5365V73.5H60.4935V74.446C60.9702 73.72 61.6632 73.357 62.5725 73.357ZM62.4515 78.219C63.0015 78.219 63.4635 78.032 63.8375 77.658C64.2115 77.2767 64.3985 76.8073 64.3985 76.25C64.3985 75.6927 64.2115 75.227 63.8375 74.853C63.4635 74.4717 63.0015 74.281 62.4515 74.281C61.8942 74.281 61.4285 74.4717 61.0545 74.853C60.6805 75.227 60.4935 75.6927 60.4935 76.25C60.4935 76.8073 60.6805 77.2767 61.0545 77.658C61.4285 78.032 61.8942 78.219 62.4515 78.219ZM70.1216 73.5H71.1446L68.9006 79.341C68.666 79.9643 68.336 80.4373 67.9106 80.76C67.4926 81.09 67.0086 81.2367 66.4586 81.2V80.309C67.1333 80.3603 67.6283 79.9863 67.9436 79.187L68.0426 78.978L65.6446 73.5H66.6676L68.5376 77.812L70.1216 73.5ZM78.4228 73.5H79.4238L77.7188 79H76.7398L75.4528 74.93L74.1658 79H73.1868L71.4818 73.5H72.4828L73.6928 77.68L74.9908 73.5H75.9148L77.2128 77.691L78.4228 73.5ZM80.8648 76.69C80.9601 77.1813 81.1838 77.5627 81.5358 77.834C81.8951 78.1053 82.3351 78.241 82.8558 78.241C83.5818 78.241 84.1098 77.9733 84.4398 77.438L85.2538 77.9C84.7184 78.7287 83.9118 79.143 82.8338 79.143C81.9611 79.143 81.2498 78.8717 80.6998 78.329C80.1571 77.779 79.8858 77.086 79.8858 76.25C79.8858 75.4213 80.1534 74.732 80.6888 74.182C81.2241 73.632 81.9171 73.357 82.7678 73.357C83.5744 73.357 84.2308 73.643 84.7368 74.215C85.2501 74.7797 85.5068 75.4617 85.5068 76.261C85.5068 76.4003 85.4958 76.5433 85.4738 76.69H80.8648ZM82.7678 74.259C82.2544 74.259 81.8291 74.4057 81.4918 74.699C81.1544 74.985 80.9454 75.37 80.8648 75.854H84.5388C84.4581 75.3333 84.2528 74.9373 83.9228 74.666C83.5928 74.3947 83.2078 74.259 82.7678 74.259ZM86.6069 79V70.97H87.5639V79H86.6069ZM89.0239 79V70.97H89.9809V79H89.0239ZM94.1798 73.357C94.8252 73.357 95.3422 73.5623 95.7308 73.973C96.1195 74.3763 96.3138 74.9263 96.3138 75.623V79H95.3568V75.678C95.3568 75.2307 95.2358 74.886 94.9938 74.644C94.7518 74.3947 94.4182 74.27 93.9928 74.27C93.5162 74.27 93.1312 74.4203 92.8378 74.721C92.5445 75.0143 92.3978 75.469 92.3978 76.085V79H91.4408V73.5H92.3978V74.292C92.7865 73.6687 93.3805 73.357 94.1798 73.357ZM98.3208 76.69C98.4162 77.1813 98.6398 77.5627 98.9918 77.834C99.3512 78.1053 99.7912 78.241 100.312 78.241C101.038 78.241 101.566 77.9733 101.896 77.438L102.71 77.9C102.174 78.7287 101.368 79.143 100.29 79.143C99.4172 79.143 98.7058 78.8717 98.1558 78.329C97.6132 77.779 97.3418 77.086 97.3418 76.25C97.3418 75.4213 97.6095 74.732 98.1448 74.182C98.6802 73.632 99.3732 73.357 100.224 73.357C101.03 73.357 101.687 73.643 102.193 74.215C102.706 74.7797 102.963 75.4617 102.963 76.261C102.963 76.4003 102.952 76.5433 102.93 76.69H98.3208ZM100.224 74.259C99.7105 74.259 99.2852 74.4057 98.9478 74.699C98.6105 74.985 98.4015 75.37 98.3208 75.854H101.995C101.914 75.3333 101.709 74.9373 101.379 74.666C101.049 74.3947 100.664 74.259 100.224 74.259ZM104.673 74.985C104.673 75.1977 104.779 75.37 104.992 75.502C105.205 75.6267 105.461 75.7293 105.762 75.81C106.063 75.8833 106.363 75.9713 106.664 76.074C106.965 76.1693 107.221 76.338 107.434 76.58C107.647 76.8147 107.753 77.119 107.753 77.493C107.753 77.9917 107.559 78.3913 107.17 78.692C106.789 78.9927 106.297 79.143 105.696 79.143C105.161 79.143 104.702 79.0257 104.321 78.791C103.94 78.5563 103.668 78.2447 103.507 77.856L104.332 77.383C104.42 77.647 104.585 77.856 104.827 78.01C105.069 78.164 105.359 78.241 105.696 78.241C106.011 78.241 106.272 78.1823 106.477 78.065C106.682 77.9403 106.785 77.7497 106.785 77.493C106.785 77.2803 106.679 77.1117 106.466 76.987C106.253 76.855 105.997 76.7523 105.696 76.679C105.395 76.5983 105.095 76.5067 104.794 76.404C104.493 76.3013 104.237 76.1327 104.024 75.898C103.811 75.6633 103.705 75.3627 103.705 74.996C103.705 74.5193 103.888 74.127 104.255 73.819C104.629 73.511 105.095 73.357 105.652 73.357C106.099 73.357 106.495 73.4597 106.84 73.665C107.192 73.863 107.456 74.1417 107.632 74.501L106.829 74.952C106.631 74.4827 106.239 74.248 105.652 74.248C105.381 74.248 105.15 74.314 104.959 74.446C104.768 74.5707 104.673 74.7503 104.673 74.985ZM109.367 74.985C109.367 75.1977 109.474 75.37 109.686 75.502C109.899 75.6267 110.156 75.7293 110.456 75.81C110.757 75.8833 111.058 75.9713 111.358 76.074C111.659 76.1693 111.916 76.338 112.128 76.58C112.341 76.8147 112.447 77.119 112.447 77.493C112.447 77.9917 112.253 78.3913 111.864 78.692C111.483 78.9927 110.992 79.143 110.39 79.143C109.855 79.143 109.397 79.0257 109.015 78.791C108.634 78.5563 108.363 78.2447 108.201 77.856L109.026 77.383C109.114 77.647 109.279 77.856 109.521 78.01C109.763 78.164 110.053 78.241 110.39 78.241C110.706 78.241 110.966 78.1823 111.171 78.065C111.377 77.9403 111.479 77.7497 111.479 77.493C111.479 77.2803 111.373 77.1117 111.16 76.987C110.948 76.855 110.691 76.7523 110.39 76.679C110.09 76.5983 109.789 76.5067 109.488 76.404C109.188 76.3013 108.931 76.1327 108.718 75.898C108.506 75.6633 108.399 75.3627 108.399 74.996C108.399 74.5193 108.583 74.127 108.949 73.819C109.323 73.511 109.789 73.357 110.346 73.357C110.794 73.357 111.19 73.4597 111.534 73.665C111.886 73.863 112.15 74.1417 112.326 74.501L111.523 74.952C111.325 74.4827 110.933 74.248 110.346 74.248C110.075 74.248 109.844 74.314 109.653 74.446C109.463 74.5707 109.367 74.7503 109.367 74.985Z" fill="#498ABE"/>
<path d="M211.551 77.985C211.551 78.1977 211.657 78.37 211.87 78.502C212.083 78.6267 212.339 78.7293 212.64 78.81C212.941 78.8833 213.241 78.9713 213.542 79.074C213.843 79.1693 214.099 79.338 214.312 79.58C214.525 79.8147 214.631 80.119 214.631 80.493C214.631 80.9917 214.437 81.3913 214.048 81.692C213.667 81.9927 213.175 82.143 212.574 82.143C212.039 82.143 211.58 82.0257 211.199 81.791C210.818 81.5563 210.546 81.2447 210.385 80.856L211.21 80.383C211.298 80.647 211.463 80.856 211.705 81.01C211.947 81.164 212.237 81.241 212.574 81.241C212.889 81.241 213.15 81.1823 213.355 81.065C213.56 80.9403 213.663 80.7497 213.663 80.493C213.663 80.2803 213.557 80.1117 213.344 79.987C213.131 79.855 212.875 79.7523 212.574 79.679C212.273 79.5983 211.973 79.5067 211.672 79.404C211.371 79.3013 211.115 79.1327 210.902 78.898C210.689 78.6633 210.583 78.3627 210.583 77.996C210.583 77.5193 210.766 77.127 211.133 76.819C211.507 76.511 211.973 76.357 212.53 76.357C212.977 76.357 213.373 76.4597 213.718 76.665C214.07 76.863 214.334 77.1417 214.51 77.501L213.707 77.952C213.509 77.4827 213.117 77.248 212.53 77.248C212.259 77.248 212.028 77.314 211.837 77.446C211.646 77.5707 211.551 77.7503 211.551 77.985ZM218.8 76.357C219.57 76.357 220.226 76.6393 220.769 77.204C221.312 77.7613 221.583 78.4433 221.583 79.25C221.583 80.0567 221.312 80.7423 220.769 81.307C220.226 81.8643 219.57 82.143 218.8 82.143C217.891 82.143 217.198 81.78 216.721 81.054V84.2H215.764V76.5H216.721V77.446C217.198 76.72 217.891 76.357 218.8 76.357ZM218.679 81.219C219.229 81.219 219.691 81.032 220.065 80.658C220.439 80.2767 220.626 79.8073 220.626 79.25C220.626 78.6927 220.439 78.227 220.065 77.853C219.691 77.4717 219.229 77.281 218.679 77.281C218.122 77.281 217.656 77.4717 217.282 77.853C216.908 78.227 216.721 78.6927 216.721 79.25C216.721 79.8073 216.908 80.2767 217.282 80.658C217.656 81.032 218.122 81.219 218.679 81.219ZM227.367 81.307C226.802 81.8643 226.117 82.143 225.31 82.143C224.503 82.143 223.818 81.8643 223.253 81.307C222.696 80.7497 222.417 80.064 222.417 79.25C222.417 78.436 222.696 77.7503 223.253 77.193C223.818 76.6357 224.503 76.357 225.31 76.357C226.117 76.357 226.802 76.6357 227.367 77.193C227.932 77.7503 228.214 78.436 228.214 79.25C228.214 80.064 227.932 80.7497 227.367 81.307ZM225.31 81.208C225.86 81.208 226.322 81.021 226.696 80.647C227.07 80.273 227.257 79.8073 227.257 79.25C227.257 78.6927 227.07 78.227 226.696 77.853C226.322 77.479 225.86 77.292 225.31 77.292C224.767 77.292 224.309 77.479 223.935 77.853C223.561 78.227 223.374 78.6927 223.374 79.25C223.374 79.8073 223.561 80.273 223.935 80.647C224.309 81.021 224.767 81.208 225.31 81.208ZM232.081 76.357C232.727 76.357 233.244 76.5623 233.632 76.973C234.021 77.3763 234.215 77.9263 234.215 78.623V82H233.258V78.678C233.258 78.2307 233.137 77.886 232.895 77.644C232.653 77.3947 232.32 77.27 231.894 77.27C231.418 77.27 231.033 77.4203 230.739 77.721C230.446 78.0143 230.299 78.469 230.299 79.085V82H229.342V76.5H230.299V77.292C230.688 76.6687 231.282 76.357 232.081 76.357ZM236.376 77.985C236.376 78.1977 236.483 78.37 236.695 78.502C236.908 78.6267 237.165 78.7293 237.465 78.81C237.766 78.8833 238.067 78.9713 238.367 79.074C238.668 79.1693 238.925 79.338 239.137 79.58C239.35 79.8147 239.456 80.119 239.456 80.493C239.456 80.9917 239.262 81.3913 238.873 81.692C238.492 81.9927 238.001 82.143 237.399 82.143C236.864 82.143 236.406 82.0257 236.024 81.791C235.643 81.5563 235.372 81.2447 235.21 80.856L236.035 80.383C236.123 80.647 236.288 80.856 236.53 81.01C236.772 81.164 237.062 81.241 237.399 81.241C237.715 81.241 237.975 81.1823 238.18 81.065C238.386 80.9403 238.488 80.7497 238.488 80.493C238.488 80.2803 238.382 80.1117 238.169 79.987C237.957 79.855 237.7 79.7523 237.399 79.679C237.099 79.5983 236.798 79.5067 236.497 79.404C236.197 79.3013 235.94 79.1327 235.727 78.898C235.515 78.6633 235.408 78.3627 235.408 77.996C235.408 77.5193 235.592 77.127 235.958 76.819C236.332 76.511 236.798 76.357 237.355 76.357C237.803 76.357 238.199 76.4597 238.543 76.665C238.895 76.863 239.159 77.1417 239.335 77.501L238.532 77.952C238.334 77.4827 237.942 77.248 237.355 77.248C237.084 77.248 236.853 77.314 236.662 77.446C236.472 77.5707 236.376 77.7503 236.376 77.985ZM245.081 81.307C244.516 81.8643 243.831 82.143 243.024 82.143C242.217 82.143 241.532 81.8643 240.967 81.307C240.41 80.7497 240.131 80.064 240.131 79.25C240.131 78.436 240.41 77.7503 240.967 77.193C241.532 76.6357 242.217 76.357 243.024 76.357C243.831 76.357 244.516 76.6357 245.081 77.193C245.646 77.7503 245.928 78.436 245.928 79.25C245.928 80.064 245.646 80.7497 245.081 81.307ZM243.024 81.208C243.574 81.208 244.036 81.021 244.41 80.647C244.784 80.273 244.971 79.8073 244.971 79.25C244.971 78.6927 244.784 78.227 244.41 77.853C244.036 77.479 243.574 77.292 243.024 77.292C242.481 77.292 242.023 77.479 241.649 77.853C241.275 78.227 241.088 78.6927 241.088 79.25C241.088 79.8073 241.275 80.273 241.649 80.647C242.023 81.021 242.481 81.208 243.024 81.208ZM248.013 77.424C248.328 76.742 248.9 76.401 249.729 76.401V77.402C249.26 77.38 248.856 77.5047 248.519 77.776C248.182 78.0473 248.013 78.4837 248.013 79.085V82H247.056V76.5H248.013V77.424ZM251.036 79.69C251.131 80.1813 251.355 80.5627 251.707 80.834C252.066 81.1053 252.506 81.241 253.027 81.241C253.753 81.241 254.281 80.9733 254.611 80.438L255.425 80.9C254.889 81.7287 254.083 82.143 253.005 82.143C252.132 82.143 251.421 81.8717 250.871 81.329C250.328 80.779 250.057 80.086 250.057 79.25C250.057 78.4213 250.324 77.732 250.86 77.182C251.395 76.632 252.088 76.357 252.939 76.357C253.745 76.357 254.402 76.643 254.908 77.215C255.421 77.7797 255.678 78.4617 255.678 79.261C255.678 79.4003 255.667 79.5433 255.645 79.69H251.036ZM252.939 77.259C252.425 77.259 252 77.4057 251.663 77.699C251.325 77.985 251.116 78.37 251.036 78.854H254.71C254.629 78.3333 254.424 77.9373 254.094 77.666C253.764 77.3947 253.379 77.259 252.939 77.259ZM261.321 74.3H262.278V82H261.321V81.054C260.844 81.78 260.151 82.143 259.242 82.143C258.472 82.143 257.816 81.8643 257.273 81.307C256.73 80.7423 256.459 80.0567 256.459 79.25C256.459 78.4433 256.73 77.7613 257.273 77.204C257.816 76.6393 258.472 76.357 259.242 76.357C260.151 76.357 260.844 76.72 261.321 77.446V74.3ZM259.363 81.219C259.92 81.219 260.386 81.032 260.76 80.658C261.134 80.2767 261.321 79.8073 261.321 79.25C261.321 78.6927 261.134 78.227 260.76 77.853C260.386 77.4717 259.92 77.281 259.363 77.281C258.813 77.281 258.351 77.4717 257.977 77.853C257.603 78.227 257.416 78.6927 257.416 79.25C257.416 79.8073 257.603 80.2767 257.977 80.658C258.351 81.032 258.813 81.219 259.363 81.219Z" fill="#AAACAD"/>
<path d="M105.409 106L102.589 97.6H104.389L106.441 104.056L108.481 97.6H110.293L107.461 106H105.409ZM111.343 97.6H112.999V106H111.343V97.6ZM116.45 104.416H119.99V106H114.794V97.6H119.93V99.184H116.45V100.972H119.63V102.532H116.45V104.416ZM123.149 106L120.797 97.6H122.537L124.145 103.828L125.897 97.6H127.313L129.077 103.828L130.685 97.6H132.425L130.073 106H128.189L126.605 100.456L125.033 106H123.149ZM140.849 106.168C139.585 106.168 138.541 105.748 137.717 104.908C136.893 104.068 136.481 103.032 136.481 101.8C136.481 100.56 136.893 99.524 137.717 98.692C138.541 97.852 139.585 97.432 140.849 97.432C141.609 97.432 142.309 97.612 142.949 97.972C143.597 98.324 144.101 98.804 144.461 99.412L143.033 100.24C142.825 99.864 142.529 99.572 142.145 99.364C141.761 99.148 141.329 99.04 140.849 99.04C140.033 99.04 139.373 99.296 138.869 99.808C138.373 100.32 138.125 100.984 138.125 101.8C138.125 102.608 138.373 103.268 138.869 103.78C139.373 104.292 140.033 104.548 140.849 104.548C141.329 104.548 141.761 104.444 142.145 104.236C142.537 104.02 142.833 103.728 143.033 103.36L144.461 104.188C144.101 104.796 143.601 105.28 142.961 105.64C142.321 105.992 141.617 106.168 140.849 106.168ZM150.494 97.6H152.138V106H150.494V102.52H147.374V106H145.718V97.6H147.374V100.936H150.494V97.6ZM159.339 106L158.835 104.488H155.487L154.983 106H153.195L156.135 97.6H158.187L161.139 106H159.339ZM156.015 102.94H158.319L157.167 99.508L156.015 102.94ZM167.054 97.6H168.71V106H167.45L163.85 100.864V106H162.194V97.6H163.454L167.054 102.724V97.6ZM175.369 97.6H177.025V106H175.765L172.165 100.864V106H170.509V97.6H171.769L175.369 102.724V97.6ZM180.479 104.416H184.019V106H178.823V97.6H183.959V99.184H180.479V100.972H183.659V102.532H180.479V104.416ZM187.082 104.416H190.286V106H185.426V97.6H187.082V104.416Z" fill="#498ABE"/>
<rect x="29.918" y="88.834" width="236.411" height="26.3191" rx="4.5" stroke="#498ABE"/>
<path d="M34.556 29.6H36.2V38H34.556V34.52H31.436V38H29.78V29.6H31.436V32.936H34.556V29.6ZM38.9965 35.636C39.2045 36.388 39.7685 36.764 40.6885 36.764C41.2805 36.764 41.7285 36.564 42.0325 36.164L43.2805 36.884C42.6885 37.74 41.8165 38.168 40.6645 38.168C39.6725 38.168 38.8765 37.868 38.2765 37.268C37.6765 36.668 37.3765 35.912 37.3765 35C37.3765 34.096 37.6725 33.344 38.2645 32.744C38.8565 32.136 39.6165 31.832 40.5445 31.832C41.4245 31.832 42.1485 32.136 42.7165 32.744C43.2925 33.352 43.5805 34.104 43.5805 35C43.5805 35.2 43.5605 35.412 43.5205 35.636H38.9965ZM38.9725 34.436H42.0325C41.9445 34.028 41.7605 33.724 41.4805 33.524C41.2085 33.324 40.8965 33.224 40.5445 33.224C40.1285 33.224 39.7845 33.332 39.5125 33.548C39.2405 33.756 39.0605 34.052 38.9725 34.436ZM47.4703 38.168C46.5663 38.168 45.8103 37.864 45.2023 37.256C44.6023 36.648 44.3022 35.896 44.3022 35C44.3022 34.104 44.6023 33.352 45.2023 32.744C45.8103 32.136 46.5663 31.832 47.4703 31.832C48.0543 31.832 48.5863 31.972 49.0663 32.252C49.5463 32.532 49.9103 32.908 50.1583 33.38L48.8263 34.16C48.7063 33.912 48.5223 33.716 48.2743 33.572C48.0343 33.428 47.7623 33.356 47.4583 33.356C46.9943 33.356 46.6103 33.512 46.3063 33.824C46.0023 34.128 45.8503 34.52 45.8503 35C45.8503 35.472 46.0023 35.864 46.3063 36.176C46.6103 36.48 46.9943 36.632 47.4583 36.632C47.7703 36.632 48.0463 36.564 48.2863 36.428C48.5343 36.284 48.7183 36.088 48.8383 35.84L50.1823 36.608C49.9183 37.08 49.5463 37.46 49.0663 37.748C48.5863 38.028 48.0543 38.168 47.4703 38.168ZM56.5798 38H54.7798L52.5958 35.276V38H51.0478V32H52.5958V34.64L54.6598 32H56.5078L54.0958 34.964L56.5798 38ZM61.2059 32H62.8619L60.6779 38C60.0699 39.688 59.0139 40.488 57.5099 40.4V38.96C57.9179 38.968 58.2379 38.892 58.4699 38.732C58.7099 38.572 58.9019 38.304 59.0459 37.928L56.6219 32H58.2659L59.8739 36.032L61.2059 32ZM67.1386 32H68.6866V38H67.1386V36.092C66.6906 36.236 66.2146 36.308 65.7106 36.308C64.9826 36.308 64.3986 36.124 63.9586 35.756C63.5266 35.388 63.3106 34.852 63.3106 34.148V32H64.8586V33.968C64.8586 34.568 65.2306 34.868 65.9746 34.868C66.4066 34.868 66.7946 34.792 67.1386 34.64V32ZM74.0268 32H75.5748V38H74.0268V35.72H71.6388V38H70.0908V32H71.6388V34.268H74.0268V32ZM79.7052 33.92C80.3852 33.92 80.9332 34.108 81.3492 34.484C81.7652 34.852 81.9732 35.344 81.9732 35.96C81.9732 36.576 81.7652 37.072 81.3492 37.448C80.9332 37.816 80.3852 38 79.7052 38H76.9932V32H78.5412V33.92H79.7052ZM82.6332 32H84.1812V38H82.6332V32ZM79.7172 36.632C79.9332 36.632 80.1092 36.572 80.2452 36.452C80.3892 36.324 80.4612 36.16 80.4612 35.96C80.4612 35.76 80.3892 35.596 80.2452 35.468C80.1092 35.34 79.9332 35.276 79.7172 35.276H78.5412V36.632H79.7172ZM86.6027 31.232V29.888H90.0827V31.232H86.6027ZM89.9267 32H91.0787V38H89.5667V34.592L86.7467 38H85.5947V32H87.1067V35.408L89.9267 32ZM100.645 33.644C101.381 34.068 101.749 34.708 101.749 35.564C101.749 36.276 101.497 36.86 100.993 37.316C100.489 37.772 99.8691 38 99.1331 38H95.5691V29.6H98.8811C99.6011 29.6 100.205 29.824 100.693 30.272C101.189 30.712 101.437 31.276 101.437 31.964C101.437 32.66 101.173 33.22 100.645 33.644ZM98.8811 31.148H97.2251V32.996H98.8811C99.1371 32.996 99.3491 32.908 99.5171 32.732C99.6931 32.556 99.7811 32.336 99.7811 32.072C99.7811 31.808 99.6971 31.588 99.5291 31.412C99.3611 31.236 99.1451 31.148 98.8811 31.148ZM99.1331 36.452C99.4131 36.452 99.6451 36.36 99.8291 36.176C100.013 35.984 100.105 35.744 100.105 35.456C100.105 35.176 100.013 34.944 99.8291 34.76C99.6451 34.568 99.4131 34.472 99.1331 34.472H97.2251V36.452H99.1331ZM104.491 36.416H108.031V38H102.835V29.6H107.971V31.184H104.491V32.972H107.671V34.532H104.491V36.416ZM108.55 38V36.464C109.046 36.536 109.418 36.436 109.666 36.164C109.914 35.892 110.038 35.36 110.038 34.568V29.6H115.75V38H114.106V31.184H111.682V34.52C111.682 35.248 111.594 35.86 111.418 36.356C111.242 36.852 110.998 37.22 110.686 37.46C110.382 37.7 110.054 37.86 109.702 37.94C109.358 38.02 108.974 38.04 108.55 38ZM122.083 29.6H123.727V38H122.083V34.52H118.963V38H117.307V29.6H118.963V32.936H122.083V29.6ZM126.944 36.416H130.484V38H125.288V29.6H130.424V31.184H126.944V32.972H130.124V34.532H126.944V36.416ZM135.577 38.168C134.313 38.168 133.269 37.748 132.445 36.908C131.621 36.068 131.208 35.032 131.208 33.8C131.208 32.56 131.621 31.524 132.445 30.692C133.269 29.852 134.313 29.432 135.577 29.432C136.337 29.432 137.037 29.612 137.677 29.972C138.325 30.324 138.829 30.804 139.189 31.412L137.761 32.24C137.553 31.864 137.257 31.572 136.872 31.364C136.489 31.148 136.057 31.04 135.577 31.04C134.761 31.04 134.101 31.296 133.597 31.808C133.101 32.32 132.853 32.984 132.853 33.8C132.853 34.608 133.101 35.268 133.597 35.78C134.101 36.292 134.761 36.548 135.577 36.548C136.057 36.548 136.489 36.444 136.872 36.236C137.265 36.02 137.561 35.728 137.761 35.36L139.189 36.188C138.829 36.796 138.329 37.28 137.689 37.64C137.049 37.992 136.345 38.168 135.577 38.168Z" fill="#719D61"/>
<defs>
<filter id="filter0_d_590_5562" x="0" y="0" width="292.97" height="141" filterUnits="userSpaceOnUse" color-interpolation-filters="sRGB">
<feFlood flood-opacity="0" result="BackgroundImageFix"/>
<feColorMatrix in="SourceAlpha" type="matrix" values="0 0 0 0 0 0 0 0 0 0 0 0 0 0 0 0 0 0 127 0" result="hardAlpha"/>
<feOffset/>
<feGaussianBlur stdDeviation="8.5"/>
<feComposite in2="hardAlpha" operator="out"/>
<feColorMatrix type="matrix" values="0 0 0 0 0 0 0 0 0 0 0 0 0 0 0 0 0 0 0.25 0"/>
<feBlend mode="normal" in2="BackgroundImageFix" result="effect1_dropShadow_590_5562"/>
<feBlend mode="normal" in="SourceGraphic" in2="effect1_dropShadow_590_5562" result="shape"/>
</filter>
</defs>
</svg>
