<svg width="125" height="38" viewBox="0 0 125 38" fill="none" xmlns="http://www.w3.org/2000/svg">
    <rect width="125" height="38" rx="4" fill="white"/>
    <path d="M91.1332 15.6619C90.9723 15.5009 90.7556 15.4102 90.5287 15.4102C90.3018 15.4102 90.0851 15.4989 89.9242 15.6619L86.3485 19.219L85.2033 18.0656C84.8732 17.7355 84.3306 17.7314 83.9963 18.0594C83.66 18.3875 83.6559 18.9301 83.986 19.2685L85.7357 21.0306C85.8966 21.1915 86.1133 21.2823 86.3423 21.2823C86.5692 21.2823 86.7838 21.1936 86.9448 21.0326L91.1293 16.873C91.4594 16.5429 91.4635 16.0003 91.1355 15.666L91.1332 15.6619Z" fill="#1B81F9"/>
    <path d="M97.0925 14.322C96.5705 13.0902 95.8235 11.9842 94.8744 11.0331C93.9232 10.084 92.8173 9.33704 91.5855 8.81502C90.3104 8.27444 88.9569 8 87.5621 8C81.859 8.00206 77.2188 12.6425 77.2188 18.3453C77.2188 24.048 81.859 28.6886 87.5621 28.6886C93.2652 28.6886 97.9055 24.0484 97.9055 18.3453C97.9055 16.9505 97.6331 15.5969 97.0925 14.3218L97.0925 14.322ZM87.5622 26.9781C82.8023 26.9781 78.9294 23.1052 78.9294 18.3454C78.9294 13.5855 82.8023 9.71263 87.5622 9.71263C92.322 9.71263 96.1949 13.5855 96.1949 18.3454C96.1949 23.1052 92.322 26.9781 87.5622 26.9781V26.9781Z" fill="#1B81F9"/>
    <path d="M46.1881 18.4831H37.3274C37.1134 18.4842 36.9077 18.3999 36.756 18.249C36.604 18.0983 36.5187 17.893 36.5185 17.679V8.80233C36.5219 8.5866 36.437 8.379 36.2835 8.22741C36.13 8.07604 35.9211 7.99393 35.7056 8.00035C35.6791 8.00035 35.6522 8.00142 35.625 8.00377C33.0886 8.21992 30.7167 9.34835 28.9491 11.1802C27.1816 13.0121 26.1383 15.4229 26.0128 17.9655C25.8873 20.5081 26.6882 23.0098 28.2668 25.007C29.8454 27.0039 32.0946 28.3607 34.5973 28.8255C35.2312 28.9412 35.8743 28.9996 36.5186 29C39.1484 28.987 41.6787 27.9943 43.6159 26.2157C45.5532 24.4373 46.7583 22.0007 46.9961 19.3816C47.0185 19.1529 46.9437 18.9252 46.79 18.7543C46.6363 18.5835 46.418 18.4849 46.1882 18.4832L46.1881 18.4831ZM36.5185 27.5634C35.9603 27.5628 35.4034 27.5121 34.8542 27.412C32.7559 27.0139 30.8649 25.8896 29.5134 24.2358C28.1616 22.5822 27.4358 20.5054 27.4629 18.3694C27.4901 16.2335 28.2687 14.1762 29.662 12.5573C31.0552 10.9386 32.9742 9.86255 35.0819 9.51811V17.6789C35.0831 18.2737 35.3202 18.8434 35.7414 19.2636C36.1623 19.6837 36.7327 19.9195 37.3275 19.9197H45.4832C45.1288 22.0458 44.035 23.9783 42.3951 25.3766C40.7549 26.7751 38.6739 27.5495 36.5188 27.5631L36.5185 27.5634Z" fill="#A3A3A3"/>
    <path d="M45.8034 9.1961C43.9616 7.35478 41.5282 6.22379 38.9336 6.00308C38.9085 6.00088 38.8837 6 38.859 6C38.6322 5.99934 38.4141 6.08868 38.253 6.24865C38.092 6.4084 38.0009 6.6258 38 6.85268V16.1511C38 16.3762 38.0893 16.5923 38.2486 16.7514C38.4077 16.9107 38.6238 17 38.8489 17H48.147C48.3869 16.9989 48.6153 16.8972 48.7768 16.7199C48.9383 16.5423 49.0179 16.3053 48.9966 16.0663C48.7759 13.4714 47.6449 11.038 45.8037 9.19632L45.8034 9.1961ZM39.4783 15.5214V7.55746C41.478 7.87058 43.3267 8.81035 44.7578 10.2417C46.1891 11.6728 47.1289 13.5216 47.442 15.5214L39.4783 15.5214Z" fill="#A3A3A3"/>
</svg>