<svg width="125" height="38" viewBox="0 0 125 38" fill="none" xmlns="http://www.w3.org/2000/svg">
    <rect width="125" height="38" rx="4" fill="white"/>
    <path d="M91.1332 15.8805C90.9723 15.7221 90.7556 15.6328 90.5287 15.6328C90.3018 15.6328 90.0851 15.7201 89.9242 15.8805L86.3485 19.3801L85.2033 18.2454C84.8732 17.9206 84.3306 17.9165 83.9963 18.2393C83.66 18.5621 83.6559 19.096 83.986 19.4289L85.7357 21.1625C85.8966 21.3208 86.1133 21.4101 86.3423 21.4101C86.5692 21.4101 86.7838 21.3228 86.9448 21.1645L91.1293 17.0721C91.4594 16.7473 91.4635 16.2134 91.1355 15.8845L91.1332 15.8805Z" fill="#1B81F9"/>
    <path d="M97.0925 14.5636C96.5705 13.3517 95.8235 12.2637 94.8744 11.3278C93.9232 10.3941 92.8173 9.6592 91.5855 9.14561C90.3104 8.61376 88.9569 8.34375 87.5621 8.34375C81.859 8.34578 77.2188 12.9113 77.2188 18.522C77.2188 24.1326 81.859 28.6983 87.5621 28.6983C93.2652 28.6983 97.9055 24.133 97.9055 18.522C97.9055 17.1497 97.6331 15.818 97.0925 14.5635L97.0925 14.5636ZM87.5622 27.0154C82.8023 27.0154 78.9294 23.2051 78.9294 18.5221C78.9294 13.839 82.8023 10.0287 87.5622 10.0287C92.322 10.0287 96.1949 13.839 96.1949 18.5221C96.1949 23.2051 92.322 27.0154 87.5622 27.0154V27.0154Z" fill="#1B81F9"/>
    <path d="M44.9631 19.3521C44.0082 15.5524 39.6071 13 36.0957 13C32.5661 13 27.9778 15.6086 27.0372 19.3521L27 19.5L27.037 19.6479C27.978 23.3913 32.566 26 36.0955 26C39.607 26 44.008 23.4477 44.963 19.6479L45 19.5L44.9631 19.3521ZM36.0957 24.8474C33.0106 24.8474 29.0283 22.6591 28.1303 19.5001C29.0286 16.3411 33.0107 14.1528 36.0957 14.1528C39.092 14.1528 42.975 16.3411 43.8699 19.5001C42.9749 22.6591 39.092 24.8474 36.0957 24.8474ZM36.1434 16.0756C34.302 16.0756 32.8098 17.654 32.8098 19.601C32.8098 21.548 34.3023 23.1264 36.1434 23.1264C37.9846 23.1266 39.4771 21.5483 39.4771 19.6011C39.4771 17.6539 37.9847 16.0756 36.1434 16.0756V16.0756Z" fill="#A2A2A2"/>
</svg>