<svg width="125" height="38" viewBox="0 0 125 38" fill="none" xmlns="http://www.w3.org/2000/svg">
    <rect width="125" height="38" rx="4" fill="white"/>
    <path d="M91.1332 16.0056C90.9723 15.8447 90.7556 15.7539 90.5287 15.7539C90.3018 15.7539 90.0851 15.8426 89.9242 16.0056L86.3485 19.5627L85.2033 18.4094C84.8732 18.0792 84.3306 18.0751 83.9963 18.4032C83.66 18.7312 83.6559 19.2739 83.986 19.6123L85.7357 21.3743C85.8966 21.5353 86.1133 21.6261 86.3423 21.6261C86.5692 21.6261 86.7838 21.5373 86.9448 21.3764L91.1293 17.2168C91.4594 16.8867 91.4635 16.344 91.1355 16.0098L91.1332 16.0056Z" fill="#1B81F9"/>
    <path d="M97.0925 14.6657C96.5705 13.4339 95.8235 12.328 94.8744 11.3768C93.9232 10.4277 92.8173 9.68079 91.5855 9.15877C90.3104 8.61819 88.9569 8.34375 87.5621 8.34375C81.859 8.34581 77.2188 12.9863 77.2188 18.689C77.2188 24.3917 81.859 29.0324 87.5621 29.0324C93.2652 29.0324 97.9055 24.3921 97.9055 18.689C97.9055 17.2942 97.6331 15.9407 97.0925 14.6656L97.0925 14.6657ZM87.5622 27.3219C82.8023 27.3219 78.9294 23.449 78.9294 18.6891C78.9294 13.9292 82.8023 10.0564 87.5622 10.0564C92.322 10.0564 96.1949 13.9292 96.1949 18.6891C96.1949 23.449 92.322 27.3219 87.5622 27.3219V27.3219Z" fill="#1B81F9"/>
    <path d="M28.6612 25.175C28.8956 25.716 29.2839 26.1769 29.7785 26.5012C30.2731 26.8254 30.8519 26.9988 31.4443 27H36.5481C36.7482 27 36.94 26.921 37.0814 26.7804C37.2229 26.6397 37.3023 26.4489 37.3023 26.25V25.75C37.3023 25.5512 37.2229 25.3604 37.0814 25.2197C36.94 25.0791 36.7482 24.9999 36.5481 24.9999H31.4443C31.2453 24.997 31.0515 24.9365 30.8865 24.8259C30.7213 24.7155 30.592 24.5596 30.5141 24.3776C30.1834 23.628 30.0122 22.8185 30.0114 22C30.0114 21.6241 30.0466 21.2492 30.1169 20.88C30.5443 18.6325 32.616 16.9999 35.0397 16.9999C36.6712 16.987 38.2095 17.7555 39.1729 19.065C39.3607 19.3341 39.6682 19.4961 39.9975 19.4999H40.0201C40.2628 19.4938 40.495 19.4005 40.6739 19.2375C40.8528 19.0743 40.9664 18.8524 40.9936 18.6125C41.021 18.3727 40.9599 18.1312 40.8221 17.9326C40.1455 16.9868 39.2402 16.226 38.1899 15.72C38.7504 15.0684 39.0596 14.24 39.0622 13.3825V13.0001C39.0622 12.4696 38.8504 11.9609 38.4732 11.5858C38.0959 11.2106 37.5844 11 37.0509 11H33.0283C32.4948 11 31.9833 11.2107 31.606 11.5858C31.2288 11.9609 31.0169 12.4696 31.0169 13.0001V13.3825C31.0162 14.2407 31.3228 15.0711 31.8819 15.7251C29.9468 16.6404 28.56 18.4104 28.1408 20.5001C28.0468 20.9945 27.9997 21.4967 28 22C27.9977 23.0924 28.2229 24.1734 28.6612 25.1751L28.6612 25.175ZM33.0283 12.9999H37.0508V13.3824C37.0507 13.6331 36.9921 13.8804 36.88 14.1049C36.7457 14.3745 36.5381 14.6012 36.2808 14.7593C36.0235 14.9175 35.7268 15.0009 35.4243 14.9998H34.6549C34.3524 15.0009 34.0556 14.9175 33.7984 14.7593C33.5411 14.6012 33.3336 14.3745 33.1993 14.1049C33.087 13.8804 33.0285 13.6332 33.0283 13.3824L33.0283 12.9999Z" fill="#A2A2A2"/>
    <path d="M43.0001 25H40.0001C39.6428 25 39.3127 25.1906 39.1339 25.5001C38.9554 25.8095 38.9554 26.1907 39.1339 26.5C39.3127 26.8094 39.6428 27 40.0001 27H43.0001C43.3574 27 43.6875 26.8094 43.8661 26.5C44.0446 26.1907 44.0446 25.8095 43.8661 25.5001C43.6875 25.1906 43.3574 25 43.0001 25V25Z" fill="#A2A2A2"/>
    <path d="M43.0001 21H40.0001C39.6428 21 39.3127 21.1906 39.1339 21.5001C38.9554 21.8095 38.9554 22.1907 39.1339 22.5C39.3127 22.8094 39.6428 23 40.0001 23H43.0001C43.3574 23 43.6875 22.8094 43.8661 22.5C44.0446 22.1907 44.0446 21.8095 43.8661 21.5001C43.6875 21.1906 43.3574 21 43.0001 21Z" fill="#A2A2A2"/>
</svg>