<svg width="99" height="74" viewBox="0 0 99 74" fill="none" xmlns="http://www.w3.org/2000/svg">
    <rect width="99" height="74" rx="4" fill="white"/>
    <path d="M64.6975 38.2788L63.9948 51.4023C63.9442 51.9063 63.7415 52.3092 63.3869 52.6115C63.0323 52.9136 62.6017 53.0395 62.0951 52.9892L37.0155 51.7803C36.5088 51.7298 36.0908 51.5536 35.7617 51.2512C35.4323 50.9489 35.293 50.5459 35.3437 50.0421L35.4955 46.566L34.3555 46.6417C33.8997 46.6922 33.5069 46.5787 33.1778 46.3018C32.8484 46.0245 32.6583 45.6846 32.6077 45.2815L31.0117 27.4482C30.961 27.0453 31.0751 26.68 31.3539 26.3525C31.6324 26.025 31.9998 25.8361 32.4558 25.7858L50.8701 24.3011C50.544 25.0389 50.3092 25.8143 50.1664 26.6265L34.0518 27.9772C33.5452 27.9772 33.2919 28.2039 33.2919 28.6573V28.7327L34.5079 42.1836L35.8757 40.2943L36.4078 30.1688C36.4584 29.7154 36.6486 29.3249 36.9777 28.9974C37.3071 28.6699 37.7251 28.5062 38.2317 28.5062L50.0111 29.0946C50.0491 29.977 50.1855 30.8211 50.4198 31.6258L39.5993 31.151C39.0926 31.151 38.7887 31.3777 38.6875 31.8312V31.9068L38.4593 36.6674L37.9275 46.3394V46.8685L38.3835 46.3394L46.1354 38.1027C46.4394 37.8006 46.7939 37.6493 47.1993 37.6493C47.6554 37.6493 48.0099 37.8258 48.2633 38.1784L51.5311 41.8811L51.759 42.1078C51.9618 42.3094 52.2151 42.4099 52.519 42.4099C52.6711 42.4099 52.899 42.3345 53.2032 42.1835L54.495 41.2766C54.7484 41.075 55.0271 40.9743 55.331 40.9743C55.7362 40.9743 56.015 41.1002 56.1671 41.352L58.2189 43.8458L61.7908 48.0019L62.248 39.0022C63.1054 38.8643 63.9224 38.623 64.6974 38.2787L64.6975 38.2788ZM54.4635 22.5163C56.1286 20.8386 58.1351 20 60.4828 20C62.8304 20 64.8369 20.8386 66.5021 22.5163C68.1673 24.1937 69 26.215 69 28.5799C69 30.9449 68.1673 32.966 66.5021 34.6435C64.8369 36.3209 62.8304 37.1598 60.4828 37.1598C58.1351 37.1598 56.1286 36.3209 54.4635 34.6435C52.798 32.966 51.9655 30.9448 51.9655 28.5799C51.9655 26.2149 52.798 24.1937 54.4635 22.5163ZM64.8642 29.4458V27.7133H61.3425V24.1659H59.6227V27.7133H56.1012V29.4458H59.6227V32.9934H61.3425V29.4458H64.8642Z" fill="#1B81F9"/>
</svg>