<svg width="99" height="74" viewBox="0 0 99 74" fill="none" xmlns="http://www.w3.org/2000/svg">
    <rect width="99" height="74" rx="4" fill="white"/>
    <path d="M50.281 38V26.2281C50.281 25.5499 49.7311 25 49.0529 25C48.3748 25 47.8249 25.5499 47.8249 26.2281V38L43.781 33.9562C43.3013 33.4767 42.5239 33.4767 42.0441 33.9562C41.5647 34.4359 41.5647 35.2133 42.0441 35.693L49.0529 42.7018L56.0617 35.693C56.5412 35.2133 56.5412 34.4359 56.0617 33.9562C55.582 33.4767 54.8046 33.4767 54.3249 33.9562L50.281 38Z" fill="#1B81F9"/>
    <path d="M39.2281 40.9648C39.9063 40.9648 40.4561 41.5147 40.4561 42.1929V44.1578C40.4561 45.1074 41.2259 45.8771 42.1754 45.8771H55.9299C56.8794 45.8771 57.6492 45.1074 57.6492 44.1578V42.1929C57.6492 41.5147 58.1991 40.9648 58.8772 40.9648C59.5554 40.9648 60.1053 41.5147 60.1053 42.1929V44.1578C60.1053 46.464 58.236 48.3333 55.9299 48.3333H42.1754C39.8695 48.3333 38 46.464 38 44.1578V42.1929C38 41.5147 38.5499 40.9648 39.2281 40.9648Z" fill="#1B81F9"/>
</svg>