<svg width="91" height="104" viewBox="0 0 91 104" fill="none" xmlns="http://www.w3.org/2000/svg">
    <rect width="91" height="104" rx="4" fill="#1B81F9"/>
    <path d="M37.6973 42.6111L35.0339 42.4771V42.4774C32.886 42.3696 30.7926 43.1742 29.2693 44.6925L25.2819 48.6798C24.9406 49.0205 24.7922 49.5095 24.8863 49.9824C24.9804 50.4553 25.3049 50.8503 25.7509 51.0343L31.7214 53.507C31.2373 54.8858 30.8381 56.2933 30.5262 57.7211C30.4515 58.0639 30.5564 58.4211 30.8043 58.6691L38.3258 66.1906V66.1903C38.5737 66.4386 38.9309 66.5431 39.2738 66.4684C40.7015 66.1565 42.1086 65.7572 43.4879 65.2732L45.9656 71.2492C46.1496 71.6951 46.5445 72.0196 47.0174 72.1138C47.4903 72.2079 47.9794 72.0595 48.32 71.7181L52.3073 67.7308C53.8267 66.2082 54.6316 64.1143 54.5223 61.9661L54.3883 59.3026C63.1254 52.4355 68.3702 42.225 69.9874 28.9394C70.0514 28.4111 69.8692 27.8829 69.493 27.507C69.1171 27.1308 68.5889 26.9486 68.0606 27.0126C54.7751 28.63 44.5649 33.8797 37.6977 42.6119L37.6973 42.6111ZM67.8901 29.1093C66.2572 41.8338 61.1466 51.5547 52.7132 57.9997C52.4444 58.206 52.2942 58.5316 52.3115 58.8704L52.4764 62.0697V62.0693C52.5551 63.6364 51.9676 65.1633 50.8586 66.2733L47.5257 69.6062L45.0118 63.5739C44.7976 63.0593 44.2137 62.8081 43.693 63.0072C42.2861 63.5437 40.8459 63.9878 39.3812 64.336L32.6841 57.6388V57.6392C33.0327 56.1741 33.4764 54.7338 34.0133 53.327C34.212 52.8067 33.9608 52.2223 33.4466 52.0082L27.4193 49.5046L30.7521 46.1717C31.8625 45.0634 33.389 44.4759 34.9557 44.5539L38.1549 44.7188C38.4902 44.7206 38.8053 44.5593 38.9998 44.2862C45.4443 35.853 55.1656 30.742 67.8899 29.1092L67.8901 29.1093ZM54.8621 47.2485C56.4511 47.2499 57.9507 46.5118 58.9192 45.2516C59.8872 43.9914 60.2143 42.3523 59.8032 40.8169C59.3925 39.2817 58.2907 38.0251 56.8224 37.4167C55.3545 36.8084 53.6868 36.918 52.3105 37.7128C50.9342 38.5077 50.0064 39.8977 49.7998 41.4734C49.5931 43.0492 50.1314 44.6317 51.2558 45.7543C52.2121 46.7112 53.5093 47.2488 54.8622 47.2485L54.8621 47.2485ZM52.7137 39.9796C53.3849 39.3101 54.3292 38.991 55.2689 39.1161C56.2086 39.2408 57.0369 39.7956 57.5098 40.617C57.983 41.4385 58.047 42.4331 57.6837 43.3085C57.32 44.1843 56.5701 44.8408 55.6542 45.0855C54.7386 45.3302 53.7611 45.1351 53.0094 44.5576C52.2576 43.9801 51.8171 43.0857 51.8174 42.1377C51.816 41.3274 52.1387 40.5505 52.7136 39.9795L52.7137 39.9796ZM22.4169 75.9995C30.6596 75.8554 34.6777 71.4969 36.0272 69.6268C36.3395 69.1913 36.3477 68.6074 36.0477 68.1629C35.748 67.7183 35.2036 67.5074 34.6825 67.6332C33.6023 67.9142 32.479 67.9911 31.3701 67.8599C30.7987 67.7906 30.2669 67.5315 29.8597 67.1243C29.4526 66.7172 29.1935 66.1854 29.1241 65.614C29.0005 64.5093 29.0825 63.3914 29.3663 62.317C29.4982 61.7941 29.2894 61.2447 28.8435 60.9418C28.3975 60.6385 27.8101 60.6467 27.3727 60.9619C25.5078 62.3169 21.1442 66.3299 21.0001 74.5575C20.9948 74.9374 21.1414 75.3036 21.4073 75.5745C21.6736 75.8455 22.0369 75.9986 22.4167 76L22.4169 75.9995ZM27.0532 63.9806H27.0535C27.0197 64.608 27.0402 65.2372 27.1153 65.861C27.24 66.8902 27.7065 67.8479 28.4396 68.5809C29.1726 69.3136 30.1303 69.78 31.1594 69.9051C31.7832 69.9795 32.4121 70.0004 33.0395 69.9669C31.2881 71.6411 28.1557 73.6606 23.1025 73.913C23.3498 68.8645 25.3643 65.7271 27.0331 63.9759L27.0532 63.9806Z" fill="white"/>
</svg>