<svg width="27" height="27" viewBox="0 0 27 27" fill="none" xmlns="http://www.w3.org/2000/svg">
<path d="M14.4878 16.2H12.1929C12.1929 15.6483 12.3126 15.131 12.5521 14.6483C12.7916 14.1517 13.0843 13.731 13.4302 13.3862C13.7761 13.0276 14.122 12.6897 14.4678 12.3724C14.8137 12.0414 15.1064 11.6828 15.3459 11.2966C15.5854 10.9103 15.7051 10.5172 15.7051 10.1172C15.7051 9.55173 15.5122 9.11035 15.1264 8.7931C14.7406 8.47586 14.2217 8.31724 13.5698 8.31724C12.9446 8.31724 12.4058 8.48276 11.9534 8.81379C11.5011 9.14483 11.1752 9.61379 10.9756 10.2207L9 9.06207C9.3592 8.09655 9.95122 7.34483 10.7761 6.8069C11.6142 6.26897 12.5654 6 13.6297 6C14.8271 6 15.8514 6.35172 16.7029 7.05517C17.5676 7.75862 18 8.73104 18 9.97241C18 10.5379 17.8803 11.0759 17.6408 11.5862C17.4013 12.0966 17.1086 12.531 16.7627 12.8897C16.4169 13.2483 16.071 13.6 15.7251 13.9448C15.3792 14.2759 15.0865 14.6345 14.847 15.0207C14.6075 15.4069 14.4878 15.8 14.4878 16.2ZM13.3503 17.8966C13.7627 17.8966 14.1153 18.0483 14.408 18.3517C14.7007 18.6552 14.847 19.0207 14.847 19.4483C14.847 19.8759 14.7007 20.2414 14.408 20.5448C14.1153 20.8483 13.7627 21 13.3503 21C12.9379 21 12.5854 20.8483 12.2927 20.5448C12 20.2414 11.8537 19.8759 11.8537 19.4483C11.8537 19.0207 11.9933 18.6552 12.2727 18.3517C12.5654 18.0483 12.9246 17.8966 13.3503 17.8966Z" fill="white"/>
<circle cx="13.5" cy="13.5" r="12.5" stroke="white" stroke-width="2"/>
</svg>