<svg width="45" height="36" viewBox="0 0 45 36" fill="none" xmlns="http://www.w3.org/2000/svg">
<path d="M1 4.94707C1.21084 4.05493 1.52274 3.20461 2.15525 2.52331C3.02649 1.58063 4.08939 1.0213 5.37881 1.01607C9.65656 0.996904 13.9343 1.00213 18.2121 1.00562C18.8132 1.00562 19.1809 1.36805 19.1809 1.90647C19.1809 2.44489 18.7871 2.81255 18.1685 2.81255C13.9866 2.81255 9.80815 2.81255 5.63321 2.81255C4.3159 2.81255 3.26172 3.58795 2.93065 4.80419C2.85283 5.10696 2.81475 5.41858 2.81739 5.73118C2.81042 14.095 2.81042 22.4652 2.81739 30.8418C2.81739 32.5843 3.97438 33.743 5.70117 33.7448C14.9235 33.7448 24.1469 33.7448 33.3715 33.7448C33.483 33.7448 33.5928 33.7343 33.7514 33.7256V25.8776C33.7514 24.9384 34.0389 24.6474 34.9711 24.6474H42.8627V24.1577C42.8627 18.0463 42.8627 11.9355 42.8627 5.82528C42.8627 3.92425 41.7423 2.8143 39.8343 2.8143C35.7413 2.8143 21.2805 2.8143 17.1823 2.8143C16.5254 2.8143 16.1246 2.46581 16.1211 1.91344C16.1135 1.69115 16.1912 1.47437 16.3383 1.30753C16.4854 1.14068 16.6907 1.0364 16.9122 1.01607C17.0112 1.00593 17.1107 1.00186 17.2101 1.00387C21.3607 1.00387 35.8789 0.99516 40.0364 1.00387C42.2755 1.00387 44.0441 2.39784 44.5459 4.4888C44.6335 4.87641 44.6762 5.27282 44.6731 5.6702C44.6708 12.2614 44.6696 18.845 44.6696 25.421C44.6747 25.5903 44.6436 25.7586 44.5784 25.9149C44.5132 26.0711 44.4154 26.2117 44.2915 26.3271C41.3328 29.2777 38.3788 32.2323 35.4294 35.191C35.3071 35.3176 35.1594 35.4167 34.996 35.4819C34.8326 35.5471 34.6572 35.5768 34.4815 35.5691C24.9165 35.5622 15.3521 35.5622 5.78829 35.5691C3.31399 35.5691 1.59592 34.1752 1.06447 31.7514C1.04934 31.713 1.02751 31.6776 1 31.6469V4.94707ZM35.5897 26.4857V32.2846L41.3834 26.4909L35.5897 26.4857Z" fill="#1B81F9"/>
<path d="M22.8295 11.918H36.1314C36.9643 11.918 37.4052 12.2421 37.3895 12.8397C37.3738 13.4374 36.9487 13.7301 36.1349 13.7301H9.53621C8.70505 13.7301 8.26421 13.4043 8.27815 12.8014C8.29209 12.1985 8.71377 11.918 9.53099 11.918H22.8295Z" fill="#1B81F9"/>
<path d="M22.8312 19.1882H36.0878C36.229 19.1882 36.3719 19.1882 36.513 19.1882C36.7448 19.1984 36.9638 19.2977 37.1242 19.4654C37.2847 19.633 37.3742 19.8562 37.3742 20.0882C37.3742 20.3203 37.2847 20.5434 37.1242 20.7111C36.9638 20.8787 36.7448 20.978 36.513 20.9882C36.3719 20.9987 36.229 20.9882 36.0861 20.9882H9.57623C9.43335 20.9882 9.29221 20.9882 9.14933 20.9882C8.91749 20.978 8.69853 20.8787 8.53809 20.7111C8.37764 20.5434 8.28809 20.3203 8.28809 20.0882C8.28809 19.8562 8.37764 19.633 8.53809 19.4654C8.69853 19.2977 8.91749 19.1984 9.14933 19.1882C9.29047 19.1778 9.43335 19.1882 9.57449 19.1882H22.8312Z" fill="#1B81F9"/>
<path d="M19.1966 28.2929H9.6026C9.47365 28.2929 9.34645 28.2929 9.21925 28.2929C8.6634 28.2528 8.28007 27.8799 8.27833 27.3833C8.27658 26.8867 8.65818 26.5121 9.21228 26.4668C9.32554 26.4581 9.43881 26.4668 9.56078 26.4668H28.8255C29.0241 26.4605 29.2228 26.4763 29.4179 26.5138C29.6114 26.5617 29.7832 26.673 29.9061 26.83C30.0289 26.9869 30.0957 27.1805 30.0957 27.3798C30.0957 27.5791 30.0289 27.7727 29.9061 27.9297C29.7832 28.0866 29.6114 28.1979 29.4179 28.2458C29.2236 28.2854 29.0254 28.3023 28.8272 28.2964C25.6187 28.2964 22.4085 28.2952 19.1966 28.2929Z" fill="#1B81F9"/>
</svg>
