<svg width="22" height="26" viewBox="0 0 22 26" fill="none" xmlns="http://www.w3.org/2000/svg">
<path d="M3.41679 13.25H3.66679V13V5.95833C3.66679 2.81171 6.22747 0.25 9.37512 0.25H13.704C24.1264 0.621854 24.132 15.625 13.704 16H6.66678H6.41678V16.25V18.4167V18.6667H6.66678H13.7063C15.5096 18.6988 15.5137 21.3835 13.7062 21.4167H6.66678H6.41678V21.6667V24.3728C6.3846 26.1761 3.70001 26.1803 3.66679 24.3728V21.6667V21.4167H3.41679H1.79398C-0.00935991 21.3845 -0.0134771 18.6998 1.79406 18.6667H3.41679H3.66679V18.4167V16.25V16H3.41679H1.79398C-0.00932978 15.9678 -0.0134899 13.2832 1.79401 13.25H3.41679ZM13.715 3.00009L13.715 3H13.7085H9.37512C7.74428 3 6.41678 4.32628 6.41678 5.95833V13V13.25H6.66678H13.7085V13.2501L13.7149 13.2499C20.464 13.0747 20.4701 3.17764 13.715 3.00009Z" fill="#1B81F9" stroke="white" stroke-width="0.5"/>
</svg>