<svg width="58" height="39" viewBox="0 0 58 39" fill="none" xmlns="http://www.w3.org/2000/svg">
<path d="M57.5578 1.26685C57.4773 1.43178 57.3851 1.5908 57.3222 1.75966C52.9674 13.5703 48.6151 25.381 44.2655 37.1916C44.2262 37.2976 44.1909 37.4037 44.1477 37.5077C43.8158 38.3147 43.2249 38.5189 42.4925 38.0477C40.7765 36.9423 39.0683 35.8251 37.3581 34.7098C35.5911 33.5553 33.8024 32.4126 32.0412 31.2424C31.6858 31.0068 31.4522 30.9676 31.0595 31.2267C27.6922 33.5004 24.3073 35.7426 20.9263 38.0025C20.0309 38.5915 19.3693 38.2519 19.2024 37.1975C18.8548 34.9985 18.4406 32.8093 18.0459 30.6181C17.5413 27.8182 17.019 25.0223 16.5341 22.2205C16.5146 22.0473 16.4499 21.8824 16.3465 21.7421C16.2431 21.6018 16.1047 21.4912 15.945 21.4214C10.9501 18.7969 5.95645 16.1647 0.964121 13.5245L0.571436 13.3124C0.178751 13.0906 -0.0568607 12.7647 0.0118591 12.3032C0.0376717 12.0959 0.131772 11.9031 0.279313 11.7552C0.426854 11.6073 0.619439 11.5128 0.826682 11.4865C2.23642 11.1939 3.64616 10.8974 5.05786 10.6029C15.2873 8.48635 25.5259 6.37044 35.7737 4.25517C42.5422 2.85722 49.3023 1.45533 56.0539 0.0495224C56.6861 -0.082027 57.1926 0.0318434 57.5578 0.593383V1.26685ZM25.6915 24.8436L42.6947 35.8958C46.6504 25.1624 50.5949 14.4565 54.5283 3.77806L54.4242 3.7172L25.6915 24.8436ZM3.78753 12.8216C4.08793 12.9944 4.245 13.0906 4.40796 13.177C8.52854 15.3524 12.6478 17.5299 16.7658 19.7093C16.9279 19.8098 17.1149 19.863 17.3057 19.863C17.4965 19.863 17.6835 19.8098 17.8456 19.7093C28.2322 14.3792 38.6219 9.0564 49.015 3.74076C49.174 3.65829 49.3252 3.56405 49.4803 3.4757L49.4469 3.38931L3.78753 12.8216ZM45.8205 7.6676L45.7753 7.56943C45.6634 7.62245 45.5476 7.66957 45.4376 7.72651C36.559 12.2686 27.6791 16.8113 18.7979 21.3546C18.3856 21.5647 18.4052 21.8023 18.4622 22.1596C18.9857 25.0131 19.5008 27.868 20.0074 30.7241C20.1409 31.4584 20.2842 32.1908 20.4217 32.9231C21.3386 30.3039 22.1455 27.6945 22.9348 25.0812C23.0743 24.5761 23.3844 24.1348 23.8125 23.8325C28.547 20.3703 33.2729 16.9016 37.9904 13.4263L45.8205 7.6676ZM21.9963 34.8492L22.0945 34.9199L29.7833 29.7954L24.5547 26.3947C23.6888 29.2653 22.8426 32.0553 21.9963 34.8492Z" fill="white"/>
</svg>