<svg width="40" height="40" viewBox="0 0 40 40" fill="none" xmlns="http://www.w3.org/2000/svg">
    <rect width="40" height="40" rx="10" fill="#1B81F9"/>
    <rect width="40" height="40" rx="10" fill="url(#paint0_linear_590_4334)"/>
    <path fill-rule="evenodd" clip-rule="evenodd" d="M27.3938 21.1076C27.7285 20.7729 28.2712 20.7729 28.606 21.1076L30.8917 23.3933C31.2264 23.7281 31.2264 24.2708 30.8917 24.6055C30.5569 24.9403 30.0142 24.9403 29.6795 24.6055L28.857 23.7831V28.5709C28.857 29.0443 28.4732 29.428 27.9999 29.428C27.5265 29.428 27.1427 29.0443 27.1427 28.5709V23.7831L26.3202 24.6055C25.9855 24.9403 25.4428 24.9403 25.1081 24.6055C24.7733 24.2708 24.7733 23.7281 25.1081 23.3933L27.3938 21.1076Z" fill="url(#paint1_linear_590_4334)"/>
    <path d="M17.7141 10.2852H22.2856C26.5956 10.2852 28.7505 10.2852 30.0895 11.6241C31.0535 12.5881 31.3235 13.9752 31.399 16.2852H8.60068C8.67626 13.9752 8.94618 12.5881 9.91023 11.6241C11.2492 10.2852 13.4042 10.2852 17.7141 10.2852Z" fill="url(#paint2_linear_590_4334)"/>
    <path fill-rule="evenodd" clip-rule="evenodd" d="M17.7141 28.5709H22.2856C23.4923 28.5709 24.5302 28.5709 25.4284 28.5415V26.555C24.8685 26.4928 24.3252 26.247 23.8959 25.8177C22.8917 24.8135 22.8917 23.1854 23.8959 22.1812L26.1816 19.8955C27.1858 18.8912 28.8139 18.8912 29.8181 19.8955L31.4213 21.4986C31.4284 20.8695 31.4284 20.1817 31.4284 19.428C31.4284 18.9229 31.4284 18.4475 31.4263 17.9994H8.57344C8.57129 18.4475 8.57129 18.9229 8.57129 19.428C8.57129 23.738 8.57129 25.893 9.91023 27.2319C11.2492 28.5709 13.4042 28.5709 17.7141 28.5709ZM12.2856 23.9994C12.2856 23.5261 12.6693 23.1423 13.1427 23.1423H17.7141C18.1875 23.1423 18.5713 23.5261 18.5713 23.9994C18.5713 24.4728 18.1875 24.8566 17.7141 24.8566H13.1427C12.6693 24.8566 12.2856 24.4728 12.2856 23.9994ZM20.5713 23.1423C20.0979 23.1423 19.7141 23.5261 19.7141 23.9994C19.7141 24.4728 20.0979 24.8566 20.5713 24.8566H22.2856C22.759 24.8566 23.1427 24.4728 23.1427 23.9994C23.1427 23.5261 22.759 23.1423 22.2856 23.1423H20.5713Z" fill="url(#paint3_linear_590_4334)"/>
    <defs>
        <linearGradient id="paint0_linear_590_4334" x1="40" y1="0" x2="-5.75489" y2="8.30873" gradientUnits="userSpaceOnUse">
            <stop stop-color="#69DD8A"/>
            <stop offset="1" stop-color="#58B276"/>
        </linearGradient>
        <linearGradient id="paint1_linear_590_4334" x1="19.9999" y1="17.4637" x2="19.9999" y2="29.428" gradientUnits="userSpaceOnUse">
            <stop stop-color="white"/>
            <stop offset="1" stop-color="white" stop-opacity="0.4"/>
        </linearGradient>
        <linearGradient id="paint2_linear_590_4334" x1="19.9999" y1="17.4637" x2="19.9999" y2="29.428" gradientUnits="userSpaceOnUse">
            <stop stop-color="white"/>
            <stop offset="1" stop-color="white" stop-opacity="0.4"/>
        </linearGradient>
        <linearGradient id="paint3_linear_590_4334" x1="19.9999" y1="17.4637" x2="19.9999" y2="29.428" gradientUnits="userSpaceOnUse">
            <stop stop-color="white"/>
            <stop offset="1" stop-color="white" stop-opacity="0.4"/>
        </linearGradient>
    </defs>
</svg>