<svg width="40" height="40" viewBox="0 0 40 40" fill="none" xmlns="http://www.w3.org/2000/svg">
    <rect width="40" height="40" rx="10" fill="url(#paint0_linear_590_4320)"/>
    <path d="M17.1431 8.57031C16.1962 8.57031 15.4286 9.33789 15.4286 10.2847V11.4277C15.4286 12.3746 16.1962 13.1421 17.1431 13.1421H22.8579C23.8047 13.1421 24.5723 12.3746 24.5723 11.4277V10.2847C24.5723 9.33789 23.8047 8.57031 22.8579 8.57031H17.1431Z" fill="url(#paint1_linear_590_4320)"/>
    <path fill-rule="evenodd" clip-rule="evenodd" d="M13.7142 10.8981C12.2765 10.9787 11.3688 11.2078 10.7182 11.8585C9.71387 12.8628 9.71387 14.4792 9.71387 17.712V24.5697C9.71387 27.8025 9.71387 29.4189 10.7182 30.4232C11.7225 31.4275 13.3388 31.4275 16.5716 31.4275H23.4293C26.6621 31.4275 28.2785 31.4275 29.2828 30.4232C30.2871 29.4189 30.2871 27.8025 30.2871 24.5697V17.712C30.2871 14.4792 30.2871 12.8628 29.2828 11.8585C28.6321 11.2078 27.7245 10.9787 26.2867 10.8981V11.4277C26.2867 13.3214 24.7516 14.8566 22.8579 14.8566H17.1431C15.2494 14.8566 13.7142 13.3214 13.7142 11.4277V10.8981ZM24.0142 20.6266C24.3603 20.3035 24.379 19.7611 24.056 19.415C23.733 19.0689 23.1906 19.0502 22.8445 19.3732L18.531 23.3991L17.1565 22.1163C16.8104 21.7933 16.268 21.812 15.9449 22.1581C15.6219 22.5042 15.6406 23.0466 15.9867 23.3696L17.9461 25.1984C18.2754 25.5058 18.7865 25.5058 19.1159 25.1984L24.0142 20.6266Z" fill="url(#paint2_linear_590_4320)"/>
    <defs>
        <linearGradient id="paint0_linear_590_4320" x1="40" y1="0" x2="-5.75489" y2="8.30873" gradientUnits="userSpaceOnUse">
            <stop stop-color="#FCB950"/>
            <stop offset="1" stop-color="#F19338"/>
        </linearGradient>
        <linearGradient id="paint1_linear_590_4320" x1="20.0005" y1="17.1417" x2="20.0005" y2="31.4275" gradientUnits="userSpaceOnUse">
            <stop stop-color="white"/>
            <stop offset="1" stop-color="white" stop-opacity="0.4"/>
        </linearGradient>
        <linearGradient id="paint2_linear_590_4320" x1="20.0005" y1="17.1417" x2="20.0005" y2="31.4275" gradientUnits="userSpaceOnUse">
            <stop stop-color="white"/>
            <stop offset="1" stop-color="white" stop-opacity="0.4"/>
        </linearGradient>
    </defs>
</svg>