<svg width="70" height="70" viewBox="0 0 70 70" fill="none" xmlns="http://www.w3.org/2000/svg">
<rect width="70" height="70" rx="10" fill="url(#paint0_linear_1508_2047)"/>
<g clip-path="url(#clip0_1508_2047)">
<path d="M49.9597 22.6262C50.5897 23.2562 50.1435 24.3333 49.2526 24.3333H47.5002H43.3335C42.7812 24.3333 42.3335 23.8856 42.3335 23.3333V17.4142C42.3335 16.5233 43.4106 16.0771 44.0406 16.7071L49.9597 22.6262ZM50.6668 26.6667C51.2191 26.6667 51.6668 27.1144 51.6668 27.6667V54.5C51.6668 54.7761 51.443 55 51.1668 55H18.8335C18.5574 55 18.3335 54.7761 18.3335 54.5V20C18.3335 18.6739 18.8603 17.4021 19.798 16.4645C20.7356 15.5268 22.0074 15 23.3335 15H39.0002C39.5524 15 40.0002 15.4477 40.0002 16V25.6667C40.0002 26.219 40.4479 26.6667 41.0002 26.6667H50.6668ZM26.6668 40C26.6668 40.9205 27.413 41.6667 28.3335 41.6667H36.6668C37.5873 41.6667 38.3335 40.9205 38.3335 40C38.3335 39.0795 37.5873 38.3333 36.6668 38.3333H28.3335C27.413 38.3333 26.6668 39.0795 26.6668 40ZM43.3335 46.6667C43.3335 45.7462 42.5873 45 41.6668 45H28.3335C27.413 45 26.6668 45.7462 26.6668 46.6667C26.6668 47.5871 27.413 48.3333 28.3335 48.3333H35.0002H41.6668C42.5873 48.3333 43.3335 47.5871 43.3335 46.6667ZM43.3335 33.3333C43.3335 32.4129 42.5873 31.6667 41.6668 31.6667H28.3335C27.413 31.6667 26.6668 32.4129 26.6668 33.3333C26.6668 34.2538 27.413 35 28.3335 35H41.6668C42.5873 35 43.3335 34.2538 43.3335 33.3333Z" fill="url(#paint1_linear_1508_2047)"/>
</g>
<defs>
<linearGradient id="paint0_linear_1508_2047" x1="70" y1="0" x2="-10.0711" y2="14.5403" gradientUnits="userSpaceOnUse">
<stop stop-color="#60A8FF"/>
<stop offset="1" stop-color="#1B81F9"/>
</linearGradient>
<linearGradient id="paint1_linear_1508_2047" x1="35.0002" y1="30" x2="35.0002" y2="55" gradientUnits="userSpaceOnUse">
<stop stop-color="white"/>
<stop offset="1" stop-color="white" stop-opacity="0.4"/>
</linearGradient>
<clipPath id="clip0_1508_2047">
<rect x="15" y="15" width="40" height="40" rx="2" fill="white"/>
</clipPath>
</defs>
</svg>