<svg width="40" height="40" viewBox="0 0 40 40" fill="none" xmlns="http://www.w3.org/2000/svg">
    <rect width="40" height="40" rx="10" fill="#1B81F9"/>
    <rect width="40" height="40" rx="10" fill="url(#paint0_linear_590_4347)"/>
    <path fill-rule="evenodd" clip-rule="evenodd" d="M19.9999 8.57031C21.5985 8.57031 22.9599 8.57031 24.1278 8.61404C23.3365 9.51851 22.857 10.7027 22.857 11.9989C22.857 14.8392 25.1595 17.1417 27.9999 17.1417C29.296 17.1417 30.4802 16.6622 31.3847 15.8709C31.4284 17.0389 31.4284 18.4003 31.4284 19.9989C31.4284 25.3864 31.4284 28.0801 29.7548 29.7538C28.0811 31.4275 25.3873 31.4275 19.9999 31.4275C14.6124 31.4275 11.9186 31.4275 10.245 29.7538C8.57129 28.0801 8.57129 25.3864 8.57129 19.9989C8.57129 14.6114 8.57129 11.9177 10.245 10.244C11.9186 8.57031 14.6124 8.57031 19.9999 8.57031ZM26.3726 18.2619C26.6757 17.8982 26.6265 17.3577 26.2629 17.0547C25.8992 16.7516 25.3587 16.8008 25.0557 17.1644L23.0021 19.6287C22.5783 20.1373 22.3181 20.4463 22.1037 20.6399C22.0043 20.7297 21.9453 20.7655 21.917 20.7791C21.9113 20.7819 21.9072 20.7836 21.9046 20.7846C21.9046 20.7846 21.8997 20.7826 21.8959 20.7809L21.8922 20.7791C21.8639 20.7655 21.805 20.7297 21.7055 20.6399C21.4912 20.4463 21.2309 20.1373 20.8072 19.6287L20.473 19.2277L20.473 19.2277C20.0976 18.7772 19.7592 18.371 19.4431 18.0856C19.0992 17.775 18.6659 17.4984 18.0951 17.4984C17.5243 17.4984 17.091 17.775 16.7471 18.0856C16.431 18.371 16.0926 18.7772 15.7172 19.2277L13.6271 21.7359C13.324 22.0995 13.3732 22.64 13.7368 22.9431C14.1005 23.2461 14.641 23.197 14.9441 22.8333L16.9976 20.369C17.4214 19.8605 17.6816 19.5515 17.896 19.3579C17.9954 19.2681 18.0544 19.2323 18.0827 19.2186L18.0904 19.2151L18.0951 19.2132C18.0977 19.2142 18.1018 19.2158 18.1075 19.2186C18.1358 19.2323 18.1948 19.2681 18.2942 19.3579C18.5086 19.5515 18.7688 19.8605 19.1926 20.369L19.5267 20.77L19.5267 20.77C19.9021 21.2206 20.2405 21.6268 20.5566 21.9122C20.9006 22.2228 21.3338 22.4994 21.9046 22.4994C22.4755 22.4994 22.9087 22.2228 23.2526 21.9122C23.5687 21.6268 23.9071 21.2206 24.2825 20.77L26.3726 18.2619ZM28 15.4275C29.8935 15.4275 31.4286 13.8924 31.4286 11.9989C31.4286 10.1054 29.8935 8.57033 28 8.57033C26.1065 8.57033 24.5714 10.1054 24.5714 11.9989C24.5714 13.8924 26.1065 15.4275 28 15.4275Z" fill="url(#paint1_linear_590_4347)"/>
    <defs>
        <linearGradient id="paint0_linear_590_4347" x1="40" y1="0" x2="-5.75489" y2="8.30873" gradientUnits="userSpaceOnUse">
            <stop stop-color="#9D8DFF"/>
            <stop offset="1" stop-color="#7649F9"/>
        </linearGradient>
        <linearGradient id="paint1_linear_590_4347" x1="19.9999" y1="17.1417" x2="19.9999" y2="31.4275" gradientUnits="userSpaceOnUse">
            <stop stop-color="white"/>
            <stop offset="1" stop-color="white" stop-opacity="0.4"/>
        </linearGradient>
    </defs>
</svg>