<svg width="70" height="70" viewBox="0 0 70 70" fill="none" xmlns="http://www.w3.org/2000/svg">
<rect width="70" height="70" rx="10" fill="url(#paint0_linear_1508_2020)"/>
<g clip-path="url(#clip0_1508_2020)">
<path d="M27.5 36.6667C26.0166 36.6667 24.5666 36.2268 23.3332 35.4027C22.0999 34.5786 21.1386 33.4072 20.5709 32.0368C20.0032 30.6664 19.8547 29.1584 20.1441 27.7035C20.4335 26.2486 21.1478 24.9123 22.1967 23.8634C23.2456 22.8145 24.582 22.1002 26.0368 21.8108C27.4917 21.5214 28.9997 21.6699 30.3701 22.2376C31.7406 22.8052 32.9119 23.7665 33.736 24.9999C34.5601 26.2333 35 27.6833 35 29.1667C34.9978 31.1551 34.2069 33.0615 32.8009 34.4675C31.3948 35.8736 29.4884 36.6645 27.5 36.6667ZM40 48.3333C39.9974 46.124 39.1185 44.0059 37.5563 42.4437C35.9941 40.8815 33.876 40.0027 31.6667 40H23.3333C21.124 40.0027 19.0059 40.8815 17.4437 42.4437C15.8815 44.0059 15.0026 46.124 15 48.3333L15 55H40V48.3333ZM44.1667 30C42.6833 30 41.2333 29.5601 39.9999 28.736C38.7665 27.9119 37.8052 26.7406 37.2376 25.3701C36.6699 23.9997 36.5214 22.4917 36.8108 21.0368C37.1002 19.582 37.8145 18.2456 38.8634 17.1967C39.9123 16.1478 41.2486 15.4335 42.7035 15.1441C44.1583 14.8547 45.6663 15.0032 47.0368 15.5709C48.4072 16.1386 49.5786 17.0999 50.4027 18.3332C51.2268 19.5666 51.6667 21.0166 51.6667 22.5C51.6645 24.4885 50.8736 26.3948 49.4675 27.8009C48.0615 29.2069 46.1551 29.9978 44.1667 30ZM46.6667 33.3333H38.3333C38.0408 33.3468 37.7493 33.3762 37.46 33.4217C36.854 34.8239 35.959 36.0824 34.8333 37.115C37.2772 37.8065 39.4291 39.2757 40.9629 41.3001C42.4967 43.3244 43.3289 45.7935 43.3333 48.3333H55V41.6667C54.9974 39.4573 54.1185 37.3393 52.5563 35.777C50.9941 34.2148 48.876 33.336 46.6667 33.3333Z" fill="url(#paint1_linear_1508_2020)"/>
</g>
<defs>
<linearGradient id="paint0_linear_1508_2020" x1="70" y1="0" x2="-10.0711" y2="14.5403" gradientUnits="userSpaceOnUse">
<stop stop-color="#69DD8A"/>
<stop offset="1" stop-color="#58B276"/>
</linearGradient>
<linearGradient id="paint1_linear_1508_2020" x1="35" y1="30" x2="35" y2="55" gradientUnits="userSpaceOnUse">
<stop stop-color="white"/>
<stop offset="1" stop-color="white" stop-opacity="0.4"/>
</linearGradient>
<clipPath id="clip0_1508_2020">
<rect width="40" height="40" fill="white" transform="translate(15 15)"/>
</clipPath>
</defs>
</svg>