<svg width="70" height="70" viewBox="0 0 70 70" fill="none" xmlns="http://www.w3.org/2000/svg">
<rect width="70" height="70" rx="10" fill="url(#paint0_linear_1508_2006)"/>
<g clip-path="url(#clip0_1508_2006)">
<path d="M45.9685 18.5671L35.5268 15.0854C35.185 14.9715 34.8154 14.9715 34.4735 15.0854L24.0318 18.5671C22.3717 19.1185 20.9275 20.1792 19.9046 21.5983C18.8816 23.0173 18.3319 24.7227 18.3335 26.4721V35.0004C18.3335 47.6054 33.6668 54.5671 34.3235 54.8571C34.5365 54.9517 34.7671 55.0006 35.0002 55.0006C35.2333 55.0006 35.4638 54.9517 35.6768 54.8571C36.3335 54.5671 51.6668 47.6054 51.6668 35.0004V26.4721C51.6684 24.7227 51.1187 23.0173 50.0958 21.5983C49.0728 20.1792 47.6287 19.1185 45.9685 18.5671ZM42.8635 31.1954L35.7435 38.3154C35.4521 38.6087 35.1054 38.8412 34.7235 38.9994C34.3415 39.1577 33.9319 39.2384 33.5185 39.2371H33.4635C33.0416 39.2306 32.6255 39.1387 32.2402 38.9668C31.8549 38.7949 31.5085 38.5467 31.2218 38.2371L27.3785 34.2371C27.2121 34.0826 27.0789 33.8958 26.9873 33.6881C26.8956 33.4804 26.8473 33.2561 26.8455 33.0291C26.8436 32.802 26.8881 32.577 26.9763 32.3678C27.0645 32.1585 27.1946 31.9696 27.3584 31.8124C27.5223 31.6552 27.7166 31.5332 27.9293 31.4538C28.142 31.3744 28.3687 31.3393 28.5955 31.3507C28.8222 31.3621 29.0443 31.4196 29.248 31.5199C29.4517 31.6202 29.6328 31.761 29.7802 31.9337L33.5202 35.8337L40.5002 28.8337C40.8145 28.5301 41.2355 28.3621 41.6725 28.3659C42.1095 28.3697 42.5275 28.545 42.8365 28.854C43.1455 29.1631 43.3208 29.5811 43.3246 30.0181C43.3284 30.4551 43.1604 30.8761 42.8568 31.1904L42.8635 31.1954Z" fill="url(#paint1_linear_1508_2006)"/>
</g>
<defs>
<linearGradient id="paint0_linear_1508_2006" x1="70" y1="0" x2="-10.0711" y2="14.5403" gradientUnits="userSpaceOnUse">
<stop stop-color="#9D8DFF"/>
<stop offset="1" stop-color="#7649F9"/>
</linearGradient>
<linearGradient id="paint1_linear_1508_2006" x1="35.0002" y1="30.0002" x2="35.0002" y2="55.0006" gradientUnits="userSpaceOnUse">
<stop stop-color="white"/>
<stop offset="1" stop-color="white" stop-opacity="0.4"/>
</linearGradient>
<clipPath id="clip0_1508_2006">
<rect width="40" height="40" fill="white" transform="translate(15 15)"/>
</clipPath>
</defs>
</svg>