<svg width="40" height="40" viewBox="0 0 40 40" fill="none" xmlns="http://www.w3.org/2000/svg">
    <rect width="40" height="40" rx="10" fill="url(#paint0_linear_590_4305)"/>
    <path d="M27.0122 24.7676L28.9739 18.8826C30.6875 13.7416 31.5444 11.1711 30.1875 9.81419C28.8306 8.45731 26.2601 9.31415 21.1191 11.0278L15.2341 12.9895C11.0848 14.3726 9.01019 15.0641 8.42064 16.0782C7.85979 17.043 7.85979 18.2345 8.42064 19.1992C9.01019 20.2133 11.0848 20.9049 15.2341 22.288C15.7484 22.4594 16.3269 22.337 16.7119 21.9555L23.0041 15.7216C23.3581 15.3709 23.9293 15.3736 24.2801 15.7276C24.6308 16.0815 24.6281 16.6528 24.2741 17.0035L18.0836 23.1367C17.6591 23.5572 17.5248 24.2008 17.7137 24.7675C19.0968 28.9168 19.7884 30.9915 20.8025 31.581C21.7672 32.1419 22.9587 32.1419 23.9234 31.581C24.9376 30.9915 25.6291 28.9168 27.0122 24.7676Z" fill="url(#paint1_linear_590_4305)"/>
    <defs>
        <linearGradient id="paint0_linear_590_4305" x1="40" y1="0" x2="-5.75489" y2="8.30873" gradientUnits="userSpaceOnUse">
            <stop stop-color="#60A8FF"/>
            <stop offset="1" stop-color="#1B81F9"/>
        </linearGradient>
        <linearGradient id="paint1_linear_590_4305" x1="19.4286" y1="13.716" x2="19.4286" y2="32.0017" gradientUnits="userSpaceOnUse">
            <stop stop-color="white"/>
            <stop offset="1" stop-color="white" stop-opacity="0.4"/>
        </linearGradient>
    </defs>
</svg>