<svg width="199" height="40" viewBox="0 0 199 40" fill="none" xmlns="http://www.w3.org/2000/svg">
<g clip-path="url(#clip0_3372_3145)">
<path d="M58.01 0.00195312H64.9711V38.5644H58.01V35.5796C56.8407 36.7586 55.4521 37.6976 53.9223 38.3434C52.5204 38.9222 51.0192 39.2225 49.5024 39.2274C47.744 39.2381 46.0041 38.8683 44.402 38.1436C42.7999 37.4188 41.3735 36.3562 40.2206 35.0284C38.9076 33.6435 37.8805 32.0134 37.198 30.2312C36.5154 28.4491 36.1908 26.5499 36.2427 24.6422C36.2427 20.3314 37.4579 16.7971 39.9996 14.0349C41.1582 12.7219 42.5883 11.6763 44.1908 10.9704C45.7933 10.2646 47.5301 9.91529 49.2809 9.94677C50.9161 9.94605 52.5338 10.2846 54.0315 10.941C55.5731 11.6148 56.9633 12.5918 58.1196 13.8139V0.00195312H58.01ZM50.6069 16.4653C49.59 16.4368 48.5791 16.6296 47.6441 17.0303C46.7091 17.431 45.8723 18.0301 45.1916 18.7861C43.7586 20.3918 43.0059 22.4917 43.0925 24.6422C43.0239 26.8428 43.8161 28.9833 45.3008 30.6091C45.9814 31.3648 46.818 31.9637 47.7528 32.3643C48.6876 32.7649 49.6983 32.9577 50.7149 32.9293C51.7315 32.9577 52.7422 32.7649 53.677 32.3643C54.6118 31.9637 55.4485 31.3648 56.129 30.6091C57.6155 28.9841 58.4095 26.8434 58.3423 24.6422C58.3862 23.5677 58.2131 22.4953 57.8334 21.4891C57.4537 20.483 56.8752 19.5637 56.1323 18.7861C55.4297 18.0283 54.5733 17.4293 53.6205 17.0291C52.6677 16.629 51.6404 16.437 50.6074 16.4659" fill="#C1321A"/>
<path d="M81.9863 10.7194H88.9474V13.5924C90.2308 12.4515 91.6855 11.5195 93.2582 10.8302C94.5191 10.3088 95.8718 10.0458 97.2361 10.057C98.5461 10.0463 99.8452 10.2946 101.059 10.7876C102.272 11.2807 103.377 12.0087 104.308 12.9299C105.965 14.5871 106.739 17.0181 106.739 20.2228V38.5638H99.7751V26.4096C99.7751 23.0946 99.666 20.8847 99.3331 19.7797C99.0893 18.7945 98.5494 17.9076 97.7862 17.2385C96.9854 16.6527 96.0161 16.3425 95.024 16.3545C94.3502 16.3308 93.6788 16.4461 93.0515 16.6932C92.4242 16.9403 91.8545 17.3139 91.3778 17.7907C90.2752 18.8615 89.5403 20.2541 89.2787 21.7687C89.0578 22.6527 88.9474 24.531 88.9474 27.4038V38.5638H81.9863V10.7194Z" fill="#C1321A"/>
<path d="M131.488 0.00195312H138.45V38.5644H131.488V35.5796C130.319 36.7581 128.93 37.6965 127.4 38.3417C125.998 38.9206 124.497 39.2208 122.98 39.2257C121.222 39.2365 119.483 38.8671 117.881 38.1426C116.279 37.4181 114.852 36.3558 113.699 35.0284C112.386 33.6435 111.359 32.0134 110.676 30.2312C109.994 28.4491 109.669 26.5499 109.721 24.6422C109.721 20.3314 110.936 16.7971 113.478 14.0349C114.637 12.7219 116.067 11.6763 117.669 10.9704C119.272 10.2646 121.009 9.91529 122.759 9.94677C124.395 9.94597 126.013 10.2845 127.511 10.941C129.052 11.6148 130.442 12.5918 131.599 13.8139V0.00195312H131.488ZM124.196 16.4653C123.18 16.4369 122.169 16.6297 121.234 17.0303C120.299 17.4309 119.463 18.0298 118.782 18.7855C117.349 20.3913 116.596 22.4912 116.683 24.6416C116.615 26.8424 117.408 28.983 118.893 30.6085C119.591 31.3419 120.431 31.9257 121.362 32.3247C122.292 32.7236 123.294 32.9293 124.307 32.9293C125.319 32.9293 126.322 32.7236 127.252 32.3247C128.183 31.9257 129.023 31.3419 129.721 30.6085C131.206 28.983 131.998 26.8426 131.93 24.6422C131.974 23.5677 131.801 22.4953 131.421 21.4891C131.041 20.483 130.463 19.5637 129.72 18.7861C129.017 18.0283 128.161 17.4293 127.208 17.0291C126.255 16.629 125.228 16.437 124.195 16.4659" fill="#C1321A"/>
<path d="M171.044 26.6316H148.614C148.882 28.4881 149.826 30.1803 151.266 31.3827C152.702 32.5979 154.47 33.1507 156.68 33.1507C157.933 33.18 159.179 32.9498 160.339 32.4744C161.499 31.9991 162.548 31.2889 163.42 30.3885L169.276 33.1507C167.958 35.1459 166.126 36.7483 163.973 37.7889C161.687 38.8422 159.196 39.3708 156.68 39.3358C152.26 39.3358 148.724 38.0098 145.962 35.2477C143.199 32.4855 141.874 29.0625 141.874 24.8636C141.874 20.6647 143.2 17.1287 145.962 14.2563C147.298 12.8928 148.899 11.817 150.666 11.0949C152.433 10.3728 154.33 10.0198 156.238 10.0574C160.658 10.0574 164.194 11.4936 166.956 14.2563C169.719 17.0191 171.044 20.7754 171.044 25.4164V26.6316ZM164.083 21.2174C163.647 19.672 162.666 18.3371 161.321 17.4605C159.935 16.4774 158.267 15.9732 156.569 16.0243C154.735 15.9792 152.941 16.5641 151.487 17.6815C150.603 18.3445 149.719 19.5597 148.945 21.3277H164.083V21.2174Z" fill="#C1321A"/>
<path d="M170.713 10.7207H178.777L184.302 18.3448L189.718 10.7207H197.673L188.282 23.8713L199 38.5673H190.823L184.193 29.5092L177.674 38.5673H169.719L180.216 23.9805L170.713 10.7207Z" fill="#C1321A"/>
<path d="M14.475 0.996094H21.7673L36.2422 38.6745H28.8391L25.8554 30.9402H10.497L7.40309 38.6745H0L14.475 0.996094ZM18.2319 10.9404L13.1506 23.8684H23.204L18.2319 10.9404Z" fill="#C1321A"/>
<path d="M69.9424 0.00195312V6.41083H76.9035L69.9424 10.057V38.5644H77.0143V0.00195312H69.9424Z" fill="#C1321A"/>
</g>
<defs>
<clipPath id="clip0_3372_3145">
<rect width="199" height="39.3362" fill="white"/>
</clipPath>
</defs>
</svg>
