<svg width="149" height="39" viewBox="0 0 149 39" fill="none" xmlns="http://www.w3.org/2000/svg">
<g clip-path="url(#clip0_3372_3154)">
<path d="M14.2884 6.58694C10.2996 6.58694 8.30525 7.90433 8.30525 10.5391C8.30525 11.7101 8.79927 12.6067 9.78731 13.2288C10.7754 13.8509 13.0899 14.7474 16.731 15.9184C20.3722 17.0895 22.9246 18.416 24.3884 19.8981C25.8521 21.3801 26.584 23.6581 26.584 26.732C26.584 30.6476 25.3947 33.6117 23.0161 35.6244C20.6375 37.6371 17.527 38.6434 13.6846 38.6434C10.8302 38.6434 7.3355 38.2043 3.20037 37.326L1.22429 36.9418L1.99276 31.0684C6.89637 31.7271 10.6473 32.0564 13.2455 32.0564C17.1244 32.0564 19.0639 30.4463 19.0639 27.226C19.0639 26.055 18.6156 25.1402 17.7191 24.4815C16.8225 23.8228 15.0386 23.1092 12.3672 22.3407C8.12228 21.1331 5.13071 19.6968 3.39249 18.0318C1.65427 16.3667 0.785156 14.0521 0.785156 11.088C0.785156 7.35542 1.91957 4.57427 4.18841 2.74456C6.45725 0.914853 9.56775 0 13.5199 0C16.2279 0 19.6677 0.365941 23.8395 1.09782L25.8155 1.48206L25.2117 7.4652C20.052 6.87969 16.4108 6.58694 14.2884 6.58694Z" fill="#FE0002"/>
<path d="M41.0273 38.6243C45.565 38.6243 48.8036 37.371 50.7431 34.8643C52.6825 32.3576 53.6523 28.8354 53.6523 24.2977C53.6523 14.6735 49.444 9.86133 41.0273 9.86133C32.6107 9.86133 28.4023 14.6735 28.4023 24.2977C28.4023 28.8354 29.3721 32.3576 31.3116 34.8643C33.2511 37.371 36.4896 38.6243 41.0273 38.6243ZM41.0273 16.1189C42.9668 16.1189 44.3116 16.7776 45.0618 18.095C45.812 19.4124 46.1871 21.48 46.1871 24.2977C46.1871 27.1155 45.812 29.1647 45.0618 30.4455C44.3116 31.7263 42.9668 32.3667 41.0273 32.3667C39.0878 32.3667 37.743 31.7263 36.9928 30.4455C36.2426 29.1647 35.8675 27.1155 35.8675 24.2977C35.8675 21.48 36.2426 19.4124 36.9928 18.095C37.743 16.7776 39.0878 16.1189 41.0273 16.1189Z" fill="#FE0002"/>
<path d="M56.514 31.1335C61.0517 31.719 64.2262 32.0118 66.0376 32.0118C67.849 32.0118 69.02 31.8471 69.5507 31.5178C70.0813 31.1884 70.3466 30.6669 70.3466 29.9534C70.3466 29.2398 69.9898 28.7457 69.2762 28.4713C68.5626 28.1968 66.7329 27.7943 63.7871 27.2637C60.8413 26.7331 58.7462 25.864 57.502 24.6564C56.2578 23.4487 55.6357 21.491 55.6357 18.783C55.6357 12.8547 59.3135 9.89062 66.6689 9.89062C69.0841 9.89062 72.0116 10.22 75.4515 10.8787L77.208 11.208L76.9884 17.3558C72.4507 16.7703 69.2945 16.4776 67.5197 16.4776C65.7449 16.4776 64.5373 16.6514 63.8969 16.999C63.2565 17.3467 62.9363 17.8681 62.9363 18.5634C62.9363 19.2587 63.2748 19.771 63.9518 20.1004C64.6287 20.4297 66.3853 20.8323 69.2213 21.308C72.0574 21.7837 74.1707 22.5888 75.5612 23.7232C76.9518 24.8576 77.6471 26.8794 77.6471 29.7887C77.6471 32.6979 76.6591 34.8936 74.683 36.3756C72.7069 37.8577 70.1636 38.5987 67.0531 38.5987C64.8941 38.5987 61.9482 38.2511 58.2156 37.5558L56.4042 37.2264L56.514 31.1335Z" fill="#FE0002"/>
<path d="M96.5614 16.8172H89.8098V28.0698C89.8098 29.1677 89.8373 29.9453 89.8922 30.4027C89.947 30.8602 90.1483 31.2535 90.496 31.5829C90.8436 31.9122 91.3834 32.0769 92.1152 32.0769L96.287 31.9671L96.6163 37.8405C94.1645 38.3894 92.2982 38.6638 91.0174 38.6638C87.724 38.6638 85.4734 37.9228 84.2658 36.4408C83.0582 34.9587 82.4544 32.2233 82.4544 28.2345V16.8172H79.2158V10.5596H82.4544V2.92969H89.8098V10.5596H96.5614V16.8172Z" fill="#FE0002"/>
<path d="M121.06 19.1006V30.518C121.134 31.3963 121.28 32.0092 121.499 32.3568C121.719 32.7045 122.176 32.9515 122.872 33.0979L122.652 38.6419C120.786 38.6419 119.295 38.5138 118.179 38.2577C117.062 38.0015 115.937 37.4892 114.803 36.7207C112.168 38.0015 109.478 38.6419 106.734 38.6419C101.062 38.6419 98.2256 35.6412 98.2256 29.6397C98.2256 26.7122 99.0124 24.6355 100.586 23.4096C102.159 22.1837 104.575 21.4609 107.832 21.2414L113.705 20.8023V19.1006C113.705 17.9662 113.449 17.1886 112.936 16.7678C112.424 16.3469 111.601 16.1365 110.466 16.1365L100.147 16.5756L99.9272 11.4708C103.843 10.4095 107.566 9.87891 111.098 9.87891C114.629 9.87891 117.172 10.6108 118.727 12.0746C120.283 13.5383 121.06 15.8803 121.06 19.1006ZM108.71 26.3463C106.661 26.5292 105.636 27.6271 105.636 29.6397C105.636 31.6524 106.532 32.6587 108.326 32.6587C109.716 32.6587 111.235 32.4392 112.882 32.0001L113.705 31.7805V25.9071L108.71 26.3463Z" fill="#FE0002"/>
<path d="M148.215 11.2012H140.531L136.139 32.3892H134.602L129.992 11.2012H122.526L129.113 38.6468H141.628L148.215 11.2012Z" fill="#FE0002"/>
</g>
<defs>
<clipPath id="clip0_3372_3154">
<rect width="147.429" height="38.6636" fill="white" transform="translate(0.785156)"/>
</clipPath>
</defs>
</svg>
