<svg width="150" height="39" viewBox="0 0 150 39" fill="none" xmlns="http://www.w3.org/2000/svg">
<path d="M0 0.0839844H38.3241L33.0904 9.11632H23.0451V38.999H13.4219V9.11632H0V0.0839844Z" fill="#221F73"/>
<path d="M91.3358 9.03234C90.2384 9.03234 89.4787 9.70764 89.4787 10.805V28.11C89.4787 29.2918 90.2384 29.8827 91.3358 29.8827H111.173V38.915H91.3358C84.4138 38.915 79.8555 34.6943 79.8555 28.11V10.8894C79.8555 4.30513 84.3294 0 91.3358 0H113.537L108.303 9.03234H91.3358Z" fill="#221F73"/>
<path d="M62.6354 0.0839844H44.6551L39.4215 9.11632H62.551C63.7328 9.11632 64.3237 9.79164 64.3237 10.889V15.0253H49.3823C42.4604 15.0253 37.3955 20.0902 37.3955 27.0122C37.3955 33.9341 42.4604 38.999 49.3823 38.999H73.9469V10.889C74.0313 4.38912 69.4729 0.0839844 62.6354 0.0839844ZM64.4081 30.2199H50.5641C48.6226 30.2199 47.1876 28.7849 47.1876 26.7589C47.1876 24.733 48.6226 23.2979 50.5641 23.2979H64.4081V30.2199Z" fill="#221F73"/>
<path d="M126.875 9.03234C125.777 9.03234 125.018 9.70764 125.018 10.805V28.11C125.018 29.2918 125.777 29.8827 126.875 29.8827H146.712V38.915H126.875C119.953 38.915 115.395 34.6943 115.395 28.11V10.8894C115.395 4.30513 119.868 0 126.875 0H149.076L143.842 9.03234H126.875Z" fill="#221F73"/>
</svg>
