<svg width="143" height="140" viewBox="0 0 143 140" fill="none" xmlns="http://www.w3.org/2000/svg">
<circle cx="72" cy="63" r="56" fill="#F91B6B"/>
<path d="M128 63C128 71.943 125.858 80.7559 121.754 88.7014C117.649 96.6468 111.702 103.494 104.409 108.669C97.1154 113.845 88.6887 117.198 79.8337 118.449C70.9787 119.7 61.9528 118.812 53.5113 115.86C45.0698 112.907 37.4582 107.976 31.3133 101.478C25.1685 94.981 20.6691 87.1063 18.1917 78.5134C15.7143 69.9204 15.3308 60.8591 17.0735 52.0875C18.8162 43.316 22.6343 35.0894 28.2083 28.096L72 63H128Z" fill="#1B81F9"/>
<path d="M75.3531 34.092C76.0251 34.18 76.5771 34.44 77.0091 34.872C77.4491 35.296 77.6691 35.86 77.6691 36.564C77.6691 37.364 77.3931 37.996 76.8411 38.46C76.2971 38.916 75.6331 39.144 74.8491 39.144C74.2251 39.144 73.6691 39 73.1811 38.712C72.6931 38.424 72.3491 38.012 72.1491 37.476L72.8451 37.068C72.9811 37.484 73.2251 37.8 73.5771 38.016C73.9291 38.224 74.3531 38.328 74.8491 38.328C75.4251 38.328 75.8971 38.176 76.2651 37.872C76.6411 37.56 76.8291 37.124 76.8291 36.564C76.8291 36.004 76.6411 35.572 76.2651 35.268C75.8971 34.956 75.4251 34.8 74.8491 34.8V34.788L74.8371 34.8H74.6091L74.2491 34.248L76.3371 31.392H72.3891V30.6H77.3091V31.392L75.3531 34.092ZM82.8563 34.668C83.2803 34.868 83.6163 35.148 83.8643 35.508C84.1203 35.86 84.2483 36.264 84.2483 36.72C84.2483 37.48 83.9803 38.076 83.4443 38.508C82.9083 38.932 82.2403 39.144 81.4403 39.144C80.6403 39.144 79.9723 38.932 79.4363 38.508C78.9003 38.076 78.6323 37.48 78.6323 36.72C78.6323 36.264 78.7563 35.86 79.0043 35.508C79.2603 35.148 79.6003 34.868 80.0243 34.668C79.2803 34.244 78.9083 33.616 78.9083 32.784C78.9083 32.032 79.1563 31.456 79.6523 31.056C80.1563 30.656 80.7523 30.456 81.4403 30.456C82.1283 30.456 82.7203 30.656 83.2163 31.056C83.7203 31.456 83.9723 32.032 83.9723 32.784C83.9723 33.616 83.6003 34.244 82.8563 34.668ZM82.6403 31.644C82.3203 31.396 81.9203 31.272 81.4403 31.272C80.9603 31.272 80.5563 31.396 80.2283 31.644C79.9083 31.892 79.7483 32.272 79.7483 32.784C79.7483 33.264 79.9123 33.636 80.2403 33.9C80.5763 34.164 80.9763 34.296 81.4403 34.296C81.9043 34.296 82.3003 34.164 82.6283 33.9C82.9643 33.636 83.1323 33.264 83.1323 32.784C83.1323 32.272 82.9683 31.892 82.6403 31.644ZM80.0123 37.92C80.3723 38.192 80.8483 38.328 81.4403 38.328C82.0323 38.328 82.5083 38.192 82.8683 37.92C83.2283 37.64 83.4083 37.24 83.4083 36.72C83.4083 36.2 83.2283 35.804 82.8683 35.532C82.5083 35.252 82.0323 35.112 81.4403 35.112C80.8483 35.112 80.3723 35.252 80.0123 35.532C79.6523 35.804 79.4723 36.2 79.4723 36.72C79.4723 37.24 79.6523 37.64 80.0123 37.92ZM87.0482 34.056C86.5282 34.056 86.0922 33.884 85.7402 33.54C85.3882 33.188 85.2122 32.76 85.2122 32.256C85.2122 31.752 85.3882 31.328 85.7402 30.984C86.0922 30.632 86.5282 30.456 87.0482 30.456C87.5682 30.456 88.0042 30.632 88.3562 30.984C88.7082 31.328 88.8842 31.752 88.8842 32.256C88.8842 32.76 88.7122 33.188 88.3682 33.54C88.0242 33.884 87.5842 34.056 87.0482 34.056ZM86.2802 33.024C86.4802 33.232 86.7362 33.336 87.0482 33.336C87.3602 33.336 87.6162 33.232 87.8162 33.024C88.0162 32.816 88.1162 32.56 88.1162 32.256C88.1162 31.952 88.0162 31.696 87.8162 31.488C87.6162 31.28 87.3602 31.176 87.0482 31.176C86.7362 31.176 86.4802 31.28 86.2802 31.488C86.0802 31.696 85.9802 31.952 85.9802 32.256C85.9802 32.56 86.0802 32.816 86.2802 33.024ZM85.6322 37.86L91.2602 31.536L91.7762 31.824L86.1362 38.148L85.6322 37.86ZM91.7522 38.628C91.4002 38.972 90.9642 39.144 90.4442 39.144C89.9242 39.144 89.4882 38.972 89.1362 38.628C88.7842 38.276 88.6082 37.848 88.6082 37.344C88.6082 36.84 88.7842 36.416 89.1362 36.072C89.4882 35.72 89.9242 35.544 90.4442 35.544C90.9642 35.544 91.4002 35.72 91.7522 36.072C92.1042 36.416 92.2802 36.84 92.2802 37.344C92.2802 37.848 92.1042 38.276 91.7522 38.628ZM89.6762 38.112C89.8762 38.32 90.1322 38.424 90.4442 38.424C90.7562 38.424 91.0122 38.32 91.2122 38.112C91.4122 37.904 91.5122 37.648 91.5122 37.344C91.5122 37.04 91.4122 36.784 91.2122 36.576C91.0122 36.368 90.7562 36.264 90.4442 36.264C90.1322 36.264 89.8762 36.368 89.6762 36.576C89.4762 36.784 89.3762 37.04 89.3762 37.344C89.3762 37.648 89.4762 37.904 89.6762 38.112Z" fill="white"/>
<path d="M56.2972 88.6C57.1212 88.6 57.7972 88.86 58.3252 89.38C58.8532 89.892 59.1172 90.556 59.1172 91.372C59.1172 92.188 58.8532 92.856 58.3252 93.376C57.7972 93.888 57.1212 94.144 56.2972 94.144C55.4732 94.144 54.7972 93.888 54.2692 93.376C53.7412 92.856 53.4772 92.188 53.4772 91.372C53.4772 90.74 53.6492 90.18 53.9932 89.692L56.7412 85.6H57.6892L55.6252 88.672C55.8412 88.624 56.0652 88.6 56.2972 88.6ZM54.8572 92.788C55.2252 93.148 55.7052 93.328 56.2972 93.328C56.8892 93.328 57.3652 93.148 57.7252 92.788C58.0932 92.428 58.2772 91.956 58.2772 91.372C58.2772 90.788 58.0932 90.316 57.7252 89.956C57.3652 89.596 56.8892 89.416 56.2972 89.416C55.7052 89.416 55.2252 89.596 54.8572 89.956C54.4972 90.316 54.3172 90.788 54.3172 91.372C54.3172 91.956 54.4972 92.428 54.8572 92.788ZM59.7847 94V93.244L62.8087 90.196C63.6727 89.332 64.1047 88.592 64.1047 87.976C64.1047 87.44 63.9367 87.024 63.6007 86.728C63.2727 86.424 62.8767 86.272 62.4127 86.272C61.5487 86.272 60.9207 86.668 60.5287 87.46L59.8207 87.04C60.0847 86.52 60.4447 86.128 60.9007 85.864C61.3567 85.592 61.8607 85.456 62.4127 85.456C63.0847 85.456 63.6727 85.684 64.1767 86.14C64.6887 86.588 64.9447 87.2 64.9447 87.976C64.9447 88.464 64.8087 88.932 64.5367 89.38C64.2647 89.828 63.8807 90.3 63.3847 90.796L60.9847 93.184H65.1247V94H59.7847ZM68.0482 89.056C67.5282 89.056 67.0922 88.884 66.7402 88.54C66.3882 88.188 66.2122 87.76 66.2122 87.256C66.2122 86.752 66.3882 86.328 66.7402 85.984C67.0922 85.632 67.5282 85.456 68.0482 85.456C68.5682 85.456 69.0042 85.632 69.3562 85.984C69.7082 86.328 69.8842 86.752 69.8842 87.256C69.8842 87.76 69.7122 88.188 69.3682 88.54C69.0242 88.884 68.5842 89.056 68.0482 89.056ZM67.2802 88.024C67.4802 88.232 67.7362 88.336 68.0482 88.336C68.3602 88.336 68.6162 88.232 68.8162 88.024C69.0162 87.816 69.1162 87.56 69.1162 87.256C69.1162 86.952 69.0162 86.696 68.8162 86.488C68.6162 86.28 68.3602 86.176 68.0482 86.176C67.7362 86.176 67.4802 86.28 67.2802 86.488C67.0802 86.696 66.9802 86.952 66.9802 87.256C66.9802 87.56 67.0802 87.816 67.2802 88.024ZM66.6322 92.86L72.2602 86.536L72.7762 86.824L67.1362 93.148L66.6322 92.86ZM72.7522 93.628C72.4002 93.972 71.9642 94.144 71.4442 94.144C70.9242 94.144 70.4882 93.972 70.1362 93.628C69.7842 93.276 69.6082 92.848 69.6082 92.344C69.6082 91.84 69.7842 91.416 70.1362 91.072C70.4882 90.72 70.9242 90.544 71.4442 90.544C71.9642 90.544 72.4002 90.72 72.7522 91.072C73.1042 91.416 73.2802 91.84 73.2802 92.344C73.2802 92.848 73.1042 93.276 72.7522 93.628ZM70.6762 93.112C70.8762 93.32 71.1322 93.424 71.4442 93.424C71.7562 93.424 72.0122 93.32 72.2122 93.112C72.4122 92.904 72.5122 92.648 72.5122 92.344C72.5122 92.04 72.4122 91.784 72.2122 91.576C72.0122 91.368 71.7562 91.264 71.4442 91.264C71.1322 91.264 70.8762 91.368 70.6762 91.576C70.4762 91.784 70.3762 92.04 70.3762 92.344C70.3762 92.648 70.4762 92.904 70.6762 93.112Z" fill="white"/>
<path d="M21.808 129H22.72V135H21.928V130.212L19.828 133.62H19.732L17.632 130.212V135H16.84V129H17.752L19.78 132.288L21.808 129ZM26.7746 134.028L28.7186 129H29.5586L26.9906 135.552C26.7506 136.16 26.4146 136.628 25.9826 136.956C25.5586 137.292 25.0866 137.44 24.5666 137.4V136.656C25.2866 136.744 25.8346 136.328 26.2106 135.408L26.3666 135.036L23.6786 129H24.5186L26.7746 134.028ZM34.7186 131.88L37.4066 135H36.4466L33.9986 132.108V135H33.2066V132.108L30.7586 135H29.7986L32.4866 131.88L29.9186 129H30.8786L33.2066 131.664V129H33.9986V131.664L36.3266 129H37.2866L34.7186 131.88ZM42.1382 131.988V129H42.9302V135H42.1382V132.72C41.6742 132.96 41.1022 133.08 40.4222 133.08C39.6302 133.08 39.0302 132.9 38.6222 132.54C38.2142 132.172 38.0102 131.632 38.0102 130.92V129H38.8022V130.92C38.8022 131.416 38.9302 131.776 39.1862 132C39.4502 132.224 39.8542 132.336 40.3982 132.336C41.0062 132.336 41.5862 132.22 42.1382 131.988ZM45.4054 133.62L48.9814 129H49.6534V135H48.8614V130.38L45.2854 135H44.6134V129H45.4054V133.62ZM55.5763 131.616V129H56.3683V135H55.5763V132.384H52.1203V135H51.3283V129H52.1203V131.616H55.5763ZM58.8351 131.28H60.4791C61.0311 131.28 61.5031 131.456 61.8951 131.808C62.2871 132.152 62.4831 132.596 62.4831 133.14C62.4831 133.692 62.2871 134.14 61.8951 134.484C61.5191 134.828 61.0471 135 60.4791 135H58.0431V129H58.8351V131.28ZM63.3231 135V129H64.1151V135H63.3231ZM58.8351 134.232H60.4791C60.8231 134.232 61.1111 134.132 61.3431 133.932C61.5751 133.724 61.6911 133.46 61.6911 133.14C61.6911 132.82 61.5751 132.56 61.3431 132.36C61.1111 132.152 60.8231 132.048 60.4791 132.048H58.8351V134.232Z" fill="black"/>
<path d="M96.16 131.88L98.848 135H97.888L95.44 132.108V135H94.648V132.108L92.2 135H91.24L93.928 131.88L91.36 129H92.32L94.648 131.664V129H95.44V131.664L97.768 129H98.728L96.16 131.88ZM102.217 128.856C103.113 128.856 103.829 129.172 104.365 129.804C104.917 130.428 105.193 131.168 105.193 132.024C105.193 132.064 105.185 132.188 105.169 132.396H99.9015C99.9815 132.996 100.237 133.476 100.669 133.836C101.101 134.196 101.641 134.376 102.289 134.376C103.201 134.376 103.845 134.036 104.221 133.356L104.917 133.764C104.653 134.196 104.289 134.536 103.825 134.784C103.369 135.024 102.853 135.144 102.277 135.144C101.333 135.144 100.565 134.848 99.9735 134.256C99.3815 133.664 99.0855 132.912 99.0855 132C99.0855 131.096 99.3775 130.348 99.9615 129.756C100.545 129.156 101.297 128.856 102.217 128.856ZM102.217 129.624C101.593 129.624 101.069 129.808 100.645 130.176C100.229 130.544 99.9815 131.028 99.9015 131.628H104.377C104.289 130.988 104.045 130.496 103.645 130.152C103.229 129.8 102.753 129.624 102.217 129.624ZM110.701 131.616V129H111.493V135H110.701V132.384H107.245V135H106.453V129H107.245V131.616H110.701ZM121.208 129V134.232H122.048V136.608H121.256V135H113.168V129H113.96V134.232H116.792V129H117.584V134.232H120.416V129H121.208ZM124.038 133.62L127.614 129H128.286V135H127.494V130.38L123.918 135H123.246V129H124.038V133.62ZM134.209 131.616V129H135.001V135H134.209V132.384H130.753V135H129.961V129H130.753V131.616H134.209ZM137.468 131.28H139.112C139.664 131.28 140.136 131.456 140.528 131.808C140.92 132.152 141.116 132.596 141.116 133.14C141.116 133.692 140.92 134.14 140.528 134.484C140.152 134.828 139.68 135 139.112 135H136.676V129H137.468V131.28ZM141.956 135V129H142.748V135H141.956ZM137.468 134.232H139.112C139.456 134.232 139.744 134.132 139.976 133.932C140.208 133.724 140.324 133.46 140.324 133.14C140.324 132.82 140.208 132.56 139.976 132.36C139.744 132.152 139.456 132.048 139.112 132.048H137.468V134.232Z" fill="black"/>
<rect x="2" y="127" width="10" height="10" rx="5" fill="#1B81F9"/>
<rect x="77" y="127" width="10" height="10" rx="5" fill="#F91B6B"/>
</svg>
