<svg width="189" height="147" viewBox="0 0 189 147" fill="none" xmlns="http://www.w3.org/2000/svg">
<path d="M37.0891 7.6182H39.3691C40.0571 7.6182 40.6491 7.8662 41.1451 8.3622C41.6411 8.8582 41.8891 9.4502 41.8891 10.1382C41.8891 10.8342 41.6411 11.4302 41.1451 11.9262C40.6571 12.4142 40.0651 12.6582 39.3691 12.6582H36.2491V4.2582H41.1691V5.0502H37.0891V7.6182ZM37.0891 11.8662H39.3691C39.8331 11.8662 40.2291 11.6982 40.5571 11.3622C40.8851 11.0182 41.0491 10.6102 41.0491 10.1382C41.0491 9.6742 40.8851 9.2702 40.5571 8.9262C40.2371 8.5822 39.8411 8.4102 39.3691 8.4102H37.0891V11.8662ZM43.9406 11.2782L47.5166 6.6582H48.1886V12.6582H47.3966V8.0382L43.8206 12.6582H43.1486V6.6582H43.9406V11.2782ZM52.9594 9.5742C53.6554 9.8382 54.0034 10.3182 54.0034 11.0142C54.0034 11.5182 53.8074 11.9422 53.4154 12.2862C53.0394 12.6302 52.4874 12.8022 51.7594 12.8022C50.5434 12.8022 49.7514 12.3222 49.3834 11.3622L50.0554 10.9662C50.3114 11.6782 50.8794 12.0342 51.7594 12.0342C52.2154 12.0342 52.5714 11.9382 52.8274 11.7462C53.0834 11.5462 53.2114 11.2862 53.2114 10.9662C53.2114 10.6782 53.1074 10.4502 52.8994 10.2822C52.6914 10.1062 52.4114 10.0182 52.0594 10.0182H51.1834V9.2502H51.8194C52.1634 9.2502 52.4314 9.1662 52.6234 8.9982C52.8234 8.8222 52.9234 8.5822 52.9234 8.2782C52.9234 7.9902 52.8034 7.7542 52.5634 7.5702C52.3314 7.3782 52.0234 7.2822 51.6394 7.2822C50.8954 7.2822 50.3954 7.5822 50.1394 8.1822L49.4794 7.7982C49.8794 6.9422 50.5994 6.5142 51.6394 6.5142C52.2794 6.5142 52.7834 6.6822 53.1514 7.0182C53.5274 7.3462 53.7154 7.7502 53.7154 8.2302C53.7154 8.8462 53.4634 9.2942 52.9594 9.5742ZM59.4552 9.2742V6.6582H60.2472V12.6582H59.4552V10.0422H55.9992V12.6582H55.2072V6.6582H55.9992V9.2742H59.4552ZM64.694 6.5142C65.59 6.5142 66.306 6.8302 66.842 7.4622C67.394 8.0862 67.67 8.8262 67.67 9.6822C67.67 9.7222 67.662 9.8462 67.646 10.0542H62.378C62.458 10.6542 62.714 11.1342 63.146 11.4942C63.578 11.8542 64.118 12.0342 64.766 12.0342C65.678 12.0342 66.322 11.6942 66.698 11.0142L67.394 11.4222C67.13 11.8542 66.766 12.1942 66.302 12.4422C65.846 12.6822 65.33 12.8022 64.754 12.8022C63.81 12.8022 63.042 12.5062 62.45 11.9142C61.858 11.3222 61.562 10.5702 61.562 9.6582C61.562 8.7542 61.854 8.0062 62.438 7.4142C63.022 6.8142 63.774 6.5142 64.694 6.5142ZM64.694 7.2822C64.07 7.2822 63.546 7.4662 63.122 7.8342C62.706 8.2022 62.458 8.6862 62.378 9.2862H66.854C66.766 8.6462 66.522 8.1542 66.122 7.8102C65.706 7.4582 65.23 7.2822 64.694 7.2822ZM71.7258 12.8022C70.8218 12.8022 70.0698 12.5022 69.4698 11.9022C68.8698 11.2862 68.5698 10.5382 68.5698 9.6582C68.5698 8.7702 68.8698 8.0262 69.4698 7.4262C70.0698 6.8182 70.8218 6.5142 71.7258 6.5142C72.3178 6.5142 72.8498 6.6582 73.3218 6.9462C73.7938 7.2262 74.1378 7.6062 74.3538 8.0862L73.7058 8.4582C73.5458 8.0982 73.2858 7.8142 72.9258 7.6062C72.5738 7.3902 72.1738 7.2822 71.7258 7.2822C71.0618 7.2822 70.5018 7.5142 70.0458 7.9782C69.5898 8.4342 69.3618 8.9942 69.3618 9.6582C69.3618 10.3142 69.5898 10.8782 70.0458 11.3502C70.5018 11.8062 71.0618 12.0342 71.7258 12.0342C72.1658 12.0342 72.5618 11.9302 72.9138 11.7222C73.2738 11.5142 73.5538 11.2262 73.7538 10.8582L74.4138 11.2422C74.1658 11.7222 73.8018 12.1022 73.3218 12.3822C72.8418 12.6622 72.3098 12.8022 71.7258 12.8022Z" fill="black"/>
<path d="M166.313 5.392L164.357 8.092C165.021 8.172 165.573 8.432 166.013 8.872C166.453 9.288 166.673 9.852 166.673 10.564C166.673 11.356 166.397 11.988 165.845 12.46C165.309 12.916 164.645 13.144 163.853 13.144C163.221 13.144 162.661 13 162.173 12.712C161.685 12.416 161.345 12.004 161.153 11.476L161.849 11.068C161.985 11.476 162.225 11.788 162.569 12.004C162.921 12.22 163.349 12.328 163.853 12.328C164.445 12.328 164.921 12.172 165.281 11.86C165.649 11.54 165.833 11.108 165.833 10.564C165.833 10.02 165.649 9.592 165.281 9.28C164.921 8.96 164.445 8.8 163.853 8.8V8.788L163.841 8.8H163.613L163.253 8.248L165.341 5.392H161.393V4.6H166.313V5.392ZM172.922 7.228C172.922 7.86 172.75 8.42 172.406 8.908L169.658 13H168.71L170.774 9.928C170.558 9.976 170.334 10 170.102 10C169.27 10 168.594 9.744 168.074 9.232C167.546 8.72 167.282 8.052 167.282 7.228C167.282 6.42 167.546 5.756 168.074 5.236C168.61 4.716 169.286 4.456 170.102 4.456C170.918 4.456 171.594 4.716 172.13 5.236C172.658 5.756 172.922 6.42 172.922 7.228ZM168.662 5.812C168.302 6.172 168.122 6.644 168.122 7.228C168.122 7.812 168.302 8.284 168.662 8.644C169.038 9.004 169.518 9.184 170.102 9.184C170.694 9.184 171.17 9.004 171.53 8.644C171.898 8.284 172.082 7.812 172.082 7.228C172.082 6.644 171.898 6.172 171.53 5.812C171.17 5.452 170.694 5.272 170.102 5.272C169.518 5.272 169.038 5.452 168.662 5.812ZM172.809 11.98H173.769L173.049 14.68H172.329L172.809 11.98ZM180.012 5.392L178.056 8.092C178.72 8.172 179.272 8.432 179.712 8.872C180.152 9.288 180.372 9.852 180.372 10.564C180.372 11.356 180.096 11.988 179.544 12.46C179.008 12.916 178.344 13.144 177.552 13.144C176.92 13.144 176.36 13 175.872 12.712C175.384 12.416 175.044 12.004 174.852 11.476L175.548 11.068C175.684 11.476 175.924 11.788 176.268 12.004C176.62 12.22 177.048 12.328 177.552 12.328C178.144 12.328 178.62 12.172 178.98 11.86C179.348 11.54 179.532 11.108 179.532 10.564C179.532 10.02 179.348 9.592 178.98 9.28C178.62 8.96 178.144 8.8 177.552 8.8V8.788L177.54 8.8H177.312L176.952 8.248L179.04 5.392H175.092V4.6H180.012V5.392ZM183.048 8.056C182.52 8.056 182.084 7.884 181.74 7.54C181.388 7.188 181.212 6.76 181.212 6.256C181.212 5.76 181.388 5.336 181.74 4.984C182.092 4.632 182.528 4.456 183.048 4.456C183.568 4.456 184.004 4.632 184.356 4.984C184.708 5.336 184.884 5.76 184.884 6.256C184.884 6.768 184.712 7.196 184.368 7.54C184.024 7.884 183.584 8.056 183.048 8.056ZM181.98 6.256C181.98 6.56 182.08 6.816 182.28 7.024C182.48 7.232 182.736 7.336 183.048 7.336C183.36 7.336 183.616 7.232 183.816 7.024C184.016 6.816 184.116 6.56 184.116 6.256C184.116 5.952 184.016 5.696 183.816 5.488C183.616 5.28 183.36 5.176 183.048 5.176C182.736 5.176 182.48 5.28 182.28 5.488C182.08 5.696 181.98 5.952 181.98 6.256ZM182.136 12.148L181.632 11.86L187.26 5.536L187.776 5.824L182.136 12.148ZM187.752 12.628C187.408 12.972 186.972 13.144 186.444 13.144C185.916 13.144 185.48 12.972 185.136 12.628C184.784 12.276 184.608 11.848 184.608 11.344C184.608 10.848 184.784 10.424 185.136 10.072C185.488 9.72 185.924 9.544 186.444 9.544C186.964 9.544 187.4 9.72 187.752 10.072C188.104 10.424 188.28 10.848 188.28 11.344C188.28 11.848 188.104 12.276 187.752 12.628ZM185.376 11.344C185.376 11.648 185.476 11.904 185.676 12.112C185.876 12.32 186.132 12.424 186.444 12.424C186.756 12.424 187.012 12.32 187.212 12.112C187.412 11.904 187.512 11.648 187.512 11.344C187.512 11.04 187.412 10.784 187.212 10.576C187.012 10.368 186.756 10.264 186.444 10.264C186.132 10.264 185.876 10.368 185.676 10.576C185.476 10.784 185.376 11.04 185.376 11.344Z" fill="#9D9D9D"/>
<path d="M41.6491 46.1543V39.3143L36.9691 46.1543H36.2491V37.7543H37.0891V44.5943L41.7691 37.7543H42.4891V46.1543H41.6491ZM48.5333 40.1543H49.3253V46.1543H48.5333V43.5383H45.0773V46.1543H44.2853V40.1543H45.0773V42.7703H48.5333V40.1543ZM54.8162 43.0703C55.4722 43.3103 55.8002 43.7783 55.8002 44.4743C55.8002 44.9623 55.6362 45.3663 55.3082 45.6863C54.9882 45.9983 54.5242 46.1543 53.9162 46.1543H51.0002V40.1543H53.6762C54.2602 40.1543 54.7122 40.3063 55.0322 40.6103C55.3522 40.9063 55.5122 41.2903 55.5122 41.7623C55.5122 42.3623 55.2802 42.7983 54.8162 43.0703ZM53.6762 40.9223H51.7922V42.7463H53.6762C54.3722 42.7463 54.7202 42.4343 54.7202 41.8103C54.7202 41.5303 54.6282 41.3143 54.4442 41.1623C54.2682 41.0023 54.0122 40.9223 53.6762 40.9223ZM53.9162 45.3863C54.2682 45.3863 54.5362 45.3023 54.7202 45.1343C54.9122 44.9663 55.0082 44.7303 55.0082 44.4263C55.0082 44.1463 54.9122 43.9263 54.7202 43.7663C54.5362 43.5983 54.2682 43.5143 53.9162 43.5143H51.7922V45.3863H53.9162ZM59.7722 40.0103C60.6602 40.0103 61.3762 40.3263 61.9202 40.9583C62.4722 41.5823 62.7482 42.3223 62.7482 43.1783C62.7482 43.2663 62.7402 43.3903 62.7242 43.5503H57.4562C57.5362 44.1583 57.7922 44.6423 58.2242 45.0023C58.6642 45.3543 59.2042 45.5303 59.8442 45.5303C60.3002 45.5303 60.6922 45.4383 61.0202 45.2543C61.3562 45.0623 61.6082 44.8143 61.7762 44.5103L62.4722 44.9183C62.2082 45.3423 61.8482 45.6783 61.3922 45.9263C60.9362 46.1743 60.4162 46.2983 59.8322 46.2983C58.8882 46.2983 58.1202 46.0023 57.5282 45.4103C56.9362 44.8183 56.6402 44.0663 56.6402 43.1543C56.6402 42.2583 56.9322 41.5103 57.5162 40.9103C58.1002 40.3103 58.8522 40.0103 59.7722 40.0103ZM59.7722 40.7783C59.1482 40.7783 58.6242 40.9663 58.2002 41.3423C57.7842 41.7103 57.5362 42.1903 57.4562 42.7823H61.9322C61.8522 42.1503 61.6082 41.6583 61.2002 41.3063C60.7922 40.9543 60.3162 40.7783 59.7722 40.7783ZM66.804 46.2983C65.9 46.2983 65.148 45.9983 64.548 45.3983C63.948 44.7903 63.648 44.0423 63.648 43.1543C63.648 42.2663 63.948 41.5223 64.548 40.9223C65.148 40.3143 65.9 40.0103 66.804 40.0103C67.396 40.0103 67.928 40.1543 68.4 40.4423C68.872 40.7223 69.216 41.1023 69.432 41.5823L68.784 41.9543C68.624 41.5943 68.364 41.3103 68.004 41.1023C67.652 40.8863 67.252 40.7783 66.804 40.7783C66.14 40.7783 65.58 41.0103 65.124 41.4743C64.668 41.9303 64.44 42.4903 64.44 43.1543C64.44 43.8183 64.668 44.3823 65.124 44.8463C65.58 45.3023 66.14 45.5303 66.804 45.5303C67.252 45.5303 67.652 45.4263 68.004 45.2183C68.356 45.0023 68.632 44.7143 68.832 44.3543L69.492 44.7383C69.244 45.2183 68.88 45.5983 68.4 45.8783C67.92 46.1583 67.388 46.2983 66.804 46.2983ZM74.8319 40.1543V40.9223H72.7079V46.1543H71.9159V40.9223H69.7919V40.1543H74.8319ZM80.165 40.1543H80.837V46.1543H80.045V41.5343L76.469 46.1543H75.797V40.1543H76.589V44.7743L80.165 40.1543ZM87.4319 45.3863H88.3919V47.7623H87.5999V46.1543H82.5119V40.1543H83.3039V45.3863H86.6399V40.1543H87.4319V45.3863ZM93.958 40.1543H94.63V46.1543H93.838V41.5343L90.262 46.1543H89.59V40.1543H90.382V44.7743L93.958 40.1543ZM100.673 40.1543H101.345V46.1543H100.553V41.5343L96.9768 46.1543H96.3048V40.1543H97.0968V44.7743L100.673 40.1543Z" fill="black"/>
<path d="M160.966 46.1543V45.3983L163.99 42.3503C164.854 41.4863 165.286 40.7463 165.286 40.1303C165.286 39.5943 165.118 39.1783 164.782 38.8823C164.454 38.5783 164.058 38.4263 163.594 38.4263C162.73 38.4263 162.102 38.8223 161.71 39.6143L161.002 39.1943C161.266 38.6743 161.626 38.2823 162.082 38.0183C162.538 37.7463 163.042 37.6103 163.594 37.6103C164.266 37.6103 164.854 37.8383 165.358 38.2943C165.87 38.7423 166.126 39.3543 166.126 40.1303C166.126 40.6183 165.99 41.0863 165.718 41.5343C165.446 41.9823 165.062 42.4543 164.566 42.9503L162.166 45.3383H166.306V46.1543H160.966ZM167.27 46.1543V45.3983L170.294 42.3503C171.158 41.4863 171.59 40.7463 171.59 40.1303C171.59 39.5943 171.422 39.1783 171.086 38.8823C170.758 38.5783 170.362 38.4263 169.898 38.4263C169.034 38.4263 168.406 38.8223 168.014 39.6143L167.306 39.1943C167.57 38.6743 167.93 38.2823 168.386 38.0183C168.842 37.7463 169.346 37.6103 169.898 37.6103C170.57 37.6103 171.158 37.8383 171.662 38.2943C172.174 38.7423 172.43 39.3543 172.43 40.1303C172.43 40.6183 172.294 41.0863 172.022 41.5343C171.75 41.9823 171.366 42.4543 170.87 42.9503L168.47 45.3383H172.61V46.1543H167.27ZM175.255 45.1343L174.535 47.8343H173.815L174.295 45.1343H175.255ZM178.378 37.7543H179.098V46.1543H178.258V38.6783L176.374 39.2423L176.158 38.5223L178.378 37.7543ZM182.612 41.2103C182.092 41.2103 181.656 41.0383 181.304 40.6943C180.952 40.3423 180.776 39.9143 180.776 39.4103C180.776 38.9063 180.952 38.4823 181.304 38.1383C181.656 37.7863 182.092 37.6103 182.612 37.6103C183.132 37.6103 183.568 37.7863 183.92 38.1383C184.272 38.4823 184.448 38.9063 184.448 39.4103C184.448 39.9143 184.276 40.3423 183.932 40.6943C183.588 41.0383 183.148 41.2103 182.612 41.2103ZM181.844 40.1783C182.044 40.3863 182.3 40.4903 182.612 40.4903C182.924 40.4903 183.18 40.3863 183.38 40.1783C183.58 39.9703 183.68 39.7143 183.68 39.4103C183.68 39.1063 183.58 38.8503 183.38 38.6423C183.18 38.4343 182.924 38.3303 182.612 38.3303C182.3 38.3303 182.044 38.4343 181.844 38.6423C181.644 38.8503 181.544 39.1063 181.544 39.4103C181.544 39.7143 181.644 39.9703 181.844 40.1783ZM181.196 45.0143L186.824 38.6903L187.34 38.9783L181.7 45.3023L181.196 45.0143ZM187.316 45.7823C186.964 46.1263 186.528 46.2983 186.008 46.2983C185.488 46.2983 185.052 46.1263 184.7 45.7823C184.348 45.4303 184.172 45.0023 184.172 44.4983C184.172 43.9943 184.348 43.5703 184.7 43.2263C185.052 42.8743 185.488 42.6983 186.008 42.6983C186.528 42.6983 186.964 42.8743 187.316 43.2263C187.668 43.5703 187.844 43.9943 187.844 44.4983C187.844 45.0023 187.668 45.4303 187.316 45.7823ZM185.24 45.2663C185.44 45.4743 185.696 45.5783 186.008 45.5783C186.32 45.5783 186.576 45.4743 186.776 45.2663C186.976 45.0583 187.076 44.8023 187.076 44.4983C187.076 44.1943 186.976 43.9383 186.776 43.7303C186.576 43.5223 186.32 43.4183 186.008 43.4183C185.696 43.4183 185.44 43.5223 185.24 43.7303C185.04 43.9383 184.94 44.1943 184.94 44.4983C184.94 44.8023 185.04 45.0583 185.24 45.2663Z" fill="#9D9D9D"/>
<path d="M37.9771 73.3284L42.1291 77.6484H41.0251L37.0891 73.5804V77.6484H36.2491V69.2484H37.0891V73.0884L40.9051 69.2484H42.0091L37.9771 73.3284ZM47.7109 72.8244V71.6484H48.5029V77.6484H47.7109V76.4724C47.1589 77.3524 46.3509 77.7924 45.2869 77.7924C44.4309 77.7924 43.6989 77.4884 43.0909 76.8804C42.4909 76.2724 42.1909 75.5284 42.1909 74.6484C42.1909 73.7684 42.4909 73.0244 43.0909 72.4164C43.6989 71.8084 44.4309 71.5044 45.2869 71.5044C46.3509 71.5044 47.1589 71.9444 47.7109 72.8244ZM43.6669 76.3404C44.1229 76.7964 44.6829 77.0244 45.3469 77.0244C46.0109 77.0244 46.5709 76.7964 47.0269 76.3404C47.4829 75.8684 47.7109 75.3044 47.7109 74.6484C47.7109 73.9844 47.4829 73.4244 47.0269 72.9684C46.5709 72.5044 46.0109 72.2724 45.3469 72.2724C44.6829 72.2724 44.1229 72.5044 43.6669 72.9684C43.2109 73.4244 42.9829 73.9844 42.9829 74.6484C42.9829 75.3044 43.2109 75.8684 43.6669 76.3404ZM53.3958 71.5044C54.2518 71.5044 54.9798 71.8084 55.5798 72.4164C56.1878 73.0244 56.4918 73.7684 56.4918 74.6484C56.4918 75.5284 56.1878 76.2724 55.5798 76.8804C54.9798 77.4884 54.2518 77.7924 53.3958 77.7924C52.3318 77.7924 51.5238 77.3524 50.9718 76.4724V80.0484H50.1798V71.6484H50.9718V72.8244C51.5238 71.9444 52.3318 71.5044 53.3958 71.5044ZM51.6558 76.3404C52.1118 76.7964 52.6718 77.0244 53.3358 77.0244C53.9998 77.0244 54.5598 76.7964 55.0158 76.3404C55.4718 75.8684 55.6998 75.3044 55.6998 74.6484C55.6998 73.9844 55.4718 73.4244 55.0158 72.9684C54.5598 72.5044 53.9998 72.2724 53.3358 72.2724C52.6718 72.2724 52.1118 72.5044 51.6558 72.9684C51.1998 73.4244 50.9718 73.9844 50.9718 74.6484C50.9718 75.3044 51.1998 75.8684 51.6558 76.3404ZM58.6008 73.9284H60.2448C60.7968 73.9284 61.2688 74.1044 61.6608 74.4564C62.0528 74.8004 62.2488 75.2444 62.2488 75.7884C62.2488 76.3404 62.0528 76.7884 61.6608 77.1324C61.2848 77.4764 60.8128 77.6484 60.2448 77.6484H57.8088V71.6484H58.6008V73.9284ZM58.6008 76.8804H60.2448C60.5888 76.8804 60.8768 76.7804 61.1088 76.5804C61.3408 76.3724 61.4568 76.1084 61.4568 75.7884C61.4568 75.4684 61.3408 75.2084 61.1088 75.0084C60.8768 74.8004 60.5888 74.6964 60.2448 74.6964H58.6008V76.8804ZM66.1589 71.5044C67.0549 71.5044 67.7709 71.8204 68.3069 72.4524C68.8589 73.0764 69.1349 73.8164 69.1349 74.6724C69.1349 74.7124 69.1269 74.8364 69.1109 75.0444H63.8429C63.9229 75.6444 64.1789 76.1244 64.6109 76.4844C65.0429 76.8444 65.5829 77.0244 66.2309 77.0244C67.1429 77.0244 67.7869 76.6844 68.1629 76.0044L68.8589 76.4124C68.5949 76.8444 68.2309 77.1844 67.7669 77.4324C67.3109 77.6724 66.7949 77.7924 66.2189 77.7924C65.2749 77.7924 64.5069 77.4964 63.9149 76.9044C63.3229 76.3124 63.0269 75.5604 63.0269 74.6484C63.0269 73.7444 63.3189 72.9964 63.9029 72.4044C64.4869 71.8044 65.2389 71.5044 66.1589 71.5044ZM66.1589 72.2724C65.5349 72.2724 65.0109 72.4564 64.5869 72.8244C64.1709 73.1924 63.9229 73.6764 63.8429 74.2764H68.3189C68.2309 73.6364 67.9869 73.1444 67.5869 72.8004C67.1709 72.4484 66.6949 72.2724 66.1589 72.2724ZM73.6107 71.5044C74.4667 71.5044 75.1947 71.8084 75.7947 72.4164C76.4027 73.0244 76.7067 73.7684 76.7067 74.6484C76.7067 75.5284 76.4027 76.2724 75.7947 76.8804C75.1947 77.4884 74.4667 77.7924 73.6107 77.7924C72.5467 77.7924 71.7387 77.3524 71.1867 76.4724V80.0484H70.3947V71.6484H71.1867V72.8244C71.7387 71.9444 72.5467 71.5044 73.6107 71.5044ZM71.8707 76.3404C72.3267 76.7964 72.8867 77.0244 73.5507 77.0244C74.2147 77.0244 74.7747 76.7964 75.2307 76.3404C75.6867 75.8684 75.9147 75.3044 75.9147 74.6484C75.9147 73.9844 75.6867 73.4244 75.2307 72.9684C74.7747 72.5044 74.2147 72.2724 73.5507 72.2724C72.8867 72.2724 72.3267 72.5044 71.8707 72.9684C71.4147 73.4244 71.1867 73.9844 71.1867 74.6484C71.1867 75.3044 71.4147 75.8684 71.8707 76.3404ZM83.1836 72.8244V71.6484H83.9756V77.6484H83.1836V76.4724C82.6316 77.3524 81.8236 77.7924 80.7596 77.7924C79.9036 77.7924 79.1716 77.4884 78.5636 76.8804C77.9636 76.2724 77.6636 75.5284 77.6636 74.6484C77.6636 73.7684 77.9636 73.0244 78.5636 72.4164C79.1716 71.8084 79.9036 71.5044 80.7596 71.5044C81.8236 71.5044 82.6316 71.9444 83.1836 72.8244ZM79.1396 76.3404C79.5956 76.7964 80.1556 77.0244 80.8196 77.0244C81.4836 77.0244 82.0436 76.7964 82.4996 76.3404C82.9556 75.8684 83.1836 75.3044 83.1836 74.6484C83.1836 73.9844 82.9556 73.4244 82.4996 72.9684C82.0436 72.5044 81.4836 72.2724 80.8196 72.2724C80.1556 72.2724 79.5956 72.5044 79.1396 72.9684C78.6836 73.4244 78.4556 73.9844 78.4556 74.6484C78.4556 75.3044 78.6836 75.8684 79.1396 76.3404Z" fill="black"/>
<path d="M162.009 70.6H162.729V79H161.889V71.524L160.005 72.088L159.789 71.368L162.009 70.6ZM170.348 76.528V77.32H169.268V79H168.428V77.32H163.988V76.528L167.108 70.6H168.032L164.912 76.528H168.428V73.96H169.268V76.528H170.348ZM172.808 77.98L172.088 80.68H171.368L171.848 77.98H172.808ZM179.288 77.968C178.736 78.752 177.956 79.144 176.948 79.144C175.94 79.144 175.156 78.752 174.596 77.968C174.044 77.176 173.768 76.12 173.768 74.8C173.768 73.48 174.044 72.428 174.596 71.644C175.156 70.852 175.94 70.456 176.948 70.456C177.956 70.456 178.736 70.852 179.288 71.644C179.848 72.428 180.128 73.48 180.128 74.8C180.128 76.12 179.848 77.176 179.288 77.968ZM175.22 77.404C175.636 78.02 176.212 78.328 176.948 78.328C177.684 78.328 178.256 78.02 178.664 77.404C179.08 76.788 179.288 75.92 179.288 74.8C179.288 73.68 179.08 72.812 178.664 72.196C178.256 71.58 177.684 71.272 176.948 71.272C176.212 71.272 175.636 71.58 175.22 72.196C174.812 72.812 174.608 73.68 174.608 74.8C174.608 75.92 174.812 76.788 175.22 77.404ZM183.048 74.056C182.528 74.056 182.092 73.884 181.74 73.54C181.388 73.188 181.212 72.76 181.212 72.256C181.212 71.752 181.388 71.328 181.74 70.984C182.092 70.632 182.528 70.456 183.048 70.456C183.568 70.456 184.004 70.632 184.356 70.984C184.708 71.328 184.884 71.752 184.884 72.256C184.884 72.76 184.712 73.188 184.368 73.54C184.024 73.884 183.584 74.056 183.048 74.056ZM182.28 73.024C182.48 73.232 182.736 73.336 183.048 73.336C183.36 73.336 183.616 73.232 183.816 73.024C184.016 72.816 184.116 72.56 184.116 72.256C184.116 71.952 184.016 71.696 183.816 71.488C183.616 71.28 183.36 71.176 183.048 71.176C182.736 71.176 182.48 71.28 182.28 71.488C182.08 71.696 181.98 71.952 181.98 72.256C181.98 72.56 182.08 72.816 182.28 73.024ZM181.632 77.86L187.26 71.536L187.776 71.824L182.136 78.148L181.632 77.86ZM187.752 78.628C187.4 78.972 186.964 79.144 186.444 79.144C185.924 79.144 185.488 78.972 185.136 78.628C184.784 78.276 184.608 77.848 184.608 77.344C184.608 76.84 184.784 76.416 185.136 76.072C185.488 75.72 185.924 75.544 186.444 75.544C186.964 75.544 187.4 75.72 187.752 76.072C188.104 76.416 188.28 76.84 188.28 77.344C188.28 77.848 188.104 78.276 187.752 78.628ZM185.676 78.112C185.876 78.32 186.132 78.424 186.444 78.424C186.756 78.424 187.012 78.32 187.212 78.112C187.412 77.904 187.512 77.648 187.512 77.344C187.512 77.04 187.412 76.784 187.212 76.576C187.012 76.368 186.756 76.264 186.444 76.264C186.132 76.264 185.876 76.368 185.676 76.576C185.476 76.784 185.376 77.04 185.376 77.344C185.376 77.648 185.476 77.904 185.676 78.112Z" fill="#9D9D9D"/>
<path d="M41.6491 105.429V101.745H42.4891V110.145H41.6491V106.221H37.0891V110.145H36.2491V101.745H37.0891V105.429H41.6491ZM49.3133 109.389C48.6973 109.989 47.9533 110.289 47.0813 110.289C46.1933 110.289 45.4453 109.989 44.8373 109.389C44.2293 108.781 43.9253 108.033 43.9253 107.145C43.9253 106.257 44.2293 105.513 44.8373 104.913C45.4453 104.305 46.1933 104.001 47.0813 104.001C47.9613 104.001 48.7053 104.305 49.3133 104.913C49.9293 105.513 50.2373 106.257 50.2373 107.145C50.2373 108.025 49.9293 108.773 49.3133 109.389ZM45.4013 108.837C45.8573 109.293 46.4173 109.521 47.0813 109.521C47.7453 109.521 48.3053 109.293 48.7613 108.837C49.2173 108.365 49.4453 107.801 49.4453 107.145C49.4453 106.481 49.2173 105.921 48.7613 105.465C48.3053 105.001 47.7453 104.769 47.0813 104.769C46.4173 104.769 45.8573 105.001 45.4013 105.465C44.9453 105.921 44.7173 106.481 44.7173 107.145C44.7173 107.801 44.9453 108.365 45.4013 108.837ZM55.3787 107.061C56.0347 107.301 56.3627 107.769 56.3627 108.465C56.3627 108.961 56.1947 109.365 55.8587 109.677C55.5307 109.989 55.0707 110.145 54.4787 110.145H51.5627V104.145H54.2387C54.8147 104.145 55.2627 104.293 55.5827 104.589C55.9107 104.885 56.0747 105.273 56.0747 105.753C56.0747 106.353 55.8427 106.789 55.3787 107.061ZM54.2387 104.913H52.3547V106.737H54.2387C54.9347 106.737 55.2827 106.425 55.2827 105.801C55.2827 105.521 55.1907 105.305 55.0067 105.153C54.8307 104.993 54.5747 104.913 54.2387 104.913ZM52.3547 109.377H54.4787C54.8307 109.377 55.0987 109.293 55.2827 109.125C55.4747 108.957 55.5707 108.721 55.5707 108.417C55.5707 108.129 55.4747 107.905 55.2827 107.745C55.0987 107.585 54.8307 107.505 54.4787 107.505H52.3547V109.377ZM62.5907 109.389C61.9747 109.989 61.2307 110.289 60.3587 110.289C59.4707 110.289 58.7227 109.989 58.1147 109.389C57.5067 108.781 57.2027 108.033 57.2027 107.145C57.2027 106.257 57.5067 105.513 58.1147 104.913C58.7227 104.305 59.4707 104.001 60.3587 104.001C61.2387 104.001 61.9827 104.305 62.5907 104.913C63.2067 105.513 63.5147 106.257 63.5147 107.145C63.5147 108.025 63.2067 108.773 62.5907 109.389ZM58.6787 108.837C59.1347 109.293 59.6947 109.521 60.3587 109.521C61.0227 109.521 61.5827 109.293 62.0387 108.837C62.4947 108.365 62.7227 107.801 62.7227 107.145C62.7227 106.481 62.4947 105.921 62.0387 105.465C61.5827 105.001 61.0227 104.769 60.3587 104.769C59.6947 104.769 59.1347 105.001 58.6787 105.465C58.2227 105.921 57.9947 106.481 57.9947 107.145C57.9947 107.801 58.2227 108.365 58.6787 108.837ZM67.636 110.289C66.732 110.289 65.98 109.989 65.38 109.389C64.78 108.773 64.48 108.025 64.48 107.145C64.48 106.257 64.78 105.513 65.38 104.913C65.98 104.305 66.732 104.001 67.636 104.001C68.228 104.001 68.76 104.145 69.232 104.433C69.704 104.713 70.048 105.093 70.264 105.573L69.616 105.945C69.456 105.585 69.196 105.301 68.836 105.093C68.484 104.877 68.084 104.769 67.636 104.769C66.972 104.769 66.412 105.001 65.956 105.465C65.5 105.921 65.272 106.481 65.272 107.145C65.272 107.801 65.5 108.365 65.956 108.837C66.412 109.293 66.972 109.521 67.636 109.521C68.076 109.521 68.472 109.417 68.824 109.209C69.184 109.001 69.464 108.713 69.664 108.345L70.324 108.729C70.076 109.209 69.712 109.589 69.232 109.869C68.752 110.149 68.22 110.289 67.636 110.289ZM70.6239 104.145H75.6639V104.913H73.5399V110.145H72.7479V104.913H70.6239V104.145ZM77.4211 108.765L80.9971 104.145H81.6691V110.145H80.8771V105.525L77.3011 110.145H76.6291V104.145H77.4211V108.765Z" fill="black"/>
<path d="M160.524 102.368L162.744 101.6H163.464V110H162.624V102.524L160.74 103.088L160.524 102.368ZM170.242 110H164.902V109.244L167.926 106.196C168.79 105.332 169.222 104.592 169.222 103.976C169.222 103.456 169.058 103.044 168.73 102.74C168.41 102.428 168.01 102.272 167.53 102.272C166.674 102.272 166.046 102.668 165.646 103.46L164.938 103.04C165.194 102.528 165.55 102.136 166.006 101.864C166.462 101.592 166.97 101.456 167.53 101.456C168.202 101.456 168.79 101.684 169.294 102.14C169.806 102.58 170.062 103.192 170.062 103.976C170.062 104.44 169.934 104.896 169.678 105.344C169.422 105.784 169.03 106.268 168.502 106.796L166.102 109.184H170.242V110ZM171.927 108.98H172.887L172.167 111.68H171.447L171.927 108.98ZM173.849 102.392V101.6H179.009V102.392L175.841 110H174.965L178.133 102.392H173.849ZM182.048 105.056C181.52 105.056 181.084 104.884 180.74 104.54C180.388 104.188 180.212 103.76 180.212 103.256C180.212 102.76 180.388 102.336 180.74 101.984C181.092 101.632 181.528 101.456 182.048 101.456C182.568 101.456 183.004 101.632 183.356 101.984C183.708 102.336 183.884 102.76 183.884 103.256C183.884 103.768 183.712 104.196 183.368 104.54C183.024 104.884 182.584 105.056 182.048 105.056ZM180.98 103.256C180.98 103.56 181.08 103.816 181.28 104.024C181.48 104.232 181.736 104.336 182.048 104.336C182.36 104.336 182.616 104.232 182.816 104.024C183.016 103.816 183.116 103.56 183.116 103.256C183.116 102.952 183.016 102.696 182.816 102.488C182.616 102.28 182.36 102.176 182.048 102.176C181.736 102.176 181.48 102.28 181.28 102.488C181.08 102.696 180.98 102.952 180.98 103.256ZM181.136 109.148L180.632 108.86L186.26 102.536L186.776 102.824L181.136 109.148ZM186.752 109.628C186.408 109.972 185.972 110.144 185.444 110.144C184.916 110.144 184.48 109.972 184.136 109.628C183.784 109.276 183.608 108.848 183.608 108.344C183.608 107.848 183.784 107.424 184.136 107.072C184.488 106.72 184.924 106.544 185.444 106.544C185.964 106.544 186.4 106.72 186.752 107.072C187.104 107.424 187.28 107.848 187.28 108.344C187.28 108.848 187.104 109.276 186.752 109.628ZM184.376 108.344C184.376 108.648 184.476 108.904 184.676 109.112C184.876 109.32 185.132 109.424 185.444 109.424C185.756 109.424 186.012 109.32 186.212 109.112C186.412 108.904 186.512 108.648 186.512 108.344C186.512 108.04 186.412 107.784 186.212 107.576C186.012 107.368 185.756 107.264 185.444 107.264C185.132 107.264 184.876 107.368 184.676 107.576C184.476 107.784 184.376 108.04 184.376 108.344Z" fill="#9D9D9D"/>
<a href="https://www.figma.com/file/wr37O7ae7kupsOd16kYpeb/tg-pro?node-id=120%3A76">
<rect fill="black" fill-opacity="0" x="5.34375" y="1.8" width="27.6564" height="14.4"/>
</a>
<path d="M39.3451 134.097C40.6251 134.097 41.6651 134.517 42.4651 135.357C43.2811 136.189 43.6891 137.217 43.6891 138.441C43.6891 139.665 43.2811 140.697 42.4651 141.537C41.6571 142.369 40.6171 142.785 39.3451 142.785C38.5771 142.785 37.8651 142.597 37.2091 142.221C36.5531 141.845 36.0531 141.341 35.7091 140.709L36.4531 140.289C36.7171 140.801 37.1091 141.209 37.6291 141.513C38.1491 141.817 38.7211 141.969 39.3451 141.969C40.3051 141.969 41.1051 141.673 41.7451 141.081C42.3771 140.497 42.7371 139.749 42.8251 138.837H38.2291V138.045H42.8251C42.7371 137.133 42.3771 136.385 41.7451 135.801C41.1051 135.209 40.3051 134.913 39.3451 134.913C38.7211 134.913 38.1491 135.065 37.6291 135.369C37.1091 135.673 36.7171 136.081 36.4531 136.593L35.7091 136.161C36.0691 135.529 36.5731 135.029 37.2211 134.661C37.8691 134.285 38.5771 134.097 39.3451 134.097ZM46.6439 139.521L49.8599 142.641H48.8039L45.8039 139.749V142.641H45.0119V136.641H45.8039V139.293L48.6599 136.641H49.7399L46.6439 139.521ZM55.3719 141.885C54.7559 142.485 54.0119 142.785 53.1399 142.785C52.2519 142.785 51.5039 142.485 50.8959 141.885C50.2879 141.277 49.9839 140.529 49.9839 139.641C49.9839 138.753 50.2879 138.009 50.8959 137.409C51.5039 136.801 52.2519 136.497 53.1399 136.497C54.0199 136.497 54.7639 136.801 55.3719 137.409C55.9879 138.009 56.2959 138.753 56.2959 139.641C56.2959 140.521 55.9879 141.269 55.3719 141.885ZM51.4599 141.333C51.9159 141.789 52.4759 142.017 53.1399 142.017C53.8039 142.017 54.3639 141.789 54.8199 141.333C55.2759 140.861 55.5039 140.297 55.5039 139.641C55.5039 138.977 55.2759 138.417 54.8199 137.961C54.3639 137.497 53.8039 137.265 53.1399 137.265C52.4759 137.265 51.9159 137.497 51.4599 137.961C51.0039 138.417 50.7759 138.977 50.7759 139.641C50.7759 140.297 51.0039 140.861 51.4599 141.333ZM61.8693 139.257V136.641H62.6613V142.641H61.8693V140.025H58.4133V142.641H57.6213V136.641H58.4133V139.257H61.8693ZM69.3641 141.885C68.7481 142.485 68.0041 142.785 67.1321 142.785C66.2441 142.785 65.4961 142.485 64.8881 141.885C64.2801 141.277 63.9761 140.529 63.9761 139.641C63.9761 138.753 64.2801 138.009 64.8881 137.409C65.4961 136.801 66.2441 136.497 67.1321 136.497C68.0121 136.497 68.7561 136.801 69.3641 137.409C69.9801 138.009 70.2881 138.753 70.2881 139.641C70.2881 140.521 69.9801 141.269 69.3641 141.885ZM65.4521 141.333C65.9081 141.789 66.4681 142.017 67.1321 142.017C67.7961 142.017 68.3561 141.789 68.8121 141.333C69.2681 140.861 69.4961 140.297 69.4961 139.641C69.4961 138.977 69.2681 138.417 68.8121 137.961C68.3561 137.497 67.7961 137.265 67.1321 137.265C66.4681 137.265 65.9081 137.497 65.4521 137.961C64.9961 138.417 64.7681 138.977 64.7681 139.641C64.7681 140.297 64.9961 140.861 65.4521 141.333ZM76.5814 136.641H77.4934V142.641H76.7014V137.853L74.6014 141.261H74.5054L72.4054 137.853V142.641H71.6134V136.641H72.5254L74.5534 139.929L76.5814 136.641ZM79.964 141.261L83.54 136.641H84.212V142.641H83.42V138.021L79.844 142.641H79.172V136.641H79.964V141.261ZM87.5189 139.521L90.7349 142.641H89.6789L86.6789 139.749V142.641H85.8869V136.641H86.6789V139.293L89.5349 136.641H90.6149L87.5189 139.521ZM96.3789 137.817V136.641H97.1709V142.641H96.3789V141.465C95.8269 142.345 95.0189 142.785 93.9549 142.785C93.0989 142.785 92.3669 142.481 91.7589 141.873C91.1589 141.265 90.8589 140.521 90.8589 139.641C90.8589 138.761 91.1589 138.017 91.7589 137.409C92.3669 136.801 93.0989 136.497 93.9549 136.497C95.0189 136.497 95.8269 136.937 96.3789 137.817ZM92.3349 141.333C92.7909 141.789 93.3509 142.017 94.0149 142.017C94.6789 142.017 95.2389 141.789 95.6949 141.333C96.1509 140.861 96.3789 140.297 96.3789 139.641C96.3789 138.977 96.1509 138.417 95.6949 137.961C95.2389 137.497 94.6789 137.265 94.0149 137.265C93.3509 137.265 92.7909 137.497 92.3349 137.961C91.8789 138.417 91.6509 138.977 91.6509 139.641C91.6509 140.297 91.8789 140.861 92.3349 141.333Z" fill="black"/>
<path d="M165.334 135.6H166.054V144H165.214V136.524L163.33 137.088L163.114 136.368L165.334 135.6ZM169.412 135.6H170.132V144H169.292V136.524L167.408 137.088L167.192 136.368L169.412 135.6ZM173.25 142.98L172.53 145.68H171.81L172.29 142.98H173.25ZM179.129 138.228C179.129 138.86 178.957 139.42 178.613 139.908L175.865 144H174.917L176.981 140.928C176.765 140.976 176.541 141 176.309 141C175.485 141 174.809 140.744 174.281 140.232C173.753 139.712 173.489 139.044 173.489 138.228C173.489 137.412 173.753 136.748 174.281 136.236C174.809 135.716 175.485 135.456 176.309 135.456C177.133 135.456 177.809 135.716 178.337 136.236C178.865 136.748 179.129 137.412 179.129 138.228ZM174.869 136.812C174.509 137.172 174.329 137.644 174.329 138.228C174.329 138.812 174.509 139.284 174.869 139.644C175.237 140.004 175.717 140.184 176.309 140.184C176.901 140.184 177.377 140.004 177.737 139.644C178.105 139.284 178.289 138.812 178.289 138.228C178.289 137.644 178.105 137.172 177.737 136.812C177.377 136.452 176.901 136.272 176.309 136.272C175.717 136.272 175.237 136.452 174.869 136.812ZM182.048 139.056C181.528 139.056 181.092 138.884 180.74 138.54C180.388 138.188 180.212 137.76 180.212 137.256C180.212 136.752 180.388 136.328 180.74 135.984C181.092 135.632 181.528 135.456 182.048 135.456C182.568 135.456 183.004 135.632 183.356 135.984C183.708 136.328 183.884 136.752 183.884 137.256C183.884 137.76 183.712 138.188 183.368 138.54C183.024 138.884 182.584 139.056 182.048 139.056ZM181.28 138.024C181.48 138.232 181.736 138.336 182.048 138.336C182.36 138.336 182.616 138.232 182.816 138.024C183.016 137.816 183.116 137.56 183.116 137.256C183.116 136.952 183.016 136.696 182.816 136.488C182.616 136.28 182.36 136.176 182.048 136.176C181.736 136.176 181.48 136.28 181.28 136.488C181.08 136.696 180.98 136.952 180.98 137.256C180.98 137.56 181.08 137.816 181.28 138.024ZM180.632 142.86L186.26 136.536L186.776 136.824L181.136 143.148L180.632 142.86ZM186.752 143.628C186.4 143.972 185.964 144.144 185.444 144.144C184.924 144.144 184.488 143.972 184.136 143.628C183.784 143.276 183.608 142.848 183.608 142.344C183.608 141.84 183.784 141.416 184.136 141.072C184.488 140.72 184.924 140.544 185.444 140.544C185.964 140.544 186.4 140.72 186.752 141.072C187.104 141.416 187.28 141.84 187.28 142.344C187.28 142.848 187.104 143.276 186.752 143.628ZM184.676 143.112C184.876 143.32 185.132 143.424 185.444 143.424C185.756 143.424 186.012 143.32 186.212 143.112C186.412 142.904 186.512 142.648 186.512 142.344C186.512 142.04 186.412 141.784 186.212 141.576C186.012 141.368 185.756 141.264 185.444 141.264C185.132 141.264 184.876 141.368 184.676 141.576C184.476 141.784 184.376 142.04 184.376 142.344C184.376 142.648 184.476 142.904 184.676 143.112Z" fill="#9D9D9D"/>
<g clip-path="url(#clip0_569_2696)">
<path fill-rule="evenodd" clip-rule="evenodd" d="M12.8296 0.707063C11.5027 1.20031 5.81926 3.47795 5.74842 3.54483C5.69662 3.59377 5.62619 3.69319 5.59195 3.76574C5.44839 4.06989 5.43907 4.04154 6.92853 7.83573C7.93601 10.4021 8.35752 11.4307 8.43512 11.5121C8.57612 11.6601 8.7704 11.7212 9.02416 11.6974C9.16888 11.6839 10.2521 11.2731 12.6854 10.3089C14.586 9.55585 16.188 8.90535 16.2453 8.86341C16.4139 8.74011 16.5377 8.46085 16.5179 8.24891C16.5014 8.0722 13.8922 1.31087 13.7242 1.00933C13.557 0.709275 13.1728 0.579457 12.8296 0.707063ZM14.3844 4.87695C15.1028 6.71623 15.6839 8.22787 15.6756 8.2362C15.6535 8.2584 9.16384 10.8223 9.06968 10.846C8.99728 10.8642 8.86644 10.5506 7.68969 7.53748C6.97469 5.70673 6.3897 4.19319 6.3897 4.17413C6.3897 4.13649 12.9083 1.53994 13.0139 1.53551C13.0625 1.53346 13.3958 2.34603 14.3844 4.87695ZM10.0902 4.03728C9.75571 4.21507 9.76635 4.13388 9.77875 6.42298C9.79071 8.63229 9.77867 8.52805 10.0343 8.63546C10.1245 8.67339 10.1977 8.67701 10.3001 8.64857C10.5289 8.58507 10.5657 8.48638 10.5785 7.90116L10.5897 7.38599L11.3849 7.07045L12.1801 6.75492L12.5054 7.09716C12.9348 7.54874 13.099 7.61345 13.3266 7.4209C13.4814 7.28995 13.4964 7.06048 13.3625 6.87146C13.1952 6.6352 10.8433 4.16605 10.6811 4.05638C10.4813 3.92121 10.3184 3.91594 10.0902 4.03728ZM11.1696 5.60751C11.4614 5.93532 11.6842 6.21763 11.6649 6.23488C11.6152 6.27908 10.5691 6.69379 10.5534 6.67545C10.5463 6.66717 10.5283 6.25318 10.5134 5.75551C10.4866 4.86376 10.4873 4.85181 10.5627 4.93108C10.6048 4.97532 10.8779 5.27971 11.1696 5.60751ZM13.1297 10.4657C12.9986 10.5183 12.8566 10.6538 12.7826 10.797C12.6794 10.9963 10.8097 18.1343 10.8097 18.3287C10.8097 18.5382 10.8519 18.6347 11.0232 18.8166C11.1757 18.9786 10.885 18.8929 15.0705 20.0096C17.2417 20.5889 18.5405 20.917 18.6625 20.917C18.9366 20.917 19.1546 20.7816 19.2821 20.5322C19.3055 20.4865 19.7592 18.7888 20.2902 16.7597C21.331 12.7832 21.3057 12.9098 21.1154 12.6233C21.0673 12.5509 20.9473 12.4505 20.8487 12.4002C20.5963 12.2712 13.626 10.4199 13.405 10.4231C13.3086 10.4245 13.1846 10.4437 13.1297 10.4657ZM16.9807 12.1757C18.8556 12.6765 20.3971 13.0927 20.4062 13.1006C20.4264 13.1181 18.6078 20.0018 18.5737 20.0369C18.5552 20.0559 12.4719 18.4729 11.7666 18.2655L11.6235 18.2234L12.545 14.7443C13.1754 12.3639 13.483 11.2651 13.519 11.2651C13.548 11.2651 15.1057 11.6749 16.9807 12.1757ZM2.40973 12.3771C2.17969 12.4149 2.12457 12.4384 1.99305 12.5545C1.7133 12.8014 1.72614 12.5835 1.73858 16.8782L1.74974 20.7419L1.8571 20.905C1.92177 21.0032 2.03417 21.102 2.13973 21.1534C2.31457 21.2385 2.32393 21.2387 6.13974 21.2387C8.7448 21.2387 10.0003 21.2251 10.0771 21.1959C10.2167 21.1429 10.3955 20.9759 10.4832 20.8164C10.5436 20.7068 10.5507 20.3516 10.5607 16.9367C10.5683 14.3223 10.5583 13.113 10.5277 12.965C10.5031 12.8457 10.4376 12.6971 10.3786 12.6266C10.1531 12.3571 10.3818 12.3716 6.2497 12.3659C4.19272 12.3631 2.46473 12.3681 2.40973 12.3771ZM9.72967 16.8151V20.4348L6.1397 20.4245L2.54973 20.4143L2.53953 16.8049L2.52929 13.1955H6.1295H9.72967V16.8151ZM15.7341 13.3797C14.8062 13.6306 14.1686 14.5787 14.1701 15.7054C14.1709 16.3255 14.3472 16.7885 14.7162 17.1394C15.2578 17.6544 16.2454 17.8527 16.8583 17.5697C17.2552 17.3864 17.6896 16.8807 17.6896 16.6021C17.6896 16.3874 17.4339 16.1839 17.2291 16.2355C17.179 16.2482 17.0356 16.3751 16.9104 16.5175C16.7853 16.66 16.6095 16.8141 16.52 16.8601C16.2117 17.0182 15.6563 16.945 15.3353 16.704C15.0316 16.476 14.9383 15.9925 15.0722 15.3406C15.1523 14.9509 15.2758 14.6757 15.4864 14.4181C15.7193 14.133 15.9534 14.0199 16.3096 14.0201C16.8349 14.0204 17.1645 14.2887 17.3357 14.8553C17.443 15.2107 17.5487 15.3269 17.7642 15.3269C17.8932 15.3269 17.9424 15.3031 18.0302 15.1982C18.1266 15.083 18.1363 15.0439 18.1224 14.8242C18.0794 14.145 17.4693 13.55 16.6413 13.3796C16.2671 13.3026 16.0192 13.3026 15.7341 13.3797ZM4.72023 14.5432C4.49027 14.6731 4.48971 14.6781 4.48971 16.6139C4.48971 18.5595 4.48979 18.5602 4.72839 18.6843C4.82115 18.7325 5.00331 18.7452 5.59771 18.745C7.12245 18.7443 7.60793 18.5942 7.86717 18.0432C7.98621 17.7902 8.00845 17.348 7.91357 17.1197C7.82641 16.9099 7.56981 16.6504 7.34969 16.5494C7.23969 16.4989 7.17797 16.4566 7.21249 16.4553C7.32105 16.4513 7.59625 16.1814 7.68477 15.992C7.87125 15.5932 7.74749 15.0301 7.41653 14.7716C7.10057 14.5248 7.00805 14.5082 5.8697 14.4942C4.99135 14.4834 4.81271 14.491 4.72023 14.5432ZM6.58482 15.2094C6.6701 15.2334 6.78262 15.2961 6.83482 15.3485C7.02633 15.5411 6.92421 16.001 6.6607 16.1327C6.58606 16.1699 6.34978 16.1932 5.9397 16.2035L5.32971 16.2189L5.33015 15.8232C5.33039 15.6056 5.34219 15.3569 5.35635 15.2707L5.38211 15.114L5.9059 15.1399C6.19398 15.1541 6.4995 15.1854 6.58482 15.2094ZM6.7871 16.9557C7.01925 17.0743 7.11009 17.2212 7.10773 17.4741C7.10533 17.7281 7.00161 17.8965 6.7805 18.0052C6.65778 18.0656 6.50858 18.0823 5.9797 18.0948L5.32971 18.1101V17.6692C5.32971 17.4267 5.34135 17.1428 5.35563 17.0383L5.38151 16.8483L6.00562 16.8618C6.53322 16.8732 6.65402 16.8877 6.7871 16.9557Z" fill="#1B81F9"/>
</g>
<path fill-rule="evenodd" clip-rule="evenodd" d="M15.5166 33.3684C14.5211 33.8107 13.4161 34.3933 12.4087 35.0069C11.621 35.4866 11.5406 35.5425 11.4996 35.6386C11.427 35.8086 11.5562 36.0292 11.7284 36.0292C11.7946 36.0292 12.0626 35.884 12.5767 35.5695C13.5797 34.9562 14.9507 34.2295 15.7783 33.8724C15.81 33.8587 15.8164 34.9809 15.81 39.465L15.802 45.0748L15.247 45.3034C14.2028 45.7334 12.8868 46.3969 11.6951 47.0941L11.2353 47.3632L11.2194 41.8062C11.2107 38.7408 11.1911 36.2219 11.1758 36.1884C11.1055 36.0343 10.2596 35.7106 9.57034 35.5741C8.49719 35.3616 6.30838 35.5106 4.64902 35.9093C4.14615 36.0301 4.06734 36.056 3.98343 36.1286L3.90953 36.1924L3.90135 42.6245C3.89621 46.6881 3.90443 49.0881 3.92374 49.1423C3.94052 49.1895 3.99189 49.2544 4.03788 49.2865C4.11767 49.3423 4.13463 49.3416 4.4119 49.2713C6.15318 48.8295 8.38813 48.6359 9.40714 48.8385C9.723 48.9013 10.3179 49.0779 10.5108 49.1661L10.6486 49.2292V49.5689V49.9086H7.35162C4.13581 49.9086 4.05047 49.907 3.88565 49.8411C3.67429 49.7567 3.49891 49.5687 3.41709 49.3388C3.35573 49.1665 3.35455 49.054 3.35455 43.4229V37.6827L3.26186 37.5838C3.14157 37.4554 3.02842 37.4554 2.90813 37.5838L2.81543 37.6827V43.4018C2.81543 47.091 2.82675 49.1855 2.8473 49.3032C2.94717 49.8743 3.38528 50.3409 3.92412 50.45C4.15585 50.4969 17.7107 50.497 17.9462 50.4501C18.4813 50.3435 18.9184 49.8758 19.0206 49.3006C19.0413 49.1843 19.0526 47.1018 19.0526 43.4018V37.6827L18.9599 37.5838C18.904 37.5241 18.8338 37.4848 18.783 37.4848C18.7323 37.4848 18.662 37.5241 18.6062 37.5838L18.5135 37.6827V43.422C18.5135 49.0723 18.5125 49.1642 18.4502 49.3417C18.3712 49.5673 18.195 49.7545 17.9797 49.8419C17.8197 49.9068 17.7227 49.9086 14.5172 49.9086H11.2194V49.5729V49.2371L11.4176 49.1688C12.1848 48.9045 12.792 48.7905 13.5574 48.767C14.6906 48.7323 16.0422 48.8931 17.2049 49.2009C17.6609 49.3217 17.7297 49.3322 17.8065 49.2929C17.8542 49.2685 17.9113 49.2104 17.9333 49.1639C17.9652 49.0966 17.9735 47.7729 17.9739 42.6918C17.9741 38.7282 17.9629 36.2722 17.9441 36.2196C17.9275 36.173 17.8812 36.116 17.8411 36.0929C17.7565 36.0444 17.2711 35.9309 17.1394 35.9289C17.0228 35.9272 16.8644 36.0922 16.8644 36.2153C16.8644 36.3537 17.0115 36.4885 17.1943 36.5177C17.2789 36.5313 17.3678 36.5504 17.3917 36.5602C17.4284 36.5752 17.4352 37.5307 17.4352 42.6193C17.4352 48.3567 17.4324 48.6598 17.3797 48.6441C16.9701 48.5219 16.001 48.3431 15.3104 48.2623C14.5867 48.1776 13.1031 48.1771 12.6307 48.2613C12.2387 48.3313 11.5481 48.5125 11.184 48.6411L10.9424 48.7264L10.7717 48.6545C9.98013 48.3215 9.2643 48.1819 8.3502 48.1825C7.24938 48.1832 5.89418 48.3381 4.79011 48.5894C4.62911 48.6261 4.48281 48.6561 4.46505 48.6561C4.4433 48.6561 4.4328 46.6852 4.4328 42.6037V36.5513L4.69444 36.4914C5.72534 36.2556 6.76074 36.114 7.81454 36.0648C8.95837 36.0114 9.61696 36.1045 10.4662 36.4394L10.6486 36.5113L10.6488 42.169C10.6489 45.9849 10.6597 47.868 10.6819 47.9536C10.7138 48.0758 10.8342 48.1823 10.9403 48.1821C10.963 48.182 11.1742 48.0667 11.4097 47.9258C13.0595 46.9384 14.4845 46.215 15.7703 45.7121C16.0145 45.6166 16.2428 45.5083 16.2777 45.4714C16.3406 45.4049 16.3411 45.3595 16.3411 39.3598V33.3151L16.2521 33.2334C16.2026 33.188 16.1252 33.1529 16.0777 33.1543C16.0307 33.1558 15.7782 33.2521 15.5166 33.3684ZM14.1687 36.5339C13.2101 36.9467 12.1369 37.5068 12.0579 37.6355C11.959 37.7966 12.098 38.0603 12.2818 38.0603C12.3206 38.0603 12.5292 37.9673 12.7452 37.8538C13.3311 37.5457 14.0748 37.1905 14.4859 37.0223C14.8701 36.8652 14.9933 36.7668 14.9933 36.6171C14.9933 36.4987 14.8323 36.3336 14.7182 36.3349C14.6689 36.3355 14.4217 36.425 14.1687 36.5339ZM14.3273 38.1977C13.9365 38.3564 13.1247 38.7476 12.5197 39.0687C12.0671 39.3089 11.9843 39.3926 12.0256 39.5683C12.0528 39.684 12.168 39.7868 12.2705 39.7868C12.3187 39.7868 12.5836 39.6712 12.8591 39.5299C13.5336 39.1842 14.1824 38.8753 14.5576 38.7215C14.8826 38.5883 14.9933 38.4916 14.9933 38.3409C14.9933 38.2352 14.8308 38.06 14.7341 38.0613C14.6935 38.0619 14.5105 38.1233 14.3273 38.1977ZM7.22356 38.3846C6.48816 38.4734 5.81895 38.6041 5.66508 38.6891C5.49722 38.7817 5.47911 39.0175 5.63016 39.1444C5.72911 39.2274 5.77681 39.2275 6.13095 39.1455C6.7766 38.996 7.14491 38.9587 7.95296 38.961C8.54876 38.9626 8.78908 38.9763 8.98364 39.0195C9.32538 39.0954 9.40001 39.0915 9.49248 38.9928C9.62945 38.8466 9.57069 38.5791 9.38906 38.5216C9.10409 38.4316 8.72788 38.392 8.06396 38.3821C7.66279 38.3761 7.28461 38.3772 7.22356 38.3846ZM14.4066 39.9002C13.9915 40.0624 13.2156 40.4313 12.6116 40.7536C12.1637 40.9927 12.0792 41.0501 12.0449 41.1385C12.0124 41.2222 12.0123 41.2625 12.0445 41.3453C12.1365 41.5824 12.2874 41.57 12.8293 41.2805C13.3396 41.0078 14.2249 40.5875 14.6223 40.4293C14.8417 40.3419 14.9114 40.2977 14.9474 40.2234C15.0115 40.091 15.0048 40.0074 14.9219 39.9084C14.813 39.7783 14.7223 39.7769 14.4066 39.9002ZM7.33456 40.113C7.28223 40.1193 7.08957 40.1411 6.90643 40.1613C6.53954 40.202 5.83107 40.3422 5.69191 40.4016C5.51581 40.4768 5.47905 40.6999 5.61608 40.8616C5.69632 40.9562 5.79133 40.958 6.16266 40.8719C6.77656 40.7297 7.20847 40.6859 7.96882 40.6889C8.50978 40.691 8.76378 40.7061 8.95193 40.7471C9.3042 40.8238 9.39912 40.8189 9.49248 40.7192C9.5913 40.6138 9.59396 40.4623 9.49898 40.3475C9.41329 40.2439 9.13942 40.1757 8.6086 40.1255C8.27777 40.0943 7.55011 40.0871 7.33456 40.113ZM14.248 41.6967C13.7975 41.8872 12.9219 42.3114 12.4519 42.5668C12.1643 42.723 12.0746 42.7884 12.0457 42.8629C11.9713 43.0545 12.0851 43.247 12.272 43.2458C12.3373 43.2454 12.5804 43.1406 12.9161 42.968C13.5715 42.6313 14.1759 42.3447 14.5872 42.1756C14.7564 42.1062 14.9105 42.0291 14.9297 42.0043C14.9489 41.9796 14.9728 41.9058 14.9827 41.8404C14.9976 41.7427 14.9862 41.7057 14.9192 41.6342C14.8021 41.5092 14.6599 41.5225 14.248 41.6967ZM7.36627 41.8382C6.85708 41.8943 6.36119 41.9703 6.05328 42.0393C5.58491 42.1444 5.48644 42.2323 5.54974 42.4889C5.56966 42.5697 5.606 42.614 5.67903 42.6463C5.76786 42.6857 5.82571 42.6814 6.13983 42.612C6.80577 42.4648 7.26149 42.4156 7.95296 42.4164C8.41496 42.4169 8.68798 42.4332 8.89643 42.4729C9.32085 42.5538 9.42468 42.5481 9.5046 42.4396C9.62897 42.2709 9.56599 42.0576 9.37203 41.9907C9.12588 41.9058 8.66172 41.8501 8.09726 41.8376C7.76497 41.8302 7.43604 41.8305 7.36627 41.8382ZM14.3115 43.4047C13.5474 43.7156 12.172 44.42 12.0767 44.5494C11.9892 44.6681 12.0093 44.8153 12.1284 44.927C12.2454 45.0368 12.2984 45.0204 13.0261 44.6478C13.8137 44.2445 14.138 44.0913 14.5334 43.9361C14.965 43.7666 15.0604 43.6456 14.9469 43.4114C14.8599 43.2319 14.7393 43.2306 14.3115 43.4047ZM7.35473 43.5809C6.70987 43.6247 5.79805 43.7958 5.64723 43.9013C5.48197 44.0169 5.49672 44.2783 5.67399 44.3762C5.75883 44.423 5.79942 44.4202 6.15419 44.3435C6.70955 44.2234 6.95222 44.1903 7.52484 44.1567C8.08698 44.1237 8.70111 44.1556 9.05706 44.2365C9.35707 44.3046 9.35808 44.3045 9.47276 44.2015C9.59672 44.0902 9.60703 43.919 9.49686 43.8014C9.40692 43.7054 9.00679 43.6197 8.44452 43.576C8.01649 43.5428 7.90971 43.5433 7.35473 43.5809ZM7.14428 45.3282C6.5182 45.3877 5.72074 45.5609 5.61161 45.6611C5.49792 45.7655 5.50242 45.9651 5.62087 46.0739C5.7228 46.1675 5.74167 46.1679 6.09923 46.0857C6.76042 45.9337 7.08634 45.8999 7.9054 45.8985C8.54794 45.8974 8.75712 45.909 9.00898 45.9598C9.34451 46.0275 9.47488 46.0073 9.53983 45.8778C9.58759 45.7825 9.57573 45.624 9.51484 45.5437C9.40273 45.396 8.76761 45.3042 7.9054 45.3111C7.55655 45.3138 7.21405 45.3215 7.14428 45.3282Z" fill="#1B81F9"/>
<path fill-rule="evenodd" clip-rule="evenodd" d="M7.60308 64.5893C6.44055 64.8072 5.52154 65.6824 5.24528 66.8347C5.19591 67.0406 5.1734 67.279 5.15897 67.7484L5.13941 68.3834H4.07351H3.00758L2.9115 68.4824L2.81543 68.5814V74.5585C2.81543 80.4251 2.81665 80.5396 2.88067 80.7533C3.00406 81.1649 3.30646 81.5371 3.67491 81.7308C4.00278 81.9031 3.71409 81.8965 10.9189 81.897C18.2617 81.8976 17.7889 81.9103 18.1976 81.7017C18.418 81.5893 18.7418 81.2626 18.8625 81.0309C19.0578 80.6559 19.0526 80.762 19.0526 77.1831V73.9053L18.9567 73.7947L18.8608 73.6841L17.8229 73.6738L16.785 73.6636L16.7674 73.5722C16.6441 72.9328 16.2776 72.4315 15.7641 72.2C15.6655 72.1556 15.5442 72.109 15.4945 72.0966L15.4041 72.074V70.3625C15.4041 68.5338 15.4019 68.5067 15.2416 68.4183C15.202 68.3964 14.7793 68.3834 14.108 68.3834H13.0376V67.8139C13.0376 67.5006 13.022 67.1539 13.003 67.0433C12.8026 65.8775 11.9902 64.9652 10.8713 64.6496C10.5015 64.5453 9.77232 64.5487 9.4056 64.6565C9.08921 64.7494 9.10479 64.7494 8.79753 64.6584C8.52022 64.5762 7.87267 64.5388 7.60308 64.5893ZM8.06959 65.4622C7.8047 65.7467 7.67539 65.9408 7.51503 66.2946C7.30881 66.7495 7.27522 66.9293 7.25464 67.6891L7.23627 68.3665H6.52959H5.82292L5.82548 67.7907C5.82844 67.1225 5.86594 66.9267 6.07505 66.4871C6.42385 65.754 7.22253 65.2453 8.03873 65.2362L8.28241 65.2335L8.06959 65.4622ZM10.597 65.2872C11.4428 65.4672 12.1006 66.1162 12.3158 66.983C12.3673 67.1905 12.3802 67.3574 12.3802 67.8131V68.3834H11.6774H10.9746L10.9584 67.7145C10.9457 67.1879 10.9285 66.9951 10.8772 66.8085C10.7285 66.2667 10.5016 65.8511 10.1419 65.4616C10.0352 65.346 9.94794 65.2475 9.94794 65.2425C9.94794 65.2121 10.3858 65.2422 10.597 65.2872ZM9.30706 65.6246C9.52988 65.777 9.88378 66.1623 10.0132 66.3933C10.068 66.4913 10.1521 66.6933 10.2001 66.8424C10.2788 67.0869 10.2888 67.1753 10.3019 67.7484L10.3166 68.3834H9.11034H7.90413L7.91793 67.7145C7.93069 67.0975 7.93848 67.0264 8.01812 66.7984C8.11998 66.5067 8.2812 66.2233 8.47279 65.999C8.60449 65.8449 9.03695 65.5045 9.10114 65.5045C9.11784 65.5045 9.21049 65.5585 9.30706 65.6246ZM4.82042 75.1443V81.2276L4.46708 81.2137C4.18681 81.2027 4.08564 81.1847 3.97786 81.1266C3.79064 81.0258 3.64135 80.8635 3.55031 80.662L3.47346 80.4919L3.47313 74.7764L3.4728 69.0608H4.14661H4.82042V75.1443ZM7.2527 69.9776C7.2527 70.5415 7.26572 70.9194 7.28656 70.9594C7.38089 71.1411 7.66777 71.1659 7.81443 71.0052C7.89361 70.9184 7.89364 70.9181 7.90334 69.9896L7.91304 69.0608H10.1451H12.3773L12.387 69.9896C12.3967 70.9181 12.3967 70.9184 12.4759 71.0052C12.621 71.1643 12.8427 71.1527 12.9794 70.979C13.03 70.9145 13.0362 70.8071 13.0369 69.9838L13.0376 69.0608H13.8922H14.7468V70.5643V72.0677L14.6235 72.0909C14.5557 72.1036 14.3935 72.1666 14.2631 72.2309C13.8066 72.4556 13.4362 72.9506 13.334 73.4724L13.2959 73.6672H12.3275C11.2888 73.6672 11.1951 73.6802 11.0862 73.8405C11.0376 73.912 11.0326 74.2198 11.0326 77.1731C11.0326 80.7208 11.0272 80.6122 11.2211 80.9921C11.2709 81.0896 11.3166 81.1808 11.3228 81.1947C11.3289 81.2087 10.0163 81.2201 8.40584 81.2201H5.47779V75.1405V69.0608H6.36525H7.2527V69.9776ZM15.4249 72.7911C15.732 72.9095 16.0047 73.2171 16.0889 73.5401L16.122 73.6672H15.0426H13.9632L13.9971 73.5401C14.1654 72.9099 14.8293 72.5615 15.4249 72.7911ZM13.3005 75.0542C13.3005 75.8229 13.3159 75.9079 13.4697 75.9898C13.6173 76.0684 13.7232 76.0496 13.8462 75.9229L13.9579 75.8077V75.0761V74.3446H15.0426H16.1273V75.0542C16.1273 75.4924 16.1409 75.7948 16.1629 75.8446C16.1825 75.889 16.2403 75.9506 16.2913 75.9817C16.4362 76.0699 16.5468 76.0528 16.6729 75.9229L16.7846 75.8077V75.0761V74.3446H17.5906H18.3965L18.3876 77.4352L18.3788 80.5258L18.3046 80.6688C18.2039 80.863 18.0211 81.0447 17.8393 81.1313C17.6902 81.2024 17.6594 81.2033 15.1112 81.2125C12.1217 81.2232 12.2952 81.2395 11.9837 80.9186C11.6713 80.5966 11.69 80.8235 11.69 77.3528V74.3446H12.4953H13.3005V75.0542Z" fill="#1B81F9"/>
<path fill-rule="evenodd" clip-rule="evenodd" d="M14.8232 99.1161C12.8474 101.072 12.5488 101.391 12.3834 101.716C12.1746 102.127 12.1041 102.79 12.2219 103.236C12.2762 103.442 12.2761 103.455 12.2188 103.511C12.1857 103.543 11.909 103.788 11.6041 104.056L11.0495 104.543L10.4612 104.022C10.1377 103.735 9.87297 103.494 9.87297 103.485C9.87297 103.476 9.89559 103.426 9.92318 103.373C10.0269 103.174 10.1415 102.76 10.1823 102.435C10.3013 101.489 9.92891 100.498 9.18941 99.7923C7.87702 98.5402 6.29249 97.8091 5.03434 97.8752C4.5952 97.8982 4.35506 97.9585 3.98309 98.1391C3.5883 98.3308 3.26557 98.6508 3.07192 99.0425C2.85799 99.4753 2.81417 99.6814 2.81546 100.249C2.8164 100.662 2.83032 100.791 2.90695 101.096C3.12813 101.977 3.55485 102.79 4.24196 103.64C4.93266 104.495 5.51426 104.909 6.32192 105.124C6.89129 105.275 7.71669 105.209 8.26467 104.968C8.44965 104.887 8.46509 104.886 8.52418 104.939C8.55872 104.97 8.83387 105.271 9.13564 105.609C9.43738 105.947 9.72645 106.241 9.77795 106.263C9.82949 106.284 9.91035 106.291 9.95762 106.28C10.0314 106.261 12.6642 103.983 12.8781 103.753C12.9743 103.649 12.9756 103.511 12.8829 103.271C12.7939 103.041 12.763 102.614 12.8169 102.357C12.9151 101.889 12.8833 101.925 15.211 99.61C17.4886 97.3449 17.4247 97.4175 17.3169 97.2168C17.2557 97.1028 17.1816 97.0617 17.0352 97.0606C16.9018 97.0595 16.8799 97.0799 14.8232 99.1161ZM17.8811 97.9647C17.8439 97.9808 17.0554 98.7474 16.1288 99.6681C14.5859 101.201 14.4442 101.352 14.4442 101.453C14.4442 101.531 14.4738 101.593 14.5432 101.662C14.6714 101.789 14.8006 101.79 14.9725 101.663C15.2029 101.494 18.2315 98.4572 18.2688 98.3583C18.2884 98.3062 18.2956 98.2283 18.2847 98.1852C18.2432 98.0214 18.0252 97.9023 17.8811 97.9647ZM5.83787 98.5579C6.6414 98.7199 7.56208 99.2095 8.40001 99.9204C8.83682 100.291 9.01002 100.479 9.21237 100.802C9.44855 101.179 9.54255 101.499 9.56097 101.989C9.57987 102.491 9.52809 102.742 9.31111 103.2C9.16256 103.514 9.14329 103.587 9.18247 103.688C9.19378 103.718 9.51316 104.014 9.8922 104.347L10.5814 104.953L10.264 105.237C10.0894 105.393 9.93267 105.521 9.91567 105.521C9.8987 105.521 9.6355 105.24 9.33085 104.897C9.02617 104.554 8.74587 104.252 8.70791 104.226C8.60277 104.153 8.50433 104.167 8.25383 104.292C7.84868 104.495 7.62648 104.552 7.18101 104.571C6.66649 104.592 6.37481 104.535 5.962 104.332C5.60199 104.156 5.27747 103.892 4.93259 103.495C3.95028 102.366 3.4386 101.26 3.43044 100.249C3.42584 99.6746 3.56782 99.2782 3.89427 98.9545C4.33118 98.5212 4.98944 98.3869 5.83787 98.5579ZM17.0265 100.493C15.4666 102.04 15.3246 102.19 15.3246 102.292C15.3246 102.446 15.3785 102.53 15.5136 102.586C15.6135 102.628 15.6444 102.628 15.7394 102.587C15.8807 102.526 19.1017 99.325 19.1491 99.1985C19.1755 99.1282 19.1723 99.076 19.1366 98.9913C19.0809 98.8589 18.9957 98.8055 18.8403 98.8055C18.7378 98.8055 18.5865 98.9463 17.0265 100.493ZM17.5603 101.908C16.3959 103.06 15.3822 104.04 15.3077 104.085C15.0267 104.256 14.7875 104.323 14.4442 104.326C14.1682 104.329 14.0832 104.315 13.8453 104.23C13.5886 104.138 13.5607 104.134 13.4684 104.179C13.4129 104.207 11.7495 106.04 9.72242 108.308C7.71693 110.552 6.01405 112.437 5.93817 112.497C5.67821 112.703 5.30855 112.759 4.98978 112.64C4.7387 112.547 4.57847 112.404 4.45759 112.164C4.32062 111.892 4.31195 111.569 4.43473 111.313C4.53736 111.099 4.55108 111.086 6.60537 109.285C7.55517 108.452 8.36655 107.723 8.40847 107.665C8.50779 107.527 8.50471 107.43 8.39699 107.303C8.27899 107.164 8.09841 107.16 7.93726 107.292C7.66045 107.52 4.20204 110.574 4.11352 110.669C3.97087 110.823 3.78355 111.214 3.74034 111.448C3.60676 112.171 4.04827 112.944 4.74896 113.212C5.04254 113.325 5.49696 113.34 5.8015 113.249C6.25368 113.113 6.2442 113.122 8.7264 110.349C9.99646 108.93 11.0469 107.773 11.0606 107.778C11.0744 107.783 12.1288 108.951 13.4037 110.373C14.6786 111.795 15.7733 112.992 15.8364 113.032C16.1301 113.221 16.3462 113.291 16.6829 113.305C17.185 113.326 17.5214 113.206 17.8708 112.882C18.4374 112.357 18.5426 111.499 18.1207 110.845C17.9894 110.641 18.0203 110.669 15.0106 108.024C13.6242 106.805 12.6885 105.959 12.6984 105.934C12.7075 105.91 12.9295 105.652 13.1918 105.36L13.6685 104.829L13.9125 104.892C14.4645 105.035 15.1857 104.906 15.6793 104.576C15.8455 104.465 16.5529 103.786 18.025 102.324C20.265 100.1 20.2019 100.172 20.0935 99.9702C20.0323 99.8562 19.9582 99.8151 19.8121 99.814C19.679 99.8129 19.6555 99.8347 17.5603 101.908ZM14.9014 108.754C17.7942 111.301 17.7161 111.222 17.7533 111.629C17.7821 111.944 17.6956 112.174 17.4606 112.407C17.2255 112.64 16.9935 112.726 16.6754 112.697C16.2716 112.661 16.3373 112.725 13.8745 109.97C12.6363 108.585 11.5885 107.414 11.546 107.368L11.4688 107.284L11.8476 106.857C12.0559 106.623 12.2339 106.43 12.2432 106.43C12.2526 106.429 13.4487 107.475 14.9014 108.754Z" fill="#1B81F9"/>
<path fill-rule="evenodd" clip-rule="evenodd" d="M6.86039 127.45C6.43921 127.598 6.01791 127.943 5.84061 128.285C5.53043 128.884 5.58827 129.614 5.98722 130.137C6.37368 130.643 7.03382 130.913 7.65515 130.819C8.61112 130.675 9.29965 129.76 9.14062 128.847C9.04014 128.269 8.65251 127.766 8.12181 127.523C7.90132 127.422 7.81841 127.406 7.46225 127.395C7.14462 127.385 7.01205 127.397 6.86039 127.45ZM13.6887 127.45C12.9539 127.708 12.4671 128.366 12.4671 129.102C12.4671 129.577 12.6577 130.009 13.0149 130.344C13.7112 130.998 14.7536 130.998 15.4498 130.344C15.707 130.103 15.8527 129.863 15.9382 129.54C16.1484 128.746 15.7568 127.916 14.9973 127.547C14.7215 127.412 14.6783 127.403 14.2934 127.393C13.9767 127.385 13.8389 127.398 13.6887 127.45ZM7.82528 127.98C8.07537 128.064 8.3987 128.362 8.51315 128.615C8.63959 128.894 8.64115 129.311 8.51676 129.579C8.13589 130.402 7.00825 130.552 6.44759 129.854C5.93205 129.212 6.2081 128.246 6.98497 127.974C7.1871 127.903 7.60437 127.906 7.82528 127.98ZM14.7611 128.025C14.9974 128.139 15.1984 128.335 15.3284 128.579C15.4192 128.75 15.434 128.823 15.434 129.102C15.434 129.382 15.4193 129.454 15.3278 129.626C14.8455 130.531 13.5794 130.525 13.1259 129.616C13.0486 129.461 13.0315 129.368 13.0312 129.102C13.0308 128.825 13.0456 128.75 13.1329 128.587C13.2716 128.327 13.5288 128.086 13.765 127.995C14.0372 127.889 14.5091 127.903 14.7611 128.025ZM13.534 131.164C12.806 131.25 12.1047 131.629 11.6463 132.183C11.5495 132.3 11.5402 132.303 11.3761 132.265C11.2827 132.243 11.0559 132.235 10.8722 132.246L10.5383 132.266L10.4533 132.117C10.2964 131.842 9.99311 131.555 9.71998 131.423L9.46194 131.298H7.40487H5.34781L5.13652 131.407C4.68694 131.64 4.27212 132.187 4.06742 132.817C3.91592 133.284 3.88709 133.815 3.90032 135.899C3.91348 137.975 3.91045 137.948 4.15685 138.203C4.35491 138.409 4.72372 138.527 4.96313 138.462L5.09563 138.426V138.671C5.09563 138.805 5.05058 139.882 4.99549 141.064C4.9404 142.245 4.9028 143.332 4.91188 143.479C4.93338 143.827 5.09303 144.146 5.36678 144.388C5.62707 144.618 5.90676 144.72 6.27894 144.72C6.65842 144.72 6.93446 144.618 7.20076 144.378L7.40515 144.194L7.55979 144.349C7.78493 144.574 8.07777 144.696 8.43358 144.713C8.78788 144.73 8.96448 144.687 9.26175 144.511L9.4884 144.377L9.61014 144.478C9.80925 144.643 10.0191 144.718 10.286 144.719C10.5505 144.72 10.7406 144.658 10.945 144.505L11.076 144.407L11.1605 144.485C11.3181 144.63 11.5778 144.718 11.8516 144.719C12.1756 144.72 12.4634 144.585 12.6507 144.343C12.7204 144.253 12.7775 144.195 12.7775 144.214C12.7775 144.292 13.0752 144.583 13.2215 144.648C13.4697 144.759 13.7993 144.743 14.0479 144.608C14.1599 144.548 14.26 144.511 14.2705 144.528C14.281 144.545 14.3682 144.595 14.4642 144.639C14.6852 144.742 15.0251 144.746 15.2411 144.649C15.4416 144.559 15.6724 144.306 15.7223 144.121C15.7439 144.041 15.841 143.108 15.9381 142.047C16.0352 140.987 16.1252 140.029 16.1382 139.918L16.1617 139.718H16.6556C17.3553 139.718 17.3442 139.735 17.2218 138.818C17.1883 138.567 17.1537 138.319 17.1449 138.267C17.1318 138.188 17.1601 138.151 17.3021 138.057C17.5084 137.92 17.7468 137.629 17.866 137.367C17.9282 137.231 17.9563 137.083 17.9672 136.835C17.9806 136.53 17.947 136.305 17.67 134.848C17.4983 133.944 17.333 133.135 17.3027 133.05C16.9281 132.005 16.0149 131.289 14.8958 131.162C14.5405 131.122 13.8819 131.123 13.534 131.164ZM15.1987 131.754C15.7884 131.912 16.3523 132.352 16.626 132.867C16.8086 133.21 16.8059 133.199 17.1437 134.991C17.4338 136.53 17.4719 136.868 17.3817 137.109C17.329 137.25 17.1001 137.579 17.0551 137.579C17.0383 137.579 16.8328 136.631 16.5984 135.473C16.2965 133.98 16.1516 133.34 16.1015 133.277C15.957 133.095 15.6485 133.214 15.6485 133.452C15.6485 133.513 15.8502 134.54 16.0968 135.733C16.3434 136.927 16.5845 138.192 16.6325 138.544L16.7198 139.183H15.0396H13.3594V138.58C13.3594 137.892 13.3175 137.675 13.1002 137.237C12.9048 136.843 12.4818 136.428 12.0741 136.231C11.3736 135.892 10.6155 135.896 9.93558 136.24L9.6349 136.392V135.742V135.091L9.81418 135.246C10.3147 135.68 11.0235 135.818 11.6142 135.597C12.8277 135.143 13.1608 133.637 12.2466 132.737L12.034 132.528L12.2716 132.305C12.5665 132.029 13.0373 131.791 13.4387 131.716C13.822 131.645 14.8751 131.667 15.1987 131.754ZM9.42043 131.868C9.58865 131.937 9.87222 132.193 9.96188 132.357L10.031 132.483L9.78446 132.732C9.64867 132.868 9.49569 133.069 9.44398 133.179C9.39234 133.289 9.32813 133.379 9.30132 133.379C9.27451 133.379 9.21635 133.424 9.17216 133.48C9.0936 133.578 9.09174 133.619 9.09174 135.243V136.907L8.9201 137.253C8.8257 137.443 8.72968 137.69 8.70671 137.801C8.68215 137.92 8.66497 138.498 8.66497 139.206C8.66497 140.327 8.67013 140.418 8.74148 140.556C8.82555 140.718 8.94815 140.827 9.12894 140.901L9.24693 140.949V142.375V143.801L9.12871 143.933C8.96743 144.114 8.72786 144.199 8.43703 144.178C8.14609 144.158 7.93461 144.027 7.78446 143.776L7.67564 143.594L7.65624 140.734L7.63684 137.874L7.53702 137.801C7.46629 137.749 7.40646 137.735 7.33197 137.753C7.10819 137.809 7.11308 137.741 7.11308 140.786C7.11308 143.844 7.12293 143.712 6.87731 143.953C6.70722 144.121 6.52961 144.191 6.27556 144.191C6.0223 144.191 5.83735 144.108 5.66137 143.917C5.41698 143.65 5.4202 143.749 5.55627 140.702C5.66168 138.342 5.67941 137.621 5.67855 135.73C5.67766 133.727 5.67153 133.512 5.61337 133.449C5.52503 133.353 5.32065 133.358 5.22773 133.459C5.1572 133.536 5.15332 133.636 5.14319 135.649L5.13252 137.759L5.03541 137.849C4.89811 137.975 4.69838 137.969 4.56112 137.834L4.45547 137.73L4.45621 135.583C4.45687 133.658 4.46405 133.409 4.52554 133.17C4.66843 132.615 5.02967 132.063 5.36263 131.89C5.49516 131.821 5.60872 131.817 7.3956 131.815C8.94799 131.814 9.31199 131.823 9.42043 131.868ZM11.5578 132.892C11.7914 133.01 12.0177 133.245 12.1314 133.489C12.2474 133.737 12.2468 134.205 12.1301 134.456C12.0229 134.686 11.7635 134.94 11.5166 135.058C11.2246 135.197 10.7816 135.193 10.4822 135.048C10.0777 134.853 9.83179 134.486 9.79982 134.029C9.76165 133.483 10.1215 132.983 10.6824 132.801C10.8781 132.738 11.348 132.787 11.5578 132.892ZM11.4793 136.569C11.7719 136.644 12.004 136.778 12.2671 137.023C12.5113 137.25 12.6427 137.457 12.7432 137.775C12.808 137.98 12.8163 138.137 12.8163 139.163C12.8163 140.423 12.8236 140.383 12.5881 140.429C12.3476 140.476 12.3507 140.454 12.3507 142.191C12.3507 143.935 12.3468 143.966 12.1105 144.108C12.0349 144.154 11.9141 144.185 11.8167 144.185C11.6823 144.185 11.624 144.161 11.5063 144.055L11.3614 143.924L11.342 142.352C11.3235 140.853 11.3191 140.778 11.2473 140.727C11.2058 140.697 11.1152 140.672 11.0458 140.672C10.7987 140.672 10.7988 140.672 10.7988 142.325C10.7988 143.934 10.7984 143.937 10.581 144.106C10.4399 144.215 10.149 144.215 10.0079 144.106C9.78919 143.936 9.79009 143.944 9.79009 142.21C9.79009 140.394 9.80227 140.466 9.48883 140.422C9.3878 140.407 9.28332 140.378 9.25662 140.357C9.21973 140.329 9.20813 140.041 9.20813 139.158C9.20813 138.087 9.21434 137.979 9.28793 137.764C9.60561 136.836 10.5371 136.328 11.4793 136.569ZM13.9414 141.858V143.998L13.8461 144.092C13.7778 144.159 13.7094 144.185 13.6037 144.184C13.4439 144.183 13.3576 144.135 13.2897 144.01C13.2658 143.965 13.1821 143.249 13.1038 142.417L12.9614 140.906L13.102 140.775C13.2979 140.593 13.3594 140.425 13.3594 140.069C13.3594 139.904 13.3711 139.757 13.3853 139.743C13.3995 139.729 13.5304 139.718 13.6763 139.718H13.9414V141.858ZM15.6097 139.731C15.6097 139.842 15.214 143.919 15.1985 143.967C15.159 144.091 15.019 144.186 14.8738 144.186C14.6892 144.186 14.574 144.1 14.5251 143.927C14.4806 143.769 14.4666 139.786 14.5104 139.743C14.5361 139.718 15.6097 139.706 15.6097 139.731Z" fill="#1B81F9"/>
<defs>
<clipPath id="clip0_569_2696">
<rect width="20.5671" height="20.5805" fill="white" transform="translate(0.650391 0.658203)"/>
</clipPath>
</defs>
</svg>
