<svg width="325" height="117" viewBox="0 0 325 117" fill="none" xmlns="http://www.w3.org/2000/svg">
<path d="M24.656 110.916C25.312 111.156 25.64 111.624 25.64 112.32C25.64 112.808 25.476 113.212 25.148 113.532C24.828 113.844 24.364 114 23.756 114H20.84V108H23.516C24.1 108 24.552 108.152 24.872 108.456C25.192 108.752 25.352 109.136 25.352 109.608C25.352 110.208 25.12 110.644 24.656 110.916ZM23.516 108.768H21.632V110.592H23.516C24.212 110.592 24.56 110.28 24.56 109.656C24.56 109.376 24.468 109.16 24.284 109.008C24.108 108.848 23.852 108.768 23.516 108.768ZM23.756 113.232C24.108 113.232 24.376 113.148 24.56 112.98C24.752 112.812 24.848 112.576 24.848 112.272C24.848 111.992 24.752 111.772 24.56 111.612C24.376 111.444 24.108 111.36 23.756 111.36H21.632V113.232H23.756ZM29.276 110.28C29.836 110.28 30.308 110.456 30.692 110.808C31.084 111.152 31.28 111.596 31.28 112.14C31.28 112.684 31.084 113.132 30.692 113.484C30.308 113.828 29.836 114 29.276 114H26.84V108H27.632V110.28H29.276ZM32.12 108H32.912V114H32.12V108ZM29.276 113.232C29.612 113.232 29.896 113.132 30.128 112.932C30.368 112.732 30.488 112.468 30.488 112.14C30.488 111.812 30.368 111.548 30.128 111.348C29.896 111.148 29.612 111.048 29.276 111.048H27.632V113.232H29.276ZM39.6378 114H38.6898L36.8178 111.528L34.9458 114H33.9978L36.3498 110.892L34.1538 108H35.1018L36.8178 110.268L38.5338 108H39.4818L37.2978 110.892L39.6378 114ZM45.3211 113.244C44.7131 113.844 43.9691 114.144 43.0891 114.144C42.2091 114.144 41.4611 113.844 40.8451 113.244C40.2371 112.636 39.9331 111.888 39.9331 111C39.9331 110.112 40.2371 109.368 40.8451 108.768C41.4611 108.16 42.2091 107.856 43.0891 107.856C43.9691 107.856 44.7131 108.16 45.3211 108.768C45.9371 109.368 46.2451 110.112 46.2451 111C46.2451 111.888 45.9371 112.636 45.3211 113.244ZM41.4091 112.692C41.8651 113.148 42.4251 113.376 43.0891 113.376C43.7531 113.376 44.3131 113.148 44.7691 112.692C45.2251 112.228 45.4531 111.664 45.4531 111C45.4531 110.336 45.2251 109.776 44.7691 109.32C44.3131 108.856 43.7531 108.624 43.0891 108.624C42.4251 108.624 41.8651 108.856 41.4091 109.32C40.9531 109.776 40.7251 110.336 40.7251 111C40.7251 111.664 40.9531 112.228 41.4091 112.692ZM52.3761 113.232H53.2161V115.608H52.4241V114H47.5281V115.608H46.7361V113.232H47.4681C47.8761 112.696 48.0801 111.94 48.0801 110.964V108H52.3761V113.232ZM48.4281 113.232H51.5841V108.768H48.8721V110.964C48.8721 111.884 48.7241 112.64 48.4281 113.232ZM56.8502 110.28C57.4102 110.28 57.8822 110.456 58.2662 110.808C58.6582 111.152 58.8542 111.596 58.8542 112.14C58.8542 112.684 58.6582 113.132 58.2662 113.484C57.8822 113.828 57.4102 114 56.8502 114H54.4142V108H55.2062V110.28H56.8502ZM59.6942 108H60.4862V114H59.6942V108ZM56.8502 113.232C57.1862 113.232 57.4702 113.132 57.7022 112.932C57.9422 112.732 58.0622 112.468 58.0622 112.14C58.0622 111.812 57.9422 111.548 57.7022 111.348C57.4702 111.148 57.1862 111.048 56.8502 111.048H55.2062V113.232H56.8502Z" fill="black"/>
<rect x="4" y="106" width="10" height="10" rx="5" fill="#1B81F9"/>
<path d="M121.88 108V114H121.088V108.768H117.632V114H116.84V108H121.88ZM126.771 107.856C127.627 107.856 128.355 108.16 128.955 108.768C129.563 109.376 129.867 110.12 129.867 111C129.867 111.88 129.563 112.624 128.955 113.232C128.355 113.84 127.627 114.144 126.771 114.144C125.707 114.144 124.899 113.704 124.347 112.824V116.4H123.555V108H124.347V109.176C124.899 108.296 125.707 107.856 126.771 107.856ZM125.031 112.692C125.487 113.148 126.047 113.376 126.711 113.376C127.375 113.376 127.935 113.148 128.391 112.692C128.847 112.228 129.075 111.664 129.075 111C129.075 110.336 128.847 109.776 128.391 109.32C127.935 108.856 127.375 108.624 126.711 108.624C126.047 108.624 125.487 108.856 125.031 109.32C124.575 109.776 124.347 110.336 124.347 111C124.347 111.664 124.575 112.228 125.031 112.692ZM136.212 113.244C135.604 113.844 134.86 114.144 133.98 114.144C133.1 114.144 132.352 113.844 131.736 113.244C131.128 112.636 130.824 111.888 130.824 111C130.824 110.112 131.128 109.368 131.736 108.768C132.352 108.16 133.1 107.856 133.98 107.856C134.86 107.856 135.604 108.16 136.212 108.768C136.828 109.368 137.136 110.112 137.136 111C137.136 111.888 136.828 112.636 136.212 113.244ZM132.3 112.692C132.756 113.148 133.316 113.376 133.98 113.376C134.644 113.376 135.204 113.148 135.66 112.692C136.116 112.228 136.344 111.664 136.344 111C136.344 110.336 136.116 109.776 135.66 109.32C135.204 108.856 134.644 108.624 133.98 108.624C133.316 108.624 132.756 108.856 132.3 109.32C131.844 109.776 131.616 110.336 131.616 111C131.616 111.664 131.844 112.228 132.3 112.692ZM141.257 114.144C140.353 114.144 139.601 113.844 139.001 113.244C138.401 112.636 138.101 111.888 138.101 111C138.101 110.112 138.401 109.368 139.001 108.768C139.601 108.16 140.353 107.856 141.257 107.856C141.849 107.856 142.381 108 142.853 108.288C143.325 108.568 143.669 108.948 143.885 109.428L143.237 109.8C143.077 109.44 142.817 109.156 142.457 108.948C142.105 108.732 141.705 108.624 141.257 108.624C140.593 108.624 140.033 108.856 139.577 109.32C139.121 109.776 138.893 110.336 138.893 111C138.893 111.664 139.121 112.228 139.577 112.692C140.033 113.148 140.593 113.376 141.257 113.376C141.705 113.376 142.105 113.272 142.457 113.064C142.809 112.848 143.085 112.56 143.285 112.2L143.945 112.584C143.697 113.064 143.333 113.444 142.853 113.724C142.373 114.004 141.841 114.144 141.257 114.144ZM150.962 108V114H150.17V109.212L148.07 112.62H147.974L145.874 109.212V114H145.082V108H145.994L148.022 111.288L150.05 108H150.962ZM157.669 113.244C157.061 113.844 156.317 114.144 155.437 114.144C154.557 114.144 153.809 113.844 153.193 113.244C152.585 112.636 152.281 111.888 152.281 111C152.281 110.112 152.585 109.368 153.193 108.768C153.809 108.16 154.557 107.856 155.437 107.856C156.317 107.856 157.061 108.16 157.669 108.768C158.285 109.368 158.593 110.112 158.593 111C158.593 111.888 158.285 112.636 157.669 113.244ZM153.757 112.692C154.213 113.148 154.773 113.376 155.437 113.376C156.101 113.376 156.661 113.148 157.117 112.692C157.573 112.228 157.801 111.664 157.801 111C157.801 110.336 157.573 109.776 157.117 109.32C156.661 108.856 156.101 108.624 155.437 108.624C154.773 108.624 154.213 108.856 153.757 109.32C153.301 109.776 153.073 110.336 153.073 111C153.073 111.664 153.301 112.228 153.757 112.692ZM164.004 108V108.768H161.88V114H161.088V108.768H158.964V108H164.004ZM168.185 107.856C169.041 107.856 169.769 108.16 170.369 108.768C170.977 109.376 171.281 110.12 171.281 111C171.281 111.88 170.977 112.624 170.369 113.232C169.769 113.84 169.041 114.144 168.185 114.144C167.121 114.144 166.313 113.704 165.761 112.824V116.4H164.969V108H165.761V109.176C166.313 108.296 167.121 107.856 168.185 107.856ZM166.445 112.692C166.901 113.148 167.461 113.376 168.125 113.376C168.789 113.376 169.349 113.148 169.805 112.692C170.261 112.228 170.489 111.664 170.489 111C170.489 110.336 170.261 109.776 169.805 109.32C169.349 108.856 168.789 108.624 168.125 108.624C167.461 108.624 166.901 108.856 166.445 109.32C165.989 109.776 165.761 110.336 165.761 111C165.761 111.664 165.989 112.228 166.445 112.692ZM175.034 110.28C175.594 110.28 176.066 110.456 176.45 110.808C176.842 111.152 177.038 111.596 177.038 112.14C177.038 112.684 176.842 113.132 176.45 113.484C176.066 113.828 175.594 114 175.034 114H172.598V108H173.39V110.28H175.034ZM177.878 108H178.67V114H177.878V108ZM175.034 113.232C175.37 113.232 175.654 113.132 175.886 112.932C176.126 112.732 176.246 112.468 176.246 112.14C176.246 111.812 176.126 111.548 175.886 111.348C175.654 111.148 175.37 111.048 175.034 111.048H173.39V113.232H175.034Z" fill="black"/>
<rect x="100" y="106" width="10" height="10" rx="5" fill="#F91B6B"/>
<path d="M241.656 110.916C242.312 111.156 242.64 111.624 242.64 112.32C242.64 112.808 242.476 113.212 242.148 113.532C241.828 113.844 241.364 114 240.756 114H237.84V108H240.516C241.1 108 241.552 108.152 241.872 108.456C242.192 108.752 242.352 109.136 242.352 109.608C242.352 110.208 242.12 110.644 241.656 110.916ZM240.516 108.768H238.632V110.592H240.516C241.212 110.592 241.56 110.28 241.56 109.656C241.56 109.376 241.468 109.16 241.284 109.008C241.108 108.848 240.852 108.768 240.516 108.768ZM240.756 113.232C241.108 113.232 241.376 113.148 241.56 112.98C241.752 112.812 241.848 112.576 241.848 112.272C241.848 111.992 241.752 111.772 241.56 111.612C241.376 111.444 241.108 111.36 240.756 111.36H238.632V113.232H240.756ZM248.868 113.244C248.26 113.844 247.516 114.144 246.636 114.144C245.756 114.144 245.008 113.844 244.392 113.244C243.784 112.636 243.48 111.888 243.48 111C243.48 110.112 243.784 109.368 244.392 108.768C245.008 108.16 245.756 107.856 246.636 107.856C247.516 107.856 248.26 108.16 248.868 108.768C249.484 109.368 249.792 110.112 249.792 111C249.792 111.888 249.484 112.636 248.868 113.244ZM244.956 112.692C245.412 113.148 245.972 113.376 246.636 113.376C247.3 113.376 247.86 113.148 248.316 112.692C248.772 112.228 249 111.664 249 111C249 110.336 248.772 109.776 248.316 109.32C247.86 108.856 247.3 108.624 246.636 108.624C245.972 108.624 245.412 108.856 244.956 109.32C244.5 109.776 244.272 110.336 244.272 111C244.272 111.664 244.5 112.228 244.956 112.692ZM254.933 110.916C255.589 111.156 255.917 111.624 255.917 112.32C255.917 112.808 255.753 113.212 255.425 113.532C255.105 113.844 254.641 114 254.033 114H251.117V108H253.793C254.377 108 254.829 108.152 255.149 108.456C255.469 108.752 255.629 109.136 255.629 109.608C255.629 110.208 255.397 110.644 254.933 110.916ZM253.793 108.768H251.909V110.592H253.793C254.489 110.592 254.837 110.28 254.837 109.656C254.837 109.376 254.745 109.16 254.561 109.008C254.385 108.848 254.129 108.768 253.793 108.768ZM254.033 113.232C254.385 113.232 254.653 113.148 254.837 112.98C255.029 112.812 255.125 112.576 255.125 112.272C255.125 111.992 255.029 111.772 254.837 111.612C254.653 111.444 254.385 111.36 254.033 111.36H251.909V113.232H254.033ZM261.803 108V114H261.011V108.768H258.299V111.444C258.299 112.444 258.107 113.132 257.723 113.508C257.347 113.884 256.827 114.048 256.163 114V113.256C256.619 113.304 256.955 113.196 257.171 112.932C257.395 112.668 257.507 112.172 257.507 111.444V108H261.803ZM266.253 107.856C267.141 107.856 267.857 108.172 268.401 108.804C268.953 109.428 269.229 110.168 269.229 111.024C269.229 111.112 269.221 111.236 269.205 111.396H263.937C264.017 112.004 264.273 112.488 264.705 112.848C265.145 113.2 265.685 113.376 266.325 113.376C266.781 113.376 267.173 113.284 267.501 113.1C267.837 112.908 268.089 112.66 268.257 112.356L268.953 112.764C268.689 113.188 268.329 113.524 267.873 113.772C267.417 114.02 266.897 114.144 266.313 114.144C265.369 114.144 264.601 113.848 264.009 113.256C263.417 112.664 263.121 111.912 263.121 111C263.121 110.104 263.413 109.356 263.997 108.756C264.581 108.156 265.333 107.856 266.253 107.856ZM266.253 108.624C265.629 108.624 265.105 108.812 264.681 109.188C264.265 109.556 264.017 110.036 263.937 110.628H268.413C268.333 109.996 268.089 109.504 267.681 109.152C267.273 108.8 266.797 108.624 266.253 108.624ZM274.376 108H275.168V114H274.376V111.72C273.912 111.96 273.34 112.08 272.66 112.08C271.876 112.08 271.276 111.9 270.86 111.54C270.452 111.172 270.248 110.632 270.248 109.92V108H271.04V109.92C271.04 110.424 271.172 110.788 271.436 111.012C271.7 111.228 272.1 111.336 272.636 111.336C273.26 111.336 273.84 111.22 274.376 110.988V108ZM279.624 107.856C280.512 107.856 281.228 108.172 281.772 108.804C282.324 109.428 282.6 110.168 282.6 111.024C282.6 111.112 282.592 111.236 282.576 111.396H277.308C277.388 112.004 277.644 112.488 278.076 112.848C278.516 113.2 279.056 113.376 279.696 113.376C280.152 113.376 280.544 113.284 280.872 113.1C281.208 112.908 281.46 112.66 281.628 112.356L282.324 112.764C282.06 113.188 281.7 113.524 281.244 113.772C280.788 114.02 280.268 114.144 279.684 114.144C278.74 114.144 277.972 113.848 277.38 113.256C276.788 112.664 276.492 111.912 276.492 111C276.492 110.104 276.784 109.356 277.368 108.756C277.952 108.156 278.704 107.856 279.624 107.856ZM279.624 108.624C279 108.624 278.476 108.812 278.052 109.188C277.636 109.556 277.388 110.036 277.308 110.628H281.784C281.704 109.996 281.46 109.504 281.052 109.152C280.644 108.8 280.168 108.624 279.624 108.624ZM288.108 108H288.9V114H288.108V111.384H284.652V114H283.86V108H284.652V110.616H288.108V108ZM294.822 108H295.614V114H294.822V111.384H291.366V114H290.574V108H291.366V110.616H294.822V108ZM302.317 113.244C301.709 113.844 300.965 114.144 300.085 114.144C299.205 114.144 298.457 113.844 297.841 113.244C297.233 112.636 296.929 111.888 296.929 111C296.929 110.112 297.233 109.368 297.841 108.768C298.457 108.16 299.205 107.856 300.085 107.856C300.965 107.856 301.709 108.16 302.317 108.768C302.933 109.368 303.241 110.112 303.241 111C303.241 111.888 302.933 112.636 302.317 113.244ZM298.405 112.692C298.861 113.148 299.421 113.376 300.085 113.376C300.749 113.376 301.309 113.148 301.765 112.692C302.221 112.228 302.449 111.664 302.449 111C302.449 110.336 302.221 109.776 301.765 109.32C301.309 108.856 300.749 108.624 300.085 108.624C299.421 108.624 298.861 108.856 298.405 109.32C297.949 109.776 297.721 110.336 297.721 111C297.721 111.664 297.949 112.228 298.405 112.692ZM307.363 114.144C306.459 114.144 305.707 113.844 305.107 113.244C304.507 112.636 304.207 111.888 304.207 111C304.207 110.112 304.507 109.368 305.107 108.768C305.707 108.16 306.459 107.856 307.363 107.856C307.955 107.856 308.487 108 308.959 108.288C309.431 108.568 309.775 108.948 309.991 109.428L309.343 109.8C309.183 109.44 308.923 109.156 308.563 108.948C308.211 108.732 307.811 108.624 307.363 108.624C306.699 108.624 306.139 108.856 305.683 109.32C305.227 109.776 304.999 110.336 304.999 111C304.999 111.664 305.227 112.228 305.683 112.692C306.139 113.148 306.699 113.376 307.363 113.376C307.811 113.376 308.211 113.272 308.563 113.064C308.915 112.848 309.191 112.56 309.391 112.2L310.051 112.584C309.803 113.064 309.439 113.444 308.959 113.724C308.479 114.004 307.947 114.144 307.363 114.144ZM315.39 108V108.768H313.266V114H312.474V108.768H310.35V108H315.39ZM318.792 110.28C319.352 110.28 319.824 110.456 320.208 110.808C320.6 111.152 320.796 111.596 320.796 112.14C320.796 112.684 320.6 113.132 320.208 113.484C319.824 113.828 319.352 114 318.792 114H316.356V108H317.148V110.28H318.792ZM318.792 113.232C319.128 113.232 319.412 113.132 319.644 112.932C319.884 112.732 320.004 112.468 320.004 112.14C320.004 111.812 319.884 111.548 319.644 111.348C319.412 111.148 319.128 111.048 318.792 111.048H317.148V113.232H318.792Z" fill="black"/>
<rect x="221" y="106" width="10" height="10" rx="5" fill="#7B51FA"/>
<g filter="url(#filter0_d_1069_571)">
<rect x="240" y="87" width="14" height="70" rx="7" transform="rotate(90 240 87)" fill="white"/>
</g>
<path d="M179.671 91H180.271V98H179.571V91.77L178.001 92.24L177.821 91.64L179.671 91ZM183.719 93.82C184.373 93.82 184.926 94.0133 185.379 94.4C185.839 94.78 186.069 95.3033 186.069 95.97C186.069 96.6367 185.839 97.1633 185.379 97.55C184.926 97.93 184.373 98.12 183.719 98.12C183.193 98.12 182.723 97.9933 182.309 97.74C181.896 97.48 181.616 97.11 181.469 96.63L182.059 96.29C182.159 96.6633 182.356 96.95 182.649 97.15C182.949 97.3433 183.306 97.44 183.719 97.44C184.199 97.44 184.593 97.3133 184.899 97.06C185.213 96.8 185.369 96.4367 185.369 95.97C185.369 95.5033 185.213 95.1433 184.899 94.89C184.593 94.63 184.199 94.5 183.719 94.5H181.819L182.069 91H185.819V91.66H182.689L182.539 93.82H183.719ZM187.814 97.94C187.708 98.0467 187.578 98.1 187.424 98.1C187.271 98.1 187.141 98.0467 187.034 97.94C186.928 97.8333 186.874 97.7033 186.874 97.55C186.874 97.3967 186.928 97.2667 187.034 97.16C187.141 97.0533 187.271 97 187.424 97C187.578 97 187.708 97.0533 187.814 97.16C187.921 97.2667 187.974 97.3967 187.974 97.55C187.974 97.7033 187.921 97.8333 187.814 97.94ZM193.376 97.14C192.916 97.7933 192.266 98.12 191.426 98.12C190.586 98.12 189.933 97.7933 189.466 97.14C189.006 96.48 188.776 95.6 188.776 94.5C188.776 93.4 189.006 92.5233 189.466 91.87C189.933 91.21 190.586 90.88 191.426 90.88C192.266 90.88 192.916 91.21 193.376 91.87C193.843 92.5233 194.076 93.4 194.076 94.5C194.076 95.6 193.843 96.48 193.376 97.14ZM189.986 96.67C190.333 97.1833 190.813 97.44 191.426 97.44C192.04 97.44 192.516 97.1833 192.856 96.67C193.203 96.1567 193.376 95.4333 193.376 94.5C193.376 93.5667 193.203 92.8433 192.856 92.33C192.516 91.8167 192.04 91.56 191.426 91.56C190.813 91.56 190.333 91.8167 189.986 92.33C189.646 92.8433 189.476 93.5667 189.476 94.5C189.476 95.4333 189.646 96.1567 189.986 96.67ZM199.575 93.19C199.575 93.7167 199.432 94.1833 199.145 94.59L196.855 98H196.065L197.785 95.44C197.605 95.48 197.419 95.5 197.225 95.5C196.539 95.5 195.975 95.2867 195.535 94.86C195.095 94.4267 194.875 93.87 194.875 93.19C194.875 92.51 195.095 91.9567 195.535 91.53C195.975 91.0967 196.539 90.88 197.225 90.88C197.912 90.88 198.475 91.0967 198.915 91.53C199.355 91.9567 199.575 92.51 199.575 93.19ZM196.025 92.01C195.725 92.31 195.575 92.7033 195.575 93.19C195.575 93.6767 195.725 94.07 196.025 94.37C196.332 94.67 196.732 94.82 197.225 94.82C197.719 94.82 198.115 94.67 198.415 94.37C198.722 94.07 198.875 93.6767 198.875 93.19C198.875 92.7033 198.722 92.31 198.415 92.01C198.115 91.71 197.719 91.56 197.225 91.56C196.732 91.56 196.332 91.71 196.025 92.01ZM203.178 95.23V94.59H206.778V95.23H203.178ZM210.473 98V97.37L212.993 94.83C213.713 94.11 214.073 93.4933 214.073 92.98C214.073 92.5333 213.933 92.1867 213.653 91.94C213.38 91.6867 213.05 91.56 212.663 91.56C211.943 91.56 211.42 91.89 211.093 92.55L210.503 92.2C210.723 91.7667 211.023 91.44 211.403 91.22C211.783 90.9933 212.203 90.88 212.663 90.88C213.223 90.88 213.713 91.07 214.133 91.45C214.56 91.8233 214.773 92.3333 214.773 92.98C214.773 93.3867 214.66 93.7767 214.433 94.15C214.207 94.5233 213.887 94.9167 213.473 95.33L211.473 97.32H214.923V98H210.473ZM217.327 91H217.927V98H217.227V91.77L215.657 92.24L215.477 91.64L217.327 91ZM220.266 97.94C220.159 98.0467 220.029 98.1 219.876 98.1C219.722 98.1 219.592 98.0467 219.486 97.94C219.379 97.8333 219.326 97.7033 219.326 97.55C219.326 97.3967 219.379 97.2667 219.486 97.16C219.592 97.0533 219.722 97 219.876 97C220.029 97 220.159 97.0533 220.266 97.16C220.372 97.2667 220.426 97.3967 220.426 97.55C220.426 97.7033 220.372 97.8333 220.266 97.94ZM225.828 97.14C225.368 97.7933 224.718 98.12 223.878 98.12C223.038 98.12 222.384 97.7933 221.918 97.14C221.458 96.48 221.228 95.6 221.228 94.5C221.228 93.4 221.458 92.5233 221.918 91.87C222.384 91.21 223.038 90.88 223.878 90.88C224.718 90.88 225.368 91.21 225.828 91.87C226.294 92.5233 226.528 93.4 226.528 94.5C226.528 95.6 226.294 96.48 225.828 97.14ZM222.438 96.67C222.784 97.1833 223.264 97.44 223.878 97.44C224.491 97.44 224.968 97.1833 225.308 96.67C225.654 96.1567 225.828 95.4333 225.828 94.5C225.828 93.5667 225.654 92.8433 225.308 92.33C224.968 91.8167 224.491 91.56 223.878 91.56C223.264 91.56 222.784 91.8167 222.438 92.33C222.098 92.8433 221.928 93.5667 221.928 94.5C221.928 95.4333 222.098 96.1567 222.438 96.67ZM232.026 93.19C232.026 93.7167 231.883 94.1833 231.596 94.59L229.306 98H228.516L230.236 95.44C230.056 95.48 229.87 95.5 229.676 95.5C228.99 95.5 228.426 95.2867 227.986 94.86C227.546 94.4267 227.326 93.87 227.326 93.19C227.326 92.51 227.546 91.9567 227.986 91.53C228.426 91.0967 228.99 90.88 229.676 90.88C230.363 90.88 230.926 91.0967 231.366 91.53C231.806 91.9567 232.026 92.51 232.026 93.19ZM228.476 92.01C228.176 92.31 228.026 92.7033 228.026 93.19C228.026 93.6767 228.176 94.07 228.476 94.37C228.783 94.67 229.183 94.82 229.676 94.82C230.17 94.82 230.566 94.67 230.866 94.37C231.173 94.07 231.326 93.6767 231.326 93.19C231.326 92.7033 231.173 92.31 230.866 92.01C230.566 91.71 230.17 91.56 229.676 91.56C229.183 91.56 228.783 91.71 228.476 92.01Z" fill="black"/>
<path d="M185.15 53.94V54.6H184.25V56H183.55V54.6H179.85V53.94L182.45 49H183.22L180.62 53.94H183.55V51.8H184.25V53.94H185.15Z" fill="#9D9D9D"/>
<path d="M198.93 37H199.53V44H198.83V37.77L197.26 38.24L197.08 37.64L198.93 37ZM202.328 37H202.928V44H202.228V37.77L200.658 38.24L200.478 37.64L202.328 37ZM203.927 37H208.227V37.66L205.587 44H204.857L207.497 37.66H203.927V37ZM215.869 44H214.989L212.489 41.59V44H211.829V37H212.489V41.21L214.869 39H215.769L213.189 41.4L215.869 44Z" fill="#9D9D9D"/>
<path d="M222.898 19.94V20.6H221.998V22H221.298V20.6H217.598V19.94L220.198 15H220.968L218.368 19.94H221.298V17.8H221.998V19.94H222.898ZM227.953 17.19C227.953 17.7167 227.81 18.1833 227.523 18.59L225.233 22H224.443L226.163 19.44C225.983 19.48 225.796 19.5 225.603 19.5C224.916 19.5 224.353 19.2867 223.913 18.86C223.473 18.4267 223.253 17.87 223.253 17.19C223.253 16.51 223.473 15.9567 223.913 15.53C224.353 15.0967 224.916 14.88 225.603 14.88C226.29 14.88 226.853 15.0967 227.293 15.53C227.733 15.9567 227.953 16.51 227.953 17.19ZM224.403 16.01C224.103 16.31 223.953 16.7033 223.953 17.19C223.953 17.6767 224.103 18.07 224.403 18.37C224.71 18.67 225.11 18.82 225.603 18.82C226.096 18.82 226.493 18.67 226.793 18.37C227.1 18.07 227.253 17.6767 227.253 17.19C227.253 16.7033 227.1 16.31 226.793 16.01C226.493 15.71 226.096 15.56 225.603 15.56C225.11 15.56 224.71 15.71 224.403 16.01ZM228.399 21.94C228.293 22.0467 228.163 22.1 228.009 22.1C227.856 22.1 227.726 22.0467 227.619 21.94C227.513 21.8333 227.459 21.7033 227.459 21.55C227.459 21.3967 227.513 21.2667 227.619 21.16C227.726 21.0533 227.856 21 228.009 21C228.163 21 228.293 21.0533 228.399 21.16C228.506 21.2667 228.559 21.3967 228.559 21.55C228.559 21.7033 228.506 21.8333 228.399 21.94ZM231.164 15H231.764V22H231.064V15.77L229.494 16.24L229.314 15.64L231.164 15ZM234.693 17.88C234.259 17.88 233.896 17.7367 233.603 17.45C233.309 17.1567 233.163 16.8 233.163 16.38C233.163 15.96 233.309 15.6067 233.603 15.32C233.896 15.0267 234.259 14.88 234.693 14.88C235.126 14.88 235.489 15.0267 235.783 15.32C236.076 15.6067 236.223 15.96 236.223 16.38C236.223 16.8 236.079 17.1567 235.793 17.45C235.506 17.7367 235.139 17.88 234.693 17.88ZM234.053 17.02C234.219 17.1933 234.433 17.28 234.693 17.28C234.953 17.28 235.166 17.1933 235.333 17.02C235.499 16.8467 235.583 16.6333 235.583 16.38C235.583 16.1267 235.499 15.9133 235.333 15.74C235.166 15.5667 234.953 15.48 234.693 15.48C234.433 15.48 234.219 15.5667 234.053 15.74C233.886 15.9133 233.803 16.1267 233.803 16.38C233.803 16.6333 233.886 16.8467 234.053 17.02ZM233.513 21.05L238.203 15.78L238.633 16.02L233.933 21.29L233.513 21.05ZM238.613 21.69C238.319 21.9767 237.956 22.12 237.523 22.12C237.089 22.12 236.726 21.9767 236.433 21.69C236.139 21.3967 235.993 21.04 235.993 20.62C235.993 20.2 236.139 19.8467 236.433 19.56C236.726 19.2667 237.089 19.12 237.523 19.12C237.956 19.12 238.319 19.2667 238.613 19.56C238.906 19.8467 239.053 20.2 239.053 20.62C239.053 21.04 238.906 21.3967 238.613 21.69ZM236.883 21.26C237.049 21.4333 237.263 21.52 237.523 21.52C237.783 21.52 237.996 21.4333 238.163 21.26C238.329 21.0867 238.413 20.8733 238.413 20.62C238.413 20.3667 238.329 20.1533 238.163 19.98C237.996 19.8067 237.783 19.72 237.523 19.72C237.263 19.72 237.049 19.8067 236.883 19.98C236.716 20.1533 236.633 20.3667 236.633 20.62C236.633 20.8733 236.716 21.0867 236.883 21.26Z" fill="#9D9D9D"/>
<rect x="199" y="47" width="13" height="36" rx="5" fill="#F91B6B"/>
<rect x="222" y="25" width="13" height="58" rx="5" fill="#7649F9"/>
<rect x="176" y="59" width="13" height="24" rx="5" fill="#1B81F9"/>
<path d="M262.45 35.82C263.103 35.82 263.656 36.0133 264.11 36.4C264.57 36.78 264.8 37.3033 264.8 37.97C264.8 38.6367 264.57 39.1633 264.11 39.55C263.656 39.93 263.103 40.12 262.45 40.12C261.923 40.12 261.453 39.9933 261.04 39.74C260.626 39.48 260.346 39.11 260.2 38.63L260.79 38.29C260.89 38.6633 261.086 38.95 261.38 39.15C261.68 39.3433 262.036 39.44 262.45 39.44C262.93 39.44 263.323 39.3133 263.63 39.06C263.943 38.8 264.1 38.4367 264.1 37.97C264.1 37.5033 263.943 37.1433 263.63 36.89C263.323 36.63 262.93 36.5 262.45 36.5H260.55L260.8 33H264.55V33.66H261.42L261.27 35.82H262.45Z" fill="#9D9D9D"/>
<path d="M277.279 18H277.879V25H277.179V18.77L275.609 19.24L275.429 18.64L277.279 18ZM281.328 20.82C281.981 20.82 282.534 21.0133 282.988 21.4C283.448 21.78 283.678 22.3033 283.678 22.97C283.678 23.6367 283.448 24.1633 282.988 24.55C282.534 24.93 281.981 25.12 281.328 25.12C280.801 25.12 280.331 24.9933 279.918 24.74C279.504 24.48 279.224 24.11 279.078 23.63L279.668 23.29C279.768 23.6633 279.964 23.95 280.258 24.15C280.558 24.3433 280.914 24.44 281.328 24.44C281.808 24.44 282.201 24.3133 282.508 24.06C282.821 23.8 282.978 23.4367 282.978 22.97C282.978 22.5033 282.821 22.1433 282.508 21.89C282.201 21.63 281.808 21.5 281.328 21.5H279.428L279.678 18H283.428V18.66H280.298L280.148 20.82H281.328ZM289.08 24.14C288.62 24.7933 287.97 25.12 287.13 25.12C286.29 25.12 285.637 24.7933 285.17 24.14C284.71 23.48 284.48 22.6 284.48 21.5C284.48 20.4 284.71 19.5233 285.17 18.87C285.637 18.21 286.29 17.88 287.13 17.88C287.97 17.88 288.62 18.21 289.08 18.87C289.547 19.5233 289.78 20.4 289.78 21.5C289.78 22.6 289.547 23.48 289.08 24.14ZM285.69 23.67C286.037 24.1833 286.517 24.44 287.13 24.44C287.744 24.44 288.22 24.1833 288.56 23.67C288.907 23.1567 289.08 22.4333 289.08 21.5C289.08 20.5667 288.907 19.8433 288.56 19.33C288.22 18.8167 287.744 18.56 287.13 18.56C286.517 18.56 286.037 18.8167 285.69 19.33C285.35 19.8433 285.18 20.5667 285.18 21.5C285.18 22.4333 285.35 23.1567 285.69 23.67ZM297.519 25H296.639L294.139 22.59V25H293.479V18H294.139V22.21L296.519 20H297.419L294.839 22.4L297.519 25Z" fill="#9D9D9D"/>
<path d="M298.416 32.91C298.976 32.9833 299.436 33.2 299.796 33.56C300.163 33.9133 300.346 34.3833 300.346 34.97C300.346 35.6367 300.116 36.1633 299.656 36.55C299.203 36.93 298.65 37.12 297.996 37.12C297.476 37.12 297.013 37 296.606 36.76C296.2 36.52 295.913 36.1767 295.746 35.73L296.326 35.39C296.44 35.7367 296.643 36 296.936 36.18C297.23 36.3533 297.583 36.44 297.996 36.44C298.476 36.44 298.87 36.3133 299.176 36.06C299.49 35.8 299.646 35.4367 299.646 34.97C299.646 34.5033 299.49 34.1433 299.176 33.89C298.87 33.63 298.476 33.5 297.996 33.5V33.49L297.986 33.5H297.796L297.496 33.04L299.236 30.66H295.946V30H300.046V30.66L298.416 32.91ZM301.149 37V36.37L303.669 33.83C304.389 33.11 304.749 32.4933 304.749 31.98C304.749 31.5333 304.609 31.1867 304.329 30.94C304.056 30.6867 303.726 30.56 303.339 30.56C302.619 30.56 302.096 30.89 301.769 31.55L301.179 31.2C301.399 30.7667 301.699 30.44 302.079 30.22C302.459 29.9933 302.879 29.88 303.339 29.88C303.899 29.88 304.389 30.07 304.809 30.45C305.236 30.8233 305.449 31.3333 305.449 31.98C305.449 32.3867 305.336 32.7767 305.109 33.15C304.882 33.5233 304.562 33.9167 304.149 34.33L302.149 36.32H305.599V37H301.149ZM307.543 36.94C307.436 37.0467 307.306 37.1 307.153 37.1C307 37.1 306.87 37.0467 306.763 36.94C306.656 36.8333 306.603 36.7033 306.603 36.55C306.603 36.3967 306.656 36.2667 306.763 36.16C306.87 36.0533 307 36 307.153 36C307.306 36 307.436 36.0533 307.543 36.16C307.65 36.2667 307.703 36.3967 307.703 36.55C307.703 36.7033 307.65 36.8333 307.543 36.94ZM308.708 37V36.37L311.228 33.83C311.948 33.11 312.308 32.4933 312.308 31.98C312.308 31.5333 312.168 31.1867 311.888 30.94C311.614 30.6867 311.284 30.56 310.898 30.56C310.178 30.56 309.654 30.89 309.328 31.55L308.738 31.2C308.958 30.7667 309.258 30.44 309.638 30.22C310.018 29.9933 310.438 29.88 310.898 29.88C311.458 29.88 311.948 30.07 312.368 30.45C312.794 30.8233 313.008 31.3333 313.008 31.98C313.008 32.3867 312.894 32.7767 312.668 33.15C312.441 33.5233 312.121 33.9167 311.708 34.33L309.708 36.32H313.158V37H308.708ZM315.594 32.88C315.161 32.88 314.797 32.7367 314.504 32.45C314.211 32.1567 314.064 31.8 314.064 31.38C314.064 30.96 314.211 30.6067 314.504 30.32C314.797 30.0267 315.161 29.88 315.594 29.88C316.027 29.88 316.391 30.0267 316.684 30.32C316.977 30.6067 317.124 30.96 317.124 31.38C317.124 31.8 316.981 32.1567 316.694 32.45C316.407 32.7367 316.041 32.88 315.594 32.88ZM314.954 32.02C315.121 32.1933 315.334 32.28 315.594 32.28C315.854 32.28 316.067 32.1933 316.234 32.02C316.401 31.8467 316.484 31.6333 316.484 31.38C316.484 31.1267 316.401 30.9133 316.234 30.74C316.067 30.5667 315.854 30.48 315.594 30.48C315.334 30.48 315.121 30.5667 314.954 30.74C314.787 30.9133 314.704 31.1267 314.704 31.38C314.704 31.6333 314.787 31.8467 314.954 32.02ZM314.414 36.05L319.104 30.78L319.534 31.02L314.834 36.29L314.414 36.05ZM319.514 36.69C319.221 36.9767 318.857 37.12 318.424 37.12C317.991 37.12 317.627 36.9767 317.334 36.69C317.041 36.3967 316.894 36.04 316.894 35.62C316.894 35.2 317.041 34.8467 317.334 34.56C317.627 34.2667 317.991 34.12 318.424 34.12C318.857 34.12 319.221 34.2667 319.514 34.56C319.807 34.8467 319.954 35.2 319.954 35.62C319.954 36.04 319.807 36.3967 319.514 36.69ZM317.784 36.26C317.951 36.4333 318.164 36.52 318.424 36.52C318.684 36.52 318.897 36.4333 319.064 36.26C319.231 36.0867 319.314 35.8733 319.314 35.62C319.314 35.3667 319.231 35.1533 319.064 34.98C318.897 34.8067 318.684 34.72 318.424 34.72C318.164 34.72 317.951 34.8067 317.784 34.98C317.617 35.1533 317.534 35.3667 317.534 35.62C317.534 35.8733 317.617 36.0867 317.784 36.26Z" fill="#9D9D9D"/>
<g filter="url(#filter1_d_1069_571)">
<rect x="320" y="87" width="14" height="70" rx="7" transform="rotate(90 320 87)" fill="white"/>
</g>
<path d="M256.103 98V97.37L258.623 94.83C259.343 94.11 259.703 93.4933 259.703 92.98C259.703 92.5333 259.563 92.1867 259.283 91.94C259.01 91.6867 258.68 91.56 258.293 91.56C257.573 91.56 257.05 91.89 256.723 92.55L256.133 92.2C256.353 91.7667 256.653 91.44 257.033 91.22C257.413 90.9933 257.833 90.88 258.293 90.88C258.853 90.88 259.343 91.07 259.763 91.45C260.19 91.8233 260.403 92.3333 260.403 92.98C260.403 93.3867 260.29 93.7767 260.063 94.15C259.836 94.5233 259.516 94.9167 259.103 95.33L257.103 97.32H260.553V98H256.103ZM261.357 98V97.37L263.877 94.83C264.597 94.11 264.957 93.4933 264.957 92.98C264.957 92.5333 264.817 92.1867 264.537 91.94C264.264 91.6867 263.934 91.56 263.547 91.56C262.827 91.56 262.304 91.89 261.977 92.55L261.387 92.2C261.607 91.7667 261.907 91.44 262.287 91.22C262.667 90.9933 263.087 90.88 263.547 90.88C264.107 90.88 264.597 91.07 265.017 91.45C265.444 91.8233 265.657 92.3333 265.657 92.98C265.657 93.3867 265.544 93.7767 265.317 94.15C265.09 94.5233 264.77 94.9167 264.357 95.33L262.357 97.32H265.807V98H261.357ZM267.751 97.94C267.644 98.0467 267.514 98.1 267.361 98.1C267.208 98.1 267.078 98.0467 266.971 97.94C266.864 97.8333 266.811 97.7033 266.811 97.55C266.811 97.3967 266.864 97.2667 266.971 97.16C267.078 97.0533 267.208 97 267.361 97C267.514 97 267.644 97.0533 267.751 97.16C267.858 97.2667 267.911 97.3967 267.911 97.55C267.911 97.7033 267.858 97.8333 267.751 97.94ZM273.313 97.14C272.853 97.7933 272.203 98.12 271.363 98.12C270.523 98.12 269.87 97.7933 269.403 97.14C268.943 96.48 268.713 95.6 268.713 94.5C268.713 93.4 268.943 92.5233 269.403 91.87C269.87 91.21 270.523 90.88 271.363 90.88C272.203 90.88 272.853 91.21 273.313 91.87C273.78 92.5233 274.013 93.4 274.013 94.5C274.013 95.6 273.78 96.48 273.313 97.14ZM269.923 96.67C270.27 97.1833 270.75 97.44 271.363 97.44C271.976 97.44 272.453 97.1833 272.793 96.67C273.14 96.1567 273.313 95.4333 273.313 94.5C273.313 93.5667 273.14 92.8433 272.793 92.33C272.453 91.8167 271.976 91.56 271.363 91.56C270.75 91.56 270.27 91.8167 269.923 92.33C269.583 92.8433 269.413 93.5667 269.413 94.5C269.413 95.4333 269.583 96.1567 269.923 96.67ZM279.512 93.19C279.512 93.7167 279.368 94.1833 279.082 94.59L276.792 98H276.002L277.722 95.44C277.542 95.48 277.355 95.5 277.162 95.5C276.475 95.5 275.912 95.2867 275.472 94.86C275.032 94.4267 274.812 93.87 274.812 93.19C274.812 92.51 275.032 91.9567 275.472 91.53C275.912 91.0967 276.475 90.88 277.162 90.88C277.848 90.88 278.412 91.0967 278.852 91.53C279.292 91.9567 279.512 92.51 279.512 93.19ZM275.962 92.01C275.662 92.31 275.512 92.7033 275.512 93.19C275.512 93.6767 275.662 94.07 275.962 94.37C276.268 94.67 276.668 94.82 277.162 94.82C277.655 94.82 278.052 94.67 278.352 94.37C278.658 94.07 278.812 93.6767 278.812 93.19C278.812 92.7033 278.658 92.31 278.352 92.01C278.052 91.71 277.655 91.56 277.162 91.56C276.668 91.56 276.268 91.71 275.962 92.01ZM283.114 95.23V94.59H286.714V95.23H283.114ZM290.41 98V97.37L292.93 94.83C293.65 94.11 294.01 93.4933 294.01 92.98C294.01 92.5333 293.87 92.1867 293.59 91.94C293.316 91.6867 292.986 91.56 292.6 91.56C291.88 91.56 291.356 91.89 291.03 92.55L290.44 92.2C290.66 91.7667 290.96 91.44 291.34 91.22C291.72 90.9933 292.14 90.88 292.6 90.88C293.16 90.88 293.65 91.07 294.07 91.45C294.496 91.8233 294.71 92.3333 294.71 92.98C294.71 93.3867 294.596 93.7767 294.37 94.15C294.143 94.5233 293.823 94.9167 293.41 95.33L291.41 97.32H294.86V98H290.41ZM299.135 94.39C299.488 94.5567 299.768 94.79 299.975 95.09C300.188 95.3833 300.295 95.72 300.295 96.1C300.295 96.7333 300.072 97.23 299.625 97.59C299.178 97.9433 298.622 98.12 297.955 98.12C297.288 98.12 296.732 97.9433 296.285 97.59C295.838 97.23 295.615 96.7333 295.615 96.1C295.615 95.72 295.718 95.3833 295.925 95.09C296.138 94.79 296.422 94.5567 296.775 94.39C296.155 94.0367 295.845 93.5133 295.845 92.82C295.845 92.1933 296.052 91.7133 296.465 91.38C296.885 91.0467 297.382 90.88 297.955 90.88C298.528 90.88 299.022 91.0467 299.435 91.38C299.855 91.7133 300.065 92.1933 300.065 92.82C300.065 93.5133 299.755 94.0367 299.135 94.39ZM298.955 91.87C298.688 91.6633 298.355 91.56 297.955 91.56C297.555 91.56 297.218 91.6633 296.945 91.87C296.678 92.0767 296.545 92.3933 296.545 92.82C296.545 93.22 296.682 93.53 296.955 93.75C297.235 93.97 297.568 94.08 297.955 94.08C298.342 94.08 298.672 93.97 298.945 93.75C299.225 93.53 299.365 93.22 299.365 92.82C299.365 92.3933 299.228 92.0767 298.955 91.87ZM296.765 97.1C297.065 97.3267 297.462 97.44 297.955 97.44C298.448 97.44 298.845 97.3267 299.145 97.1C299.445 96.8667 299.595 96.5333 299.595 96.1C299.595 95.6667 299.445 95.3367 299.145 95.11C298.845 94.8767 298.448 94.76 297.955 94.76C297.462 94.76 297.065 94.8767 296.765 95.11C296.465 95.3367 296.315 95.6667 296.315 96.1C296.315 96.5333 296.465 96.8667 296.765 97.1ZM302.233 97.94C302.127 98.0467 301.997 98.1 301.843 98.1C301.69 98.1 301.56 98.0467 301.453 97.94C301.347 97.8333 301.293 97.7033 301.293 97.55C301.293 97.3967 301.347 97.2667 301.453 97.16C301.56 97.0533 301.69 97 301.843 97C301.997 97 302.127 97.0533 302.233 97.16C302.34 97.2667 302.393 97.3967 302.393 97.55C302.393 97.7033 302.34 97.8333 302.233 97.94ZM307.795 97.14C307.335 97.7933 306.685 98.12 305.845 98.12C305.005 98.12 304.352 97.7933 303.885 97.14C303.425 96.48 303.195 95.6 303.195 94.5C303.195 93.4 303.425 92.5233 303.885 91.87C304.352 91.21 305.005 90.88 305.845 90.88C306.685 90.88 307.335 91.21 307.795 91.87C308.262 92.5233 308.495 93.4 308.495 94.5C308.495 95.6 308.262 96.48 307.795 97.14ZM304.405 96.67C304.752 97.1833 305.232 97.44 305.845 97.44C306.459 97.44 306.935 97.1833 307.275 96.67C307.622 96.1567 307.795 95.4333 307.795 94.5C307.795 93.5667 307.622 92.8433 307.275 92.33C306.935 91.8167 306.459 91.56 305.845 91.56C305.232 91.56 304.752 91.8167 304.405 92.33C304.065 92.8433 303.895 93.5667 303.895 94.5C303.895 95.4333 304.065 96.1567 304.405 96.67ZM313.994 93.19C313.994 93.7167 313.851 94.1833 313.564 94.59L311.274 98H310.484L312.204 95.44C312.024 95.48 311.837 95.5 311.644 95.5C310.957 95.5 310.394 95.2867 309.954 94.86C309.514 94.4267 309.294 93.87 309.294 93.19C309.294 92.51 309.514 91.9567 309.954 91.53C310.394 91.0967 310.957 90.88 311.644 90.88C312.331 90.88 312.894 91.0967 313.334 91.53C313.774 91.9567 313.994 92.51 313.994 93.19ZM310.444 92.01C310.144 92.31 309.994 92.7033 309.994 93.19C309.994 93.6767 310.144 94.07 310.444 94.37C310.751 94.67 311.151 94.82 311.644 94.82C312.137 94.82 312.534 94.67 312.834 94.37C313.141 94.07 313.294 93.6767 313.294 93.19C313.294 92.7033 313.141 92.31 312.834 92.01C312.534 91.71 312.137 91.56 311.644 91.56C311.151 91.56 310.751 91.71 310.444 92.01Z" fill="black"/>
<rect x="280" y="29" width="13" height="54" rx="5" fill="#F91B6B"/>
<rect x="303" y="40" width="13" height="43" rx="5" fill="#7649F9"/>
<rect x="257" y="44" width="13" height="39" rx="5" fill="#1B81F9"/>
<path d="M15.4986 33.5C16.1853 33.5 16.7486 33.7167 17.1886 34.15C17.6286 34.5767 17.8486 35.13 17.8486 35.81C17.8486 36.49 17.6286 37.0467 17.1886 37.48C16.7486 37.9067 16.1853 38.12 15.4986 38.12C14.812 38.12 14.2486 37.9067 13.8086 37.48C13.3686 37.0467 13.1486 36.49 13.1486 35.81C13.1486 35.2833 13.292 34.8167 13.5786 34.41L15.8686 31H16.6586L14.9386 33.56C15.1186 33.52 15.3053 33.5 15.4986 33.5ZM14.2986 36.99C14.6053 37.29 15.0053 37.44 15.4986 37.44C15.992 37.44 16.3886 37.29 16.6886 36.99C16.9953 36.69 17.1486 36.2967 17.1486 35.81C17.1486 35.3233 16.9953 34.93 16.6886 34.63C16.3886 34.33 15.992 34.18 15.4986 34.18C15.0053 34.18 14.6053 34.33 14.2986 34.63C13.9986 34.93 13.8486 35.3233 13.8486 35.81C13.8486 36.2967 13.9986 36.69 14.2986 36.99Z" fill="#9D9D9D"/>
<path d="M29.5771 21H30.1771V28H29.4771V21.77L27.9071 22.24L27.7271 21.64L29.5771 21ZM31.1756 21H35.4756V21.66L32.8356 28H32.1056L34.7456 21.66H31.1756V21ZM40.7826 27.14C40.3226 27.7933 39.6726 28.12 38.8326 28.12C37.9926 28.12 37.3393 27.7933 36.8726 27.14C36.4126 26.48 36.1826 25.6 36.1826 24.5C36.1826 23.4 36.4126 22.5233 36.8726 21.87C37.3393 21.21 37.9926 20.88 38.8326 20.88C39.6726 20.88 40.3226 21.21 40.7826 21.87C41.2493 22.5233 41.4826 23.4 41.4826 24.5C41.4826 25.6 41.2493 26.48 40.7826 27.14ZM37.3926 26.67C37.7393 27.1833 38.2193 27.44 38.8326 27.44C39.446 27.44 39.9226 27.1833 40.2626 26.67C40.6093 26.1567 40.7826 25.4333 40.7826 24.5C40.7826 23.5667 40.6093 22.8433 40.2626 22.33C39.9226 21.8167 39.446 21.56 38.8326 21.56C38.2193 21.56 37.7393 21.8167 37.3926 22.33C37.0526 22.8433 36.8826 23.5667 36.8826 24.5C36.8826 25.4333 37.0526 26.1567 37.3926 26.67ZM49.2214 28H48.3414L45.8414 25.59V28H45.1814V21H45.8414V25.21L48.2214 23H49.1214L46.5414 25.4L49.2214 28Z" fill="#9D9D9D"/>
<path d="M50.4254 48V47.37L52.9454 44.83C53.6654 44.11 54.0254 43.4933 54.0254 42.98C54.0254 42.5333 53.8854 42.1867 53.6054 41.94C53.3321 41.6867 53.0021 41.56 52.6154 41.56C51.8954 41.56 51.3721 41.89 51.0454 42.55L50.4554 42.2C50.6754 41.7667 50.9754 41.44 51.3554 41.22C51.7354 40.9933 52.1554 40.88 52.6154 40.88C53.1754 40.88 53.6654 41.07 54.0854 41.45C54.5121 41.8233 54.7254 42.3333 54.7254 42.98C54.7254 43.3867 54.6121 43.7767 54.3854 44.15C54.1587 44.5233 53.8387 44.9167 53.4254 45.33L51.4254 47.32H54.8754V48H50.4254ZM57.2793 41H57.8793V48H57.1793V41.77L55.6093 42.24L55.4293 41.64L57.2793 41ZM60.2177 47.94C60.1111 48.0467 59.9811 48.1 59.8277 48.1C59.6744 48.1 59.5444 48.0467 59.4377 47.94C59.3311 47.8333 59.2777 47.7033 59.2777 47.55C59.2777 47.3967 59.3311 47.2667 59.4377 47.16C59.5444 47.0533 59.6744 47 59.8277 47C59.9811 47 60.1111 47.0533 60.2177 47.16C60.3244 47.2667 60.3777 47.3967 60.3777 47.55C60.3777 47.7033 60.3244 47.8333 60.2177 47.94ZM61.1824 41H65.4824V41.66L62.8424 48H62.1124L64.7524 41.66H61.1824V41ZM68.0148 43.88C67.5814 43.88 67.2181 43.7367 66.9248 43.45C66.6314 43.1567 66.4848 42.8 66.4848 42.38C66.4848 41.96 66.6314 41.6067 66.9248 41.32C67.2181 41.0267 67.5814 40.88 68.0148 40.88C68.4481 40.88 68.8114 41.0267 69.1048 41.32C69.3981 41.6067 69.5448 41.96 69.5448 42.38C69.5448 42.8 69.4014 43.1567 69.1148 43.45C68.8281 43.7367 68.4614 43.88 68.0148 43.88ZM67.3748 43.02C67.5414 43.1933 67.7548 43.28 68.0148 43.28C68.2748 43.28 68.4881 43.1933 68.6548 43.02C68.8214 42.8467 68.9048 42.6333 68.9048 42.38C68.9048 42.1267 68.8214 41.9133 68.6548 41.74C68.4881 41.5667 68.2748 41.48 68.0148 41.48C67.7548 41.48 67.5414 41.5667 67.3748 41.74C67.2081 41.9133 67.1248 42.1267 67.1248 42.38C67.1248 42.6333 67.2081 42.8467 67.3748 43.02ZM66.8348 47.05L71.5248 41.78L71.9548 42.02L67.2548 47.29L66.8348 47.05ZM71.9348 47.69C71.6414 47.9767 71.2781 48.12 70.8448 48.12C70.4114 48.12 70.0481 47.9767 69.7548 47.69C69.4614 47.3967 69.3148 47.04 69.3148 46.62C69.3148 46.2 69.4614 45.8467 69.7548 45.56C70.0481 45.2667 70.4114 45.12 70.8448 45.12C71.2781 45.12 71.6414 45.2667 71.9348 45.56C72.2281 45.8467 72.3748 46.2 72.3748 46.62C72.3748 47.04 72.2281 47.3967 71.9348 47.69ZM70.2048 47.26C70.3714 47.4333 70.5848 47.52 70.8448 47.52C71.1048 47.52 71.3181 47.4333 71.4848 47.26C71.6514 47.0867 71.7348 46.8733 71.7348 46.62C71.7348 46.3667 71.6514 46.1533 71.4848 45.98C71.3181 45.8067 71.1048 45.72 70.8448 45.72C70.5848 45.72 70.3714 45.8067 70.2048 45.98C70.0381 46.1533 69.9548 46.3667 69.9548 46.62C69.9548 46.8733 70.0381 47.0867 70.2048 47.26Z" fill="#9D9D9D"/>
<g filter="url(#filter2_d_1069_571)">
<rect x="74" y="87" width="14" height="70" rx="7" transform="rotate(90 74 87)" fill="white"/>
</g>
<path d="M18.9004 90H19.5004V97H18.8004V90.77L17.2304 91.24L17.0504 90.64L18.9004 90ZM21.8388 96.94C21.7322 97.0467 21.6022 97.1 21.4488 97.1C21.2955 97.1 21.1655 97.0467 21.0588 96.94C20.9522 96.8333 20.8988 96.7033 20.8988 96.55C20.8988 96.3967 20.9522 96.2667 21.0588 96.16C21.1655 96.0533 21.2955 96 21.4488 96C21.6022 96 21.7322 96.0533 21.8388 96.16C21.9455 96.2667 21.9988 96.3967 21.9988 96.55C21.9988 96.7033 21.9455 96.8333 21.8388 96.94ZM27.4008 96.14C26.9408 96.7933 26.2908 97.12 25.4508 97.12C24.6108 97.12 23.9574 96.7933 23.4908 96.14C23.0308 95.48 22.8008 94.6 22.8008 93.5C22.8008 92.4 23.0308 91.5233 23.4908 90.87C23.9574 90.21 24.6108 89.88 25.4508 89.88C26.2908 89.88 26.9408 90.21 27.4008 90.87C27.8674 91.5233 28.1008 92.4 28.1008 93.5C28.1008 94.6 27.8674 95.48 27.4008 96.14ZM24.0108 95.67C24.3574 96.1833 24.8374 96.44 25.4508 96.44C26.0641 96.44 26.5408 96.1833 26.8808 95.67C27.2274 95.1567 27.4008 94.4333 27.4008 93.5C27.4008 92.5667 27.2274 91.8433 26.8808 91.33C26.5408 90.8167 26.0641 90.56 25.4508 90.56C24.8374 90.56 24.3574 90.8167 24.0108 91.33C23.6708 91.8433 23.5008 92.5667 23.5008 93.5C23.5008 94.4333 23.6708 95.1567 24.0108 95.67ZM33.5996 92.19C33.5996 92.7167 33.4563 93.1833 33.1696 93.59L30.8796 97H30.0896L31.8096 94.44C31.6296 94.48 31.4429 94.5 31.2496 94.5C30.5629 94.5 29.9996 94.2867 29.5596 93.86C29.1196 93.4267 28.8996 92.87 28.8996 92.19C28.8996 91.51 29.1196 90.9567 29.5596 90.53C29.9996 90.0967 30.5629 89.88 31.2496 89.88C31.9363 89.88 32.4996 90.0967 32.9396 90.53C33.3796 90.9567 33.5996 91.51 33.5996 92.19ZM30.0496 91.01C29.7496 91.31 29.5996 91.7033 29.5996 92.19C29.5996 92.6767 29.7496 93.07 30.0496 93.37C30.3563 93.67 30.7563 93.82 31.2496 93.82C31.7429 93.82 32.1396 93.67 32.4396 93.37C32.7463 93.07 32.8996 92.6767 32.8996 92.19C32.8996 91.7033 32.7463 91.31 32.4396 91.01C32.1396 90.71 31.7429 90.56 31.2496 90.56C30.7563 90.56 30.3563 90.71 30.0496 91.01ZM37.2023 94.23V93.59H40.8023V94.23H37.2023ZM44.2977 90H48.5977V90.66L45.9577 97H45.2277L47.8677 90.66H44.2977V90ZM49.0361 96.94C48.9294 97.0467 48.7994 97.1 48.6461 97.1C48.4928 97.1 48.3628 97.0467 48.2561 96.94C48.1494 96.8333 48.0961 96.7033 48.0961 96.55C48.0961 96.3967 48.1494 96.2667 48.2561 96.16C48.3628 96.0533 48.4928 96 48.6461 96C48.7994 96 48.9294 96.0533 49.0361 96.16C49.1428 96.2667 49.1961 96.3967 49.1961 96.55C49.1961 96.7033 49.1428 96.8333 49.0361 96.94ZM54.598 96.14C54.138 96.7933 53.488 97.12 52.648 97.12C51.808 97.12 51.1547 96.7933 50.688 96.14C50.228 95.48 49.998 94.6 49.998 93.5C49.998 92.4 50.228 91.5233 50.688 90.87C51.1547 90.21 51.808 89.88 52.648 89.88C53.488 89.88 54.138 90.21 54.598 90.87C55.0647 91.5233 55.298 92.4 55.298 93.5C55.298 94.6 55.0647 95.48 54.598 96.14ZM51.208 95.67C51.5547 96.1833 52.0347 96.44 52.648 96.44C53.2614 96.44 53.738 96.1833 54.078 95.67C54.4247 95.1567 54.598 94.4333 54.598 93.5C54.598 92.5667 54.4247 91.8433 54.078 91.33C53.738 90.8167 53.2614 90.56 52.648 90.56C52.0347 90.56 51.5547 90.8167 51.208 91.33C50.868 91.8433 50.698 92.5667 50.698 93.5C50.698 94.4333 50.868 95.1567 51.208 95.67ZM60.7969 92.19C60.7969 92.7167 60.6535 93.1833 60.3669 93.59L58.0769 97H57.2869L59.0069 94.44C58.8269 94.48 58.6402 94.5 58.4469 94.5C57.7602 94.5 57.1969 94.2867 56.7569 93.86C56.3169 93.4267 56.0969 92.87 56.0969 92.19C56.0969 91.51 56.3169 90.9567 56.7569 90.53C57.1969 90.0967 57.7602 89.88 58.4469 89.88C59.1335 89.88 59.6969 90.0967 60.1369 90.53C60.5769 90.9567 60.7969 91.51 60.7969 92.19ZM57.2469 91.01C56.9469 91.31 56.7969 91.7033 56.7969 92.19C56.7969 92.6767 56.9469 93.07 57.2469 93.37C57.5535 93.67 57.9535 93.82 58.4469 93.82C58.9402 93.82 59.3369 93.67 59.6369 93.37C59.9435 93.07 60.0969 92.6767 60.0969 92.19C60.0969 91.7033 59.9435 91.31 59.6369 91.01C59.3369 90.71 58.9402 90.56 58.4469 90.56C57.9535 90.56 57.5535 90.71 57.2469 91.01Z" fill="black"/>
<rect x="32" y="31" width="13" height="52" rx="5" fill="#F91B6B"/>
<rect x="55" y="51" width="13" height="32" rx="5" fill="#7649F9"/>
<rect x="9" y="41" width="13" height="42" rx="5" fill="#1B81F9"/>
<path d="M96.4986 28.5C97.1853 28.5 97.7486 28.7167 98.1886 29.15C98.6286 29.5767 98.8486 30.13 98.8486 30.81C98.8486 31.49 98.6286 32.0467 98.1886 32.48C97.7486 32.9067 97.1853 33.12 96.4986 33.12C95.812 33.12 95.2486 32.9067 94.8086 32.48C94.3686 32.0467 94.1486 31.49 94.1486 30.81C94.1486 30.2833 94.292 29.8167 94.5786 29.41L96.8686 26H97.6586L95.9386 28.56C96.1186 28.52 96.3053 28.5 96.4986 28.5ZM95.2986 31.99C95.6053 32.29 96.0053 32.44 96.4986 32.44C96.992 32.44 97.3886 32.29 97.6886 31.99C97.9953 31.69 98.1486 31.2967 98.1486 30.81C98.1486 30.3233 97.9953 29.93 97.6886 29.63C97.3886 29.33 96.992 29.18 96.4986 29.18C96.0053 29.18 95.6053 29.33 95.2986 29.63C94.9986 29.93 94.8486 30.3233 94.8486 30.81C94.8486 31.2967 94.9986 31.69 95.2986 31.99Z" fill="#9D9D9D"/>
<path d="M110.704 11V10.37L113.224 7.83C113.944 7.11 114.304 6.49333 114.304 5.98C114.304 5.53333 114.164 5.18667 113.884 4.94C113.61 4.68667 113.28 4.56 112.894 4.56C112.174 4.56 111.65 4.89 111.324 5.55L110.734 5.2C110.954 4.76667 111.254 4.44 111.634 4.22C112.014 3.99333 112.434 3.88 112.894 3.88C113.454 3.88 113.944 4.07 114.364 4.45C114.79 4.82333 115.004 5.33333 115.004 5.98C115.004 6.38667 114.89 6.77667 114.664 7.15C114.437 7.52333 114.117 7.91667 113.704 8.33L111.704 10.32H115.154V11H110.704ZM117.558 4H118.158V11H117.458V4.77L115.888 5.24L115.708 4.64L117.558 4ZM124.056 10.14C123.596 10.7933 122.946 11.12 122.106 11.12C121.266 11.12 120.613 10.7933 120.146 10.14C119.686 9.48 119.456 8.6 119.456 7.5C119.456 6.4 119.686 5.52333 120.146 4.87C120.613 4.21 121.266 3.88 122.106 3.88C122.946 3.88 123.596 4.21 124.056 4.87C124.523 5.52333 124.756 6.4 124.756 7.5C124.756 8.6 124.523 9.48 124.056 10.14ZM120.666 9.67C121.013 10.1833 121.493 10.44 122.106 10.44C122.719 10.44 123.196 10.1833 123.536 9.67C123.883 9.15667 124.056 8.43333 124.056 7.5C124.056 6.56667 123.883 5.84333 123.536 5.33C123.196 4.81667 122.719 4.56 122.106 4.56C121.493 4.56 121.013 4.81667 120.666 5.33C120.326 5.84333 120.156 6.56667 120.156 7.5C120.156 8.43333 120.326 9.15667 120.666 9.67ZM132.495 11H131.615L129.115 8.59V11H128.455V4H129.115V8.21L131.495 6H132.395L129.815 8.4L132.495 11Z" fill="#9D9D9D"/>
<path d="M135.682 31.91C136.242 31.9833 136.702 32.2 137.062 32.56C137.429 32.9133 137.612 33.3833 137.612 33.97C137.612 34.6367 137.382 35.1633 136.922 35.55C136.469 35.93 135.915 36.12 135.262 36.12C134.742 36.12 134.279 36 133.872 35.76C133.465 35.52 133.179 35.1767 133.012 34.73L133.592 34.39C133.705 34.7367 133.909 35 134.202 35.18C134.495 35.3533 134.849 35.44 135.262 35.44C135.742 35.44 136.135 35.3133 136.442 35.06C136.755 34.8 136.912 34.4367 136.912 33.97C136.912 33.5033 136.755 33.1433 136.442 32.89C136.135 32.63 135.742 32.5 135.262 32.5V32.49L135.252 32.5H135.062L134.762 32.04L136.502 29.66H133.212V29H137.312V29.66L135.682 31.91ZM141.935 32.39C142.288 32.5567 142.568 32.79 142.775 33.09C142.988 33.3833 143.095 33.72 143.095 34.1C143.095 34.7333 142.871 35.23 142.425 35.59C141.978 35.9433 141.421 36.12 140.755 36.12C140.088 36.12 139.531 35.9433 139.085 35.59C138.638 35.23 138.415 34.7333 138.415 34.1C138.415 33.72 138.518 33.3833 138.725 33.09C138.938 32.79 139.221 32.5567 139.575 32.39C138.955 32.0367 138.645 31.5133 138.645 30.82C138.645 30.1933 138.851 29.7133 139.265 29.38C139.685 29.0467 140.181 28.88 140.755 28.88C141.328 28.88 141.821 29.0467 142.235 29.38C142.655 29.7133 142.865 30.1933 142.865 30.82C142.865 31.5133 142.555 32.0367 141.935 32.39ZM141.755 29.87C141.488 29.6633 141.155 29.56 140.755 29.56C140.355 29.56 140.018 29.6633 139.745 29.87C139.478 30.0767 139.345 30.3933 139.345 30.82C139.345 31.22 139.481 31.53 139.755 31.75C140.035 31.97 140.368 32.08 140.755 32.08C141.141 32.08 141.471 31.97 141.745 31.75C142.025 31.53 142.165 31.22 142.165 30.82C142.165 30.3933 142.028 30.0767 141.755 29.87ZM139.565 35.1C139.865 35.3267 140.261 35.44 140.755 35.44C141.248 35.44 141.645 35.3267 141.945 35.1C142.245 34.8667 142.395 34.5333 142.395 34.1C142.395 33.6667 142.245 33.3367 141.945 33.11C141.645 32.8767 141.248 32.76 140.755 32.76C140.261 32.76 139.865 32.8767 139.565 33.11C139.265 33.3367 139.115 33.6667 139.115 34.1C139.115 34.5333 139.265 34.8667 139.565 35.1ZM145.293 35.15L144.693 37.4H144.093L144.493 35.15H145.293ZM151.446 33.94V34.6H150.546V36H149.846V34.6H146.146V33.94L148.746 29H149.516L146.916 33.94H149.846V31.8H150.546V33.94H151.446ZM153.328 31.88C152.895 31.88 152.532 31.7367 152.238 31.45C151.945 31.1567 151.798 30.8 151.798 30.38C151.798 29.96 151.945 29.6067 152.238 29.32C152.532 29.0267 152.895 28.88 153.328 28.88C153.762 28.88 154.125 29.0267 154.418 29.32C154.712 29.6067 154.858 29.96 154.858 30.38C154.858 30.8 154.715 31.1567 154.428 31.45C154.142 31.7367 153.775 31.88 153.328 31.88ZM152.688 31.02C152.855 31.1933 153.068 31.28 153.328 31.28C153.588 31.28 153.802 31.1933 153.968 31.02C154.135 30.8467 154.218 30.6333 154.218 30.38C154.218 30.1267 154.135 29.9133 153.968 29.74C153.802 29.5667 153.588 29.48 153.328 29.48C153.068 29.48 152.855 29.5667 152.688 29.74C152.522 29.9133 152.438 30.1267 152.438 30.38C152.438 30.6333 152.522 30.8467 152.688 31.02ZM152.148 35.05L156.838 29.78L157.268 30.02L152.568 35.29L152.148 35.05ZM157.248 35.69C156.955 35.9767 156.592 36.12 156.158 36.12C155.725 36.12 155.362 35.9767 155.068 35.69C154.775 35.3967 154.628 35.04 154.628 34.62C154.628 34.2 154.775 33.8467 155.068 33.56C155.362 33.2667 155.725 33.12 156.158 33.12C156.592 33.12 156.955 33.2667 157.248 33.56C157.542 33.8467 157.688 34.2 157.688 34.62C157.688 35.04 157.542 35.3967 157.248 35.69ZM155.518 35.26C155.685 35.4333 155.898 35.52 156.158 35.52C156.418 35.52 156.632 35.4333 156.798 35.26C156.965 35.0867 157.048 34.8733 157.048 34.62C157.048 34.3667 156.965 34.1533 156.798 33.98C156.632 33.8067 156.418 33.72 156.158 33.72C155.898 33.72 155.685 33.8067 155.518 33.98C155.352 34.1533 155.268 34.3667 155.268 34.62C155.268 34.8733 155.352 35.0867 155.518 35.26Z" fill="#9D9D9D"/>
<g filter="url(#filter3_d_1069_571)">
<rect x="156" y="87" width="14" height="70" rx="7" transform="rotate(90 156 87)" fill="white"/>
</g>
<path d="M98.88 94.39C99.2333 94.5567 99.5133 94.79 99.72 95.09C99.9333 95.3833 100.04 95.72 100.04 96.1C100.04 96.7333 99.8166 97.23 99.37 97.59C98.9233 97.9433 98.3666 98.12 97.7 98.12C97.0333 98.12 96.4766 97.9433 96.03 97.59C95.5833 97.23 95.36 96.7333 95.36 96.1C95.36 95.72 95.4633 95.3833 95.67 95.09C95.8833 94.79 96.1666 94.5567 96.52 94.39C95.9 94.0367 95.59 93.5133 95.59 92.82C95.59 92.1933 95.7966 91.7133 96.21 91.38C96.63 91.0467 97.1266 90.88 97.7 90.88C98.2733 90.88 98.7666 91.0467 99.18 91.38C99.6 91.7133 99.81 92.1933 99.81 92.82C99.81 93.5133 99.5 94.0367 98.88 94.39ZM98.7 91.87C98.4333 91.6633 98.1 91.56 97.7 91.56C97.3 91.56 96.9633 91.6633 96.69 91.87C96.4233 92.0767 96.29 92.3933 96.29 92.82C96.29 93.22 96.4266 93.53 96.7 93.75C96.98 93.97 97.3133 94.08 97.7 94.08C98.0866 94.08 98.4166 93.97 98.69 93.75C98.97 93.53 99.11 93.22 99.11 92.82C99.11 92.3933 98.9733 92.0767 98.7 91.87ZM96.51 97.1C96.81 97.3267 97.2066 97.44 97.7 97.44C98.1933 97.44 98.59 97.3267 98.89 97.1C99.19 96.8667 99.34 96.5333 99.34 96.1C99.34 95.6667 99.19 95.3367 98.89 95.11C98.59 94.8767 98.1933 94.76 97.7 94.76C97.2066 94.76 96.81 94.8767 96.51 95.11C96.21 95.3367 96.06 95.6667 96.06 96.1C96.06 96.5333 96.21 96.8667 96.51 97.1ZM101.978 97.94C101.872 98.0467 101.742 98.1 101.588 98.1C101.435 98.1 101.305 98.0467 101.198 97.94C101.092 97.8333 101.038 97.7033 101.038 97.55C101.038 97.3967 101.092 97.2667 101.198 97.16C101.305 97.0533 101.435 97 101.588 97C101.742 97 101.872 97.0533 101.978 97.16C102.085 97.2667 102.138 97.3967 102.138 97.55C102.138 97.7033 102.085 97.8333 101.978 97.94ZM107.54 97.14C107.08 97.7933 106.43 98.12 105.59 98.12C104.75 98.12 104.097 97.7933 103.63 97.14C103.17 96.48 102.94 95.6 102.94 94.5C102.94 93.4 103.17 92.5233 103.63 91.87C104.097 91.21 104.75 90.88 105.59 90.88C106.43 90.88 107.08 91.21 107.54 91.87C108.007 92.5233 108.24 93.4 108.24 94.5C108.24 95.6 108.007 96.48 107.54 97.14ZM104.15 96.67C104.497 97.1833 104.977 97.44 105.59 97.44C106.204 97.44 106.68 97.1833 107.02 96.67C107.367 96.1567 107.54 95.4333 107.54 94.5C107.54 93.5667 107.367 92.8433 107.02 92.33C106.68 91.8167 106.204 91.56 105.59 91.56C104.977 91.56 104.497 91.8167 104.15 92.33C103.81 92.8433 103.64 93.5667 103.64 94.5C103.64 95.4333 103.81 96.1567 104.15 96.67ZM113.739 93.19C113.739 93.7167 113.596 94.1833 113.309 94.59L111.019 98H110.229L111.949 95.44C111.769 95.48 111.583 95.5 111.389 95.5C110.703 95.5 110.139 95.2867 109.699 94.86C109.259 94.4267 109.039 93.87 109.039 93.19C109.039 92.51 109.259 91.9567 109.699 91.53C110.139 91.0967 110.703 90.88 111.389 90.88C112.076 90.88 112.639 91.0967 113.079 91.53C113.519 91.9567 113.739 92.51 113.739 93.19ZM110.189 92.01C109.889 92.31 109.739 92.7033 109.739 93.19C109.739 93.6767 109.889 94.07 110.189 94.37C110.496 94.67 110.896 94.82 111.389 94.82C111.883 94.82 112.279 94.67 112.579 94.37C112.886 94.07 113.039 93.6767 113.039 93.19C113.039 92.7033 112.886 92.31 112.579 92.01C112.279 91.71 111.883 91.56 111.389 91.56C110.896 91.56 110.496 91.71 110.189 92.01ZM117.342 95.23V94.59H120.942V95.23H117.342ZM126.237 91H126.837V98H126.137V91.77L124.567 92.24L124.387 91.64L126.237 91ZM133.186 95.94V96.6H132.286V98H131.586V96.6H127.886V95.94L130.486 91H131.256L128.656 95.94H131.586V93.8H132.286V95.94H133.186ZM134.977 97.94C134.87 98.0467 134.74 98.1 134.587 98.1C134.433 98.1 134.303 98.0467 134.197 97.94C134.09 97.8333 134.037 97.7033 134.037 97.55C134.037 97.3967 134.09 97.2667 134.197 97.16C134.303 97.0533 134.433 97 134.587 97C134.74 97 134.87 97.0533 134.977 97.16C135.083 97.2667 135.137 97.3967 135.137 97.55C135.137 97.7033 135.083 97.8333 134.977 97.94ZM140.538 97.14C140.078 97.7933 139.428 98.12 138.588 98.12C137.748 98.12 137.095 97.7933 136.628 97.14C136.168 96.48 135.938 95.6 135.938 94.5C135.938 93.4 136.168 92.5233 136.628 91.87C137.095 91.21 137.748 90.88 138.588 90.88C139.428 90.88 140.078 91.21 140.538 91.87C141.005 92.5233 141.238 93.4 141.238 94.5C141.238 95.6 141.005 96.48 140.538 97.14ZM137.148 96.67C137.495 97.1833 137.975 97.44 138.588 97.44C139.202 97.44 139.678 97.1833 140.018 96.67C140.365 96.1567 140.538 95.4333 140.538 94.5C140.538 93.5667 140.365 92.8433 140.018 92.33C139.678 91.8167 139.202 91.56 138.588 91.56C137.975 91.56 137.495 91.8167 137.148 92.33C136.808 92.8433 136.638 93.5667 136.638 94.5C136.638 95.4333 136.808 96.1567 137.148 96.67ZM146.737 93.19C146.737 93.7167 146.594 94.1833 146.307 94.59L144.017 98H143.227L144.947 95.44C144.767 95.48 144.581 95.5 144.387 95.5C143.701 95.5 143.137 95.2867 142.697 94.86C142.257 94.4267 142.037 93.87 142.037 93.19C142.037 92.51 142.257 91.9567 142.697 91.53C143.137 91.0967 143.701 90.88 144.387 90.88C145.074 90.88 145.637 91.0967 146.077 91.53C146.517 91.9567 146.737 92.51 146.737 93.19ZM143.187 92.01C142.887 92.31 142.737 92.7033 142.737 93.19C142.737 93.6767 142.887 94.07 143.187 94.37C143.494 94.67 143.894 94.82 144.387 94.82C144.881 94.82 145.277 94.67 145.577 94.37C145.884 94.07 146.037 93.6767 146.037 93.19C146.037 92.7033 145.884 92.31 145.577 92.01C145.277 91.71 144.881 91.56 144.387 91.56C143.894 91.56 143.494 91.71 143.187 92.01Z" fill="black"/>
<rect x="115" y="14" width="13" height="69" rx="5" fill="#F91B6B"/>
<rect x="138" y="39" width="13" height="44" rx="5" fill="#7649F9"/>
<rect x="92" y="41" width="13" height="42" rx="5" fill="#1B81F9"/>
<defs>
<filter id="filter0_d_1069_571" x="166.75" y="83.75" width="76.5001" height="20.5001" filterUnits="userSpaceOnUse" color-interpolation-filters="sRGB">
<feFlood flood-opacity="0" result="BackgroundImageFix"/>
<feColorMatrix in="SourceAlpha" type="matrix" values="0 0 0 0 0 0 0 0 0 0 0 0 0 0 0 0 0 0 127 0" result="hardAlpha"/>
<feOffset/>
<feGaussianBlur stdDeviation="1.62502"/>
<feComposite in2="hardAlpha" operator="out"/>
<feColorMatrix type="matrix" values="0 0 0 0 0 0 0 0 0 0 0 0 0 0 0 0 0 0 0.1 0"/>
<feBlend mode="normal" in2="BackgroundImageFix" result="effect1_dropShadow_1069_571"/>
<feBlend mode="normal" in="SourceGraphic" in2="effect1_dropShadow_1069_571" result="shape"/>
</filter>
<filter id="filter1_d_1069_571" x="246.75" y="83.75" width="76.5001" height="20.5001" filterUnits="userSpaceOnUse" color-interpolation-filters="sRGB">
<feFlood flood-opacity="0" result="BackgroundImageFix"/>
<feColorMatrix in="SourceAlpha" type="matrix" values="0 0 0 0 0 0 0 0 0 0 0 0 0 0 0 0 0 0 127 0" result="hardAlpha"/>
<feOffset/>
<feGaussianBlur stdDeviation="1.62502"/>
<feComposite in2="hardAlpha" operator="out"/>
<feColorMatrix type="matrix" values="0 0 0 0 0 0 0 0 0 0 0 0 0 0 0 0 0 0 0.1 0"/>
<feBlend mode="normal" in2="BackgroundImageFix" result="effect1_dropShadow_1069_571"/>
<feBlend mode="normal" in="SourceGraphic" in2="effect1_dropShadow_1069_571" result="shape"/>
</filter>
<filter id="filter2_d_1069_571" x="0.749962" y="83.75" width="76.5001" height="20.5001" filterUnits="userSpaceOnUse" color-interpolation-filters="sRGB">
<feFlood flood-opacity="0" result="BackgroundImageFix"/>
<feColorMatrix in="SourceAlpha" type="matrix" values="0 0 0 0 0 0 0 0 0 0 0 0 0 0 0 0 0 0 127 0" result="hardAlpha"/>
<feOffset/>
<feGaussianBlur stdDeviation="1.62502"/>
<feComposite in2="hardAlpha" operator="out"/>
<feColorMatrix type="matrix" values="0 0 0 0 0 0 0 0 0 0 0 0 0 0 0 0 0 0 0.1 0"/>
<feBlend mode="normal" in2="BackgroundImageFix" result="effect1_dropShadow_1069_571"/>
<feBlend mode="normal" in="SourceGraphic" in2="effect1_dropShadow_1069_571" result="shape"/>
</filter>
<filter id="filter3_d_1069_571" x="82.75" y="83.75" width="76.5001" height="20.5001" filterUnits="userSpaceOnUse" color-interpolation-filters="sRGB">
<feFlood flood-opacity="0" result="BackgroundImageFix"/>
<feColorMatrix in="SourceAlpha" type="matrix" values="0 0 0 0 0 0 0 0 0 0 0 0 0 0 0 0 0 0 127 0" result="hardAlpha"/>
<feOffset/>
<feGaussianBlur stdDeviation="1.62502"/>
<feComposite in2="hardAlpha" operator="out"/>
<feColorMatrix type="matrix" values="0 0 0 0 0 0 0 0 0 0 0 0 0 0 0 0 0 0 0.1 0"/>
<feBlend mode="normal" in2="BackgroundImageFix" result="effect1_dropShadow_1069_571"/>
<feBlend mode="normal" in="SourceGraphic" in2="effect1_dropShadow_1069_571" result="shape"/>
</filter>
</defs>
</svg>
